<svg width="1280" height="426" viewBox="0 0 1280 426" fill="none" xmlns="http://www.w3.org/2000/svg">
<path d="M894.929 365.192C893.948 365.192 893.094 364.979 892.369 364.552C891.654 364.125 891.1 363.491 890.705 362.648C890.31 361.795 890.113 360.744 890.113 359.496C890.113 358.237 890.31 357.176 890.705 356.312C891.1 355.437 891.654 354.776 892.369 354.328C893.094 353.869 893.948 353.64 894.929 353.64C895.921 353.64 896.748 353.853 897.409 354.28C898.081 354.707 898.614 355.352 899.009 356.216L897.201 357.176C897.041 356.675 896.78 356.275 896.417 355.976C896.054 355.667 895.558 355.512 894.929 355.512C894.14 355.512 893.51 355.779 893.041 356.312C892.582 356.845 892.353 357.592 892.353 358.552V360.312C892.353 361.261 892.582 362.003 893.041 362.536C893.51 363.059 894.14 363.32 894.929 363.32C895.558 363.32 896.07 363.149 896.465 362.808C896.86 362.467 897.153 362.045 897.345 361.544L899.057 362.552C898.662 363.384 898.124 364.035 897.441 364.504C896.758 364.963 895.921 365.192 894.929 365.192ZM907.691 365H906.555C906.245 365 905.968 364.931 905.723 364.792C905.488 364.643 905.301 364.429 905.163 364.152C905.035 363.875 904.971 363.549 904.971 363.176V363L905.483 363.56H904.907C904.768 364.093 904.48 364.499 904.043 364.776C903.616 365.053 903.093 365.192 902.475 365.192C901.621 365.192 900.965 364.968 900.507 364.52C900.048 364.061 899.819 363.464 899.819 362.728C899.819 362.152 899.957 361.677 900.235 361.304C900.523 360.931 900.933 360.648 901.467 360.456C902 360.264 902.64 360.168 903.387 360.168H904.811V359.56C904.811 359.101 904.688 358.744 904.443 358.488C904.197 358.221 903.803 358.088 903.259 358.088C902.779 358.088 902.389 358.195 902.091 358.408C901.803 358.611 901.557 358.856 901.355 359.144L900.139 358.056C900.448 357.576 900.859 357.192 901.371 356.904C901.883 356.605 902.56 356.456 903.403 356.456C904.523 356.456 905.376 356.717 905.963 357.24C906.56 357.752 906.859 358.483 906.859 359.432V363.368H907.691V365ZM904.811 361.4H903.499C902.965 361.4 902.565 361.491 902.299 361.672C902.032 361.843 901.899 362.093 901.899 362.424V362.696C901.899 363.027 902.011 363.277 902.235 363.448C902.459 363.619 902.768 363.704 903.163 363.704C903.472 363.704 903.749 363.661 903.995 363.576C904.24 363.48 904.437 363.341 904.587 363.16C904.736 362.979 904.811 362.76 904.811 362.504V361.4ZM911.076 365H909.028V356.648H911.076V358.04H911.156C911.327 357.592 911.593 357.219 911.956 356.92C912.329 356.611 912.841 356.456 913.492 356.456C914.345 356.456 915.001 356.744 915.46 357.32C915.929 357.885 916.164 358.685 916.164 359.72V365H914.116V359.928C914.116 359.341 914.009 358.899 913.796 358.6C913.583 358.291 913.231 358.136 912.74 358.136C912.463 358.136 912.196 358.189 911.94 358.296C911.684 358.392 911.476 358.541 911.316 358.744C911.156 358.936 911.076 359.181 911.076 359.48V365ZM922.194 365H920.722C920.018 365 919.48 364.819 919.106 364.456C918.744 364.083 918.562 363.555 918.562 362.872V358.264H917.33V356.648H917.97C918.28 356.648 918.488 356.579 918.594 356.44C918.712 356.291 918.77 356.072 918.77 355.784V354.36H920.61V356.648H922.322V358.264H920.61V363.368H922.194V365ZM924.803 355.432C924.387 355.432 924.083 355.336 923.891 355.144C923.699 354.941 923.603 354.696 923.603 354.408V354.088C923.603 353.789 923.699 353.544 923.891 353.352C924.083 353.16 924.387 353.064 924.803 353.064C925.219 353.064 925.523 353.16 925.715 353.352C925.907 353.544 926.003 353.789 926.003 354.088V354.408C926.003 354.696 925.907 354.941 925.715 355.144C925.523 355.336 925.219 355.432 924.803 355.432ZM923.779 365V356.648H925.827V365H923.779ZM933.049 365V363.608H932.969C932.82 364.088 932.537 364.472 932.121 364.76C931.705 365.048 931.22 365.192 930.665 365.192C929.972 365.192 929.38 365.021 928.889 364.68C928.409 364.339 928.041 363.843 927.785 363.192C927.529 362.531 927.401 361.736 927.401 360.808C927.401 359.88 927.529 359.096 927.785 358.456C928.041 357.805 928.409 357.309 928.889 356.968C929.38 356.627 929.972 356.456 930.665 356.456C931.22 356.456 931.705 356.6 932.121 356.888C932.548 357.165 932.83 357.544 932.969 358.024H933.049V353.16H935.097V365H933.049ZM931.321 363.496C931.652 363.496 931.945 363.443 932.201 363.336C932.468 363.229 932.676 363.075 932.825 362.872C932.974 362.669 933.049 362.424 933.049 362.136V359.48C933.049 359.213 932.974 358.979 932.825 358.776C932.676 358.573 932.468 358.419 932.201 358.312C931.945 358.195 931.652 358.136 931.321 358.136C930.798 358.136 930.372 358.317 930.041 358.68C929.71 359.032 929.545 359.507 929.545 360.104V361.544C929.545 362.131 929.71 362.605 930.041 362.968C930.372 363.32 930.798 363.496 931.321 363.496ZM944.419 365H943.283C942.973 365 942.696 364.931 942.451 364.792C942.216 364.643 942.029 364.429 941.891 364.152C941.763 363.875 941.699 363.549 941.699 363.176V363L942.211 363.56H941.635C941.496 364.093 941.208 364.499 940.771 364.776C940.344 365.053 939.821 365.192 939.203 365.192C938.349 365.192 937.693 364.968 937.235 364.52C936.776 364.061 936.547 363.464 936.547 362.728C936.547 362.152 936.685 361.677 936.963 361.304C937.251 360.931 937.661 360.648 938.195 360.456C938.728 360.264 939.368 360.168 940.115 360.168H941.539V359.56C941.539 359.101 941.416 358.744 941.171 358.488C940.925 358.221 940.531 358.088 939.987 358.088C939.507 358.088 939.117 358.195 938.819 358.408C938.531 358.611 938.285 358.856 938.083 359.144L936.867 358.056C937.176 357.576 937.587 357.192 938.099 356.904C938.611 356.605 939.288 356.456 940.131 356.456C941.251 356.456 942.104 356.717 942.691 357.24C943.288 357.752 943.587 358.483 943.587 359.432V363.368H944.419V365ZM941.539 361.4H940.227C939.693 361.4 939.293 361.491 939.027 361.672C938.76 361.843 938.627 362.093 938.627 362.424V362.696C938.627 363.027 938.739 363.277 938.963 363.448C939.187 363.619 939.496 363.704 939.891 363.704C940.2 363.704 940.477 363.661 940.723 363.576C940.968 363.48 941.165 363.341 941.315 363.16C941.464 362.979 941.539 362.76 941.539 362.504V361.4ZM950.94 365V363.608H950.86C950.711 364.088 950.428 364.472 950.012 364.76C949.596 365.048 949.111 365.192 948.556 365.192C947.863 365.192 947.271 365.021 946.78 364.68C946.3 364.339 945.932 363.843 945.676 363.192C945.42 362.531 945.292 361.736 945.292 360.808C945.292 359.88 945.42 359.096 945.676 358.456C945.932 357.805 946.3 357.309 946.78 356.968C947.271 356.627 947.863 356.456 948.556 356.456C949.111 356.456 949.596 356.6 950.012 356.888C950.439 357.165 950.722 357.544 950.86 358.024H950.94V353.16H952.988V365H950.94ZM949.212 363.496C949.543 363.496 949.836 363.443 950.092 363.336C950.359 363.229 950.567 363.075 950.716 362.872C950.866 362.669 950.94 362.424 950.94 362.136V359.48C950.94 359.213 950.866 358.979 950.716 358.776C950.567 358.573 950.359 358.419 950.092 358.312C949.836 358.195 949.543 358.136 949.212 358.136C948.69 358.136 948.263 358.317 947.932 358.68C947.602 359.032 947.436 359.507 947.436 360.104V361.544C947.436 362.131 947.602 362.605 947.932 362.968C948.263 363.32 948.69 363.496 949.212 363.496ZM963.675 365V363.608H963.595C963.446 364.088 963.163 364.472 962.747 364.76C962.331 365.048 961.846 365.192 961.291 365.192C960.598 365.192 960.006 365.021 959.515 364.68C959.035 364.339 958.667 363.843 958.411 363.192C958.155 362.531 958.027 361.736 958.027 360.808C958.027 359.88 958.155 359.096 958.411 358.456C958.667 357.805 959.035 357.309 959.515 356.968C960.006 356.627 960.598 356.456 961.291 356.456C961.846 356.456 962.331 356.6 962.747 356.888C963.174 357.165 963.457 357.544 963.595 358.024H963.675V353.16H965.723V365H963.675ZM961.947 363.496C962.278 363.496 962.571 363.443 962.827 363.336C963.094 363.229 963.302 363.075 963.451 362.872C963.601 362.669 963.675 362.424 963.675 362.136V359.48C963.675 359.213 963.601 358.979 963.451 358.776C963.302 358.573 963.094 358.419 962.827 358.312C962.571 358.195 962.278 358.136 961.947 358.136C961.425 358.136 960.998 358.317 960.667 358.68C960.337 359.032 960.171 359.507 960.171 360.104V361.544C960.171 362.131 960.337 362.605 960.667 362.968C960.998 363.32 961.425 363.496 961.947 363.496ZM971.141 365.192C970.32 365.192 969.616 365.016 969.029 364.664C968.442 364.301 967.989 363.795 967.669 363.144C967.36 362.483 967.205 361.704 967.205 360.808C967.205 359.933 967.36 359.171 967.669 358.52C967.978 357.859 968.421 357.352 968.997 357C969.573 356.637 970.266 356.456 971.077 356.456C971.952 356.456 972.666 356.648 973.221 357.032C973.786 357.416 974.202 357.928 974.469 358.568C974.746 359.197 974.885 359.896 974.885 360.664V361.336H969.333V361.544C969.333 362.141 969.504 362.627 969.845 363C970.186 363.373 970.693 363.56 971.365 363.56C971.866 363.56 972.282 363.453 972.613 363.24C972.944 363.016 973.237 362.744 973.493 362.424L974.597 363.656C974.256 364.115 973.786 364.488 973.189 364.776C972.602 365.053 971.92 365.192 971.141 365.192ZM971.109 357.992C970.746 357.992 970.432 358.077 970.165 358.248C969.898 358.408 969.69 358.637 969.541 358.936C969.402 359.224 969.333 359.56 969.333 359.944V360.072H972.757V359.928C972.757 359.533 972.693 359.197 972.565 358.92C972.437 358.632 972.25 358.408 972.005 358.248C971.76 358.077 971.461 357.992 971.109 357.992ZM980.244 365V358.264H979.012V356.648H980.244V355.448C980.244 354.712 980.441 354.147 980.836 353.752C981.231 353.357 981.801 353.16 982.548 353.16H984.004V354.792H982.292V356.648H984.004V358.264H982.292V365H980.244ZM988.351 365.192C987.562 365.192 986.874 365.016 986.287 364.664C985.711 364.301 985.263 363.795 984.943 363.144C984.634 362.483 984.479 361.704 984.479 360.808C984.479 359.912 984.634 359.144 984.943 358.504C985.263 357.853 985.711 357.352 986.287 357C986.874 356.637 987.562 356.456 988.351 356.456C989.151 356.456 989.839 356.637 990.415 357C991.002 357.352 991.45 357.853 991.759 358.504C992.079 359.144 992.239 359.912 992.239 360.808C992.239 361.704 992.079 362.483 991.759 363.144C991.45 363.795 991.002 364.301 990.415 364.664C989.839 365.016 989.151 365.192 988.351 365.192ZM988.351 363.544C988.895 363.544 989.322 363.379 989.631 363.048C989.941 362.707 990.095 362.221 990.095 361.592V360.04C990.095 359.411 989.941 358.931 989.631 358.6C989.322 358.269 988.895 358.104 988.351 358.104C987.829 358.104 987.407 358.269 987.087 358.6C986.778 358.931 986.623 359.411 986.623 360.04V361.592C986.623 362.221 986.778 362.707 987.087 363.048C987.407 363.379 987.829 363.544 988.351 363.544ZM997.752 365H996.28C995.576 365 995.038 364.819 994.664 364.456C994.302 364.083 994.12 363.555 994.12 362.872V358.264H992.888V356.648H993.528C993.838 356.648 994.046 356.579 994.152 356.44C994.27 356.291 994.328 356.072 994.328 355.784V354.36H996.168V356.648H997.88V358.264H996.168V363.368H997.752V365ZM1002.59 365.192C1001.8 365.192 1001.11 365.016 1000.52 364.664C999.946 364.301 999.498 363.795 999.178 363.144C998.869 362.483 998.714 361.704 998.714 360.808C998.714 359.912 998.869 359.144 999.178 358.504C999.498 357.853 999.946 357.352 1000.52 357C1001.11 356.637 1001.8 356.456 1002.59 356.456C1003.39 356.456 1004.07 356.637 1004.65 357C1005.24 357.352 1005.68 357.853 1005.99 358.504C1006.31 359.144 1006.47 359.912 1006.47 360.808C1006.47 361.704 1006.31 362.483 1005.99 363.144C1005.68 363.795 1005.24 364.301 1004.65 364.664C1004.07 365.016 1003.39 365.192 1002.59 365.192ZM1002.59 363.544C1003.13 363.544 1003.56 363.379 1003.87 363.048C1004.18 362.707 1004.33 362.221 1004.33 361.592V360.04C1004.33 359.411 1004.18 358.931 1003.87 358.6C1003.56 358.269 1003.13 358.104 1002.59 358.104C1002.06 358.104 1001.64 358.269 1001.32 358.6C1001.01 358.931 1000.86 359.411 1000.86 360.04V361.592C1000.86 362.221 1001.01 362.707 1001.32 363.048C1001.64 363.379 1002.06 363.544 1002.59 363.544ZM1010.71 365.192C1009.91 365.192 1009.23 365.059 1008.69 364.792C1008.15 364.515 1007.67 364.136 1007.25 363.656L1008.5 362.44C1008.81 362.792 1009.14 363.069 1009.51 363.272C1009.88 363.475 1010.31 363.576 1010.79 363.576C1011.28 363.576 1011.63 363.491 1011.84 363.32C1012.07 363.149 1012.18 362.915 1012.18 362.616C1012.18 362.371 1012.1 362.179 1011.94 362.04C1011.79 361.891 1011.53 361.789 1011.15 361.736L1010.32 361.624C1009.72 361.549 1009.22 361.411 1008.8 361.208C1008.39 361.005 1008.07 360.728 1007.86 360.376C1007.64 360.024 1007.54 359.597 1007.54 359.096C1007.54 358.285 1007.83 357.645 1008.4 357.176C1008.99 356.696 1009.76 356.456 1010.71 356.456C1011.25 356.456 1011.71 356.509 1012.1 356.616C1012.49 356.712 1012.84 356.861 1013.14 357.064C1013.44 357.256 1013.71 357.491 1013.97 357.768L1012.77 358.968C1012.52 358.712 1012.23 358.499 1011.89 358.328C1011.55 358.157 1011.18 358.072 1010.77 358.072C1010.34 358.072 1010.02 358.152 1009.81 358.312C1009.61 358.461 1009.51 358.669 1009.51 358.936C1009.51 359.213 1009.59 359.427 1009.75 359.576C1009.92 359.715 1010.2 359.816 1010.59 359.88L1011.44 359.992C1012.36 360.12 1013.04 360.392 1013.47 360.808C1013.92 361.213 1014.15 361.763 1014.15 362.456C1014.15 362.989 1014 363.464 1013.71 363.88C1013.44 364.296 1013.04 364.621 1012.51 364.856C1012 365.08 1011.4 365.192 1010.71 365.192ZM1024.28 368.2V363.608H1024.2C1024.05 364.088 1023.77 364.472 1023.35 364.76C1022.94 365.048 1022.45 365.192 1021.9 365.192C1021.2 365.192 1020.61 365.021 1020.12 364.68C1019.64 364.339 1019.27 363.843 1019.02 363.192C1018.76 362.531 1018.63 361.736 1018.63 360.808C1018.63 359.88 1018.76 359.096 1019.02 358.456C1019.27 357.805 1019.64 357.309 1020.12 356.968C1020.61 356.627 1021.2 356.456 1021.9 356.456C1022.45 356.456 1022.94 356.6 1023.35 356.888C1023.78 357.165 1024.06 357.544 1024.2 358.024H1024.28V356.648H1026.33V368.2H1024.28ZM1022.55 363.496C1022.88 363.496 1023.18 363.443 1023.43 363.336C1023.7 363.229 1023.91 363.075 1024.06 362.872C1024.2 362.669 1024.28 362.424 1024.28 362.136V359.48C1024.28 359.213 1024.2 358.979 1024.06 358.776C1023.91 358.573 1023.7 358.419 1023.43 358.312C1023.18 358.195 1022.88 358.136 1022.55 358.136C1022.03 358.136 1021.6 358.317 1021.27 358.68C1020.94 359.032 1020.78 359.507 1020.78 360.104V361.544C1020.78 362.131 1020.94 362.605 1021.27 362.968C1021.6 363.32 1022.03 363.496 1022.55 363.496ZM1033.36 365V363.608H1033.28C1033.14 364.024 1032.89 364.392 1032.53 364.712C1032.17 365.032 1031.64 365.192 1030.95 365.192C1030.09 365.192 1029.43 364.909 1028.96 364.344C1028.5 363.768 1028.27 362.963 1028.27 361.928V356.648H1030.32V361.72C1030.32 362.296 1030.43 362.739 1030.66 363.048C1030.88 363.347 1031.24 363.496 1031.73 363.496C1032 363.496 1032.25 363.448 1032.5 363.352C1032.75 363.256 1032.96 363.112 1033.12 362.92C1033.28 362.717 1033.36 362.467 1033.36 362.168V356.648H1035.41V365H1033.36ZM1040.83 365.192C1040.01 365.192 1039.31 365.016 1038.72 364.664C1038.13 364.301 1037.68 363.795 1037.36 363.144C1037.05 362.483 1036.9 361.704 1036.9 360.808C1036.9 359.933 1037.05 359.171 1037.36 358.52C1037.67 357.859 1038.11 357.352 1038.69 357C1039.26 356.637 1039.96 356.456 1040.77 356.456C1041.64 356.456 1042.36 356.648 1042.91 357.032C1043.48 357.416 1043.89 357.928 1044.16 358.568C1044.44 359.197 1044.58 359.896 1044.58 360.664V361.336H1039.02V361.544C1039.02 362.141 1039.19 362.627 1039.54 363C1039.88 363.373 1040.38 363.56 1041.06 363.56C1041.56 363.56 1041.97 363.453 1042.3 363.24C1042.63 363.016 1042.93 362.744 1043.18 362.424L1044.29 363.656C1043.95 364.115 1043.48 364.488 1042.88 364.776C1042.29 365.053 1041.61 365.192 1040.83 365.192ZM1040.8 357.992C1040.44 357.992 1040.12 358.077 1039.86 358.248C1039.59 358.408 1039.38 358.637 1039.23 358.936C1039.09 359.224 1039.02 359.56 1039.02 359.944V360.072H1042.45V359.928C1042.45 359.533 1042.38 359.197 1042.26 358.92C1042.13 358.632 1041.94 358.408 1041.7 358.248C1041.45 358.077 1041.15 357.992 1040.8 357.992ZM1052.89 365.192C1052.07 365.192 1051.37 365.016 1050.78 364.664C1050.2 364.301 1049.74 363.795 1049.42 363.144C1049.11 362.483 1048.96 361.704 1048.96 360.808C1048.96 359.933 1049.11 359.171 1049.42 358.52C1049.73 357.859 1050.17 357.352 1050.75 357C1051.33 356.637 1052.02 356.456 1052.83 356.456C1053.71 356.456 1054.42 356.648 1054.97 357.032C1055.54 357.416 1055.96 357.928 1056.22 358.568C1056.5 359.197 1056.64 359.896 1056.64 360.664V361.336H1051.09V361.544C1051.09 362.141 1051.26 362.627 1051.6 363C1051.94 363.373 1052.45 363.56 1053.12 363.56C1053.62 363.56 1054.04 363.453 1054.37 363.24C1054.7 363.016 1054.99 362.744 1055.25 362.424L1056.35 363.656C1056.01 364.115 1055.54 364.488 1054.94 364.776C1054.36 365.053 1053.67 365.192 1052.89 365.192ZM1052.86 357.992C1052.5 357.992 1052.19 358.077 1051.92 358.248C1051.65 358.408 1051.44 358.637 1051.29 358.936C1051.16 359.224 1051.09 359.56 1051.09 359.944V360.072H1054.51V359.928C1054.51 359.533 1054.45 359.197 1054.32 358.92C1054.19 358.632 1054 358.408 1053.76 358.248C1053.51 358.077 1053.21 357.992 1052.86 357.992ZM1060.17 365H1058.12V356.648H1060.17V358.04H1060.25C1060.42 357.592 1060.69 357.219 1061.05 356.92C1061.42 356.611 1061.93 356.456 1062.58 356.456C1063.44 356.456 1064.09 356.744 1064.55 357.32C1065.02 357.885 1065.26 358.685 1065.26 359.72V365H1063.21V359.928C1063.21 359.341 1063.1 358.899 1062.89 358.6C1062.68 358.291 1062.32 358.136 1061.83 358.136C1061.56 358.136 1061.29 358.189 1061.03 358.296C1060.78 358.392 1060.57 358.541 1060.41 358.744C1060.25 358.936 1060.17 359.181 1060.17 359.48V365ZM1071.29 365H1069.81C1069.11 365 1068.57 364.819 1068.2 364.456C1067.84 364.083 1067.65 363.555 1067.65 362.872V358.264H1066.42V356.648H1067.06C1067.37 356.648 1067.58 356.579 1067.69 356.44C1067.8 356.291 1067.86 356.072 1067.86 355.784V354.36H1069.7V356.648H1071.41V358.264H1069.7V363.368H1071.29V365ZM1074.92 365H1072.87V356.648H1074.92V358.376H1075C1075.07 358.077 1075.2 357.8 1075.37 357.544C1075.55 357.277 1075.79 357.064 1076.09 356.904C1076.4 356.733 1076.77 356.648 1077.21 356.648H1077.66V358.584H1077.02C1076.56 358.584 1076.17 358.632 1075.85 358.728C1075.54 358.813 1075.3 358.952 1075.14 359.144C1074.99 359.325 1074.92 359.571 1074.92 359.88V365ZM1085.94 365H1084.8C1084.5 365 1084.22 364.931 1083.97 364.792C1083.74 364.643 1083.55 364.429 1083.41 364.152C1083.28 363.875 1083.22 363.549 1083.22 363.176V363L1083.73 363.56H1083.16C1083.02 364.093 1082.73 364.499 1082.29 364.776C1081.87 365.053 1081.34 365.192 1080.72 365.192C1079.87 365.192 1079.22 364.968 1078.76 364.52C1078.3 364.061 1078.07 363.464 1078.07 362.728C1078.07 362.152 1078.21 361.677 1078.48 361.304C1078.77 360.931 1079.18 360.648 1079.72 360.456C1080.25 360.264 1080.89 360.168 1081.64 360.168H1083.06V359.56C1083.06 359.101 1082.94 358.744 1082.69 358.488C1082.45 358.221 1082.05 358.088 1081.51 358.088C1081.03 358.088 1080.64 358.195 1080.34 358.408C1080.05 358.611 1079.81 358.856 1079.6 359.144L1078.39 358.056C1078.7 357.576 1079.11 357.192 1079.62 356.904C1080.13 356.605 1080.81 356.456 1081.65 356.456C1082.77 356.456 1083.63 356.717 1084.21 357.24C1084.81 357.752 1085.11 358.483 1085.11 359.432V363.368H1085.94V365ZM1083.06 361.4H1081.75C1081.22 361.4 1080.82 361.491 1080.55 361.672C1080.28 361.843 1080.15 362.093 1080.15 362.424V362.696C1080.15 363.027 1080.26 363.277 1080.48 363.448C1080.71 363.619 1081.02 363.704 1081.41 363.704C1081.72 363.704 1082 363.661 1082.24 363.576C1082.49 363.48 1082.69 363.341 1082.84 363.16C1082.99 362.979 1083.06 362.76 1083.06 362.504V361.4ZM1089.33 365H1087.28V356.648H1089.33V358.04H1089.41C1089.58 357.592 1089.84 357.219 1090.21 356.92C1090.58 356.611 1091.09 356.456 1091.74 356.456C1092.6 356.456 1093.25 356.744 1093.71 357.32C1094.18 357.885 1094.41 358.685 1094.41 359.72V365H1092.37V359.928C1092.37 359.341 1092.26 358.899 1092.05 358.6C1091.83 358.291 1091.48 358.136 1090.99 358.136C1090.71 358.136 1090.45 358.189 1090.19 358.296C1089.93 358.392 1089.73 358.541 1089.57 358.744C1089.41 358.936 1089.33 359.181 1089.33 359.48V365ZM947.316 384.192C946.495 384.192 945.791 384.016 945.204 383.664C944.617 383.301 944.164 382.795 943.844 382.144C943.535 381.483 943.38 380.704 943.38 379.808C943.38 378.933 943.535 378.171 943.844 377.52C944.153 376.859 944.596 376.352 945.172 376C945.748 375.637 946.441 375.456 947.252 375.456C948.127 375.456 948.841 375.648 949.396 376.032C949.961 376.416 950.377 376.928 950.644 377.568C950.921 378.197 951.06 378.896 951.06 379.664V380.336H945.508V380.544C945.508 381.141 945.679 381.627 946.02 382C946.361 382.373 946.868 382.56 947.54 382.56C948.041 382.56 948.457 382.453 948.788 382.24C949.119 382.016 949.412 381.744 949.668 381.424L950.772 382.656C950.431 383.115 949.961 383.488 949.364 383.776C948.777 384.053 948.095 384.192 947.316 384.192ZM947.284 376.992C946.921 376.992 946.607 377.077 946.34 377.248C946.073 377.408 945.865 377.637 945.716 377.936C945.577 378.224 945.508 378.56 945.508 378.944V379.072H948.932V378.928C948.932 378.533 948.868 378.197 948.74 377.92C948.612 377.632 948.425 377.408 948.18 377.248C947.935 377.077 947.636 376.992 947.284 376.992ZM954.59 384H952.542V375.648H954.59V377.04H954.67C954.84 376.592 955.107 376.219 955.47 375.92C955.843 375.611 956.355 375.456 957.006 375.456C957.859 375.456 958.515 375.744 958.974 376.32C959.443 376.885 959.678 377.685 959.678 378.72V384H957.63V378.928C957.63 378.341 957.523 377.899 957.31 377.6C957.096 377.291 956.744 377.136 956.254 377.136C955.976 377.136 955.71 377.189 955.454 377.296C955.198 377.392 954.99 377.541 954.83 377.744C954.67 377.936 954.59 378.181 954.59 378.48V384ZM968.241 384H967.137C966.444 384 965.927 383.824 965.585 383.472C965.255 383.12 965.089 382.624 965.089 381.984V372.16H967.137V382.368H968.241V384ZM976.752 384H975.616C975.307 384 975.03 383.931 974.784 383.792C974.55 383.643 974.363 383.429 974.224 383.152C974.096 382.875 974.032 382.549 974.032 382.176V382L974.544 382.56H973.968C973.83 383.093 973.542 383.499 973.104 383.776C972.678 384.053 972.155 384.192 971.536 384.192C970.683 384.192 970.027 383.968 969.568 383.52C969.11 383.061 968.88 382.464 968.88 381.728C968.88 381.152 969.019 380.677 969.296 380.304C969.584 379.931 969.995 379.648 970.528 379.456C971.062 379.264 971.702 379.168 972.448 379.168H973.872V378.56C973.872 378.101 973.75 377.744 973.504 377.488C973.259 377.221 972.864 377.088 972.32 377.088C971.84 377.088 971.451 377.195 971.152 377.408C970.864 377.611 970.619 377.856 970.416 378.144L969.2 377.056C969.51 376.576 969.92 376.192 970.432 375.904C970.944 375.605 971.622 375.456 972.464 375.456C973.584 375.456 974.438 375.717 975.024 376.24C975.622 376.752 975.92 377.483 975.92 378.432V382.368H976.752V384ZM973.872 380.4H972.56C972.027 380.4 971.627 380.491 971.36 380.672C971.094 380.843 970.96 381.093 970.96 381.424V381.696C970.96 382.027 971.072 382.277 971.296 382.448C971.52 382.619 971.83 382.704 972.224 382.704C972.534 382.704 972.811 382.661 973.056 382.576C973.302 382.48 973.499 382.341 973.648 382.16C973.798 381.979 973.872 381.76 973.872 381.504V380.4ZM981.551 384V372.16H983.599V377.024H983.663C983.813 376.544 984.095 376.165 984.511 375.888C984.938 375.6 985.423 375.456 985.967 375.456C986.682 375.456 987.279 375.627 987.759 375.968C988.239 376.309 988.607 376.805 988.863 377.456C989.119 378.096 989.247 378.88 989.247 379.808C989.247 380.736 989.119 381.531 988.863 382.192C988.607 382.843 988.239 383.339 987.759 383.68C987.279 384.021 986.682 384.192 985.967 384.192C985.423 384.192 984.943 384.048 984.527 383.76C984.111 383.472 983.823 383.088 983.663 382.608H983.599V384H981.551ZM985.311 382.496C985.845 382.496 986.277 382.32 986.607 381.968C986.938 381.605 987.103 381.131 987.103 380.544V379.104C987.103 378.507 986.938 378.032 986.607 377.68C986.277 377.317 985.845 377.136 985.311 377.136C984.991 377.136 984.698 377.195 984.431 377.312C984.175 377.419 983.973 377.573 983.823 377.776C983.674 377.979 983.599 378.213 983.599 378.48V381.136C983.599 381.424 983.674 381.669 983.823 381.872C983.973 382.075 984.175 382.229 984.431 382.336C984.698 382.443 984.991 382.496 985.311 382.496ZM998.105 384H996.969C996.66 384 996.382 383.931 996.137 383.792C995.902 383.643 995.716 383.429 995.577 383.152C995.449 382.875 995.385 382.549 995.385 382.176V382L995.897 382.56H995.321C995.182 383.093 994.894 383.499 994.457 383.776C994.03 384.053 993.508 384.192 992.889 384.192C992.036 384.192 991.38 383.968 990.921 383.52C990.462 383.061 990.233 382.464 990.233 381.728C990.233 381.152 990.372 380.677 990.649 380.304C990.937 379.931 991.348 379.648 991.881 379.456C992.414 379.264 993.054 379.168 993.801 379.168H995.225V378.56C995.225 378.101 995.102 377.744 994.857 377.488C994.612 377.221 994.217 377.088 993.673 377.088C993.193 377.088 992.804 377.195 992.505 377.408C992.217 377.611 991.972 377.856 991.769 378.144L990.553 377.056C990.862 376.576 991.273 376.192 991.785 375.904C992.297 375.605 992.974 375.456 993.817 375.456C994.937 375.456 995.79 375.717 996.377 376.24C996.974 376.752 997.273 377.483 997.273 378.432V382.368H998.105V384ZM995.225 380.4H993.913C993.38 380.4 992.98 380.491 992.713 380.672C992.446 380.843 992.313 381.093 992.313 381.424V381.696C992.313 382.027 992.425 382.277 992.649 382.448C992.873 382.619 993.182 382.704 993.577 382.704C993.886 382.704 994.164 382.661 994.409 382.576C994.654 382.48 994.852 382.341 995.001 382.16C995.15 381.979 995.225 381.76 995.225 381.504V380.4ZM1001.49 384H999.442V375.648H1001.49V377.04H1001.57C1001.74 376.592 1002.01 376.219 1002.37 375.92C1002.74 375.611 1003.26 375.456 1003.91 375.456C1004.76 375.456 1005.42 375.744 1005.87 376.32C1006.34 376.885 1006.58 377.685 1006.58 378.72V384H1004.53V378.928C1004.53 378.341 1004.42 377.899 1004.21 377.6C1004 377.291 1003.65 377.136 1003.15 377.136C1002.88 377.136 1002.61 377.189 1002.35 377.296C1002.1 377.392 1001.89 377.541 1001.73 377.744C1001.57 377.936 1001.49 378.181 1001.49 378.48V384ZM1013.71 384V382.608H1013.63C1013.48 383.088 1013.2 383.472 1012.78 383.76C1012.37 384.048 1011.88 384.192 1011.33 384.192C1010.64 384.192 1010.04 384.021 1009.55 383.68C1009.07 383.339 1008.7 382.843 1008.45 382.192C1008.19 381.531 1008.06 380.736 1008.06 379.808C1008.06 378.88 1008.19 378.096 1008.45 377.456C1008.7 376.805 1009.07 376.309 1009.55 375.968C1010.04 375.627 1010.64 375.456 1011.33 375.456C1011.88 375.456 1012.37 375.6 1012.78 375.888C1013.21 376.165 1013.49 376.544 1013.63 377.024H1013.71V372.16H1015.76V384H1013.71ZM1011.98 382.496C1012.32 382.496 1012.61 382.443 1012.86 382.336C1013.13 382.229 1013.34 382.075 1013.49 381.872C1013.64 381.669 1013.71 381.424 1013.71 381.136V378.48C1013.71 378.213 1013.64 377.979 1013.49 377.776C1013.34 377.573 1013.13 377.419 1012.86 377.312C1012.61 377.195 1012.32 377.136 1011.98 377.136C1011.46 377.136 1011.04 377.317 1010.7 377.68C1010.37 378.032 1010.21 378.507 1010.21 379.104V380.544C1010.21 381.131 1010.37 381.605 1010.7 381.968C1011.04 382.32 1011.46 382.496 1011.98 382.496ZM1021.18 384.192C1020.36 384.192 1019.65 384.016 1019.07 383.664C1018.48 383.301 1018.03 382.795 1017.71 382.144C1017.4 381.483 1017.24 380.704 1017.24 379.808C1017.24 378.933 1017.4 378.171 1017.71 377.52C1018.02 376.859 1018.46 376.352 1019.03 376C1019.61 375.637 1020.3 375.456 1021.11 375.456C1021.99 375.456 1022.7 375.648 1023.26 376.032C1023.82 376.416 1024.24 376.928 1024.51 377.568C1024.78 378.197 1024.92 378.896 1024.92 379.664V380.336H1019.37V380.544C1019.37 381.141 1019.54 381.627 1019.88 382C1020.22 382.373 1020.73 382.56 1021.4 382.56C1021.9 382.56 1022.32 382.453 1022.65 382.24C1022.98 382.016 1023.27 381.744 1023.53 381.424L1024.63 382.656C1024.29 383.115 1023.82 383.488 1023.23 383.776C1022.64 384.053 1021.96 384.192 1021.18 384.192ZM1021.15 376.992C1020.78 376.992 1020.47 377.077 1020.2 377.248C1019.94 377.408 1019.73 377.637 1019.58 377.936C1019.44 378.224 1019.37 378.56 1019.37 378.944V379.072H1022.79V378.928C1022.79 378.533 1022.73 378.197 1022.6 377.92C1022.47 377.632 1022.29 377.408 1022.04 377.248C1021.8 377.077 1021.5 376.992 1021.15 376.992ZM1026.4 385.568V375.648H1028.45V385.008C1028.45 385.701 1028.28 386.24 1027.92 386.624C1027.57 387.008 1027.01 387.2 1026.24 387.2H1025.12V385.568H1026.4ZM1027.43 374.432C1027.01 374.432 1026.71 374.336 1026.52 374.144C1026.32 373.941 1026.23 373.696 1026.23 373.408V373.088C1026.23 372.789 1026.32 372.544 1026.52 372.352C1026.71 372.16 1027.01 372.064 1027.43 372.064C1027.84 372.064 1028.15 372.16 1028.34 372.352C1028.53 372.544 1028.63 372.789 1028.63 373.088V373.408C1028.63 373.696 1028.53 373.941 1028.34 374.144C1028.15 374.336 1027.84 374.432 1027.43 374.432ZM1037.77 384H1036.63C1036.33 384 1036.05 383.931 1035.8 383.792C1035.57 383.643 1035.38 383.429 1035.24 383.152C1035.11 382.875 1035.05 382.549 1035.05 382.176V382L1035.56 382.56H1034.99C1034.85 383.093 1034.56 383.499 1034.12 383.776C1033.7 384.053 1033.17 384.192 1032.55 384.192C1031.7 384.192 1031.05 383.968 1030.59 383.52C1030.13 383.061 1029.9 382.464 1029.9 381.728C1029.9 381.152 1030.04 380.677 1030.31 380.304C1030.6 379.931 1031.01 379.648 1031.55 379.456C1032.08 379.264 1032.72 379.168 1033.47 379.168H1034.89V378.56C1034.89 378.101 1034.77 377.744 1034.52 377.488C1034.28 377.221 1033.88 377.088 1033.34 377.088C1032.86 377.088 1032.47 377.195 1032.17 377.408C1031.88 377.611 1031.64 377.856 1031.43 378.144L1030.22 377.056C1030.53 376.576 1030.94 376.192 1031.45 375.904C1031.96 375.605 1032.64 375.456 1033.48 375.456C1034.6 375.456 1035.46 375.717 1036.04 376.24C1036.64 376.752 1036.94 377.483 1036.94 378.432V382.368H1037.77V384ZM1034.89 380.4H1033.58C1033.05 380.4 1032.65 380.491 1032.38 380.672C1032.11 380.843 1031.98 381.093 1031.98 381.424V381.696C1031.98 382.027 1032.09 382.277 1032.31 382.448C1032.54 382.619 1032.85 382.704 1033.24 382.704C1033.55 382.704 1033.83 382.661 1034.07 382.576C1034.32 382.48 1034.52 382.341 1034.67 382.16C1034.82 381.979 1034.89 381.76 1034.89 381.504V380.4Z" fill="black"/>
<path d="M220.191 357.696V362H218.079V350.832H223.119C223.802 350.832 224.389 350.976 224.879 351.264C225.37 351.541 225.749 351.941 226.015 352.464C226.282 352.976 226.415 353.584 226.415 354.288C226.415 355.045 226.239 355.707 225.887 356.272C225.546 356.827 225.029 357.221 224.335 357.456L226.623 362H224.271L222.191 357.696H220.191ZM220.191 355.92H222.911C223.189 355.92 223.423 355.872 223.615 355.776C223.807 355.669 223.957 355.525 224.063 355.344C224.17 355.152 224.223 354.923 224.223 354.656V353.92C224.223 353.643 224.17 353.413 224.063 353.232C223.957 353.051 223.807 352.912 223.615 352.816C223.423 352.72 223.189 352.672 222.911 352.672H220.191V355.92ZM231.398 362.192C230.576 362.192 229.872 362.016 229.286 361.664C228.699 361.301 228.246 360.795 227.926 360.144C227.616 359.483 227.462 358.704 227.462 357.808C227.462 356.933 227.616 356.171 227.926 355.52C228.235 354.859 228.678 354.352 229.254 354C229.83 353.637 230.523 353.456 231.334 353.456C232.208 353.456 232.923 353.648 233.478 354.032C234.043 354.416 234.459 354.928 234.726 355.568C235.003 356.197 235.142 356.896 235.142 357.664V358.336H229.59V358.544C229.59 359.141 229.76 359.627 230.102 360C230.443 360.373 230.95 360.56 231.622 360.56C232.123 360.56 232.539 360.453 232.87 360.24C233.2 360.016 233.494 359.744 233.75 359.424L234.854 360.656C234.512 361.115 234.043 361.488 233.446 361.776C232.859 362.053 232.176 362.192 231.398 362.192ZM231.366 354.992C231.003 354.992 230.688 355.077 230.422 355.248C230.155 355.408 229.947 355.637 229.798 355.936C229.659 356.224 229.59 356.56 229.59 356.944V357.072H233.014V356.928C233.014 356.533 232.95 356.197 232.822 355.92C232.694 355.632 232.507 355.408 232.262 355.248C232.016 355.077 231.718 354.992 231.366 354.992ZM240.707 362H238.275L235.491 353.648H237.507L238.675 357.248L239.491 360.224H239.603L240.419 357.248L241.555 353.648H243.507L240.707 362ZM247.805 362.192C246.983 362.192 246.279 362.016 245.693 361.664C245.106 361.301 244.653 360.795 244.333 360.144C244.023 359.483 243.869 358.704 243.869 357.808C243.869 356.933 244.023 356.171 244.333 355.52C244.642 354.859 245.085 354.352 245.661 354C246.237 353.637 246.93 353.456 247.741 353.456C248.615 353.456 249.33 353.648 249.885 354.032C250.45 354.416 250.866 354.928 251.133 355.568C251.41 356.197 251.549 356.896 251.549 357.664V358.336H245.997V358.544C245.997 359.141 246.167 359.627 246.509 360C246.85 360.373 247.357 360.56 248.029 360.56C248.53 360.56 248.946 360.453 249.277 360.24C249.607 360.016 249.901 359.744 250.157 359.424L251.261 360.656C250.919 361.115 250.45 361.488 249.853 361.776C249.266 362.053 248.583 362.192 247.805 362.192ZM247.773 354.992C247.41 354.992 247.095 355.077 246.829 355.248C246.562 355.408 246.354 355.637 246.205 355.936C246.066 356.224 245.997 356.56 245.997 356.944V357.072H249.421V356.928C249.421 356.533 249.357 356.197 249.229 355.92C249.101 355.632 248.914 355.408 248.669 355.248C248.423 355.077 248.125 354.992 247.773 354.992ZM256.183 362H255.079C254.385 362 253.868 361.824 253.527 361.472C253.196 361.12 253.031 360.624 253.031 359.984V350.16H255.079V360.368H256.183V362ZM264.694 362H263.558C263.248 362 262.971 361.931 262.726 361.792C262.491 361.643 262.304 361.429 262.166 361.152C262.038 360.875 261.974 360.549 261.974 360.176V360L262.486 360.56H261.91C261.771 361.093 261.483 361.499 261.046 361.776C260.619 362.053 260.096 362.192 259.478 362.192C258.624 362.192 257.968 361.968 257.51 361.52C257.051 361.061 256.822 360.464 256.822 359.728C256.822 359.152 256.96 358.677 257.238 358.304C257.526 357.931 257.936 357.648 258.47 357.456C259.003 357.264 259.643 357.168 260.39 357.168H261.814V356.56C261.814 356.101 261.691 355.744 261.446 355.488C261.2 355.221 260.806 355.088 260.262 355.088C259.782 355.088 259.392 355.195 259.094 355.408C258.806 355.611 258.56 355.856 258.358 356.144L257.142 355.056C257.451 354.576 257.862 354.192 258.374 353.904C258.886 353.605 259.563 353.456 260.406 353.456C261.526 353.456 262.379 353.717 262.966 354.24C263.563 354.752 263.862 355.483 263.862 356.432V360.368H264.694V362ZM261.814 358.4H260.502C259.968 358.4 259.568 358.491 259.302 358.672C259.035 358.843 258.902 359.093 258.902 359.424V359.696C258.902 360.027 259.014 360.277 259.238 360.448C259.462 360.619 259.771 360.704 260.166 360.704C260.475 360.704 260.752 360.661 260.998 360.576C261.243 360.48 261.44 360.341 261.59 360.16C261.739 359.979 261.814 359.76 261.814 359.504V358.4ZM271.215 362V360.608H271.135C270.986 361.088 270.703 361.472 270.287 361.76C269.871 362.048 269.386 362.192 268.831 362.192C268.138 362.192 267.546 362.021 267.055 361.68C266.575 361.339 266.207 360.843 265.951 360.192C265.695 359.531 265.567 358.736 265.567 357.808C265.567 356.88 265.695 356.096 265.951 355.456C266.207 354.805 266.575 354.309 267.055 353.968C267.546 353.627 268.138 353.456 268.831 353.456C269.386 353.456 269.871 353.6 270.287 353.888C270.714 354.165 270.997 354.544 271.135 355.024H271.215V350.16H273.263V362H271.215ZM269.487 360.496C269.818 360.496 270.111 360.443 270.367 360.336C270.634 360.229 270.842 360.075 270.991 359.872C271.141 359.669 271.215 359.424 271.215 359.136V356.48C271.215 356.213 271.141 355.979 270.991 355.776C270.842 355.573 270.634 355.419 270.367 355.312C270.111 355.195 269.818 355.136 269.487 355.136C268.965 355.136 268.538 355.317 268.207 355.68C267.877 356.032 267.711 356.507 267.711 357.104V358.544C267.711 359.131 267.877 359.605 268.207 359.968C268.538 360.32 268.965 360.496 269.487 360.496ZM278.617 362.192C277.828 362.192 277.14 362.016 276.553 361.664C275.977 361.301 275.529 360.795 275.209 360.144C274.9 359.483 274.745 358.704 274.745 357.808C274.745 356.912 274.9 356.144 275.209 355.504C275.529 354.853 275.977 354.352 276.553 354C277.14 353.637 277.828 353.456 278.617 353.456C279.417 353.456 280.105 353.637 280.681 354C281.268 354.352 281.716 354.853 282.025 355.504C282.345 356.144 282.505 356.912 282.505 357.808C282.505 358.704 282.345 359.483 282.025 360.144C281.716 360.795 281.268 361.301 280.681 361.664C280.105 362.016 279.417 362.192 278.617 362.192ZM278.617 360.544C279.161 360.544 279.588 360.379 279.897 360.048C280.206 359.707 280.361 359.221 280.361 358.592V357.04C280.361 356.411 280.206 355.931 279.897 355.6C279.588 355.269 279.161 355.104 278.617 355.104C278.094 355.104 277.673 355.269 277.353 355.6C277.044 355.931 276.889 356.411 276.889 357.04V358.592C276.889 359.221 277.044 359.707 277.353 360.048C277.673 360.379 278.094 360.544 278.617 360.544ZM291.542 362H290.07C289.366 362 288.827 361.819 288.454 361.456C288.091 361.083 287.91 360.555 287.91 359.872V355.264H286.678V353.648H287.318C287.627 353.648 287.835 353.579 287.942 353.44C288.059 353.291 288.118 353.072 288.118 352.784V351.36H289.958V353.648H291.67V355.264H289.958V360.368H291.542V362ZM296.44 362.192C295.618 362.192 294.914 362.016 294.328 361.664C293.741 361.301 293.288 360.795 292.968 360.144C292.658 359.483 292.504 358.704 292.504 357.808C292.504 356.933 292.658 356.171 292.968 355.52C293.277 354.859 293.72 354.352 294.296 354C294.872 353.637 295.565 353.456 296.376 353.456C297.25 353.456 297.965 353.648 298.52 354.032C299.085 354.416 299.501 354.928 299.768 355.568C300.045 356.197 300.184 356.896 300.184 357.664V358.336H294.632V358.544C294.632 359.141 294.802 359.627 295.144 360C295.485 360.373 295.992 360.56 296.664 360.56C297.165 360.56 297.581 360.453 297.912 360.24C298.242 360.016 298.536 359.744 298.792 359.424L299.896 360.656C299.554 361.115 299.085 361.488 298.488 361.776C297.901 362.053 297.218 362.192 296.44 362.192ZM296.408 354.992C296.045 354.992 295.73 355.077 295.464 355.248C295.197 355.408 294.989 355.637 294.84 355.936C294.701 356.224 294.632 356.56 294.632 356.944V357.072H298.056V356.928C298.056 356.533 297.992 356.197 297.864 355.92C297.736 355.632 297.549 355.408 297.304 355.248C297.058 355.077 296.76 354.992 296.408 354.992ZM298.664 349.968L296.648 352.704L295.416 352.112L296.936 349.12L298.664 349.968ZM303.714 362H301.666V353.648H303.714V355.376H303.794C303.868 355.077 303.991 354.8 304.162 354.544C304.343 354.277 304.583 354.064 304.882 353.904C305.191 353.733 305.564 353.648 306.002 353.648H306.45V355.584H305.81C305.351 355.584 304.962 355.632 304.642 355.728C304.332 355.813 304.098 355.952 303.938 356.144C303.788 356.325 303.714 356.571 303.714 356.88V362ZM309.675 362H307.627V353.648H309.675V355.04H309.755C309.915 354.603 310.171 354.229 310.523 353.92C310.885 353.611 311.376 353.456 311.995 353.456C312.571 353.456 313.067 353.595 313.483 353.872C313.909 354.149 314.219 354.571 314.411 355.136H314.443C314.592 354.677 314.891 354.283 315.339 353.952C315.787 353.621 316.341 353.456 317.003 353.456C317.813 353.456 318.443 353.744 318.891 354.32C319.339 354.885 319.563 355.685 319.563 356.72V362H317.515V356.928C317.515 356.331 317.403 355.883 317.179 355.584C316.965 355.285 316.629 355.136 316.171 355.136C315.904 355.136 315.648 355.189 315.403 355.296C315.168 355.392 314.976 355.541 314.827 355.744C314.688 355.936 314.619 356.181 314.619 356.48V362H312.571V356.928C312.571 356.331 312.459 355.883 312.235 355.584C312.011 355.285 311.675 355.136 311.227 355.136C310.971 355.136 310.72 355.189 310.475 355.296C310.24 355.392 310.048 355.541 309.899 355.744C309.749 355.936 309.675 356.181 309.675 356.48V362ZM322.534 352.432C322.118 352.432 321.814 352.336 321.622 352.144C321.43 351.941 321.334 351.696 321.334 351.408V351.088C321.334 350.789 321.43 350.544 321.622 350.352C321.814 350.16 322.118 350.064 322.534 350.064C322.95 350.064 323.254 350.16 323.446 350.352C323.638 350.544 323.734 350.789 323.734 351.088V351.408C323.734 351.696 323.638 351.941 323.446 352.144C323.254 352.336 322.95 352.432 322.534 352.432ZM321.51 362V353.648H323.558V362H321.51ZM328.892 362.192C327.655 362.192 326.7 361.797 326.028 361.008C325.367 360.219 325.036 359.152 325.036 357.808C325.036 356.475 325.367 355.419 326.028 354.64C326.7 353.851 327.655 353.456 328.892 353.456C329.735 353.456 330.428 353.643 330.972 354.016C331.527 354.389 331.927 354.907 332.172 355.568L330.492 356.32C330.396 355.968 330.215 355.68 329.948 355.456C329.682 355.221 329.33 355.104 328.892 355.104C328.327 355.104 327.9 355.285 327.612 355.648C327.324 356 327.18 356.475 327.18 357.072V358.592C327.18 359.168 327.324 359.637 327.612 360C327.9 360.363 328.327 360.544 328.892 360.544C329.372 360.544 329.746 360.421 330.012 360.176C330.29 359.92 330.503 359.605 330.652 359.232L332.22 359.984C331.954 360.72 331.532 361.275 330.956 361.648C330.391 362.011 329.703 362.192 328.892 362.192ZM336.713 362.192C335.924 362.192 335.236 362.016 334.649 361.664C334.073 361.301 333.625 360.795 333.305 360.144C332.996 359.483 332.841 358.704 332.841 357.808C332.841 356.912 332.996 356.144 333.305 355.504C333.625 354.853 334.073 354.352 334.649 354C335.236 353.637 335.924 353.456 336.713 353.456C337.513 353.456 338.201 353.637 338.777 354C339.364 354.352 339.812 354.853 340.121 355.504C340.441 356.144 340.601 356.912 340.601 357.808C340.601 358.704 340.441 359.483 340.121 360.144C339.812 360.795 339.364 361.301 338.777 361.664C338.201 362.016 337.513 362.192 336.713 362.192ZM336.713 360.544C337.257 360.544 337.684 360.379 337.993 360.048C338.303 359.707 338.457 359.221 338.457 358.592V357.04C338.457 356.411 338.303 355.931 337.993 355.6C337.684 355.269 337.257 355.104 336.713 355.104C336.191 355.104 335.769 355.269 335.449 355.6C335.14 355.931 334.985 356.411 334.985 357.04V358.592C334.985 359.221 335.14 359.707 335.449 360.048C335.769 360.379 336.191 360.544 336.713 360.544ZM245.113 371.432C244.697 371.432 244.393 371.336 244.201 371.144C244.009 370.941 243.913 370.696 243.913 370.408V370.088C243.913 369.789 244.009 369.544 244.201 369.352C244.393 369.16 244.697 369.064 245.113 369.064C245.529 369.064 245.833 369.16 246.025 369.352C246.217 369.544 246.313 369.789 246.313 370.088V370.408C246.313 370.696 246.217 370.941 246.025 371.144C245.833 371.336 245.529 371.432 245.113 371.432ZM244.089 381V372.648H246.137V381H244.089ZM250.223 381H248.175V372.648H250.223V374.04H250.303C250.474 373.592 250.741 373.219 251.103 372.92C251.477 372.611 251.989 372.456 252.639 372.456C253.493 372.456 254.149 372.744 254.607 373.32C255.077 373.885 255.311 374.685 255.311 375.72V381H253.263V375.928C253.263 375.341 253.157 374.899 252.943 374.6C252.73 374.291 252.378 374.136 251.887 374.136C251.61 374.136 251.343 374.189 251.087 374.296C250.831 374.392 250.623 374.541 250.463 374.744C250.303 374.936 250.223 375.181 250.223 375.48V381ZM259.309 381H257.261V372.648H259.309V374.04H259.389C259.549 373.603 259.805 373.229 260.157 372.92C260.52 372.611 261.011 372.456 261.629 372.456C262.205 372.456 262.701 372.595 263.117 372.872C263.544 373.149 263.853 373.571 264.045 374.136H264.077C264.227 373.677 264.525 373.283 264.974 372.952C265.422 372.621 265.976 372.456 266.637 372.456C267.448 372.456 268.078 372.744 268.526 373.32C268.974 373.885 269.198 374.685 269.198 375.72V381H267.149V375.928C267.149 375.331 267.037 374.883 266.813 374.584C266.6 374.285 266.264 374.136 265.806 374.136C265.539 374.136 265.283 374.189 265.037 374.296C264.803 374.392 264.611 374.541 264.462 374.744C264.323 374.936 264.253 375.181 264.253 375.48V381H262.205V375.928C262.205 375.331 262.093 374.883 261.869 374.584C261.645 374.285 261.309 374.136 260.861 374.136C260.605 374.136 260.355 374.189 260.109 374.296C259.875 374.392 259.683 374.541 259.533 374.744C259.384 374.936 259.309 375.181 259.309 375.48V381ZM274.521 381.192C273.699 381.192 272.995 381.016 272.409 380.664C271.822 380.301 271.369 379.795 271.049 379.144C270.739 378.483 270.585 377.704 270.585 376.808C270.585 375.933 270.739 375.171 271.049 374.52C271.358 373.859 271.801 373.352 272.377 373C272.953 372.637 273.646 372.456 274.457 372.456C275.331 372.456 276.046 372.648 276.601 373.032C277.166 373.416 277.582 373.928 277.849 374.568C278.126 375.197 278.265 375.896 278.265 376.664V377.336H272.713V377.544C272.713 378.141 272.883 378.627 273.225 379C273.566 379.373 274.073 379.56 274.745 379.56C275.246 379.56 275.662 379.453 275.993 379.24C276.323 379.016 276.617 378.744 276.873 378.424L277.977 379.656C277.635 380.115 277.166 380.488 276.569 380.776C275.982 381.053 275.299 381.192 274.521 381.192ZM274.489 373.992C274.126 373.992 273.811 374.077 273.545 374.248C273.278 374.408 273.07 374.637 272.921 374.936C272.782 375.224 272.713 375.56 272.713 375.944V376.072H276.137V375.928C276.137 375.533 276.073 375.197 275.945 374.92C275.817 374.632 275.63 374.408 275.385 374.248C275.139 374.077 274.841 373.992 274.489 373.992ZM284.931 381V379.608H284.851C284.701 380.088 284.419 380.472 284.003 380.76C283.587 381.048 283.101 381.192 282.547 381.192C281.853 381.192 281.261 381.021 280.771 380.68C280.291 380.339 279.923 379.843 279.667 379.192C279.411 378.531 279.283 377.736 279.283 376.808C279.283 375.88 279.411 375.096 279.667 374.456C279.923 373.805 280.291 373.309 280.771 372.968C281.261 372.627 281.853 372.456 282.547 372.456C283.101 372.456 283.587 372.6 284.003 372.888C284.429 373.165 284.712 373.544 284.851 374.024H284.931V369.16H286.979V381H284.931ZM283.203 379.496C283.533 379.496 283.827 379.443 284.083 379.336C284.349 379.229 284.557 379.075 284.707 378.872C284.856 378.669 284.931 378.424 284.931 378.136V375.48C284.931 375.213 284.856 374.979 284.707 374.776C284.557 374.573 284.349 374.419 284.083 374.312C283.827 374.195 283.533 374.136 283.203 374.136C282.68 374.136 282.253 374.317 281.923 374.68C281.592 375.032 281.427 375.507 281.427 376.104V377.544C281.427 378.131 281.592 378.605 281.923 378.968C282.253 379.32 282.68 379.496 283.203 379.496ZM290.044 371.432C289.628 371.432 289.324 371.336 289.132 371.144C288.94 370.941 288.844 370.696 288.844 370.408V370.088C288.844 369.789 288.94 369.544 289.132 369.352C289.324 369.16 289.628 369.064 290.044 369.064C290.46 369.064 290.764 369.16 290.956 369.352C291.148 369.544 291.244 369.789 291.244 370.088V370.408C291.244 370.696 291.148 370.941 290.956 371.144C290.764 371.336 290.46 371.432 290.044 371.432ZM289.02 381V372.648H291.068V381H289.02ZM300.387 381H299.251C298.941 381 298.664 380.931 298.419 380.792C298.184 380.643 297.997 380.429 297.859 380.152C297.731 379.875 297.667 379.549 297.667 379.176V379L298.179 379.56H297.603C297.464 380.093 297.176 380.499 296.739 380.776C296.312 381.053 295.789 381.192 295.171 381.192C294.317 381.192 293.661 380.968 293.203 380.52C292.744 380.061 292.515 379.464 292.515 378.728C292.515 378.152 292.653 377.677 292.931 377.304C293.219 376.931 293.629 376.648 294.163 376.456C294.696 376.264 295.336 376.168 296.083 376.168H297.507V375.56C297.507 375.101 297.384 374.744 297.139 374.488C296.893 374.221 296.499 374.088 295.955 374.088C295.475 374.088 295.085 374.195 294.787 374.408C294.499 374.611 294.253 374.856 294.051 375.144L292.835 374.056C293.144 373.576 293.555 373.192 294.067 372.904C294.579 372.605 295.256 372.456 296.099 372.456C297.219 372.456 298.072 372.717 298.659 373.24C299.256 373.752 299.555 374.483 299.555 375.432V379.368H300.387V381ZM297.507 377.4H296.195C295.661 377.4 295.261 377.491 294.995 377.672C294.728 377.843 294.595 378.093 294.595 378.424V378.696C294.595 379.027 294.707 379.277 294.931 379.448C295.155 379.619 295.464 379.704 295.859 379.704C296.168 379.704 296.445 379.661 296.691 379.576C296.936 379.48 297.133 379.341 297.283 379.16C297.432 378.979 297.507 378.76 297.507 378.504V377.4ZM305.741 381H304.269C303.565 381 303.027 380.819 302.653 380.456C302.291 380.083 302.109 379.555 302.109 378.872V374.264H300.877V372.648H301.517C301.827 372.648 302.035 372.579 302.141 372.44C302.259 372.291 302.317 372.072 302.317 371.784V370.36H304.157V372.648H305.869V374.264H304.157V379.368H305.741V381ZM310.575 381.192C309.786 381.192 309.098 381.016 308.511 380.664C307.935 380.301 307.487 379.795 307.167 379.144C306.858 378.483 306.703 377.704 306.703 376.808C306.703 375.912 306.858 375.144 307.167 374.504C307.487 373.853 307.935 373.352 308.511 373C309.098 372.637 309.786 372.456 310.575 372.456C311.375 372.456 312.063 372.637 312.639 373C313.226 373.352 313.674 373.853 313.983 374.504C314.303 375.144 314.463 375.912 314.463 376.808C314.463 377.704 314.303 378.483 313.983 379.144C313.674 379.795 313.226 380.301 312.639 380.664C312.063 381.016 311.375 381.192 310.575 381.192ZM310.575 379.544C311.119 379.544 311.546 379.379 311.855 379.048C312.165 378.707 312.319 378.221 312.319 377.592V376.04C312.319 375.411 312.165 374.931 311.855 374.6C311.546 374.269 311.119 374.104 310.575 374.104C310.053 374.104 309.631 374.269 309.311 374.6C309.002 374.931 308.847 375.411 308.847 376.04V377.592C308.847 378.221 309.002 378.707 309.311 379.048C309.631 379.379 310.053 379.544 310.575 379.544Z" fill="black"/>
<path d="M256.933 321H250.069V314.568H235.333V308.424L248.389 287.496H256.933V309H261.157V314.568H256.933V321ZM249.589 294.936L241.093 309H250.069V294.936H249.589ZM276.114 321.576C273.202 321.576 270.786 320.888 268.866 319.512C266.946 318.136 265.522 316.168 264.594 313.608C263.666 311.016 263.202 307.896 263.202 304.248C263.202 300.6 263.666 297.48 264.594 294.888C265.522 292.296 266.946 290.328 268.866 288.984C270.786 287.608 273.202 286.92 276.114 286.92C279.058 286.92 281.474 287.608 283.362 288.984C285.282 290.328 286.706 292.296 287.634 294.888C288.562 297.48 289.026 300.6 289.026 304.248C289.026 307.896 288.562 311.016 287.634 313.608C286.706 316.168 285.282 318.136 283.362 319.512C281.474 320.888 279.058 321.576 276.114 321.576ZM276.114 315.48C277.394 315.48 278.402 315.16 279.138 314.52C279.874 313.88 280.402 312.968 280.722 311.784C281.042 310.568 281.202 309.112 281.202 307.416V301.08C281.202 299.384 281.042 297.944 280.722 296.76C280.402 295.544 279.874 294.616 279.138 293.976C278.402 293.336 277.394 293.016 276.114 293.016C274.834 293.016 273.826 293.336 273.09 293.976C272.354 294.616 271.826 295.544 271.506 296.76C271.186 297.944 271.026 299.384 271.026 301.08V307.416C271.026 309.112 271.186 310.568 271.506 311.784C271.826 312.968 272.354 313.88 273.09 314.52C273.826 315.16 274.834 315.48 276.114 315.48ZM311.775 321.576C309.343 321.576 307.295 321.192 305.631 320.424C303.967 319.624 302.479 318.504 301.167 317.064L305.343 312.84C306.239 313.832 307.231 314.616 308.319 315.192C309.407 315.768 310.639 316.056 312.015 316.056C313.423 316.056 314.399 315.848 314.943 315.432C315.487 314.984 315.759 314.392 315.759 313.656C315.759 313.016 315.551 312.536 315.135 312.216C314.751 311.896 314.111 311.672 313.215 311.544L310.479 311.208C308.591 310.952 307.007 310.504 305.727 309.864C304.479 309.224 303.535 308.376 302.895 307.32C302.287 306.232 301.983 304.936 301.983 303.432C301.983 301 302.863 299.032 304.623 297.528C306.383 295.992 308.767 295.224 311.775 295.224C313.535 295.224 315.023 295.384 316.239 295.704C317.455 295.992 318.511 296.44 319.407 297.048C320.335 297.624 321.215 298.328 322.047 299.16L317.967 303.336C317.167 302.536 316.255 301.912 315.231 301.464C314.239 300.984 313.215 300.744 312.159 300.744C310.975 300.744 310.111 300.936 309.567 301.32C309.055 301.704 308.799 302.216 308.799 302.856C308.799 303.528 308.975 304.056 309.327 304.44C309.711 304.792 310.415 305.048 311.439 305.208L314.271 305.592C317.023 305.944 319.087 306.76 320.463 308.04C321.871 309.288 322.575 311 322.575 313.176C322.575 314.776 322.127 316.216 321.231 317.496C320.335 318.776 319.071 319.784 317.439 320.52C315.839 321.224 313.951 321.576 311.775 321.576Z" fill="black"/>
<path d="M579.729 287.496V293.784H564.513L563.793 304.392H564.177C564.625 303.336 565.137 302.408 565.713 301.608C566.289 300.808 567.025 300.184 567.921 299.736C568.817 299.288 569.969 299.064 571.377 299.064C573.297 299.064 575.025 299.496 576.561 300.36C578.129 301.192 579.377 302.408 580.305 304.008C581.233 305.576 581.697 307.48 581.697 309.72C581.697 311.992 581.201 314.024 580.209 315.816C579.217 317.608 577.761 319.016 575.841 320.04C573.921 321.064 571.585 321.576 568.833 321.576C566.689 321.576 564.849 321.288 563.313 320.712C561.777 320.104 560.481 319.304 559.425 318.312C558.401 317.32 557.553 316.264 556.881 315.144L562.113 311.016C562.849 312.296 563.729 313.4 564.753 314.328C565.777 315.256 567.153 315.72 568.881 315.72C570.609 315.72 571.905 315.224 572.769 314.232C573.665 313.24 574.113 311.928 574.113 310.296V309.912C574.113 308.376 573.665 307.16 572.769 306.264C571.873 305.368 570.641 304.92 569.073 304.92C567.793 304.92 566.721 305.192 565.857 305.736C564.993 306.248 564.337 306.76 563.889 307.272L557.985 306.456L559.233 287.496H579.729ZM583.359 321L591.663 308.184L583.455 295.8H591.519L596.223 303.72H596.415L600.975 295.8H608.463L600.111 308.424L608.511 321H600.447L595.599 312.792H595.407L590.751 321H583.359ZM623.946 321H616.362L627.594 293.352H617.13V299.448H611.034V287.496H634.746V293.736L623.946 321ZM660.087 321.576C656.311 321.576 653.399 320.392 651.351 318.024C649.335 315.624 648.327 312.408 648.327 308.376C648.327 304.344 649.335 301.144 651.351 298.776C653.399 296.408 656.311 295.224 660.087 295.224C662.647 295.224 664.775 295.8 666.471 296.952C668.199 298.104 669.431 299.72 670.167 301.8L664.407 304.296C664.183 303.336 663.719 302.52 663.015 301.848C662.311 301.176 661.335 300.84 660.087 300.84C658.647 300.84 657.559 301.32 656.823 302.28C656.087 303.208 655.719 304.472 655.719 306.072V310.776C655.719 312.344 656.087 313.608 656.823 314.568C657.559 315.528 658.647 316.008 660.087 316.008C661.495 316.008 662.535 315.624 663.207 314.856C663.911 314.088 664.439 313.208 664.791 312.216L670.311 314.616C669.479 317.016 668.183 318.776 666.423 319.896C664.663 321.016 662.551 321.576 660.087 321.576ZM680.852 321H673.748V295.8H680.852V300.072H681.14C681.588 298.728 682.356 297.592 683.444 296.664C684.564 295.704 686.052 295.224 687.908 295.224C689.636 295.224 691.108 295.656 692.324 296.52C693.54 297.384 694.42 298.648 694.964 300.312H695.108C695.556 298.904 696.468 297.704 697.844 296.712C699.22 295.72 700.868 295.224 702.788 295.224C705.22 295.224 707.076 296.104 708.356 297.864C709.668 299.592 710.324 302.04 710.324 305.208V321H703.22V305.784C703.22 304.152 702.932 302.952 702.356 302.184C701.812 301.384 700.948 300.984 699.764 300.984C699.06 300.984 698.388 301.128 697.748 301.416C697.108 301.672 696.58 302.072 696.164 302.616C695.78 303.16 695.588 303.848 695.588 304.68V321H688.484V305.784C688.484 304.152 688.196 302.952 687.62 302.184C687.044 301.384 686.18 300.984 685.028 300.984C684.356 300.984 683.7 301.128 683.06 301.416C682.42 301.672 681.892 302.072 681.476 302.616C681.06 303.16 680.852 303.848 680.852 304.68V321Z" fill="black"/>
<path d="M989.539 321H966.211V315.192H975.235V292.728H974.803L967.987 301.656L963.379 298.056L971.395 287.496H982.435V315.192H989.539V321ZM1003.92 321.576C1001.01 321.576 998.592 320.888 996.672 319.512C994.752 318.136 993.328 316.168 992.4 313.608C991.472 311.016 991.008 307.896 991.008 304.248C991.008 300.6 991.472 297.48 992.4 294.888C993.328 292.296 994.752 290.328 996.672 288.984C998.592 287.608 1001.01 286.92 1003.92 286.92C1006.86 286.92 1009.28 287.608 1011.17 288.984C1013.09 290.328 1014.51 292.296 1015.44 294.888C1016.37 297.48 1016.83 300.6 1016.83 304.248C1016.83 307.896 1016.37 311.016 1015.44 313.608C1014.51 316.168 1013.09 318.136 1011.17 319.512C1009.28 320.888 1006.86 321.576 1003.92 321.576ZM1003.92 315.48C1005.2 315.48 1006.21 315.16 1006.94 314.52C1007.68 313.88 1008.21 312.968 1008.53 311.784C1008.85 310.568 1009.01 309.112 1009.01 307.416V301.08C1009.01 299.384 1008.85 297.944 1008.53 296.76C1008.21 295.544 1007.68 294.616 1006.94 293.976C1006.21 293.336 1005.2 293.016 1003.92 293.016C1002.64 293.016 1001.63 293.336 1000.9 293.976C1000.16 294.616 999.632 295.544 999.312 296.76C998.992 297.944 998.832 299.384 998.832 301.08V307.416C998.832 309.112 998.992 310.568 999.312 311.784C999.632 312.968 1000.16 313.88 1000.9 314.52C1001.63 315.16 1002.64 315.48 1003.92 315.48Z" fill="black"/>
<path d="M546.626 351.704H543.442V361H541.33V351.704H538.162V349.832H546.626V351.704ZM554.046 361H552.91C552.601 361 552.324 360.931 552.078 360.792C551.844 360.643 551.657 360.429 551.518 360.152C551.39 359.875 551.326 359.549 551.326 359.176V359L551.838 359.56H551.262C551.124 360.093 550.836 360.499 550.398 360.776C549.972 361.053 549.449 361.192 548.83 361.192C547.977 361.192 547.321 360.968 546.862 360.52C546.404 360.061 546.174 359.464 546.174 358.728C546.174 358.152 546.313 357.677 546.59 357.304C546.878 356.931 547.289 356.648 547.822 356.456C548.356 356.264 548.996 356.168 549.742 356.168H551.166V355.56C551.166 355.101 551.044 354.744 550.798 354.488C550.553 354.221 550.158 354.088 549.614 354.088C549.134 354.088 548.745 354.195 548.446 354.408C548.158 354.611 547.913 354.856 547.71 355.144L546.494 354.056C546.804 353.576 547.214 353.192 547.726 352.904C548.238 352.605 548.916 352.456 549.758 352.456C550.878 352.456 551.732 352.717 552.318 353.24C552.916 353.752 553.214 354.483 553.214 355.432V359.368H554.046V361ZM551.166 357.4H549.854C549.321 357.4 548.921 357.491 548.654 357.672C548.388 357.843 548.254 358.093 548.254 358.424V358.696C548.254 359.027 548.366 359.277 548.59 359.448C548.814 359.619 549.124 359.704 549.518 359.704C549.828 359.704 550.105 359.661 550.35 359.576C550.596 359.48 550.793 359.341 550.942 359.16C551.092 358.979 551.166 358.76 551.166 358.504V357.4ZM557.432 361H555.384V352.648H557.432V354.04H557.512C557.672 353.603 557.928 353.229 558.28 352.92C558.643 352.611 559.133 352.456 559.752 352.456C560.328 352.456 560.824 352.595 561.24 352.872C561.667 353.149 561.976 353.571 562.168 354.136H562.2C562.349 353.677 562.648 353.283 563.096 352.952C563.544 352.621 564.099 352.456 564.76 352.456C565.571 352.456 566.2 352.744 566.648 353.32C567.096 353.885 567.32 354.685 567.32 355.72V361H565.272V355.928C565.272 355.331 565.16 354.883 564.936 354.584C564.723 354.285 564.387 354.136 563.928 354.136C563.661 354.136 563.405 354.189 563.16 354.296C562.925 354.392 562.733 354.541 562.584 354.744C562.445 354.936 562.376 355.181 562.376 355.48V361H560.328V355.928C560.328 355.331 560.216 354.883 559.992 354.584C559.768 354.285 559.432 354.136 558.984 354.136C558.728 354.136 558.477 354.189 558.232 354.296C557.997 354.392 557.805 354.541 557.656 354.744C557.507 354.936 557.432 355.181 557.432 355.48V361ZM576.547 361H575.411C575.102 361 574.824 360.931 574.579 360.792C574.344 360.643 574.158 360.429 574.019 360.152C573.891 359.875 573.827 359.549 573.827 359.176V359L574.339 359.56H573.763C573.624 360.093 573.336 360.499 572.899 360.776C572.472 361.053 571.95 361.192 571.331 361.192C570.478 361.192 569.822 360.968 569.363 360.52C568.904 360.061 568.675 359.464 568.675 358.728C568.675 358.152 568.814 357.677 569.091 357.304C569.379 356.931 569.79 356.648 570.323 356.456C570.856 356.264 571.496 356.168 572.243 356.168H573.667V355.56C573.667 355.101 573.544 354.744 573.299 354.488C573.054 354.221 572.659 354.088 572.115 354.088C571.635 354.088 571.246 354.195 570.947 354.408C570.659 354.611 570.414 354.856 570.211 355.144L568.995 354.056C569.304 353.576 569.715 353.192 570.227 352.904C570.739 352.605 571.416 352.456 572.259 352.456C573.379 352.456 574.232 352.717 574.819 353.24C575.416 353.752 575.715 354.483 575.715 355.432V359.368H576.547V361ZM573.667 357.4H572.355C571.822 357.4 571.422 357.491 571.155 357.672C570.888 357.843 570.755 358.093 570.755 358.424V358.696C570.755 359.027 570.867 359.277 571.091 359.448C571.315 359.619 571.624 359.704 572.019 359.704C572.328 359.704 572.606 359.661 572.851 359.576C573.096 359.48 573.294 359.341 573.443 359.16C573.592 358.979 573.667 358.76 573.667 358.504V357.4ZM579.933 361H577.885V352.648H579.933V354.04H580.013C580.183 353.592 580.45 353.219 580.813 352.92C581.186 352.611 581.698 352.456 582.349 352.456C583.202 352.456 583.858 352.744 584.317 353.32C584.786 353.885 585.021 354.685 585.021 355.72V361H582.973V355.928C582.973 355.341 582.866 354.899 582.653 354.6C582.439 354.291 582.087 354.136 581.597 354.136C581.319 354.136 581.053 354.189 580.797 354.296C580.541 354.392 580.333 354.541 580.173 354.744C580.013 354.936 579.933 355.181 579.933 355.48V361ZM582.637 351.336C582.391 351.336 582.167 351.299 581.965 351.224C581.773 351.149 581.581 351.069 581.389 350.984C581.154 350.877 580.941 350.792 580.749 350.728C580.567 350.653 580.381 350.616 580.189 350.616C580.007 350.616 579.847 350.653 579.709 350.728C579.57 350.792 579.415 350.893 579.245 351.032L578.493 350.072C578.674 349.805 578.909 349.576 579.197 349.384C579.485 349.192 579.831 349.096 580.237 349.096C580.493 349.096 580.717 349.133 580.909 349.208C581.101 349.283 581.293 349.363 581.485 349.448C581.719 349.555 581.933 349.645 582.125 349.72C582.317 349.784 582.503 349.816 582.685 349.816C582.866 349.816 583.026 349.784 583.165 349.72C583.303 349.645 583.458 349.539 583.629 349.4L584.381 350.36C584.199 350.627 583.965 350.856 583.677 351.048C583.399 351.24 583.053 351.336 582.637 351.336ZM590.283 361.192C589.494 361.192 588.806 361.016 588.219 360.664C587.643 360.301 587.195 359.795 586.875 359.144C586.566 358.483 586.411 357.704 586.411 356.808C586.411 355.912 586.566 355.144 586.875 354.504C587.195 353.853 587.643 353.352 588.219 353C588.806 352.637 589.494 352.456 590.283 352.456C591.083 352.456 591.771 352.637 592.347 353C592.934 353.352 593.382 353.853 593.691 354.504C594.011 355.144 594.171 355.912 594.171 356.808C594.171 357.704 594.011 358.483 593.691 359.144C593.382 359.795 592.934 360.301 592.347 360.664C591.771 361.016 591.083 361.192 590.283 361.192ZM590.283 359.544C590.827 359.544 591.254 359.379 591.563 359.048C591.872 358.707 592.027 358.221 592.027 357.592V356.04C592.027 355.411 591.872 354.931 591.563 354.6C591.254 354.269 590.827 354.104 590.283 354.104C589.76 354.104 589.339 354.269 589.019 354.6C588.71 354.931 588.555 355.411 588.555 356.04V357.592C588.555 358.221 588.71 358.707 589.019 359.048C589.339 359.379 589.76 359.544 590.283 359.544ZM604.312 361V359.608H604.232C604.082 360.088 603.8 360.472 603.384 360.76C602.968 361.048 602.482 361.192 601.928 361.192C601.234 361.192 600.642 361.021 600.152 360.68C599.672 360.339 599.304 359.843 599.048 359.192C598.792 358.531 598.664 357.736 598.664 356.808C598.664 355.88 598.792 355.096 599.048 354.456C599.304 353.805 599.672 353.309 600.152 352.968C600.642 352.627 601.234 352.456 601.928 352.456C602.482 352.456 602.968 352.6 603.384 352.888C603.81 353.165 604.093 353.544 604.232 354.024H604.312V349.16H606.36V361H604.312ZM602.584 359.496C602.914 359.496 603.208 359.443 603.464 359.336C603.73 359.229 603.938 359.075 604.088 358.872C604.237 358.669 604.312 358.424 604.312 358.136V355.48C604.312 355.213 604.237 354.979 604.088 354.776C603.938 354.573 603.73 354.419 603.464 354.312C603.208 354.195 602.914 354.136 602.584 354.136C602.061 354.136 601.634 354.317 601.304 354.68C600.973 355.032 600.808 355.507 600.808 356.104V357.544C600.808 358.131 600.973 358.605 601.304 358.968C601.634 359.32 602.061 359.496 602.584 359.496ZM611.777 361.192C610.956 361.192 610.252 361.016 609.665 360.664C609.079 360.301 608.625 359.795 608.305 359.144C607.996 358.483 607.841 357.704 607.841 356.808C607.841 355.933 607.996 355.171 608.305 354.52C608.615 353.859 609.057 353.352 609.633 353C610.209 352.637 610.903 352.456 611.713 352.456C612.588 352.456 613.303 352.648 613.857 353.032C614.423 353.416 614.839 353.928 615.105 354.568C615.383 355.197 615.521 355.896 615.521 356.664V357.336H609.969V357.544C609.969 358.141 610.14 358.627 610.481 359C610.823 359.373 611.329 359.56 612.001 359.56C612.503 359.56 612.919 359.453 613.249 359.24C613.58 359.016 613.873 358.744 614.129 358.424L615.233 359.656C614.892 360.115 614.423 360.488 613.825 360.776C613.239 361.053 612.556 361.192 611.777 361.192ZM611.745 353.992C611.383 353.992 611.068 354.077 610.801 354.248C610.535 354.408 610.327 354.637 610.177 354.936C610.039 355.224 609.969 355.56 609.969 355.944V356.072H613.393V355.928C613.393 355.533 613.329 355.197 613.201 354.92C613.073 354.632 612.887 354.408 612.641 354.248C612.396 354.077 612.097 353.992 611.745 353.992ZM623.617 361H622.513C621.819 361 621.302 360.824 620.961 360.472C620.63 360.12 620.465 359.624 620.465 358.984V349.16H622.513V359.368H623.617V361ZM632.128 361H630.992C630.682 361 630.405 360.931 630.16 360.792C629.925 360.643 629.738 360.429 629.6 360.152C629.472 359.875 629.408 359.549 629.408 359.176V359L629.92 359.56H629.344C629.205 360.093 628.917 360.499 628.48 360.776C628.053 361.053 627.53 361.192 626.912 361.192C626.058 361.192 625.402 360.968 624.944 360.52C624.485 360.061 624.256 359.464 624.256 358.728C624.256 358.152 624.394 357.677 624.672 357.304C624.96 356.931 625.37 356.648 625.904 356.456C626.437 356.264 627.077 356.168 627.824 356.168H629.248V355.56C629.248 355.101 629.125 354.744 628.88 354.488C628.634 354.221 628.24 354.088 627.696 354.088C627.216 354.088 626.826 354.195 626.528 354.408C626.24 354.611 625.994 354.856 625.792 355.144L624.576 354.056C624.885 353.576 625.296 353.192 625.808 352.904C626.32 352.605 626.997 352.456 627.84 352.456C628.96 352.456 629.813 352.717 630.4 353.24C630.997 353.752 631.296 354.483 631.296 355.432V359.368H632.128V361ZM629.248 357.4H627.936C627.402 357.4 627.002 357.491 626.736 357.672C626.469 357.843 626.336 358.093 626.336 358.424V358.696C626.336 359.027 626.448 359.277 626.672 359.448C626.896 359.619 627.205 359.704 627.6 359.704C627.909 359.704 628.186 359.661 628.432 359.576C628.677 359.48 628.874 359.341 629.024 359.16C629.173 358.979 629.248 358.76 629.248 358.504V357.4ZM636.201 361.192C635.401 361.192 634.729 361.059 634.185 360.792C633.641 360.515 633.161 360.136 632.745 359.656L633.993 358.44C634.303 358.792 634.639 359.069 635.001 359.272C635.375 359.475 635.801 359.576 636.281 359.576C636.772 359.576 637.124 359.491 637.337 359.32C637.561 359.149 637.673 358.915 637.673 358.616C637.673 358.371 637.593 358.179 637.433 358.04C637.284 357.891 637.023 357.789 636.649 357.736L635.817 357.624C635.22 357.549 634.713 357.411 634.297 357.208C633.881 357.005 633.567 356.728 633.353 356.376C633.14 356.024 633.033 355.597 633.033 355.096C633.033 354.285 633.321 353.645 633.897 353.176C634.484 352.696 635.252 352.456 636.201 352.456C636.745 352.456 637.209 352.509 637.593 352.616C637.988 352.712 638.335 352.861 638.633 353.064C638.932 353.256 639.209 353.491 639.465 353.768L638.265 354.968C638.02 354.712 637.727 354.499 637.385 354.328C637.044 354.157 636.671 354.072 636.265 354.072C635.839 354.072 635.519 354.152 635.305 354.312C635.103 354.461 635.001 354.669 635.001 354.936C635.001 355.213 635.081 355.427 635.241 355.576C635.412 355.715 635.695 355.816 636.089 355.88L636.937 355.992C637.855 356.12 638.532 356.392 638.969 356.808C639.417 357.213 639.641 357.763 639.641 358.456C639.641 358.989 639.497 359.464 639.209 359.88C638.932 360.296 638.532 360.621 638.009 360.856C637.497 361.08 636.895 361.192 636.201 361.192ZM645.615 351.432C645.199 351.432 644.895 351.336 644.703 351.144C644.511 350.941 644.415 350.696 644.415 350.408V350.088C644.415 349.789 644.511 349.544 644.703 349.352C644.895 349.16 645.199 349.064 645.615 349.064C646.031 349.064 646.335 349.16 646.527 349.352C646.719 349.544 646.815 349.789 646.815 350.088V350.408C646.815 350.696 646.719 350.941 646.527 351.144C646.335 351.336 646.031 351.432 645.615 351.432ZM644.591 361V352.648H646.639V361H644.591ZM650.725 361H648.677V352.648H650.725V354.04H650.805C650.965 353.603 651.221 353.229 651.573 352.92C651.936 352.611 652.426 352.456 653.045 352.456C653.621 352.456 654.117 352.595 654.533 352.872C654.96 353.149 655.269 353.571 655.461 354.136H655.493C655.642 353.677 655.941 353.283 656.389 352.952C656.837 352.621 657.392 352.456 658.053 352.456C658.864 352.456 659.493 352.744 659.941 353.32C660.389 353.885 660.613 354.685 660.613 355.72V361H658.565V355.928C658.565 355.331 658.453 354.883 658.229 354.584C658.016 354.285 657.68 354.136 657.221 354.136C656.954 354.136 656.698 354.189 656.453 354.296C656.218 354.392 656.026 354.541 655.877 354.744C655.738 354.936 655.669 355.181 655.669 355.48V361H653.621V355.928C653.621 355.331 653.509 354.883 653.285 354.584C653.061 354.285 652.725 354.136 652.277 354.136C652.021 354.136 651.77 354.189 651.525 354.296C651.29 354.392 651.098 354.541 650.949 354.744C650.8 354.936 650.725 355.181 650.725 355.48V361ZM662.56 364.2V352.648H664.608V354.024H664.672C664.822 353.544 665.104 353.165 665.52 352.888C665.947 352.6 666.432 352.456 666.976 352.456C667.691 352.456 668.288 352.627 668.768 352.968C669.248 353.309 669.616 353.805 669.872 354.456C670.128 355.096 670.256 355.88 670.256 356.808C670.256 357.736 670.128 358.531 669.872 359.192C669.616 359.843 669.248 360.339 668.768 360.68C668.288 361.021 667.691 361.192 666.976 361.192C666.432 361.192 665.952 361.048 665.536 360.76C665.12 360.472 664.832 360.088 664.672 359.608H664.608V364.2H662.56ZM666.32 359.496C666.854 359.496 667.286 359.32 667.616 358.968C667.947 358.605 668.112 358.131 668.112 357.544V356.104C668.112 355.507 667.947 355.032 667.616 354.68C667.286 354.317 666.854 354.136 666.32 354.136C666 354.136 665.707 354.195 665.44 354.312C665.184 354.419 664.982 354.573 664.832 354.776C664.683 354.979 664.608 355.213 664.608 355.48V358.136C664.608 358.424 664.683 358.669 664.832 358.872C664.982 359.075 665.184 359.229 665.44 359.336C665.707 359.443 666 359.496 666.32 359.496ZM673.882 361H671.834V352.648H673.882V354.376H673.962C674.037 354.077 674.159 353.8 674.33 353.544C674.511 353.277 674.751 353.064 675.05 352.904C675.359 352.733 675.733 352.648 676.17 352.648H676.618V354.584H675.978C675.519 354.584 675.13 354.632 674.81 354.728C674.501 354.813 674.266 354.952 674.106 355.144C673.957 355.325 673.882 355.571 673.882 355.88V361ZM681.093 361.192C680.272 361.192 679.568 361.016 678.981 360.664C678.394 360.301 677.941 359.795 677.621 359.144C677.312 358.483 677.157 357.704 677.157 356.808C677.157 355.933 677.312 355.171 677.621 354.52C677.93 353.859 678.373 353.352 678.949 353C679.525 352.637 680.218 352.456 681.029 352.456C681.904 352.456 682.618 352.648 683.173 353.032C683.738 353.416 684.154 353.928 684.421 354.568C684.698 355.197 684.837 355.896 684.837 356.664V357.336H679.285V357.544C679.285 358.141 679.456 358.627 679.797 359C680.138 359.373 680.645 359.56 681.317 359.56C681.818 359.56 682.234 359.453 682.565 359.24C682.896 359.016 683.189 358.744 683.445 358.424L684.549 359.656C684.208 360.115 683.738 360.488 683.141 360.776C682.554 361.053 681.872 361.192 681.093 361.192ZM681.061 353.992C680.698 353.992 680.384 354.077 680.117 354.248C679.85 354.408 679.642 354.637 679.493 354.936C679.354 355.224 679.285 355.56 679.285 355.944V356.072H682.709V355.928C682.709 355.533 682.645 355.197 682.517 354.92C682.389 354.632 682.202 354.408 681.957 354.248C681.712 354.077 681.413 353.992 681.061 353.992ZM689.055 361.192C688.255 361.192 687.583 361.059 687.039 360.792C686.495 360.515 686.015 360.136 685.599 359.656L686.847 358.44C687.156 358.792 687.492 359.069 687.855 359.272C688.228 359.475 688.655 359.576 689.135 359.576C689.626 359.576 689.978 359.491 690.191 359.32C690.415 359.149 690.527 358.915 690.527 358.616C690.527 358.371 690.447 358.179 690.287 358.04C690.138 357.891 689.876 357.789 689.503 357.736L688.671 357.624C688.074 357.549 687.567 357.411 687.151 357.208C686.735 357.005 686.42 356.728 686.207 356.376C685.994 356.024 685.887 355.597 685.887 355.096C685.887 354.285 686.175 353.645 686.751 353.176C687.338 352.696 688.106 352.456 689.055 352.456C689.599 352.456 690.063 352.509 690.447 352.616C690.842 352.712 691.188 352.861 691.487 353.064C691.786 353.256 692.063 353.491 692.319 353.768L691.119 354.968C690.874 354.712 690.58 354.499 690.239 354.328C689.898 354.157 689.524 354.072 689.119 354.072C688.692 354.072 688.372 354.152 688.159 354.312C687.956 354.461 687.855 354.669 687.855 354.936C687.855 355.213 687.935 355.427 688.095 355.576C688.266 355.715 688.548 355.816 688.943 355.88L689.791 355.992C690.708 356.12 691.386 356.392 691.823 356.808C692.271 357.213 692.495 357.763 692.495 358.456C692.495 358.989 692.351 359.464 692.063 359.88C691.786 360.296 691.386 360.621 690.863 360.856C690.351 361.08 689.748 361.192 689.055 361.192ZM695.007 351.432C694.591 351.432 694.287 351.336 694.095 351.144C693.903 350.941 693.807 350.696 693.807 350.408V350.088C693.807 349.789 693.903 349.544 694.095 349.352C694.287 349.16 694.591 349.064 695.007 349.064C695.423 349.064 695.727 349.16 695.919 349.352C696.111 349.544 696.207 349.789 696.207 350.088V350.408C696.207 350.696 696.111 350.941 695.919 351.144C695.727 351.336 695.423 351.432 695.007 351.432ZM693.983 361V352.648H696.031V361H693.983ZM701.382 361.192C700.592 361.192 699.904 361.016 699.318 360.664C698.742 360.301 698.294 359.795 697.974 359.144C697.664 358.483 697.51 357.704 697.51 356.808C697.51 355.912 697.664 355.144 697.974 354.504C698.294 353.853 698.742 353.352 699.318 353C699.904 352.637 700.592 352.456 701.382 352.456C702.182 352.456 702.87 352.637 703.446 353C704.032 353.352 704.48 353.853 704.79 354.504C705.11 355.144 705.27 355.912 705.27 356.808C705.27 357.704 705.11 358.483 704.79 359.144C704.48 359.795 704.032 360.301 703.446 360.664C702.87 361.016 702.182 361.192 701.382 361.192ZM701.382 359.544C701.926 359.544 702.352 359.379 702.662 359.048C702.971 358.707 703.126 358.221 703.126 357.592V356.04C703.126 355.411 702.971 354.931 702.662 354.6C702.352 354.269 701.926 354.104 701.382 354.104C700.859 354.104 700.438 354.269 700.118 354.6C699.808 354.931 699.654 355.411 699.654 356.04V357.592C699.654 358.221 699.808 358.707 700.118 359.048C700.438 359.379 700.859 359.544 701.382 359.544ZM708.813 361H706.765V352.648H708.813V354.04H708.893C709.064 353.592 709.331 353.219 709.693 352.92C710.067 352.611 710.579 352.456 711.229 352.456C712.083 352.456 712.739 352.744 713.197 353.32C713.667 353.885 713.901 354.685 713.901 355.72V361H711.853V355.928C711.853 355.341 711.747 354.899 711.533 354.6C711.32 354.291 710.968 354.136 710.477 354.136C710.2 354.136 709.933 354.189 709.677 354.296C709.421 354.392 709.213 354.541 709.053 354.744C708.893 354.936 708.813 355.181 708.813 355.48V361ZM719.227 361.192C718.406 361.192 717.702 361.016 717.115 360.664C716.529 360.301 716.075 359.795 715.755 359.144C715.446 358.483 715.291 357.704 715.291 356.808C715.291 355.933 715.446 355.171 715.755 354.52C716.065 353.859 716.507 353.352 717.083 353C717.659 352.637 718.353 352.456 719.163 352.456C720.038 352.456 720.753 352.648 721.307 353.032C721.873 353.416 722.289 353.928 722.555 354.568C722.833 355.197 722.971 355.896 722.971 356.664V357.336H717.419V357.544C717.419 358.141 717.59 358.627 717.931 359C718.273 359.373 718.779 359.56 719.451 359.56C719.953 359.56 720.369 359.453 720.699 359.24C721.03 359.016 721.323 358.744 721.579 358.424L722.683 359.656C722.342 360.115 721.873 360.488 721.275 360.776C720.689 361.053 720.006 361.192 719.227 361.192ZM719.195 353.992C718.833 353.992 718.518 354.077 718.251 354.248C717.985 354.408 717.777 354.637 717.627 354.936C717.489 355.224 717.419 355.56 717.419 355.944V356.072H720.843V355.928C720.843 355.533 720.779 355.197 720.651 354.92C720.523 354.632 720.337 354.408 720.091 354.248C719.846 354.077 719.547 353.992 719.195 353.992ZM727.189 361.192C726.389 361.192 725.717 361.059 725.173 360.792C724.629 360.515 724.149 360.136 723.733 359.656L724.981 358.44C725.291 358.792 725.627 359.069 725.989 359.272C726.363 359.475 726.789 359.576 727.269 359.576C727.76 359.576 728.112 359.491 728.325 359.32C728.549 359.149 728.661 358.915 728.661 358.616C728.661 358.371 728.581 358.179 728.421 358.04C728.272 357.891 728.011 357.789 727.637 357.736L726.805 357.624C726.208 357.549 725.701 357.411 725.285 357.208C724.869 357.005 724.555 356.728 724.341 356.376C724.128 356.024 724.021 355.597 724.021 355.096C724.021 354.285 724.309 353.645 724.885 353.176C725.472 352.696 726.24 352.456 727.189 352.456C727.733 352.456 728.197 352.509 728.581 352.616C728.976 352.712 729.323 352.861 729.621 353.064C729.92 353.256 730.197 353.491 730.453 353.768L729.253 354.968C729.008 354.712 728.715 354.499 728.373 354.328C728.032 354.157 727.659 354.072 727.253 354.072C726.827 354.072 726.507 354.152 726.293 354.312C726.091 354.461 725.989 354.669 725.989 354.936C725.989 355.213 726.069 355.427 726.229 355.576C726.4 355.715 726.683 355.816 727.077 355.88L727.925 355.992C728.843 356.12 729.52 356.392 729.957 356.808C730.405 357.213 730.629 357.763 730.629 358.456C730.629 358.989 730.485 359.464 730.197 359.88C729.92 360.296 729.52 360.621 728.997 360.856C728.485 361.08 727.883 361.192 727.189 361.192Z" fill="black"/>
<path d="M463 402L463 290" stroke="#FDCDFF" stroke-width="4" stroke-linecap="round" stroke-dasharray="5 5"/>
<path d="M799 402L799 290" stroke="#FDCDFF" stroke-width="4" stroke-linecap="round" stroke-dasharray="5 5"/>
</svg>
