<svg width="1280" height="639" viewBox="0 0 1280 639" fill="none" xmlns="http://www.w3.org/2000/svg">
<g clip-path="url(#clip0_305_108)">
<path d="M191.369 85V80.152H186.313V85H184.505V73.832H186.313V78.552H191.369V73.832H193.177V85H191.369ZM197.415 85H195.607V73.832H200.407C201.09 73.832 201.671 73.9707 202.151 74.248C202.642 74.5253 203.015 74.9147 203.271 75.416C203.527 75.9173 203.655 76.5093 203.655 77.192C203.655 77.864 203.527 78.4507 203.271 78.952C203.015 79.4533 202.642 79.848 202.151 80.136C201.671 80.4133 201.09 80.552 200.407 80.552H197.415V85ZM197.415 75.416V78.968H200.295C200.594 78.968 200.85 78.9147 201.063 78.808C201.287 78.7013 201.458 78.5467 201.575 78.344C201.693 78.1307 201.751 77.8747 201.751 77.576V76.808C201.751 76.4987 201.693 76.2427 201.575 76.04C201.458 75.8373 201.287 75.6827 201.063 75.576C200.85 75.4693 200.594 75.416 200.295 75.416H197.415ZM212.124 85.192C211.196 85.192 210.401 85.0213 209.74 84.68C209.078 84.328 208.513 83.8693 208.044 83.304L209.308 82.136C209.692 82.616 210.118 82.9787 210.588 83.224C211.068 83.4693 211.612 83.592 212.22 83.592C212.934 83.592 213.473 83.432 213.836 83.112C214.198 82.7813 214.38 82.3493 214.38 81.816C214.38 81.528 214.326 81.2773 214.22 81.064C214.113 80.8507 213.932 80.6747 213.676 80.536C213.42 80.3973 213.078 80.2853 212.652 80.2L211.66 80.024C210.934 79.8853 210.326 79.6827 209.836 79.416C209.356 79.1493 208.993 78.8027 208.748 78.376C208.502 77.9387 208.38 77.4267 208.38 76.84C208.38 76.1787 208.54 75.608 208.86 75.128C209.18 74.648 209.633 74.28 210.22 74.024C210.817 73.768 211.51 73.64 212.3 73.64C213.142 73.64 213.873 73.7893 214.492 74.088C215.11 74.376 215.633 74.7973 216.06 75.352L214.796 76.472C214.508 76.0987 214.156 75.8 213.74 75.576C213.324 75.352 212.806 75.24 212.188 75.24C211.548 75.24 211.052 75.368 210.7 75.624C210.358 75.88 210.188 76.2533 210.188 76.744C210.188 77.0533 210.252 77.3093 210.38 77.512C210.508 77.7147 210.7 77.88 210.956 78.008C211.222 78.136 211.553 78.2373 211.948 78.312L212.94 78.52C213.686 78.6587 214.3 78.8667 214.78 79.144C215.26 79.4213 215.612 79.7733 215.836 80.2C216.07 80.616 216.188 81.1227 216.188 81.72C216.188 82.4133 216.028 83.0213 215.708 83.544C215.388 84.056 214.924 84.4613 214.316 84.76C213.708 85.048 212.977 85.192 212.124 85.192ZM217.91 88.2V76.68H219.654V78.056H219.734C219.905 77.5547 220.198 77.1707 220.614 76.904C221.03 76.6267 221.515 76.488 222.07 76.488C222.774 76.488 223.371 76.664 223.862 77.016C224.353 77.3573 224.726 77.8533 224.982 78.504C225.249 79.144 225.382 79.9227 225.382 80.84C225.382 81.7467 225.249 82.5253 224.982 83.176C224.726 83.8267 224.353 84.328 223.862 84.68C223.371 85.0213 222.774 85.192 222.07 85.192C221.515 85.192 221.035 85.0533 220.63 84.776C220.225 84.4987 219.926 84.1147 219.734 83.624H219.654V88.2H217.91ZM221.542 83.72C222.15 83.72 222.635 83.5227 222.998 83.128C223.361 82.7227 223.542 82.2 223.542 81.56V80.12C223.542 79.48 223.361 78.9627 222.998 78.568C222.635 78.1733 222.15 77.976 221.542 77.976C221.19 77.976 220.87 78.0347 220.582 78.152C220.305 78.2693 220.081 78.4347 219.91 78.648C219.739 78.8613 219.654 79.112 219.654 79.4V82.216C219.654 82.536 219.739 82.808 219.91 83.032C220.081 83.2453 220.305 83.416 220.582 83.544C220.87 83.6613 221.19 83.72 221.542 83.72ZM228.803 85H227.059V76.68H228.803V78.328H228.883C228.968 78.0507 229.101 77.7893 229.283 77.544C229.475 77.288 229.725 77.08 230.035 76.92C230.344 76.76 230.723 76.68 231.171 76.68H231.635V78.36H230.947C230.488 78.36 230.099 78.4133 229.779 78.52C229.459 78.6267 229.213 78.776 229.043 78.968C228.883 79.16 228.803 79.4 228.803 79.688V85ZM236.034 85.192C235.255 85.192 234.578 85.016 234.002 84.664C233.436 84.3013 232.994 83.7947 232.674 83.144C232.364 82.4933 232.21 81.7253 232.21 80.84C232.21 79.9547 232.364 79.1867 232.674 78.536C232.994 77.8853 233.436 77.384 234.002 77.032C234.578 76.6693 235.255 76.488 236.034 76.488C236.802 76.488 237.468 76.6693 238.034 77.032C238.61 77.384 239.052 77.8853 239.362 78.536C239.682 79.1867 239.842 79.9547 239.842 80.84C239.842 81.7253 239.682 82.4933 239.362 83.144C239.052 83.7947 238.61 84.3013 238.034 84.664C237.468 85.016 236.802 85.192 236.034 85.192ZM236.034 83.736C236.631 83.736 237.106 83.5547 237.458 83.192C237.82 82.8187 238.002 82.2693 238.002 81.544V80.136C238.002 79.4107 237.82 78.8667 237.458 78.504C237.106 78.1307 236.631 77.944 236.034 77.944C235.447 77.944 234.967 78.1307 234.594 78.504C234.231 78.8667 234.05 79.4107 234.05 80.136V81.544C234.05 82.2693 234.231 82.8187 234.594 83.192C234.967 83.5547 235.447 83.736 236.034 83.736ZM244.666 85.192C243.461 85.192 242.527 84.8027 241.866 84.024C241.205 83.2347 240.874 82.1733 240.874 80.84C240.874 79.5067 241.205 78.4507 241.866 77.672C242.527 76.8827 243.461 76.488 244.666 76.488C245.498 76.488 246.181 76.6747 246.714 77.048C247.247 77.4213 247.631 77.9173 247.866 78.536L246.426 79.208C246.309 78.824 246.101 78.52 245.802 78.296C245.503 78.0613 245.125 77.944 244.666 77.944C244.026 77.944 243.541 78.1467 243.21 78.552C242.879 78.9467 242.714 79.464 242.714 80.104V81.576C242.714 82.216 242.879 82.7387 243.21 83.144C243.541 83.5493 244.026 83.752 244.666 83.752C245.167 83.752 245.573 83.6293 245.882 83.384C246.191 83.128 246.437 82.792 246.618 82.376L247.93 83.08C247.663 83.7627 247.253 84.2853 246.698 84.648C246.143 85.0107 245.466 85.192 244.666 85.192ZM249.27 85V73.16H251.014V78.84V80.44H251.094L252.262 78.968L254.326 76.68H256.326L253.382 79.928L256.646 85H254.55L252.182 81.08L251.014 82.296V85H249.27ZM260.668 85.192C259.879 85.192 259.196 85.016 258.62 84.664C258.044 84.3013 257.596 83.7947 257.276 83.144C256.967 82.4933 256.812 81.7253 256.812 80.84C256.812 79.9547 256.967 79.192 257.276 78.552C257.585 77.9013 258.023 77.3947 258.588 77.032C259.153 76.6693 259.831 76.488 260.62 76.488C261.441 76.488 262.124 76.6747 262.668 77.048C263.223 77.4107 263.639 77.9067 263.916 78.536C264.193 79.1653 264.332 79.864 264.332 80.632V81.288H258.636V81.56C258.636 82.2 258.823 82.728 259.196 83.144C259.58 83.5493 260.124 83.752 260.828 83.752C261.34 83.752 261.772 83.64 262.124 83.416C262.476 83.192 262.769 82.888 263.004 82.504L264.044 83.512C263.724 84.0133 263.271 84.4187 262.684 84.728C262.108 85.0373 261.436 85.192 260.668 85.192ZM260.652 77.848C260.247 77.848 259.889 77.944 259.58 78.136C259.281 78.3173 259.047 78.5733 258.876 78.904C258.716 79.224 258.636 79.5973 258.636 80.024V80.136H262.508V79.976C262.508 79.5493 262.433 79.176 262.284 78.856C262.135 78.536 261.921 78.2907 261.644 78.12C261.367 77.9387 261.036 77.848 260.652 77.848ZM269.767 85H268.247C267.65 85 267.191 84.84 266.871 84.52C266.562 84.1893 266.407 83.7413 266.407 83.176V78.104H265.111V76.68H265.815C266.103 76.68 266.3 76.616 266.407 76.488C266.524 76.36 266.583 76.152 266.583 75.864V74.408H268.151V76.68H269.895V78.104H268.151V83.576H269.767V85ZM201.012 99.464V101H193.428V99.272L196.996 96.088C197.562 95.5867 197.994 95.1013 198.292 94.632C198.602 94.152 198.756 93.6613 198.756 93.16V92.952C198.756 92.4187 198.591 91.9973 198.26 91.688C197.94 91.368 197.503 91.208 196.948 91.208C196.34 91.208 195.871 91.3787 195.54 91.72C195.22 92.0613 194.991 92.4773 194.852 92.968L193.268 92.36C193.428 91.8907 193.663 91.448 193.972 91.032C194.282 90.616 194.692 90.28 195.204 90.024C195.716 89.768 196.346 89.64 197.092 89.64C197.85 89.64 198.495 89.784 199.028 90.072C199.562 90.3493 199.967 90.7387 200.244 91.24C200.532 91.7307 200.676 92.296 200.676 92.936C200.676 93.544 200.559 94.0933 200.324 94.584C200.09 95.064 199.77 95.5173 199.364 95.944C198.959 96.36 198.506 96.7813 198.004 97.208L195.38 99.464H201.012ZM208.11 101V99.624H208.03C207.838 100.115 207.539 100.499 207.134 100.776C206.729 101.053 206.249 101.192 205.694 101.192C205.001 101.192 204.403 101.021 203.902 100.68C203.411 100.328 203.033 99.8267 202.766 99.176C202.51 98.5253 202.382 97.7467 202.382 96.84C202.382 95.9227 202.51 95.144 202.766 94.504C203.033 93.8533 203.411 93.3573 203.902 93.016C204.403 92.664 205.001 92.488 205.694 92.488C206.249 92.488 206.734 92.6267 207.15 92.904C207.566 93.1707 207.859 93.5547 208.03 94.056H208.11V89.16H209.854V101H208.11ZM206.222 99.72C206.574 99.72 206.889 99.6613 207.166 99.544C207.454 99.416 207.683 99.2453 207.854 99.032C208.025 98.808 208.11 98.536 208.11 98.216V95.4C208.11 95.112 208.025 94.8613 207.854 94.648C207.683 94.4347 207.454 94.2693 207.166 94.152C206.889 94.0347 206.574 93.976 206.222 93.976C205.625 93.976 205.139 94.1733 204.766 94.568C204.403 94.9627 204.222 95.48 204.222 96.12V97.56C204.222 98.2 204.403 98.7227 204.766 99.128C205.139 99.5227 205.625 99.72 206.222 99.72ZM219.099 101H218.123C217.803 101 217.525 100.931 217.291 100.792C217.067 100.643 216.896 100.435 216.779 100.168C216.661 99.9013 216.603 99.5867 216.603 99.224V99.08L217.099 99.608H216.539C216.379 100.12 216.085 100.515 215.659 100.792C215.232 101.059 214.715 101.192 214.107 101.192C213.253 101.192 212.592 100.968 212.123 100.52C211.653 100.072 211.419 99.4693 211.419 98.712C211.419 98.1573 211.552 97.6987 211.819 97.336C212.096 96.9627 212.496 96.6853 213.019 96.504C213.541 96.312 214.192 96.216 214.971 96.216H216.475V95.512C216.475 95.0107 216.336 94.6213 216.059 94.344C215.781 94.056 215.349 93.912 214.763 93.912C214.283 93.912 213.883 94.024 213.563 94.248C213.253 94.4613 212.992 94.728 212.779 95.048L211.739 94.104C212.016 93.6347 212.405 93.2507 212.907 92.952C213.419 92.6427 214.075 92.488 214.875 92.488C215.941 92.488 216.763 92.744 217.339 93.256C217.925 93.7573 218.219 94.472 218.219 95.4V99.576H219.099V101ZM216.475 97.336H215.003C214.395 97.336 213.941 97.432 213.643 97.624C213.344 97.816 213.195 98.0933 213.195 98.456V98.744C213.195 99.1067 213.323 99.384 213.579 99.576C213.835 99.768 214.176 99.864 214.603 99.864C214.965 99.864 215.285 99.8107 215.563 99.704C215.84 99.5973 216.059 99.4427 216.219 99.24C216.389 99.0373 216.475 98.8027 216.475 98.536V97.336ZM227.229 101.192C226.44 101.192 225.757 101.016 225.181 100.664C224.605 100.301 224.157 99.7947 223.837 99.144C223.528 98.4933 223.373 97.7253 223.373 96.84C223.373 95.9547 223.528 95.192 223.837 94.552C224.147 93.9013 224.584 93.3947 225.149 93.032C225.715 92.6693 226.392 92.488 227.181 92.488C228.003 92.488 228.685 92.6747 229.229 93.048C229.784 93.4107 230.2 93.9067 230.477 94.536C230.755 95.1653 230.893 95.864 230.893 96.632V97.288H225.197V97.56C225.197 98.2 225.384 98.728 225.757 99.144C226.141 99.5493 226.685 99.752 227.389 99.752C227.901 99.752 228.333 99.64 228.685 99.416C229.037 99.192 229.331 98.888 229.565 98.504L230.605 99.512C230.285 100.013 229.832 100.419 229.245 100.728C228.669 101.037 227.997 101.192 227.229 101.192ZM227.213 93.848C226.808 93.848 226.451 93.944 226.141 94.136C225.843 94.3173 225.608 94.5733 225.437 94.904C225.277 95.224 225.197 95.5973 225.197 96.024V96.136H229.069V95.976C229.069 95.5493 228.995 95.176 228.845 94.856C228.696 94.536 228.483 94.2907 228.205 94.12C227.928 93.9387 227.597 93.848 227.213 93.848ZM237.736 101V99.624H237.656C237.464 100.115 237.166 100.499 236.76 100.776C236.355 101.053 235.875 101.192 235.32 101.192C234.627 101.192 234.03 101.021 233.528 100.68C233.038 100.328 232.659 99.8267 232.392 99.176C232.136 98.5253 232.008 97.7467 232.008 96.84C232.008 95.9227 232.136 95.144 232.392 94.504C232.659 93.8533 233.038 93.3573 233.528 93.016C234.03 92.664 234.627 92.488 235.32 92.488C235.875 92.488 236.36 92.6267 236.776 92.904C237.192 93.1707 237.486 93.5547 237.656 94.056H237.736V89.16H239.48V101H237.736ZM235.848 99.72C236.2 99.72 236.515 99.6613 236.792 99.544C237.08 99.416 237.31 99.2453 237.48 99.032C237.651 98.808 237.736 98.536 237.736 98.216V95.4C237.736 95.112 237.651 94.8613 237.48 94.648C237.31 94.4347 237.08 94.2693 236.792 94.152C236.515 94.0347 236.2 93.976 235.848 93.976C235.251 93.976 234.766 94.1733 234.392 94.568C234.03 94.9627 233.848 95.48 233.848 96.12V97.56C233.848 98.2 234.03 98.7227 234.392 99.128C234.766 99.5227 235.251 99.72 235.848 99.72ZM242.533 91.192C242.17 91.192 241.904 91.1067 241.733 90.936C241.573 90.7653 241.493 90.5467 241.493 90.28V90.008C241.493 89.7413 241.573 89.5227 241.733 89.352C241.904 89.1813 242.17 89.096 242.533 89.096C242.896 89.096 243.157 89.1813 243.317 89.352C243.477 89.5227 243.557 89.7413 243.557 90.008V90.28C243.557 90.5467 243.477 90.7653 243.317 90.936C243.157 91.1067 242.896 91.192 242.533 91.192ZM241.653 101V92.68H243.397V101H241.653ZM248.783 101.192C247.578 101.192 246.645 100.803 245.983 100.024C245.322 99.2347 244.991 98.1733 244.991 96.84C244.991 95.5067 245.322 94.4507 245.983 93.672C246.645 92.8827 247.578 92.488 248.783 92.488C249.615 92.488 250.298 92.6747 250.831 93.048C251.365 93.4213 251.749 93.9173 251.983 94.536L250.543 95.208C250.426 94.824 250.218 94.52 249.919 94.296C249.621 94.0613 249.242 93.944 248.783 93.944C248.143 93.944 247.658 94.1467 247.327 94.552C246.997 94.9467 246.831 95.464 246.831 96.104V97.576C246.831 98.216 246.997 98.7387 247.327 99.144C247.658 99.5493 248.143 99.752 248.783 99.752C249.285 99.752 249.69 99.6293 249.999 99.384C250.309 99.128 250.554 98.792 250.735 98.376L252.047 99.08C251.781 99.7627 251.37 100.285 250.815 100.648C250.261 101.011 249.583 101.192 248.783 101.192ZM254.268 91.192C253.905 91.192 253.639 91.1067 253.468 90.936C253.308 90.7653 253.228 90.5467 253.228 90.28V90.008C253.228 89.7413 253.308 89.5227 253.468 89.352C253.639 89.1813 253.905 89.096 254.268 89.096C254.631 89.096 254.892 89.1813 255.052 89.352C255.212 89.5227 255.292 89.7413 255.292 90.008V90.28C255.292 90.5467 255.212 90.7653 255.052 90.936C254.892 91.1067 254.631 91.192 254.268 91.192ZM253.388 101V92.68H255.132V101H253.388ZM260.55 101.192C259.772 101.192 259.094 101.016 258.518 100.664C257.953 100.301 257.51 99.7947 257.19 99.144C256.881 98.4933 256.726 97.7253 256.726 96.84C256.726 95.9547 256.881 95.1867 257.19 94.536C257.51 93.8853 257.953 93.384 258.518 93.032C259.094 92.6693 259.772 92.488 260.55 92.488C261.318 92.488 261.985 92.6693 262.55 93.032C263.126 93.384 263.569 93.8853 263.878 94.536C264.198 95.1867 264.358 95.9547 264.358 96.84C264.358 97.7253 264.198 98.4933 263.878 99.144C263.569 99.7947 263.126 100.301 262.55 100.664C261.985 101.016 261.318 101.192 260.55 101.192ZM260.55 99.736C261.148 99.736 261.622 99.5547 261.974 99.192C262.337 98.8187 262.518 98.2693 262.518 97.544V96.136C262.518 95.4107 262.337 94.8667 261.974 94.504C261.622 94.1307 261.148 93.944 260.55 93.944C259.964 93.944 259.484 94.1307 259.11 94.504C258.748 94.8667 258.566 95.4107 258.566 96.136V97.544C258.566 98.2693 258.748 98.8187 259.11 99.192C259.484 99.5547 259.964 99.736 260.55 99.736ZM262.598 89.016L260.71 91.688L259.622 91.16L261.078 88.28L262.598 89.016ZM267.711 101H265.967V92.68H267.711V94.056H267.791C267.972 93.608 268.244 93.2347 268.607 92.936C268.98 92.6373 269.487 92.488 270.127 92.488C270.98 92.488 271.641 92.7707 272.111 93.336C272.591 93.9013 272.831 94.696 272.831 95.72V101H271.087V95.928C271.087 95.2773 270.959 94.792 270.703 94.472C270.457 94.1413 270.063 93.976 269.519 93.976C269.209 93.976 268.916 94.0293 268.639 94.136C268.372 94.232 268.148 94.3867 267.967 94.6C267.796 94.8133 267.711 95.08 267.711 95.4V101Z" fill="black"/>
<path d="M1029.35 155.432H1026.02V165H1024.21V155.432H1020.88V153.832H1029.35V155.432ZM1036.61 165H1035.63C1035.31 165 1035.04 164.931 1034.8 164.792C1034.58 164.643 1034.41 164.435 1034.29 164.168C1034.17 163.901 1034.11 163.587 1034.11 163.224V163.08L1034.61 163.608H1034.05C1033.89 164.12 1033.6 164.515 1033.17 164.792C1032.74 165.059 1032.23 165.192 1031.62 165.192C1030.76 165.192 1030.1 164.968 1029.63 164.52C1029.16 164.072 1028.93 163.469 1028.93 162.712C1028.93 162.157 1029.06 161.699 1029.33 161.336C1029.61 160.963 1030.01 160.685 1030.53 160.504C1031.05 160.312 1031.7 160.216 1032.48 160.216H1033.99V159.512C1033.99 159.011 1033.85 158.621 1033.57 158.344C1033.29 158.056 1032.86 157.912 1032.27 157.912C1031.79 157.912 1031.39 158.024 1031.07 158.248C1030.76 158.461 1030.5 158.728 1030.29 159.048L1029.25 158.104C1029.53 157.635 1029.92 157.251 1030.42 156.952C1030.93 156.643 1031.59 156.488 1032.39 156.488C1033.45 156.488 1034.27 156.744 1034.85 157.256C1035.44 157.757 1035.73 158.472 1035.73 159.4V163.576H1036.61V165ZM1033.99 161.336H1032.51C1031.91 161.336 1031.45 161.432 1031.15 161.624C1030.85 161.816 1030.71 162.093 1030.71 162.456V162.744C1030.71 163.107 1030.83 163.384 1031.09 163.576C1031.35 163.768 1031.69 163.864 1032.11 163.864C1032.48 163.864 1032.8 163.811 1033.07 163.704C1033.35 163.597 1033.57 163.443 1033.73 163.24C1033.9 163.037 1033.99 162.803 1033.99 162.536V161.336ZM1039.74 165H1038V156.68H1039.74V158.328H1039.82C1039.91 158.051 1040.04 157.789 1040.22 157.544C1040.41 157.288 1040.67 157.08 1040.97 156.92C1041.28 156.76 1041.66 156.68 1042.11 156.68H1042.57V158.36H1041.89C1041.43 158.36 1041.04 158.413 1040.72 158.52C1040.4 158.627 1040.15 158.776 1039.98 158.968C1039.82 159.16 1039.74 159.4 1039.74 159.688V165ZM1043.8 166.776V156.68H1045.55V166.12C1045.55 166.76 1045.38 167.267 1045.05 167.64C1044.73 168.013 1044.22 168.2 1043.52 168.2H1042.51V166.776H1043.8ZM1044.68 155.192C1044.32 155.192 1044.05 155.107 1043.88 154.936C1043.72 154.765 1043.64 154.547 1043.64 154.28V154.008C1043.64 153.741 1043.72 153.523 1043.88 153.352C1044.05 153.181 1044.32 153.096 1044.68 153.096C1045.05 153.096 1045.31 153.181 1045.47 153.352C1045.63 153.523 1045.71 153.741 1045.71 154.008V154.28C1045.71 154.547 1045.63 154.765 1045.47 154.936C1045.31 155.107 1045.05 155.192 1044.68 155.192ZM1051 165.192C1050.21 165.192 1049.53 165.016 1048.95 164.664C1048.37 164.301 1047.93 163.795 1047.61 163.144C1047.3 162.493 1047.14 161.725 1047.14 160.84C1047.14 159.955 1047.3 159.192 1047.61 158.552C1047.92 157.901 1048.35 157.395 1048.92 157.032C1049.48 156.669 1050.16 156.488 1050.95 156.488C1051.77 156.488 1052.45 156.675 1053 157.048C1053.55 157.411 1053.97 157.907 1054.25 158.536C1054.52 159.165 1054.66 159.864 1054.66 160.632V161.288H1048.97V161.56C1048.97 162.2 1049.15 162.728 1049.53 163.144C1049.91 163.549 1050.45 163.752 1051.16 163.752C1051.67 163.752 1052.1 163.64 1052.45 163.416C1052.81 163.192 1053.1 162.888 1053.33 162.504L1054.37 163.512C1054.05 164.013 1053.6 164.419 1053.01 164.728C1052.44 165.037 1051.77 165.192 1051 165.192ZM1050.98 157.848C1050.58 157.848 1050.22 157.944 1049.91 158.136C1049.61 158.317 1049.38 158.573 1049.21 158.904C1049.05 159.224 1048.97 159.597 1048.97 160.024V160.136H1052.84V159.976C1052.84 159.549 1052.76 159.176 1052.61 158.856C1052.46 158.536 1052.25 158.291 1051.97 158.12C1051.7 157.939 1051.37 157.848 1050.98 157.848ZM1060.1 165H1058.58C1057.98 165 1057.52 164.84 1057.2 164.52C1056.89 164.189 1056.74 163.741 1056.74 163.176V158.104H1055.44V156.68H1056.15C1056.43 156.68 1056.63 156.616 1056.74 156.488C1056.85 156.36 1056.91 156.152 1056.91 155.864V154.408H1058.48V156.68H1060.23V158.104H1058.48V163.576H1060.1V165ZM1068.87 165H1067.89C1067.57 165 1067.3 164.931 1067.06 164.792C1066.84 164.643 1066.67 164.435 1066.55 164.168C1066.43 163.901 1066.37 163.587 1066.37 163.224V163.08L1066.87 163.608H1066.31C1066.15 164.12 1065.86 164.515 1065.43 164.792C1065 165.059 1064.48 165.192 1063.88 165.192C1063.02 165.192 1062.36 164.968 1061.89 164.52C1061.42 164.072 1061.19 163.469 1061.19 162.712C1061.19 162.157 1061.32 161.699 1061.59 161.336C1061.87 160.963 1062.27 160.685 1062.79 160.504C1063.31 160.312 1063.96 160.216 1064.74 160.216H1066.24V159.512C1066.24 159.011 1066.11 158.621 1065.83 158.344C1065.55 158.056 1065.12 157.912 1064.53 157.912C1064.05 157.912 1063.65 158.024 1063.33 158.248C1063.02 158.461 1062.76 158.728 1062.55 159.048L1061.51 158.104C1061.79 157.635 1062.18 157.251 1062.68 156.952C1063.19 156.643 1063.84 156.488 1064.64 156.488C1065.71 156.488 1066.53 156.744 1067.11 157.256C1067.7 157.757 1067.99 158.472 1067.99 159.4V163.576H1068.87V165ZM1066.24 161.336H1064.77C1064.16 161.336 1063.71 161.432 1063.41 161.624C1063.11 161.816 1062.96 162.093 1062.96 162.456V162.744C1062.96 163.107 1063.09 163.384 1063.35 163.576C1063.6 163.768 1063.95 163.864 1064.37 163.864C1064.74 163.864 1065.06 163.811 1065.33 163.704C1065.61 163.597 1065.83 163.443 1065.99 163.24C1066.16 163.037 1066.24 162.803 1066.24 162.536V161.336ZM1078.95 165V163.624H1078.87C1078.68 164.115 1078.38 164.499 1077.98 164.776C1077.57 165.053 1077.09 165.192 1076.54 165.192C1075.84 165.192 1075.24 165.021 1074.74 164.68C1074.25 164.328 1073.87 163.827 1073.61 163.176C1073.35 162.525 1073.22 161.747 1073.22 160.84C1073.22 159.923 1073.35 159.144 1073.61 158.504C1073.87 157.853 1074.25 157.357 1074.74 157.016C1075.24 156.664 1075.84 156.488 1076.54 156.488C1077.09 156.488 1077.58 156.627 1077.99 156.904C1078.41 157.171 1078.7 157.555 1078.87 158.056H1078.95V153.16H1080.7V165H1078.95ZM1077.06 163.72C1077.42 163.72 1077.73 163.661 1078.01 163.544C1078.3 163.416 1078.52 163.245 1078.7 163.032C1078.87 162.808 1078.95 162.536 1078.95 162.216V159.4C1078.95 159.112 1078.87 158.861 1078.7 158.648C1078.52 158.435 1078.3 158.269 1078.01 158.152C1077.73 158.035 1077.42 157.976 1077.06 157.976C1076.47 157.976 1075.98 158.173 1075.61 158.568C1075.24 158.963 1075.06 159.48 1075.06 160.12V161.56C1075.06 162.2 1075.24 162.723 1075.61 163.128C1075.98 163.523 1076.47 163.72 1077.06 163.72ZM1086.15 165.192C1085.36 165.192 1084.68 165.016 1084.1 164.664C1083.52 164.301 1083.08 163.795 1082.76 163.144C1082.45 162.493 1082.29 161.725 1082.29 160.84C1082.29 159.955 1082.45 159.192 1082.76 158.552C1083.07 157.901 1083.5 157.395 1084.07 157.032C1084.63 156.669 1085.31 156.488 1086.1 156.488C1086.92 156.488 1087.6 156.675 1088.15 157.048C1088.7 157.411 1089.12 157.907 1089.4 158.536C1089.67 159.165 1089.81 159.864 1089.81 160.632V161.288H1084.12V161.56C1084.12 162.2 1084.3 162.728 1084.68 163.144C1085.06 163.549 1085.6 163.752 1086.31 163.752C1086.82 163.752 1087.25 163.64 1087.6 163.416C1087.96 163.192 1088.25 162.888 1088.48 162.504L1089.52 163.512C1089.2 164.013 1088.75 164.419 1088.16 164.728C1087.59 165.037 1086.92 165.192 1086.15 165.192ZM1086.13 157.848C1085.73 157.848 1085.37 157.944 1085.06 158.136C1084.76 158.317 1084.53 158.573 1084.36 158.904C1084.2 159.224 1084.12 159.597 1084.12 160.024V160.136H1087.99V159.976C1087.99 159.549 1087.91 159.176 1087.76 158.856C1087.61 158.536 1087.4 158.291 1087.12 158.12C1086.85 157.939 1086.52 157.848 1086.13 157.848ZM1024.96 181.192C1023.76 181.192 1022.83 180.803 1022.16 180.024C1021.5 179.235 1021.17 178.173 1021.17 176.84C1021.17 175.507 1021.5 174.451 1022.16 173.672C1022.83 172.883 1023.76 172.488 1024.96 172.488C1025.8 172.488 1026.48 172.675 1027.01 173.048C1027.55 173.421 1027.93 173.917 1028.16 174.536L1026.72 175.208C1026.61 174.824 1026.4 174.52 1026.1 174.296C1025.8 174.061 1025.42 173.944 1024.96 173.944C1024.32 173.944 1023.84 174.147 1023.51 174.552C1023.18 174.947 1023.01 175.464 1023.01 176.104V177.576C1023.01 178.216 1023.18 178.739 1023.51 179.144C1023.84 179.549 1024.32 179.752 1024.96 179.752C1025.47 179.752 1025.87 179.629 1026.18 179.384C1026.49 179.128 1026.73 178.792 1026.92 178.376L1028.23 179.08C1027.96 179.763 1027.55 180.285 1027 180.648C1026.44 181.011 1025.76 181.192 1024.96 181.192ZM1032.72 181.192C1031.94 181.192 1031.27 181.016 1030.69 180.664C1030.13 180.301 1029.68 179.795 1029.36 179.144C1029.05 178.493 1028.9 177.725 1028.9 176.84C1028.9 175.955 1029.05 175.187 1029.36 174.536C1029.68 173.885 1030.13 173.384 1030.69 173.032C1031.27 172.669 1031.94 172.488 1032.72 172.488C1033.49 172.488 1034.16 172.669 1034.72 173.032C1035.3 173.384 1035.74 173.885 1036.05 174.536C1036.37 175.187 1036.53 175.955 1036.53 176.84C1036.53 177.725 1036.37 178.493 1036.05 179.144C1035.74 179.795 1035.3 180.301 1034.72 180.664C1034.16 181.016 1033.49 181.192 1032.72 181.192ZM1032.72 179.736C1033.32 179.736 1033.79 179.555 1034.15 179.192C1034.51 178.819 1034.69 178.269 1034.69 177.544V176.136C1034.69 175.411 1034.51 174.867 1034.15 174.504C1033.79 174.131 1033.32 173.944 1032.72 173.944C1032.14 173.944 1031.66 174.131 1031.28 174.504C1030.92 174.867 1030.74 175.411 1030.74 176.136V177.544C1030.74 178.269 1030.92 178.819 1031.28 179.192C1031.66 179.555 1032.14 179.736 1032.72 179.736ZM1039.88 181H1038.14V172.68H1039.88V174.056H1039.96C1040.14 173.608 1040.42 173.235 1040.78 172.936C1041.15 172.637 1041.66 172.488 1042.3 172.488C1043.15 172.488 1043.81 172.771 1044.28 173.336C1044.76 173.901 1045 174.696 1045 175.72V181H1043.26V175.928C1043.26 175.277 1043.13 174.792 1042.88 174.472C1042.63 174.141 1042.24 173.976 1041.69 173.976C1041.38 173.976 1041.09 174.029 1040.81 174.136C1040.54 174.232 1040.32 174.387 1040.14 174.6C1039.97 174.813 1039.88 175.08 1039.88 175.4V181ZM1047.53 181V174.104H1046.27V172.68H1047.53V171.304C1047.53 170.632 1047.71 170.109 1048.06 169.736C1048.42 169.352 1048.95 169.16 1049.64 169.16H1051.02V170.584H1049.28V172.68H1054.22V181H1052.48V174.104H1049.28V181H1047.53ZM1053.34 171.192C1052.99 171.192 1052.73 171.107 1052.56 170.936C1052.4 170.765 1052.32 170.547 1052.32 170.28V170.008C1052.32 169.741 1052.4 169.523 1052.56 169.352C1052.73 169.181 1052.99 169.096 1053.34 169.096C1053.71 169.096 1053.98 169.181 1054.14 169.352C1054.3 169.523 1054.38 169.741 1054.38 170.008V170.28C1054.38 170.547 1054.3 170.765 1054.14 170.936C1053.98 171.107 1053.71 171.192 1053.34 171.192ZM1063.7 181.784C1063.7 182.36 1063.55 182.84 1063.25 183.224C1062.97 183.619 1062.51 183.912 1061.89 184.104C1061.28 184.296 1060.46 184.392 1059.46 184.392C1058.57 184.392 1057.84 184.312 1057.27 184.152C1056.72 183.992 1056.31 183.763 1056.05 183.464C1055.81 183.165 1055.69 182.808 1055.69 182.392C1055.69 181.933 1055.81 181.571 1056.05 181.304C1056.31 181.048 1056.66 180.877 1057.11 180.792V180.616C1056.8 180.52 1056.57 180.36 1056.41 180.136C1056.25 179.912 1056.17 179.645 1056.17 179.336C1056.17 178.909 1056.31 178.584 1056.6 178.36C1056.9 178.125 1057.25 177.96 1057.65 177.864V177.8C1057.15 177.565 1056.77 177.235 1056.5 176.808C1056.25 176.381 1056.12 175.891 1056.12 175.336C1056.12 174.771 1056.25 174.275 1056.5 173.848C1056.77 173.421 1057.15 173.091 1057.64 172.856C1058.14 172.611 1058.74 172.488 1059.43 172.488C1059.72 172.488 1059.98 172.509 1060.23 172.552C1060.49 172.595 1060.73 172.659 1060.95 172.744V172.52C1060.95 172.147 1061.04 171.859 1061.22 171.656C1061.4 171.453 1061.68 171.352 1062.04 171.352H1063.3V172.744H1061.62V173.08C1062 173.336 1062.28 173.656 1062.47 174.04C1062.67 174.424 1062.77 174.856 1062.77 175.336C1062.77 175.891 1062.64 176.381 1062.37 176.808C1062.12 177.235 1061.74 177.565 1061.24 177.8C1060.75 178.035 1060.15 178.152 1059.45 178.152C1059.24 178.152 1059.05 178.141 1058.85 178.12C1058.67 178.099 1058.51 178.067 1058.36 178.024C1058.16 178.099 1057.97 178.205 1057.81 178.344C1057.65 178.472 1057.57 178.643 1057.57 178.856C1057.57 179.08 1057.67 179.24 1057.86 179.336C1058.06 179.432 1058.35 179.48 1058.73 179.48H1060.77C1061.8 179.48 1062.54 179.683 1063 180.088C1063.47 180.493 1063.7 181.059 1063.7 181.784ZM1062.07 181.976C1062.07 181.677 1061.95 181.443 1061.72 181.272C1061.49 181.112 1061.1 181.032 1060.53 181.032H1057.72C1057.53 181.139 1057.38 181.272 1057.29 181.432C1057.2 181.603 1057.16 181.789 1057.16 181.992C1057.16 182.323 1057.29 182.595 1057.56 182.808C1057.82 183.021 1058.28 183.128 1058.93 183.128H1060.02C1060.7 183.128 1061.22 183.032 1061.56 182.84C1061.9 182.648 1062.07 182.36 1062.07 181.976ZM1059.45 176.904C1059.96 176.904 1060.35 176.787 1060.63 176.552C1060.92 176.317 1061.06 175.965 1061.06 175.496V175.16C1061.06 174.691 1060.92 174.339 1060.63 174.104C1060.35 173.869 1059.96 173.752 1059.45 173.752C1058.93 173.752 1058.53 173.869 1058.25 174.104C1057.97 174.339 1057.83 174.691 1057.83 175.16V175.496C1057.83 175.965 1057.97 176.317 1058.25 176.552C1058.53 176.787 1058.93 176.904 1059.45 176.904ZM1069.66 181V179.624H1069.58C1069.43 180.04 1069.17 180.408 1068.81 180.728C1068.46 181.037 1067.93 181.192 1067.24 181.192C1066.4 181.192 1065.74 180.915 1065.26 180.36C1064.78 179.795 1064.54 179 1064.54 177.976V172.68H1066.28V177.752C1066.28 178.392 1066.41 178.883 1066.66 179.224C1066.93 179.555 1067.33 179.72 1067.86 179.72C1068.17 179.72 1068.46 179.667 1068.73 179.56C1069.01 179.453 1069.23 179.293 1069.4 179.08C1069.57 178.867 1069.66 178.6 1069.66 178.28V172.68H1071.4V181H1069.66ZM1075.32 181H1073.58V172.68H1075.32V174.328H1075.4C1075.49 174.051 1075.62 173.789 1075.8 173.544C1075.99 173.288 1076.24 173.08 1076.55 172.92C1076.86 172.76 1077.24 172.68 1077.69 172.68H1078.15V174.36H1077.47C1077.01 174.36 1076.62 174.413 1076.3 174.52C1075.98 174.627 1075.73 174.776 1075.56 174.968C1075.4 175.16 1075.32 175.4 1075.32 175.688V181ZM1086.33 181H1085.35C1085.03 181 1084.76 180.931 1084.52 180.792C1084.3 180.643 1084.13 180.435 1084.01 180.168C1083.89 179.901 1083.83 179.587 1083.83 179.224V179.08L1084.33 179.608H1083.77C1083.61 180.12 1083.32 180.515 1082.89 180.792C1082.46 181.059 1081.95 181.192 1081.34 181.192C1080.48 181.192 1079.82 180.968 1079.35 180.52C1078.88 180.072 1078.65 179.469 1078.65 178.712C1078.65 178.157 1078.78 177.699 1079.05 177.336C1079.33 176.963 1079.73 176.685 1080.25 176.504C1080.77 176.312 1081.42 176.216 1082.2 176.216H1083.71V175.512C1083.71 175.011 1083.57 174.621 1083.29 174.344C1083.01 174.056 1082.58 173.912 1081.99 173.912C1081.51 173.912 1081.11 174.024 1080.79 174.248C1080.48 174.461 1080.22 174.728 1080.01 175.048L1078.97 174.104C1079.25 173.635 1079.64 173.251 1080.14 172.952C1080.65 172.643 1081.31 172.488 1082.11 172.488C1083.17 172.488 1083.99 172.744 1084.57 173.256C1085.16 173.757 1085.45 174.472 1085.45 175.4V179.576H1086.33V181ZM1083.71 177.336H1082.23C1081.63 177.336 1081.17 177.432 1080.87 177.624C1080.58 177.816 1080.43 178.093 1080.43 178.456V178.744C1080.43 179.107 1080.55 179.384 1080.81 179.576C1081.07 179.768 1081.41 179.864 1081.83 179.864C1082.2 179.864 1082.52 179.811 1082.79 179.704C1083.07 179.597 1083.29 179.443 1083.45 179.24C1083.62 179.037 1083.71 178.803 1083.71 178.536V177.336ZM1090.94 181.192C1089.73 181.192 1088.8 180.803 1088.14 180.024C1087.47 179.235 1087.14 178.173 1087.14 176.84C1087.14 175.507 1087.47 174.451 1088.14 173.672C1088.8 172.883 1089.73 172.488 1090.94 172.488C1091.77 172.488 1092.45 172.675 1092.98 173.048C1093.52 173.421 1093.9 173.917 1094.14 174.536L1092.7 175.208C1092.58 174.824 1092.37 174.52 1092.07 174.296C1091.77 174.061 1091.39 173.944 1090.94 173.944C1090.3 173.944 1089.81 174.147 1089.48 174.552C1089.15 174.947 1088.98 175.464 1088.98 176.104V177.576C1088.98 178.216 1089.15 178.739 1089.48 179.144C1089.81 179.549 1090.3 179.752 1090.94 179.752C1091.44 179.752 1091.84 179.629 1092.15 179.384C1092.46 179.128 1092.71 178.792 1092.89 178.376L1094.2 179.08C1093.93 179.763 1093.52 180.285 1092.97 180.648C1092.41 181.011 1091.74 181.192 1090.94 181.192ZM1096.42 171.192C1096.06 171.192 1095.79 171.107 1095.62 170.936C1095.46 170.765 1095.38 170.547 1095.38 170.28V170.008C1095.38 169.741 1095.46 169.523 1095.62 169.352C1095.79 169.181 1096.06 169.096 1096.42 169.096C1096.78 169.096 1097.04 169.181 1097.2 169.352C1097.36 169.523 1097.44 169.741 1097.44 170.008V170.28C1097.44 170.547 1097.36 170.765 1097.2 170.936C1097.04 171.107 1096.78 171.192 1096.42 171.192ZM1095.54 181V172.68H1097.28V181H1095.54ZM1102.7 181.192C1101.92 181.192 1101.25 181.016 1100.67 180.664C1100.1 180.301 1099.66 179.795 1099.34 179.144C1099.03 178.493 1098.88 177.725 1098.88 176.84C1098.88 175.955 1099.03 175.187 1099.34 174.536C1099.66 173.885 1100.1 173.384 1100.67 173.032C1101.25 172.669 1101.92 172.488 1102.7 172.488C1103.47 172.488 1104.14 172.669 1104.7 173.032C1105.28 173.384 1105.72 173.885 1106.03 174.536C1106.35 175.187 1106.51 175.955 1106.51 176.84C1106.51 177.725 1106.35 178.493 1106.03 179.144C1105.72 179.795 1105.28 180.301 1104.7 180.664C1104.14 181.016 1103.47 181.192 1102.7 181.192ZM1102.7 179.736C1103.3 179.736 1103.77 179.555 1104.13 179.192C1104.49 178.819 1104.67 178.269 1104.67 177.544V176.136C1104.67 175.411 1104.49 174.867 1104.13 174.504C1103.77 174.131 1103.3 173.944 1102.7 173.944C1102.12 173.944 1101.64 174.131 1101.26 174.504C1100.9 174.867 1100.72 175.411 1100.72 176.136V177.544C1100.72 178.269 1100.9 178.819 1101.26 179.192C1101.64 179.555 1102.12 179.736 1102.7 179.736ZM1104.75 169.016L1102.86 171.688L1101.77 171.16L1103.23 168.28L1104.75 169.016ZM1109.86 181H1108.12V172.68H1109.86V174.056H1109.94C1110.12 173.608 1110.4 173.235 1110.76 172.936C1111.13 172.637 1111.64 172.488 1112.28 172.488C1113.13 172.488 1113.79 172.771 1114.26 173.336C1114.74 173.901 1114.98 174.696 1114.98 175.72V181H1113.24V175.928C1113.24 175.277 1113.11 174.792 1112.85 174.472C1112.61 174.141 1112.21 173.976 1111.67 173.976C1111.36 173.976 1111.07 174.029 1110.79 174.136C1110.52 174.232 1110.3 174.387 1110.12 174.6C1109.95 174.813 1109.86 175.08 1109.86 175.4V181Z" fill="black"/>
<path d="M1019.57 264.192C1018.6 264.192 1017.76 263.979 1017.06 263.552C1016.35 263.115 1015.81 262.475 1015.44 261.632C1015.07 260.789 1014.88 259.739 1014.88 258.48C1014.88 257.232 1015.07 256.176 1015.44 255.312C1015.81 254.437 1016.35 253.776 1017.06 253.328C1017.76 252.869 1018.6 252.64 1019.57 252.64C1020.53 252.64 1021.33 252.853 1021.98 253.28C1022.65 253.707 1023.17 254.336 1023.55 255.168L1022.03 256C1021.84 255.467 1021.54 255.045 1021.14 254.736C1020.74 254.416 1020.22 254.256 1019.57 254.256C1018.7 254.256 1018.03 254.555 1017.54 255.152C1017.05 255.749 1016.8 256.565 1016.8 257.6V259.312C1016.8 260.336 1017.05 261.136 1017.54 261.712C1018.03 262.288 1018.7 262.576 1019.57 262.576C1020.23 262.576 1020.77 262.405 1021.2 262.064C1021.63 261.712 1021.94 261.264 1022.14 260.72L1023.6 261.6C1023.23 262.4 1022.7 263.035 1022.02 263.504C1021.34 263.963 1020.53 264.192 1019.57 264.192ZM1032.14 264H1031.16C1030.84 264 1030.57 263.931 1030.33 263.792C1030.11 263.643 1029.94 263.435 1029.82 263.168C1029.7 262.901 1029.64 262.587 1029.64 262.224V262.08L1030.14 262.608H1029.58C1029.42 263.12 1029.13 263.515 1028.7 263.792C1028.27 264.059 1027.76 264.192 1027.15 264.192C1026.3 264.192 1025.63 263.968 1025.16 263.52C1024.7 263.072 1024.46 262.469 1024.46 261.712C1024.46 261.157 1024.59 260.699 1024.86 260.336C1025.14 259.963 1025.54 259.685 1026.06 259.504C1026.58 259.312 1027.23 259.216 1028.01 259.216H1029.52V258.512C1029.52 258.011 1029.38 257.621 1029.1 257.344C1028.82 257.056 1028.39 256.912 1027.8 256.912C1027.32 256.912 1026.92 257.024 1026.6 257.248C1026.3 257.461 1026.03 257.728 1025.82 258.048L1024.78 257.104C1025.06 256.635 1025.45 256.251 1025.95 255.952C1026.46 255.643 1027.12 255.488 1027.92 255.488C1028.98 255.488 1029.8 255.744 1030.38 256.256C1030.97 256.757 1031.26 257.472 1031.26 258.4V262.576H1032.14V264ZM1029.52 260.336H1028.04C1027.44 260.336 1026.98 260.432 1026.68 260.624C1026.39 260.816 1026.24 261.093 1026.24 261.456V261.744C1026.24 262.107 1026.36 262.384 1026.62 262.576C1026.88 262.768 1027.22 262.864 1027.64 262.864C1028.01 262.864 1028.33 262.811 1028.6 262.704C1028.88 262.597 1029.1 262.443 1029.26 262.24C1029.43 262.037 1029.52 261.803 1029.52 261.536V260.336ZM1033.53 264V252.16H1035.27V257.056H1035.35C1035.52 256.555 1035.82 256.171 1036.23 255.904C1036.65 255.627 1037.14 255.488 1037.69 255.488C1038.39 255.488 1038.99 255.664 1039.48 256.016C1039.97 256.357 1040.35 256.853 1040.6 257.504C1040.87 258.144 1041 258.923 1041 259.84C1041 260.747 1040.87 261.525 1040.6 262.176C1040.35 262.827 1039.97 263.328 1039.48 263.68C1038.99 264.021 1038.39 264.192 1037.69 264.192C1037.14 264.192 1036.66 264.053 1036.25 263.776C1035.84 263.499 1035.55 263.115 1035.35 262.624H1035.27V264H1033.53ZM1037.16 262.72C1037.77 262.72 1038.26 262.523 1038.62 262.128C1038.98 261.723 1039.16 261.2 1039.16 260.56V259.12C1039.16 258.48 1038.98 257.963 1038.62 257.568C1038.26 257.173 1037.77 256.976 1037.16 256.976C1036.81 256.976 1036.49 257.035 1036.2 257.152C1035.92 257.269 1035.7 257.435 1035.53 257.648C1035.36 257.861 1035.27 258.112 1035.27 258.4V261.216C1035.27 261.536 1035.36 261.808 1035.53 262.032C1035.7 262.245 1035.92 262.416 1036.2 262.544C1036.49 262.661 1036.81 262.72 1037.16 262.72ZM1045.57 264H1044.47C1043.87 264 1043.43 263.845 1043.13 263.536C1042.83 263.216 1042.68 262.789 1042.68 262.256V252.16H1044.42V262.576H1045.57V264ZM1050.2 264.192C1049.41 264.192 1048.73 264.016 1048.15 263.664C1047.58 263.301 1047.13 262.795 1046.81 262.144C1046.5 261.493 1046.35 260.725 1046.35 259.84C1046.35 258.955 1046.5 258.192 1046.81 257.552C1047.12 256.901 1047.56 256.395 1048.12 256.032C1048.69 255.669 1049.36 255.488 1050.15 255.488C1050.97 255.488 1051.66 255.675 1052.2 256.048C1052.76 256.411 1053.17 256.907 1053.45 257.536C1053.73 258.165 1053.87 258.864 1053.87 259.632V260.288H1048.17V260.56C1048.17 261.2 1048.36 261.728 1048.73 262.144C1049.11 262.549 1049.66 262.752 1050.36 262.752C1050.87 262.752 1051.31 262.64 1051.66 262.416C1052.01 262.192 1052.3 261.888 1052.54 261.504L1053.58 262.512C1053.26 263.013 1052.8 263.419 1052.22 263.728C1051.64 264.037 1050.97 264.192 1050.2 264.192ZM1050.19 256.848C1049.78 256.848 1049.42 256.944 1049.11 257.136C1048.81 257.317 1048.58 257.573 1048.41 257.904C1048.25 258.224 1048.17 258.597 1048.17 259.024V259.136H1052.04V258.976C1052.04 258.549 1051.97 258.176 1051.82 257.856C1051.67 257.536 1051.45 257.291 1051.18 257.12C1050.9 256.939 1050.57 256.848 1050.19 256.848ZM1059 252.832H1060.78V259.712C1060.78 260.341 1060.85 260.869 1061 261.296C1061.16 261.723 1061.42 262.043 1061.77 262.256C1062.12 262.469 1062.59 262.576 1063.16 262.576C1063.75 262.576 1064.21 262.469 1064.55 262.256C1064.91 262.043 1065.16 261.723 1065.32 261.296C1065.48 260.869 1065.56 260.341 1065.56 259.712V252.832H1067.34V259.424C1067.34 260.512 1067.2 261.408 1066.92 262.112C1066.65 262.816 1066.21 263.339 1065.59 263.68C1064.99 264.021 1064.17 264.192 1063.15 264.192C1062.12 264.192 1061.31 264.021 1060.7 263.68C1060.1 263.339 1059.67 262.816 1059.4 262.112C1059.13 261.408 1059 260.512 1059 259.424V252.832ZM1073.04 264.192C1072.11 264.192 1071.32 264.021 1070.66 263.68C1070 263.328 1069.43 262.869 1068.96 262.304L1070.23 261.136C1070.61 261.616 1071.04 261.979 1071.51 262.224C1071.99 262.469 1072.53 262.592 1073.14 262.592C1073.85 262.592 1074.39 262.432 1074.75 262.112C1075.12 261.781 1075.3 261.349 1075.3 260.816C1075.3 260.528 1075.25 260.277 1075.14 260.064C1075.03 259.851 1074.85 259.675 1074.59 259.536C1074.34 259.397 1074 259.285 1073.57 259.2L1072.58 259.024C1071.85 258.885 1071.25 258.683 1070.75 258.416C1070.27 258.149 1069.91 257.803 1069.67 257.376C1069.42 256.939 1069.3 256.427 1069.3 255.84C1069.3 255.179 1069.46 254.608 1069.78 254.128C1070.1 253.648 1070.55 253.28 1071.14 253.024C1071.74 252.768 1072.43 252.64 1073.22 252.64C1074.06 252.64 1074.79 252.789 1075.41 253.088C1076.03 253.376 1076.55 253.797 1076.98 254.352L1075.71 255.472C1075.43 255.099 1075.07 254.8 1074.66 254.576C1074.24 254.352 1073.73 254.24 1073.11 254.24C1072.47 254.24 1071.97 254.368 1071.62 254.624C1071.28 254.88 1071.11 255.253 1071.11 255.744C1071.11 256.053 1071.17 256.309 1071.3 256.512C1071.43 256.715 1071.62 256.88 1071.87 257.008C1072.14 257.136 1072.47 257.237 1072.87 257.312L1073.86 257.52C1074.61 257.659 1075.22 257.867 1075.7 258.144C1076.18 258.421 1076.53 258.773 1076.75 259.2C1076.99 259.616 1077.11 260.123 1077.11 260.72C1077.11 261.413 1076.95 262.021 1076.63 262.544C1076.31 263.056 1075.84 263.461 1075.23 263.76C1074.63 264.048 1073.9 264.192 1073.04 264.192ZM1078.96 264V252.832H1083.9C1084.82 252.832 1085.54 253.093 1086.08 253.616C1086.61 254.139 1086.88 254.837 1086.88 255.712C1086.88 256.267 1086.78 256.715 1086.57 257.056C1086.38 257.387 1086.14 257.632 1085.84 257.792C1085.55 257.952 1085.25 258.048 1084.94 258.08V258.176C1085.18 258.187 1085.43 258.245 1085.69 258.352C1085.96 258.448 1086.21 258.597 1086.44 258.8C1086.69 259.003 1086.89 259.269 1087.04 259.6C1087.2 259.92 1087.28 260.315 1087.28 260.784C1087.28 261.381 1087.15 261.925 1086.89 262.416C1086.65 262.907 1086.31 263.296 1085.87 263.584C1085.44 263.861 1084.95 264 1084.4 264H1078.96ZM1080.76 259.056V262.448H1083.87C1084.18 262.448 1084.44 262.395 1084.67 262.288C1084.89 262.171 1085.06 262.011 1085.18 261.808C1085.31 261.595 1085.37 261.333 1085.37 261.024V260.48C1085.37 260.181 1085.31 259.925 1085.18 259.712C1085.06 259.499 1084.89 259.339 1084.67 259.232C1084.44 259.115 1084.18 259.056 1083.87 259.056H1080.76ZM1080.76 254.384V257.552H1083.56C1083.86 257.552 1084.11 257.504 1084.32 257.408C1084.53 257.301 1084.69 257.152 1084.8 256.96C1084.91 256.757 1084.97 256.512 1084.97 256.224V255.712C1084.97 255.435 1084.91 255.2 1084.8 255.008C1084.69 254.805 1084.53 254.651 1084.32 254.544C1084.11 254.437 1083.86 254.384 1083.56 254.384H1080.76Z" fill="black"/>
<path d="M229.472 259H227.664V247.832H232.464C233.146 247.832 233.728 247.971 234.208 248.248C234.698 248.525 235.072 248.915 235.328 249.416C235.584 249.917 235.712 250.509 235.712 251.192C235.712 251.864 235.584 252.451 235.328 252.952C235.072 253.453 234.698 253.848 234.208 254.136C233.728 254.413 233.146 254.552 232.464 254.552H229.472V259ZM229.472 249.416V252.968H232.352C232.65 252.968 232.906 252.915 233.12 252.808C233.344 252.701 233.514 252.547 233.632 252.344C233.749 252.131 233.808 251.875 233.808 251.576V250.808C233.808 250.499 233.749 250.243 233.632 250.04C233.514 249.837 233.344 249.683 233.12 249.576C232.906 249.469 232.65 249.416 232.352 249.416H229.472ZM244.131 259H243.155C242.835 259 242.558 258.931 242.323 258.792C242.099 258.643 241.929 258.435 241.811 258.168C241.694 257.901 241.635 257.587 241.635 257.224V257.08L242.131 257.608H241.571C241.411 258.12 241.118 258.515 240.691 258.792C240.265 259.059 239.747 259.192 239.139 259.192C238.286 259.192 237.625 258.968 237.155 258.52C236.686 258.072 236.451 257.469 236.451 256.712C236.451 256.157 236.585 255.699 236.851 255.336C237.129 254.963 237.529 254.685 238.051 254.504C238.574 254.312 239.225 254.216 240.003 254.216H241.507V253.512C241.507 253.011 241.369 252.621 241.091 252.344C240.814 252.056 240.382 251.912 239.795 251.912C239.315 251.912 238.915 252.024 238.595 252.248C238.286 252.461 238.025 252.728 237.811 253.048L236.771 252.104C237.049 251.635 237.438 251.251 237.939 250.952C238.451 250.643 239.107 250.488 239.907 250.488C240.974 250.488 241.795 250.744 242.371 251.256C242.958 251.757 243.251 252.472 243.251 253.4V257.576H244.131V259ZM241.507 255.336H240.035C239.427 255.336 238.974 255.432 238.675 255.624C238.377 255.816 238.227 256.093 238.227 256.456V256.744C238.227 257.107 238.355 257.384 238.611 257.576C238.867 257.768 239.209 257.864 239.635 257.864C239.998 257.864 240.318 257.811 240.595 257.704C240.873 257.597 241.091 257.443 241.251 257.24C241.422 257.037 241.507 256.803 241.507 256.536V255.336ZM245.521 262.2V250.68H247.265V252.056H247.345C247.515 251.555 247.809 251.171 248.225 250.904C248.641 250.627 249.126 250.488 249.681 250.488C250.385 250.488 250.982 250.664 251.473 251.016C251.963 251.357 252.337 251.853 252.593 252.504C252.859 253.144 252.993 253.923 252.993 254.84C252.993 255.747 252.859 256.525 252.593 257.176C252.337 257.827 251.963 258.328 251.473 258.68C250.982 259.021 250.385 259.192 249.681 259.192C249.126 259.192 248.646 259.053 248.241 258.776C247.835 258.499 247.537 258.115 247.345 257.624H247.265V262.2H245.521ZM249.153 257.72C249.761 257.72 250.246 257.523 250.609 257.128C250.971 256.723 251.153 256.2 251.153 255.56V254.12C251.153 253.48 250.971 252.963 250.609 252.568C250.246 252.173 249.761 251.976 249.153 251.976C248.801 251.976 248.481 252.035 248.193 252.152C247.915 252.269 247.691 252.435 247.521 252.648C247.35 252.861 247.265 253.112 247.265 253.4V256.216C247.265 256.536 247.35 256.808 247.521 257.032C247.691 257.245 247.915 257.416 248.193 257.544C248.481 257.661 248.801 257.72 249.153 257.72ZM257.949 259.192C257.16 259.192 256.477 259.016 255.901 258.664C255.325 258.301 254.877 257.795 254.557 257.144C254.248 256.493 254.093 255.725 254.093 254.84C254.093 253.955 254.248 253.192 254.557 252.552C254.867 251.901 255.304 251.395 255.869 251.032C256.435 250.669 257.112 250.488 257.901 250.488C258.723 250.488 259.405 250.675 259.949 251.048C260.504 251.411 260.92 251.907 261.197 252.536C261.475 253.165 261.613 253.864 261.613 254.632V255.288H255.917V255.56C255.917 256.2 256.104 256.728 256.477 257.144C256.861 257.549 257.405 257.752 258.109 257.752C258.621 257.752 259.053 257.64 259.405 257.416C259.757 257.192 260.051 256.888 260.285 256.504L261.325 257.512C261.005 258.013 260.552 258.419 259.965 258.728C259.389 259.037 258.717 259.192 257.949 259.192ZM257.933 251.848C257.528 251.848 257.171 251.944 256.861 252.136C256.563 252.317 256.328 252.573 256.157 252.904C255.997 253.224 255.917 253.597 255.917 254.024V254.136H259.789V253.976C259.789 253.549 259.715 253.176 259.565 252.856C259.416 252.536 259.203 252.291 258.925 252.12C258.648 251.939 258.317 251.848 257.933 251.848ZM266.12 259H265.016C264.419 259 263.971 258.845 263.672 258.536C263.374 258.216 263.224 257.789 263.224 257.256V247.16H264.968V257.576H266.12V259ZM214.966 275H213.99C213.67 275 213.393 274.931 213.158 274.792C212.934 274.643 212.764 274.435 212.646 274.168C212.529 273.901 212.47 273.587 212.47 273.224V273.08L212.966 273.608H212.406C212.246 274.12 211.953 274.515 211.526 274.792C211.1 275.059 210.582 275.192 209.974 275.192C209.121 275.192 208.46 274.968 207.99 274.52C207.521 274.072 207.286 273.469 207.286 272.712C207.286 272.157 207.42 271.699 207.686 271.336C207.964 270.963 208.364 270.685 208.886 270.504C209.409 270.312 210.06 270.216 210.838 270.216H212.342V269.512C212.342 269.011 212.204 268.621 211.926 268.344C211.649 268.056 211.217 267.912 210.63 267.912C210.15 267.912 209.75 268.024 209.43 268.248C209.121 268.461 208.86 268.728 208.646 269.048L207.606 268.104C207.884 267.635 208.273 267.251 208.774 266.952C209.286 266.643 209.942 266.488 210.742 266.488C211.809 266.488 212.63 266.744 213.206 267.256C213.793 267.757 214.086 268.472 214.086 269.4V273.576H214.966V275ZM212.342 271.336H210.87C210.262 271.336 209.809 271.432 209.51 271.624C209.212 271.816 209.062 272.093 209.062 272.456V272.744C209.062 273.107 209.19 273.384 209.446 273.576C209.702 273.768 210.044 273.864 210.47 273.864C210.833 273.864 211.153 273.811 211.43 273.704C211.708 273.597 211.926 273.443 212.086 273.24C212.257 273.037 212.342 272.803 212.342 272.536V271.336ZM221.587 275V273.624H221.507C221.315 274.115 221.017 274.499 220.611 274.776C220.206 275.053 219.726 275.192 219.171 275.192C218.478 275.192 217.881 275.021 217.379 274.68C216.889 274.328 216.51 273.827 216.243 273.176C215.987 272.525 215.859 271.747 215.859 270.84C215.859 269.923 215.987 269.144 216.243 268.504C216.51 267.853 216.889 267.357 217.379 267.016C217.881 266.664 218.478 266.488 219.171 266.488C219.726 266.488 220.211 266.627 220.627 266.904C221.043 267.171 221.337 267.555 221.507 268.056H221.587V263.16H223.331V275H221.587ZM219.699 273.72C220.051 273.72 220.366 273.661 220.643 273.544C220.931 273.416 221.161 273.245 221.331 273.032C221.502 272.808 221.587 272.536 221.587 272.216V269.4C221.587 269.112 221.502 268.861 221.331 268.648C221.161 268.435 220.931 268.269 220.643 268.152C220.366 268.035 220.051 267.976 219.699 267.976C219.102 267.976 218.617 268.173 218.243 268.568C217.881 268.963 217.699 269.48 217.699 270.12V271.56C217.699 272.2 217.881 272.723 218.243 273.128C218.617 273.523 219.102 273.72 219.699 273.72ZM225.504 275V263.16H227.248V268.056H227.328C227.51 267.608 227.782 267.235 228.144 266.936C228.518 266.637 229.024 266.488 229.664 266.488C230.518 266.488 231.179 266.771 231.648 267.336C232.128 267.901 232.368 268.696 232.368 269.72V275H230.624V269.928C230.624 269.277 230.496 268.792 230.24 268.472C229.995 268.141 229.6 267.976 229.056 267.976C228.747 267.976 228.454 268.029 228.176 268.136C227.91 268.232 227.686 268.387 227.504 268.6C227.334 268.813 227.248 269.08 227.248 269.4V275H225.504ZM237.745 275.192C236.956 275.192 236.273 275.016 235.697 274.664C235.121 274.301 234.673 273.795 234.353 273.144C234.044 272.493 233.889 271.725 233.889 270.84C233.889 269.955 234.044 269.192 234.353 268.552C234.663 267.901 235.1 267.395 235.665 267.032C236.231 266.669 236.908 266.488 237.697 266.488C238.519 266.488 239.201 266.675 239.745 267.048C240.3 267.411 240.716 267.907 240.993 268.536C241.271 269.165 241.409 269.864 241.409 270.632V271.288H235.713V271.56C235.713 272.2 235.9 272.728 236.273 273.144C236.657 273.549 237.201 273.752 237.905 273.752C238.417 273.752 238.849 273.64 239.201 273.416C239.553 273.192 239.847 272.888 240.081 272.504L241.121 273.512C240.801 274.013 240.348 274.419 239.761 274.728C239.185 275.037 238.513 275.192 237.745 275.192ZM237.729 267.848C237.324 267.848 236.967 267.944 236.657 268.136C236.359 268.317 236.124 268.573 235.953 268.904C235.793 269.224 235.713 269.597 235.713 270.024V270.136H239.585V269.976C239.585 269.549 239.511 269.176 239.361 268.856C239.212 268.536 238.999 268.291 238.721 268.12C238.444 267.939 238.113 267.848 237.729 267.848ZM245.66 275.192C244.882 275.192 244.22 275.053 243.676 274.776C243.143 274.499 242.679 274.115 242.284 273.624L243.404 272.6C243.714 272.963 244.055 273.251 244.428 273.464C244.812 273.677 245.255 273.784 245.756 273.784C246.268 273.784 246.647 273.688 246.892 273.496C247.148 273.293 247.276 273.016 247.276 272.664C247.276 272.397 247.186 272.173 247.004 271.992C246.834 271.811 246.53 271.688 246.092 271.624L245.324 271.528C244.77 271.443 244.284 271.304 243.868 271.112C243.452 270.92 243.132 270.659 242.908 270.328C242.695 269.987 242.588 269.56 242.588 269.048C242.588 268.237 242.871 267.608 243.436 267.16C244.012 266.712 244.759 266.488 245.676 266.488C246.178 266.488 246.615 266.541 246.988 266.648C247.362 266.755 247.692 266.909 247.98 267.112C248.268 267.304 248.535 267.539 248.78 267.816L247.708 268.84C247.495 268.584 247.212 268.365 246.86 268.184C246.519 267.992 246.124 267.896 245.676 267.896C245.207 267.896 244.855 267.992 244.62 268.184C244.386 268.365 244.268 268.616 244.268 268.936C244.268 269.256 244.37 269.496 244.572 269.656C244.786 269.816 245.111 269.933 245.548 270.008L246.316 270.104C247.234 270.243 247.9 270.515 248.316 270.92C248.743 271.315 248.956 271.848 248.956 272.52C248.956 273.053 248.818 273.523 248.54 273.928C248.274 274.323 247.895 274.632 247.404 274.856C246.914 275.08 246.332 275.192 245.66 275.192ZM251.487 265.192C251.124 265.192 250.857 265.107 250.687 264.936C250.527 264.765 250.447 264.547 250.447 264.28V264.008C250.447 263.741 250.527 263.523 250.687 263.352C250.857 263.181 251.124 263.096 251.487 263.096C251.849 263.096 252.111 263.181 252.271 263.352C252.431 263.523 252.511 263.741 252.511 264.008V264.28C252.511 264.547 252.431 264.765 252.271 264.936C252.111 265.107 251.849 265.192 251.487 265.192ZM250.607 275V266.68H252.351V275H250.607ZM258.393 275H256.329L253.497 266.68H255.225L256.505 270.472L257.353 273.384H257.449L258.297 270.472L259.577 266.68H261.225L258.393 275ZM265.512 275.192C264.733 275.192 264.056 275.016 263.48 274.664C262.914 274.301 262.472 273.795 262.152 273.144C261.842 272.493 261.688 271.725 261.688 270.84C261.688 269.955 261.842 269.187 262.152 268.536C262.472 267.885 262.914 267.384 263.48 267.032C264.056 266.669 264.733 266.488 265.512 266.488C266.28 266.488 266.946 266.669 267.512 267.032C268.088 267.384 268.53 267.885 268.84 268.536C269.16 269.187 269.32 269.955 269.32 270.84C269.32 271.725 269.16 272.493 268.84 273.144C268.53 273.795 268.088 274.301 267.512 274.664C266.946 275.016 266.28 275.192 265.512 275.192ZM265.512 273.736C266.109 273.736 266.584 273.555 266.936 273.192C267.298 272.819 267.48 272.269 267.48 271.544V270.136C267.48 269.411 267.298 268.867 266.936 268.504C266.584 268.131 266.109 267.944 265.512 267.944C264.925 267.944 264.445 268.131 264.072 268.504C263.709 268.867 263.528 269.411 263.528 270.136V271.544C263.528 272.269 263.709 272.819 264.072 273.192C264.445 273.555 264.925 273.736 265.512 273.736Z" fill="black"/>
<path d="M745 179C743.895 179 743 179.895 743 181C743 182.105 743.895 183 745 183V181V179ZM1008 181V179H1006.01V181V183H1008V181ZM1002.02 181V179H998.038V181V183H1002.02V181ZM994.053 181V179H990.068V181V183H994.053V181ZM986.083 181V179H982.098V181V183H986.083V181ZM978.114 181V179H974.129V181V183H978.114V181ZM970.144 181V179H966.159V181V183H970.144V181ZM962.174 181V179H958.189V181V183H962.174V181ZM954.205 181V179H950.22V181V183H954.205V181ZM946.235 181V179H942.25V181V183H946.235V181ZM938.265 181V179H934.28V181V183H938.265V181ZM930.295 181V179H926.311V181V183H930.295V181ZM922.326 181V179H918.341V181V183H922.326V181ZM914.356 181V179H910.371V181V183H914.356V181ZM906.386 181V179H902.402V181V183H906.386V181ZM898.417 181V179H894.432V181V183H898.417V181ZM890.447 181V179H886.462V181V183L890.447 183V181ZM882.477 181V179H878.492V181V183H882.477V181ZM874.508 181V179H870.523V181V183H874.508V181ZM866.538 181V179H862.553V181V183H866.538V181ZM858.568 181V179H854.583V181V183H858.568V181ZM850.598 181V179H846.614V181V183H850.598V181ZM842.629 181V179H838.644V181V183H842.629V181ZM834.659 181V179H830.674V181V183H834.659V181ZM826.689 181V179H822.705V181V183H826.689V181ZM818.72 181V179H814.735V181V183H818.72V181ZM810.75 181V179H806.765V181V183H810.75V181ZM802.78 181V179H798.795V181V183H802.78V181ZM794.811 181V179H790.826V181V183H794.811V181ZM786.841 181V179H782.856V181V183H786.841V181ZM778.871 181V179H774.886V181V183H778.871V181ZM770.902 181V179H766.917V181V183H770.902V181ZM762.932 181V179H758.947V181V183H762.932V181ZM754.962 181V179H750.977V181V183H754.962V181ZM746.992 181V179H745V181V183H746.992V181Z" fill="#4C4A4A"/>
<path d="M513.5 274C514.605 274 515.5 273.105 515.5 272C515.5 270.895 514.605 270 513.5 270V272V274ZM285 272V274H286.97V272V270H285V272ZM290.909 272V274H294.849V272V270H290.909V272ZM298.789 272V274H302.728V272V270H298.789V272ZM306.668 272V274H310.608V272V270H306.668V272ZM314.547 272V274H318.487V272V270H314.547V272ZM322.427 272V274H326.366V272V270H322.427V272ZM330.306 272V274H334.246V272V270H330.306V272ZM338.185 272V274H342.125V272V270H338.185V272ZM346.065 272V274H350.004V272V270H346.065V272ZM353.944 272V274H357.884V272V270H353.944V272ZM361.823 272V274H365.763V272V270H361.823V272ZM369.703 272V274H373.642V272V270H369.703V272ZM377.582 272V274H381.522V272V270H377.582V272ZM385.461 272V274H389.401V272V270H385.461V272ZM393.34 272V274H397.28V272V270H393.34V272ZM401.22 272V274H405.159V272V270H401.22V272ZM409.099 272V274H413.039V272V270H409.099V272ZM416.978 272V274H420.918V272V270H416.978V272ZM424.858 272V274H428.797V272V270H424.858V272ZM432.737 272V274H436.677V272V270H432.737V272ZM440.616 272V274H444.556V272V270H440.616V272ZM448.496 272V274H452.435V272V270H448.496V272ZM456.375 272V274H460.315V272V270H456.375V272ZM464.254 272V274H468.194V272V270H464.254V272ZM472.134 272V274H476.073V272V270H472.134V272ZM480.013 272V274H483.952V272V270H480.013V272ZM487.892 272V274H491.832V272V270H487.892V272ZM495.771 272V274H499.711V272V270H495.771V272ZM503.651 272V274H507.59V272V270H503.651V272ZM511.53 272V274H513.5V272V270H511.53V272Z" fill="#4C4A4A"/>
<path d="M217.8 194V192.304H217.736C217.629 192.837 217.314 193.285 216.792 193.648C216.269 194.011 215.586 194.192 214.744 194.192C213.858 194.192 213.064 193.973 212.36 193.536C211.666 193.088 211.122 192.437 210.728 191.584C210.333 190.731 210.136 189.68 210.136 188.432C210.136 187.184 210.338 186.133 210.744 185.28C211.149 184.416 211.72 183.76 212.456 183.312C213.192 182.864 214.045 182.64 215.016 182.64C216.008 182.64 216.85 182.864 217.544 183.312C218.248 183.76 218.792 184.373 219.176 185.152L217.704 186.016C217.48 185.493 217.144 185.072 216.696 184.752C216.258 184.421 215.698 184.256 215.016 184.256C214.429 184.256 213.912 184.384 213.464 184.64C213.016 184.896 212.669 185.269 212.424 185.76C212.178 186.24 212.056 186.821 212.056 187.504V189.312C212.056 189.995 212.178 190.581 212.424 191.072C212.669 191.552 213.016 191.925 213.464 192.192C213.922 192.448 214.461 192.576 215.08 192.576C215.56 192.576 215.992 192.501 216.376 192.352C216.76 192.192 217.069 191.957 217.304 191.648C217.538 191.328 217.656 190.933 217.656 190.464V189.6H215.352V188.048H219.4V194H217.8ZM228.537 194H227.561C227.241 194 226.964 193.931 226.729 193.792C226.505 193.643 226.334 193.435 226.217 193.168C226.1 192.901 226.041 192.587 226.041 192.224V192.08L226.537 192.608H225.977C225.817 193.12 225.524 193.515 225.097 193.792C224.67 194.059 224.153 194.192 223.545 194.192C222.692 194.192 222.03 193.968 221.561 193.52C221.092 193.072 220.857 192.469 220.857 191.712C220.857 191.157 220.99 190.699 221.257 190.336C221.534 189.963 221.934 189.685 222.457 189.504C222.98 189.312 223.63 189.216 224.409 189.216H225.913V188.512C225.913 188.011 225.774 187.621 225.497 187.344C225.22 187.056 224.788 186.912 224.201 186.912C223.721 186.912 223.321 187.024 223.001 187.248C222.692 187.461 222.43 187.728 222.217 188.048L221.177 187.104C221.454 186.635 221.844 186.251 222.345 185.952C222.857 185.643 223.513 185.488 224.313 185.488C225.38 185.488 226.201 185.744 226.777 186.256C227.364 186.757 227.657 187.472 227.657 188.4V192.576H228.537V194ZM225.913 190.336H224.441C223.833 190.336 223.38 190.432 223.081 190.624C222.782 190.816 222.633 191.093 222.633 191.456V191.744C222.633 192.107 222.761 192.384 223.017 192.576C223.273 192.768 223.614 192.864 224.041 192.864C224.404 192.864 224.724 192.811 225.001 192.704C225.278 192.597 225.497 192.443 225.657 192.24C225.828 192.037 225.913 191.803 225.913 191.536V190.336ZM231.67 194H229.926V185.68H231.67V187.328H231.75C231.835 187.051 231.969 186.789 232.15 186.544C232.342 186.288 232.593 186.08 232.902 185.92C233.211 185.76 233.59 185.68 234.038 185.68H234.502V187.36H233.814C233.355 187.36 232.966 187.413 232.646 187.52C232.326 187.627 232.081 187.776 231.91 187.968C231.75 188.16 231.67 188.4 231.67 188.688V194ZM242.678 194H241.702C241.382 194 241.105 193.931 240.87 193.792C240.646 193.643 240.475 193.435 240.358 193.168C240.241 192.901 240.182 192.587 240.182 192.224V192.08L240.678 192.608H240.118C239.958 193.12 239.665 193.515 239.238 193.792C238.811 194.059 238.294 194.192 237.686 194.192C236.833 194.192 236.171 193.968 235.702 193.52C235.233 193.072 234.998 192.469 234.998 191.712C234.998 191.157 235.131 190.699 235.398 190.336C235.675 189.963 236.075 189.685 236.598 189.504C237.121 189.312 237.771 189.216 238.55 189.216H240.054V188.512C240.054 188.011 239.915 187.621 239.638 187.344C239.361 187.056 238.929 186.912 238.342 186.912C237.862 186.912 237.462 187.024 237.142 187.248C236.833 187.461 236.571 187.728 236.358 188.048L235.318 187.104C235.595 186.635 235.985 186.251 236.486 185.952C236.998 185.643 237.654 185.488 238.454 185.488C239.521 185.488 240.342 185.744 240.918 186.256C241.505 186.757 241.798 187.472 241.798 188.4V192.576H242.678V194ZM240.054 190.336H238.582C237.974 190.336 237.521 190.432 237.222 190.624C236.923 190.816 236.774 191.093 236.774 191.456V191.744C236.774 192.107 236.902 192.384 237.158 192.576C237.414 192.768 237.755 192.864 238.182 192.864C238.545 192.864 238.865 192.811 239.142 192.704C239.419 192.597 239.638 192.443 239.798 192.24C239.969 192.037 240.054 191.803 240.054 191.536V190.336ZM245.811 194H244.067V185.68H245.811V187.056H245.891C246.073 186.608 246.345 186.235 246.707 185.936C247.081 185.637 247.587 185.488 248.227 185.488C249.081 185.488 249.742 185.771 250.211 186.336C250.691 186.901 250.931 187.696 250.931 188.72V194H249.187V188.928C249.187 188.277 249.059 187.792 248.803 187.472C248.558 187.141 248.163 186.976 247.619 186.976C247.31 186.976 247.017 187.029 246.739 187.136C246.473 187.232 246.249 187.387 246.067 187.6C245.897 187.813 245.811 188.08 245.811 188.4V194ZM256.853 194H255.333C254.735 194 254.277 193.84 253.957 193.52C253.647 193.189 253.493 192.741 253.493 192.176V187.104H252.197V185.68H252.901C253.189 185.68 253.386 185.616 253.493 185.488C253.61 185.36 253.669 185.152 253.669 184.864V183.408H255.237V185.68H256.981V187.104H255.237V192.576H256.853V194ZM260.296 194H258.552V185.68H260.296V194ZM261.496 182.016L259.608 184.688L258.52 184.16L259.976 181.28L261.496 182.016ZM269.539 194H268.563C268.243 194 267.965 193.931 267.731 193.792C267.507 193.643 267.336 193.435 267.219 193.168C267.101 192.901 267.043 192.587 267.043 192.224V192.08L267.539 192.608H266.979C266.819 193.12 266.525 193.515 266.099 193.792C265.672 194.059 265.155 194.192 264.547 194.192C263.693 194.192 263.032 193.968 262.563 193.52C262.093 193.072 261.859 192.469 261.859 191.712C261.859 191.157 261.992 190.699 262.259 190.336C262.536 189.963 262.936 189.685 263.459 189.504C263.981 189.312 264.632 189.216 265.411 189.216H266.915V188.512C266.915 188.011 266.776 187.621 266.499 187.344C266.221 187.056 265.789 186.912 265.203 186.912C264.723 186.912 264.323 187.024 264.003 187.248C263.693 187.461 263.432 187.728 263.219 188.048L262.179 187.104C262.456 186.635 262.845 186.251 263.347 185.952C263.859 185.643 264.515 185.488 265.315 185.488C266.381 185.488 267.203 185.744 267.779 186.256C268.365 186.757 268.659 187.472 268.659 188.4V192.576H269.539V194ZM266.915 190.336H265.443C264.835 190.336 264.381 190.432 264.083 190.624C263.784 190.816 263.635 191.093 263.635 191.456V191.744C263.635 192.107 263.763 192.384 264.019 192.576C264.275 192.768 264.616 192.864 265.043 192.864C265.405 192.864 265.725 192.811 266.003 192.704C266.28 192.597 266.499 192.443 266.659 192.24C266.829 192.037 266.915 191.803 266.915 191.536V190.336Z" fill="black"/>
<path d="M559.978 196.011C561.082 196.023 561.988 195.137 562 194.033C562.012 192.928 561.126 192.023 560.022 192.011L560 194.011L559.978 196.011ZM285 191L284.978 193L287 193.022L287.022 191.022L287.044 189.022L285.022 189L285 191ZM291.066 191.066L291.044 193.066L295.088 193.111L295.11 191.111L295.132 189.111L291.088 189.067L291.066 191.066ZM299.154 191.155L299.133 193.155L303.177 193.199L303.199 191.199L303.22 189.199L299.176 189.155L299.154 191.155ZM307.243 191.244L307.221 193.243L311.265 193.288L311.287 191.288L311.309 189.288L307.265 189.244L307.243 191.244ZM315.331 191.332L315.309 193.332L319.353 193.376L319.375 191.376L319.397 189.376L315.353 189.332L315.331 191.332ZM323.419 191.421L323.397 193.421L327.441 193.465L327.463 191.465L327.485 189.465L323.441 189.421L323.419 191.421ZM331.507 191.509L331.485 193.509L335.53 193.553L335.551 191.553L335.573 189.554L331.529 189.509L331.507 191.509ZM339.596 191.598L339.574 193.598L343.618 193.642L343.64 191.642L343.662 189.642L339.617 189.598L339.596 191.598ZM347.684 191.686L347.662 193.686L351.706 193.73L351.728 191.731L351.75 189.731L347.706 189.686L347.684 191.686ZM355.772 191.775L355.75 193.775L359.794 193.819L359.816 191.819L359.838 189.819L355.794 189.775L355.772 191.775ZM363.86 191.863L363.838 193.863L367.882 193.908L367.904 191.908L367.926 189.908L363.882 189.864L363.86 191.863ZM371.948 191.952L371.927 193.952L375.971 193.996L375.993 191.996L376.014 189.996L371.97 189.952L371.948 191.952ZM380.037 192.041L380.015 194.04L384.059 194.085L384.081 192.085L384.103 190.085L380.059 190.041L380.037 192.041ZM388.125 192.129L388.103 194.129L392.147 194.173L392.169 192.173L392.191 190.174L388.147 190.129L388.125 192.129ZM396.213 192.218L396.191 194.218L400.235 194.262L400.257 192.262L400.279 190.262L396.235 190.218L396.213 192.218ZM404.301 192.306L404.279 194.306L408.324 194.35L408.346 192.35L408.367 190.351L404.323 190.306L404.301 192.306ZM412.39 192.395L412.368 194.395L416.412 194.439L416.434 192.439L416.456 190.439L412.412 190.395L412.39 192.395ZM420.478 192.483L420.456 194.483L424.5 194.527L424.522 192.528L424.544 190.528L420.5 190.483L420.478 192.483ZM428.566 192.572L428.544 194.572L432.588 194.616L432.61 192.616L432.632 190.616L428.588 190.572L428.566 192.572ZM436.654 192.66L436.632 194.66L440.677 194.705L440.698 192.705L440.72 190.705L436.676 190.661L436.654 192.66ZM444.743 192.749L444.721 194.749L448.765 194.793L448.787 192.793L448.809 190.793L444.764 190.749L444.743 192.749ZM452.831 192.838L452.809 194.837L456.853 194.882L456.875 192.882L456.897 190.882L452.853 190.838L452.831 192.838ZM460.919 192.926L460.897 194.926L464.941 194.97L464.963 192.97L464.985 190.971L460.941 190.926L460.919 192.926ZM469.007 193.015L468.985 195.015L473.029 195.059L473.051 193.059L473.073 191.059L469.029 191.015L469.007 193.015ZM477.095 193.103L477.074 195.103L481.118 195.147L481.14 193.148L481.161 191.148L477.117 191.103L477.095 193.103ZM485.184 193.192L485.162 195.192L489.206 195.236L489.228 193.236L489.25 191.236L485.206 191.192L485.184 193.192ZM493.272 193.28L493.25 195.28L497.294 195.325L497.316 193.325L497.338 191.325L493.294 191.28L493.272 193.28ZM501.36 193.369L501.338 195.369L505.382 195.413L505.404 193.413L505.426 191.413L501.382 191.369L501.36 193.369ZM509.448 193.457L509.426 195.457L513.471 195.502L513.492 193.502L513.514 191.502L509.47 191.458L509.448 193.457ZM517.537 193.546L517.515 195.546L521.559 195.59L521.581 193.59L521.603 191.59L517.559 191.546L517.537 193.546ZM525.625 193.635L525.603 195.634L529.647 195.679L529.669 193.679L529.691 191.679L525.647 191.635L525.625 193.635ZM533.713 193.723L533.691 195.723L537.735 195.767L537.757 193.767L537.779 191.768L533.735 191.723L533.713 193.723ZM541.801 193.812L541.779 195.812L545.824 195.856L545.845 193.856L545.867 191.856L541.823 191.812L541.801 193.812ZM549.89 193.9L549.868 195.9L553.912 195.944L553.934 193.945L553.956 191.945L549.911 191.9L549.89 193.9ZM557.978 193.989L557.956 195.989L559.978 196.011L560 194.011L560.022 192.011L558 191.989L557.978 193.989Z" fill="#4C4A4A"/>
<path d="M1001.5 265C1002.6 265 1003.5 264.105 1003.5 263C1003.5 261.895 1002.6 261 1001.5 261V263V265ZM773 263V265H774.97V263V261H773V263ZM778.909 263V265H782.849V263V261H778.909V263ZM786.789 263V265H790.728V263V261H786.789V263ZM794.668 263V265H798.608V263V261H794.668V263ZM802.547 263V265H806.487V263V261H802.547V263ZM810.427 263V265H814.366V263V261H810.427V263ZM818.306 263V265H822.246V263V261H818.306V263ZM826.185 263V265H830.125V263V261H826.185V263ZM834.065 263V265H838.004V263V261H834.065V263ZM841.944 263V265H845.884V263V261H841.944V263ZM849.823 263V265H853.763V263V261H849.823V263ZM857.703 263V265H861.642V263V261H857.703V263ZM865.582 263V265H869.522V263V261H865.582V263ZM873.461 263V265H877.401V263V261H873.461V263ZM881.34 263V265H885.28V263V261H881.34V263ZM889.22 263V265H893.159V263V261H889.22V263ZM897.099 263V265H901.039V263V261H897.099V263ZM904.978 263V265H908.918V263V261H904.978V263ZM912.858 263V265H916.797V263V261H912.858V263ZM920.737 263V265H924.677V263V261H920.737V263ZM928.616 263V265H932.556V263V261H928.616V263ZM936.496 263V265H940.435V263V261H936.496V263ZM944.375 263V265H948.315V263V261H944.375V263ZM952.254 263V265H956.194V263V261H952.254V263ZM960.134 263V265H964.073V263V261H960.134V263ZM968.013 263V265H971.952V263V261H968.013V263ZM975.892 263V265H979.832V263V261H975.892V263ZM983.771 263V265H987.711V263V261H983.771V263ZM991.651 263V265H995.59V263V261H991.651V263ZM999.53 263V265H1001.5V263V261H999.53V263Z" fill="#4C4A4A"/>
<path d="M287 99C285.895 99 285 98.1046 285 97C285 95.8954 285.895 95 287 95V97V99ZM537 97V99H534.984V97V95H537V97ZM530.952 97V99H526.919V97V95H530.952V97ZM522.887 97V99H518.855V97V95H522.887V97ZM514.823 97V99H510.79V97V95H514.823V97ZM506.758 97V99H502.726V97V95H506.758V97ZM498.694 97V99H494.661V97V95H498.694V97ZM490.629 97V99H486.597V97V95H490.629V97ZM482.565 97V99H478.532V97V95H482.565V97ZM474.5 97V99H470.468V97V95H474.5V97ZM466.435 97V99H462.403V97V95H466.435V97ZM458.371 97V99H454.339V97V95H458.371V97ZM450.306 97V99H446.274V97V95H450.306V97ZM442.242 97V99H438.21V97V95H442.242V97ZM434.177 97V99H430.145V97V95H434.177V97ZM426.113 97V99H422.081V97V95H426.113V97ZM418.048 97V99H414.016V97V95H418.048V97ZM409.984 97V99H405.952V97V95H409.984V97ZM401.919 97V99H397.887V97V95H401.919V97ZM393.855 97V99L389.823 99V97V95L393.855 95V97ZM385.79 97V99H381.758V97V95H385.79V97ZM377.726 97V99H373.694V97V95H377.726V97ZM369.661 97V99H365.629V97V95H369.661V97ZM361.597 97V99H357.565V97V95H361.597V97ZM353.532 97V99H349.5V97V95H353.532V97ZM345.468 97V99H341.436V97V95H345.468V97ZM337.403 97V99L333.371 99V97V95L337.403 95V97ZM329.339 97V99H325.306V97V95H329.339V97ZM321.274 97V99H317.242V97V95H321.274V97ZM313.21 97V99H309.177V97V95H313.21V97ZM305.145 97V99H301.113V97V95H305.145V97ZM297.081 97V99H293.048V97V95H297.081V97ZM289.016 97V99H287V97V95H289.016V97Z" fill="#4C4A4A"/>
</g>
<defs>
<clipPath id="clip0_305_108">
<rect width="1280" height="639" fill="white"/>
</clipPath>
</defs>
</svg>
