<svg width="1280" height="738" viewBox="0 0 1280 738" fill="none" xmlns="http://www.w3.org/2000/svg">
<path d="M528.992 25V13.96H531.472V25H528.992ZM538.613 25V20.136C538.613 19.5707 538.474 19.144 538.197 18.856C537.93 18.5573 537.583 18.408 537.157 18.408C536.73 18.408 536.378 18.5573 536.101 18.856C535.834 19.144 535.701 19.5707 535.701 20.136H535.285C535.285 19.3147 535.402 18.6213 535.637 18.056C535.871 17.48 536.202 17.0427 536.629 16.744C537.066 16.4453 537.578 16.296 538.165 16.296C538.719 16.296 539.21 16.4293 539.637 16.696C540.063 16.9627 540.394 17.3467 540.629 17.848C540.874 18.3493 540.997 18.952 540.997 19.656V25H538.613ZM533.317 25V16.52H535.701V25H533.317ZM542.692 25V16.52H545.076V25H542.692ZM543.892 15.592C543.54 15.592 543.246 15.48 543.012 15.256C542.788 15.032 542.676 14.7387 542.676 14.376C542.676 14.0027 542.788 13.7147 543.012 13.512C543.246 13.2987 543.54 13.192 543.892 13.192C544.233 13.192 544.521 13.2987 544.756 13.512C544.99 13.7147 545.108 14.0027 545.108 14.376C545.108 14.7387 544.99 15.032 544.756 15.256C544.521 15.48 544.233 15.592 543.892 15.592ZM550.498 25.224C549.687 25.224 548.973 25.0373 548.354 24.664C547.735 24.2907 547.25 23.768 546.898 23.096C546.546 22.424 546.37 21.6453 546.37 20.76C546.37 19.864 546.546 19.0853 546.898 18.424C547.25 17.752 547.735 17.2293 548.354 16.856C548.973 16.4827 549.687 16.296 550.498 16.296C551.511 16.296 552.359 16.568 553.042 17.112C553.735 17.6453 554.183 18.3813 554.386 19.32L552.018 19.848C551.954 19.3787 551.789 19.0267 551.522 18.792C551.266 18.5467 550.925 18.424 550.498 18.424C549.997 18.424 549.591 18.6213 549.282 19.016C548.973 19.4107 548.818 19.992 548.818 20.76C548.818 21.528 548.973 22.1093 549.282 22.504C549.591 22.8987 549.997 23.096 550.498 23.096C550.925 23.096 551.277 22.9787 551.554 22.744C551.831 22.5093 552.007 22.1573 552.082 21.688L554.434 22.184C554.231 23.1227 553.778 23.864 553.074 24.408C552.37 24.952 551.511 25.224 550.498 25.224ZM555.661 25V16.52H558.045V25H555.661ZM556.861 15.592C556.509 15.592 556.215 15.48 555.981 15.256C555.757 15.032 555.645 14.7387 555.645 14.376C555.645 14.0027 555.757 13.7147 555.981 13.512C556.215 13.2987 556.509 13.192 556.861 13.192C557.202 13.192 557.49 13.2987 557.725 13.512C557.959 13.7147 558.077 14.0027 558.077 14.376C558.077 14.7387 557.959 15.032 557.725 15.256C557.49 15.48 557.202 15.592 556.861 15.592ZM563.499 25.224C562.688 25.224 561.968 25.0373 561.339 24.664C560.709 24.2907 560.219 23.7733 559.867 23.112C559.515 22.44 559.339 21.656 559.339 20.76C559.339 19.864 559.515 19.08 559.867 18.408C560.219 17.736 560.709 17.2187 561.339 16.856C561.968 16.4827 562.688 16.296 563.499 16.296C564.32 16.296 565.04 16.4827 565.659 16.856C566.288 17.2187 566.779 17.736 567.131 18.408C567.483 19.08 567.659 19.864 567.659 20.76C567.659 21.656 567.483 22.44 567.131 23.112C566.779 23.7733 566.288 24.2907 565.659 24.664C565.04 25.0373 564.32 25.224 563.499 25.224ZM563.499 23.096C564.032 23.096 564.448 22.904 564.747 22.52C565.056 22.1253 565.211 21.5387 565.211 20.76C565.211 19.9813 565.056 19.4 564.747 19.016C564.448 18.6213 564.032 18.424 563.499 18.424C562.965 18.424 562.544 18.6213 562.235 19.016C561.936 19.4 561.787 19.9813 561.787 20.76C561.787 21.5387 561.936 22.1253 562.235 22.52C562.544 22.904 562.965 23.096 563.499 23.096Z" fill="black"/>
<path d="M662.344 25L656.984 13.96H659.016L664.376 25H662.344ZM656.136 25V13.96H657.976V25H656.136ZM663.384 25V13.96H665.224V25H663.384ZM670.887 25.176C670.109 25.176 669.421 24.9947 668.823 24.632C668.226 24.2693 667.757 23.7573 667.415 23.096C667.085 22.424 666.919 21.6453 666.919 20.76C666.919 19.864 667.085 19.0853 667.415 18.424C667.757 17.7627 668.226 17.2507 668.823 16.888C669.421 16.5253 670.109 16.344 670.887 16.344C671.666 16.344 672.354 16.5253 672.951 16.888C673.549 17.2507 674.013 17.7627 674.343 18.424C674.685 19.0853 674.855 19.864 674.855 20.76C674.855 21.6453 674.685 22.424 674.343 23.096C674.013 23.7573 673.549 24.2693 672.951 24.632C672.354 24.9947 671.666 25.176 670.887 25.176ZM670.887 23.512C671.506 23.512 672.002 23.288 672.375 22.84C672.749 22.392 672.935 21.6987 672.935 20.76C672.935 19.8213 672.749 19.128 672.375 18.68C672.002 18.232 671.506 18.008 670.887 18.008C670.269 18.008 669.773 18.232 669.399 18.68C669.026 19.128 668.839 19.8213 668.839 20.76C668.839 21.6987 669.026 22.392 669.399 22.84C669.773 23.288 670.269 23.512 670.887 23.512ZM679.422 25.176C678.43 25.176 677.635 24.9787 677.038 24.584C676.441 24.1893 676.035 23.6027 675.822 22.824L677.566 22.28C677.726 22.7813 677.966 23.144 678.286 23.368C678.617 23.592 679.038 23.704 679.55 23.704C680.009 23.704 680.361 23.624 680.606 23.464C680.862 23.2933 680.99 23.064 680.99 22.776C680.99 22.4667 680.873 22.232 680.638 22.072C680.403 21.9013 680.099 21.7627 679.726 21.656C679.363 21.5387 678.974 21.4213 678.558 21.304C678.142 21.1867 677.747 21.0373 677.374 20.856C677.011 20.664 676.713 20.408 676.478 20.088C676.254 19.768 676.142 19.3467 676.142 18.824C676.142 18.12 676.419 17.5333 676.974 17.064C677.539 16.584 678.345 16.344 679.39 16.344C680.286 16.344 681.011 16.536 681.566 16.92C682.121 17.304 682.515 17.8587 682.75 18.584L681.054 19.144C680.894 18.6747 680.67 18.3387 680.382 18.136C680.094 17.9227 679.721 17.816 679.262 17.816C678.825 17.816 678.494 17.896 678.27 18.056C678.057 18.2053 677.95 18.3973 677.95 18.632C677.95 18.8987 678.067 19.1067 678.302 19.256C678.537 19.3947 678.841 19.5173 679.214 19.624C679.587 19.72 679.982 19.832 680.398 19.96C680.814 20.0773 681.209 20.2373 681.582 20.44C681.955 20.6427 682.259 20.92 682.494 21.272C682.729 21.6133 682.846 22.0613 682.846 22.616C682.846 23.352 682.547 23.9653 681.95 24.456C681.353 24.936 680.51 25.176 679.422 25.176ZM687.919 25.176C687.14 25.176 686.452 24.9947 685.855 24.632C685.257 24.2693 684.788 23.7573 684.447 23.096C684.116 22.424 683.951 21.6453 683.951 20.76C683.951 19.864 684.116 19.0853 684.447 18.424C684.788 17.7627 685.257 17.2507 685.855 16.888C686.452 16.5253 687.14 16.344 687.919 16.344C688.697 16.344 689.385 16.5253 689.983 16.888C690.58 17.2507 691.044 17.7627 691.375 18.424C691.716 19.0853 691.887 19.864 691.887 20.76C691.887 21.6453 691.716 22.424 691.375 23.096C691.044 23.7573 690.58 24.2693 689.983 24.632C689.385 24.9947 688.697 25.176 687.919 25.176ZM687.919 23.512C688.537 23.512 689.033 23.288 689.407 22.84C689.78 22.392 689.967 21.6987 689.967 20.76C689.967 19.8213 689.78 19.128 689.407 18.68C689.033 18.232 688.537 18.008 687.919 18.008C687.3 18.008 686.804 18.232 686.431 18.68C686.057 19.128 685.871 19.8213 685.871 20.76C685.871 21.6987 686.057 22.392 686.431 22.84C686.804 23.288 687.3 23.512 687.919 23.512ZM696.517 25.176C695.653 25.176 694.976 24.9413 694.485 24.472C693.994 24.0027 693.749 23.2987 693.749 22.36V14.76L695.621 14.392V22.072C695.621 22.5413 695.733 22.888 695.957 23.112C696.192 23.336 696.528 23.448 696.965 23.448C697.168 23.448 697.36 23.432 697.541 23.4C697.722 23.368 697.898 23.3307 698.069 23.288V25C697.845 25.064 697.61 25.1067 697.365 25.128C697.12 25.16 696.837 25.176 696.517 25.176ZM692.597 18.104V16.52H697.989V18.104H692.597ZM699.382 25V16.52H701.238V25H699.382ZM700.806 20.76C700.806 19.8533 700.924 19.0747 701.158 18.424C701.404 17.7627 701.75 17.2507 702.198 16.888C702.657 16.5253 703.217 16.344 703.878 16.344V18.44H703.158C702.572 18.44 702.102 18.5947 701.75 18.904C701.409 19.2027 701.238 19.7147 701.238 20.44L700.806 20.76ZM708.669 25.176C707.89 25.176 707.202 24.9947 706.605 24.632C706.007 24.2693 705.538 23.7573 705.197 23.096C704.866 22.424 704.701 21.6453 704.701 20.76C704.701 19.864 704.866 19.0853 705.197 18.424C705.538 17.7627 706.007 17.2507 706.605 16.888C707.202 16.5253 707.89 16.344 708.669 16.344C709.447 16.344 710.135 16.5253 710.733 16.888C711.33 17.2507 711.794 17.7627 712.125 18.424C712.466 19.0853 712.637 19.864 712.637 20.76C712.637 21.6453 712.466 22.424 712.125 23.096C711.794 23.7573 711.33 24.2693 710.733 24.632C710.135 24.9947 709.447 25.176 708.669 25.176ZM708.669 23.512C709.287 23.512 709.783 23.288 710.157 22.84C710.53 22.392 710.717 21.6987 710.717 20.76C710.717 19.8213 710.53 19.128 710.157 18.68C709.783 18.232 709.287 18.008 708.669 18.008C708.05 18.008 707.554 18.232 707.181 18.68C706.807 19.128 706.621 19.8213 706.621 20.76C706.621 21.6987 706.807 22.392 707.181 22.84C707.554 23.288 708.05 23.512 708.669 23.512ZM717.203 25.176C716.211 25.176 715.416 24.9787 714.819 24.584C714.222 24.1893 713.816 23.6027 713.603 22.824L715.347 22.28C715.507 22.7813 715.747 23.144 716.067 23.368C716.398 23.592 716.819 23.704 717.331 23.704C717.79 23.704 718.142 23.624 718.387 23.464C718.643 23.2933 718.771 23.064 718.771 22.776C718.771 22.4667 718.654 22.232 718.419 22.072C718.184 21.9013 717.88 21.7627 717.507 21.656C717.144 21.5387 716.755 21.4213 716.339 21.304C715.923 21.1867 715.528 21.0373 715.155 20.856C714.792 20.664 714.494 20.408 714.259 20.088C714.035 19.768 713.923 19.3467 713.923 18.824C713.923 18.12 714.2 17.5333 714.755 17.064C715.32 16.584 716.126 16.344 717.171 16.344C718.067 16.344 718.792 16.536 719.347 16.92C719.902 17.304 720.296 17.8587 720.531 18.584L718.835 19.144C718.675 18.6747 718.451 18.3387 718.163 18.136C717.875 17.9227 717.502 17.816 717.043 17.816C716.606 17.816 716.275 17.896 716.051 18.056C715.838 18.2053 715.731 18.3973 715.731 18.632C715.731 18.8987 715.848 19.1067 716.083 19.256C716.318 19.3947 716.622 19.5173 716.995 19.624C717.368 19.72 717.763 19.832 718.179 19.96C718.595 20.0773 718.99 20.2373 719.363 20.44C719.736 20.6427 720.04 20.92 720.275 21.272C720.51 21.6133 720.627 22.0613 720.627 22.616C720.627 23.352 720.328 23.9653 719.731 24.456C719.134 24.936 718.291 25.176 717.203 25.176Z" fill="black"/>
<path d="M799.136 25V13.96H801.072V25H799.136ZM800.032 20.552V18.792H806.096V20.552H800.032ZM800.032 15.752V13.96H806.736V15.752H800.032ZM810.95 25.176C810.107 25.176 809.414 24.8827 808.87 24.296C808.336 23.6987 808.07 22.8827 808.07 21.848V16.52H809.926V21.432C809.926 22.1253 810.096 22.6533 810.438 23.016C810.779 23.368 811.2 23.544 811.702 23.544C812.192 23.544 812.608 23.368 812.95 23.016C813.291 22.6533 813.462 22.1253 813.462 21.432H813.958C813.958 22.2107 813.83 22.8827 813.574 23.448C813.318 24.0027 812.96 24.4293 812.502 24.728C812.054 25.0267 811.536 25.176 810.95 25.176ZM813.462 25V16.52H815.318V25H813.462ZM822.713 25V20.088C822.713 19.3947 822.537 18.872 822.185 18.52C821.844 18.1573 821.422 17.976 820.921 17.976C820.42 17.976 819.993 18.1573 819.641 18.52C819.3 18.872 819.129 19.3947 819.129 20.088H818.649C818.649 19.3093 818.777 18.6427 819.033 18.088C819.289 17.5227 819.646 17.0907 820.105 16.792C820.564 16.4933 821.081 16.344 821.657 16.344C822.233 16.344 822.74 16.4773 823.177 16.744C823.614 17.0107 823.956 17.3947 824.201 17.896C824.446 18.3973 824.569 18.9893 824.569 19.672V25H822.713ZM817.273 25V16.52H819.129V25H817.273ZM830.027 25.176C829.248 25.176 828.566 24.9947 827.979 24.632C827.392 24.2693 826.934 23.7573 826.603 23.096C826.272 22.424 826.107 21.6453 826.107 20.76C826.107 19.864 826.272 19.0853 826.603 18.424C826.934 17.7627 827.392 17.2507 827.979 16.888C828.566 16.5253 829.248 16.344 830.027 16.344C830.902 16.344 831.648 16.5733 832.267 17.032C832.896 17.4907 833.323 18.152 833.547 19.016L831.755 19.512C831.627 18.9893 831.414 18.6107 831.115 18.376C830.827 18.1307 830.448 18.008 829.979 18.008C829.392 18.008 828.918 18.232 828.555 18.68C828.203 19.128 828.027 19.8213 828.027 20.76C828.027 21.6987 828.203 22.392 828.555 22.84C828.918 23.288 829.392 23.512 829.979 23.512C830.448 23.512 830.827 23.3947 831.115 23.16C831.414 22.9147 831.627 22.5253 831.755 21.992L833.563 22.472C833.339 23.3467 832.912 24.0187 832.283 24.488C831.654 24.9467 830.902 25.176 830.027 25.176ZM835.039 25V16.52H836.895V25H835.039ZM835.967 15.448C835.668 15.448 835.412 15.352 835.199 15.16C834.996 14.9573 834.895 14.7013 834.895 14.392C834.895 14.0613 834.996 13.8053 835.199 13.624C835.412 13.432 835.668 13.336 835.967 13.336C836.265 13.336 836.516 13.432 836.719 13.624C836.932 13.8053 837.039 14.0613 837.039 14.392C837.039 14.7013 836.932 14.9573 836.719 15.16C836.516 15.352 836.265 15.448 835.967 15.448ZM842.403 25.176C841.624 25.176 840.936 24.9947 840.339 24.632C839.742 24.2693 839.272 23.7573 838.931 23.096C838.6 22.424 838.435 21.6453 838.435 20.76C838.435 19.864 838.6 19.0853 838.931 18.424C839.272 17.7627 839.742 17.2507 840.339 16.888C840.936 16.5253 841.624 16.344 842.403 16.344C843.182 16.344 843.87 16.5253 844.467 16.888C845.064 17.2507 845.528 17.7627 845.859 18.424C846.2 19.0853 846.371 19.864 846.371 20.76C846.371 21.6453 846.2 22.424 845.859 23.096C845.528 23.7573 845.064 24.2693 844.467 24.632C843.87 24.9947 843.182 25.176 842.403 25.176ZM842.403 23.512C843.022 23.512 843.518 23.288 843.891 22.84C844.264 22.392 844.451 21.6987 844.451 20.76C844.451 19.8213 844.264 19.128 843.891 18.68C843.518 18.232 843.022 18.008 842.403 18.008C841.784 18.008 841.288 18.232 840.915 18.68C840.542 19.128 840.355 19.8213 840.355 20.76C840.355 21.6987 840.542 22.392 840.915 22.84C841.288 23.288 841.784 23.512 842.403 23.512ZM843.075 15.64H841.555L842.739 13.368H844.915L843.075 15.64ZM853.354 25V20.088C853.354 19.3947 853.178 18.872 852.826 18.52C852.484 18.1573 852.063 17.976 851.562 17.976C851.06 17.976 850.634 18.1573 850.282 18.52C849.94 18.872 849.77 19.3947 849.77 20.088H849.289C849.289 19.3093 849.418 18.6427 849.674 18.088C849.93 17.5227 850.287 17.0907 850.746 16.792C851.204 16.4933 851.722 16.344 852.298 16.344C852.874 16.344 853.38 16.4773 853.818 16.744C854.255 17.0107 854.596 17.3947 854.842 17.896C855.087 18.3973 855.21 18.9893 855.21 19.672V25H853.354ZM847.914 25V16.52H849.77V25H847.914Z" fill="black"/>
<path d="M936.584 25.176C935.613 25.176 934.755 24.9467 934.008 24.488C933.272 24.0187 932.696 23.3573 932.28 22.504C931.864 21.6507 931.656 20.6427 931.656 19.48C931.656 18.3067 931.864 17.2933 932.28 16.44C932.696 15.5867 933.272 14.9307 934.008 14.472C934.755 14.0133 935.608 13.784 936.568 13.784C937.357 13.784 938.061 13.9227 938.68 14.2C939.309 14.4773 939.837 14.8827 940.264 15.416C940.691 15.9493 940.989 16.6 941.16 17.368L939.224 17.88C939.085 17.1333 938.781 16.568 938.312 16.184C937.853 15.7893 937.261 15.592 936.536 15.592C935.672 15.592 934.979 15.928 934.456 16.6C933.933 17.272 933.672 18.232 933.672 19.48C933.672 20.7173 933.933 21.6773 934.456 22.36C934.979 23.032 935.677 23.368 936.552 23.368C937.299 23.368 937.896 23.1707 938.344 22.776C938.803 22.3813 939.117 21.8053 939.288 21.048L941.208 21.56C941.027 22.328 940.717 22.984 940.28 23.528C939.853 24.072 939.325 24.4827 938.696 24.76C938.067 25.0373 937.363 25.176 936.584 25.176ZM947.798 25C947.734 24.7227 947.68 24.44 947.638 24.152C947.606 23.864 947.59 23.5813 947.59 23.304V19.72C947.59 19.0693 947.424 18.6053 947.094 18.328C946.774 18.0507 946.39 17.912 945.942 17.912C945.526 17.912 945.168 18.0293 944.87 18.264C944.582 18.4987 944.374 18.856 944.246 19.336L942.486 18.84C942.71 18.0187 943.136 17.4 943.766 16.984C944.406 16.5573 945.168 16.344 946.054 16.344C947.12 16.344 947.952 16.6267 948.55 17.192C949.147 17.7573 949.446 18.536 949.446 19.528V23.112C949.446 23.7413 949.526 24.3707 949.686 25H947.798ZM944.806 25.176C944.038 25.176 943.43 24.9627 942.982 24.536C942.544 24.1093 942.326 23.56 942.326 22.888C942.326 22.248 942.539 21.6933 942.966 21.224C943.403 20.7547 944.07 20.44 944.966 20.28L948.038 19.768V21.096L945.606 21.592C945.094 21.688 944.731 21.8373 944.518 22.04C944.304 22.2427 944.198 22.4773 944.198 22.744C944.198 22.968 944.288 23.176 944.47 23.368C944.651 23.5493 944.934 23.64 945.318 23.64C945.68 23.64 946.032 23.5547 946.374 23.384C946.726 23.2133 947.014 22.968 947.238 22.648C947.472 22.3173 947.59 21.9227 947.59 21.464H948.118C948.118 22.2213 947.968 22.8827 947.67 23.448C947.371 24.0027 946.971 24.4293 946.47 24.728C945.968 25.0267 945.414 25.176 944.806 25.176ZM950.502 27.992C950.257 27.992 950.033 27.976 949.83 27.944C949.617 27.912 949.414 27.864 949.222 27.8V26.104C949.371 26.1573 949.526 26.2 949.686 26.232C949.846 26.2747 950.001 26.296 950.15 26.296C950.577 26.296 950.891 26.1947 951.094 25.992C951.297 25.7893 951.398 25.4693 951.398 25.032V16.52H953.254V25.08C953.254 26.0293 953.014 26.7493 952.534 27.24C952.065 27.7413 951.387 27.992 950.502 27.992ZM952.326 15.448C952.027 15.448 951.771 15.352 951.558 15.16C951.355 14.9573 951.254 14.7013 951.254 14.392C951.254 14.0613 951.355 13.8053 951.558 13.624C951.771 13.432 952.027 13.336 952.326 13.336C952.625 13.336 952.875 13.432 953.078 13.624C953.291 13.8053 953.398 14.0613 953.398 14.392C953.398 14.7013 953.291 14.9573 953.078 15.16C952.875 15.352 952.625 15.448 952.326 15.448ZM960.266 25C960.202 24.7227 960.149 24.44 960.106 24.152C960.074 23.864 960.058 23.5813 960.058 23.304V19.72C960.058 19.0693 959.893 18.6053 959.562 18.328C959.242 18.0507 958.858 17.912 958.41 17.912C957.994 17.912 957.637 18.0293 957.338 18.264C957.05 18.4987 956.842 18.856 956.714 19.336L954.954 18.84C955.178 18.0187 955.605 17.4 956.234 16.984C956.874 16.5573 957.637 16.344 958.522 16.344C959.589 16.344 960.421 16.6267 961.018 17.192C961.616 17.7573 961.914 18.536 961.914 19.528V23.112C961.914 23.7413 961.994 24.3707 962.154 25H960.266ZM957.274 25.176C956.506 25.176 955.898 24.9627 955.45 24.536C955.013 24.1093 954.794 23.56 954.794 22.888C954.794 22.248 955.008 21.6933 955.434 21.224C955.872 20.7547 956.538 20.44 957.434 20.28L960.506 19.768V21.096L958.074 21.592C957.562 21.688 957.2 21.8373 956.986 22.04C956.773 22.2427 956.666 22.4773 956.666 22.744C956.666 22.968 956.757 23.176 956.938 23.368C957.12 23.5493 957.402 23.64 957.786 23.64C958.149 23.64 958.501 23.5547 958.842 23.384C959.194 23.2133 959.482 22.968 959.706 22.648C959.941 22.3173 960.058 21.9227 960.058 21.464H960.586C960.586 22.2213 960.437 22.8827 960.138 23.448C959.84 24.0027 959.44 24.4293 958.938 24.728C958.437 25.0267 957.882 25.176 957.274 25.176Z" fill="black"/>
<path d="M1053.42 25L1049.83 13.96H1051.75L1055.48 25H1053.42ZM1045.16 25L1048.89 13.96H1050.66L1047.18 25H1045.16ZM1047.37 22.12V20.36H1053.26V22.12H1047.37ZM1060.97 25.176C1060.09 25.176 1059.38 24.8507 1058.84 24.2C1058.31 23.5493 1058.04 22.6267 1058.04 21.432V20.088C1058.04 18.8933 1058.31 17.9707 1058.84 17.32C1059.38 16.6693 1060.09 16.344 1060.97 16.344C1061.63 16.344 1062.21 16.52 1062.71 16.872C1063.21 17.224 1063.6 17.7307 1063.88 18.392C1064.16 19.0427 1064.3 19.832 1064.3 20.76C1064.3 21.6773 1064.16 22.4667 1063.88 23.128C1063.6 23.7893 1063.21 24.296 1062.71 24.648C1062.21 25 1061.63 25.176 1060.97 25.176ZM1056.62 27.8V16.52H1058.47V18.568L1058.22 20.76L1058.47 22.92V27.8H1056.62ZM1060.38 23.528C1060.97 23.528 1061.45 23.304 1061.82 22.856C1062.19 22.408 1062.38 21.7093 1062.38 20.76C1062.38 19.8107 1062.19 19.112 1061.82 18.664C1061.45 18.216 1060.97 17.992 1060.38 17.992C1059.78 17.992 1059.29 18.216 1058.92 18.664C1058.56 19.112 1058.38 19.8107 1058.38 20.76C1058.38 21.7093 1058.56 22.408 1058.92 22.856C1059.29 23.304 1059.78 23.528 1060.38 23.528ZM1070.2 25.176C1069.33 25.176 1068.62 24.8507 1068.08 24.2C1067.54 23.5493 1067.28 22.6267 1067.28 21.432V20.088C1067.28 18.8933 1067.54 17.9707 1068.08 17.32C1068.62 16.6693 1069.33 16.344 1070.2 16.344C1070.86 16.344 1071.45 16.52 1071.95 16.872C1072.45 17.224 1072.84 17.7307 1073.12 18.392C1073.39 19.0427 1073.53 19.832 1073.53 20.76C1073.53 21.6773 1073.39 22.4667 1073.12 23.128C1072.84 23.7893 1072.45 24.296 1071.95 24.648C1071.45 25 1070.86 25.176 1070.2 25.176ZM1065.85 27.8V16.52H1067.71V18.568L1067.45 20.76L1067.71 22.92V27.8H1065.85ZM1069.61 23.528C1070.21 23.528 1070.69 23.304 1071.05 22.856C1071.42 22.408 1071.61 21.7093 1071.61 20.76C1071.61 19.8107 1071.42 19.112 1071.05 18.664C1070.69 18.216 1070.21 17.992 1069.61 17.992C1069.01 17.992 1068.53 18.216 1068.16 18.664C1067.79 19.112 1067.61 19.8107 1067.61 20.76C1067.61 21.7093 1067.79 22.408 1068.16 22.856C1068.53 23.304 1069.01 23.528 1069.61 23.528Z" fill="black"/>
</svg>
