<svg width="1280" height="738" viewBox="0 0 1280 738" fill="none" xmlns="http://www.w3.org/2000/svg">
<path d="M532.728 25H527.896V23.528H529.4V15.304H527.896V13.832H532.728V15.304H531.208V23.528H532.728V25ZM536.617 25H534.873V16.68H536.617V18.056H536.697C536.878 17.608 537.15 17.2347 537.513 16.936C537.886 16.6373 538.393 16.488 539.033 16.488C539.886 16.488 540.548 16.7707 541.017 17.336C541.497 17.9013 541.737 18.696 541.737 19.72V25H539.993V19.928C539.993 19.2773 539.865 18.792 539.609 18.472C539.364 18.1413 538.969 17.976 538.425 17.976C538.116 17.976 537.822 18.0293 537.545 18.136C537.278 18.232 537.054 18.3867 536.873 18.6C536.702 18.8133 536.617 19.08 536.617 19.4V25ZM545.034 15.192C544.672 15.192 544.405 15.1067 544.234 14.936C544.074 14.7653 543.994 14.5467 543.994 14.28V14.008C543.994 13.7413 544.074 13.5227 544.234 13.352C544.405 13.1813 544.672 13.096 545.034 13.096C545.397 13.096 545.658 13.1813 545.818 13.352C545.978 13.5227 546.058 13.7413 546.058 14.008V14.28C546.058 14.5467 545.978 14.7653 545.818 14.936C545.658 15.1067 545.397 15.192 545.034 15.192ZM544.154 25V16.68H545.898V25H544.154ZM551.605 25.192C550.399 25.192 549.466 24.8027 548.805 24.024C548.143 23.2347 547.813 22.1733 547.813 20.84C547.813 19.5067 548.143 18.4507 548.805 17.672C549.466 16.8827 550.399 16.488 551.605 16.488C552.437 16.488 553.119 16.6747 553.653 17.048C554.186 17.4213 554.57 17.9173 554.805 18.536L553.365 19.208C553.247 18.824 553.039 18.52 552.741 18.296C552.442 18.0613 552.063 17.944 551.605 17.944C550.965 17.944 550.479 18.1467 550.149 18.552C549.818 18.9467 549.653 19.464 549.653 20.104V21.576C549.653 22.216 549.818 22.7387 550.149 23.144C550.479 23.5493 550.965 23.752 551.605 23.752C552.106 23.752 552.511 23.6293 552.821 23.384C553.13 23.128 553.375 22.792 553.557 22.376L554.869 23.08C554.602 23.7627 554.191 24.2853 553.637 24.648C553.082 25.0107 552.405 25.192 551.605 25.192ZM557.409 15.192C557.047 15.192 556.78 15.1067 556.609 14.936C556.449 14.7653 556.369 14.5467 556.369 14.28V14.008C556.369 13.7413 556.449 13.5227 556.609 13.352C556.78 13.1813 557.047 13.096 557.409 13.096C557.772 13.096 558.033 13.1813 558.193 13.352C558.353 13.5227 558.433 13.7413 558.433 14.008V14.28C558.433 14.5467 558.353 14.7653 558.193 14.936C558.033 15.1067 557.772 15.192 557.409 15.192ZM556.529 25V16.68H558.273V25H556.529ZM564.012 25.192C563.233 25.192 562.556 25.016 561.98 24.664C561.414 24.3013 560.972 23.7947 560.652 23.144C560.342 22.4933 560.188 21.7253 560.188 20.84C560.188 19.9547 560.342 19.1867 560.652 18.536C560.972 17.8853 561.414 17.384 561.98 17.032C562.556 16.6693 563.233 16.488 564.012 16.488C564.78 16.488 565.446 16.6693 566.012 17.032C566.588 17.384 567.03 17.8853 567.34 18.536C567.66 19.1867 567.82 19.9547 567.82 20.84C567.82 21.7253 567.66 22.4933 567.34 23.144C567.03 23.7947 566.588 24.3013 566.012 24.664C565.446 25.016 564.78 25.192 564.012 25.192ZM564.012 23.736C564.609 23.736 565.084 23.5547 565.436 23.192C565.798 22.8187 565.98 22.2693 565.98 21.544V20.136C565.98 19.4107 565.798 18.8667 565.436 18.504C565.084 18.1307 564.609 17.944 564.012 17.944C563.425 17.944 562.945 18.1307 562.572 18.504C562.209 18.8667 562.028 19.4107 562.028 20.136V21.544C562.028 22.2693 562.209 22.8187 562.572 23.192C562.945 23.5547 563.425 23.736 564.012 23.736Z" fill="url(#paint0_linear_320_581)"/>
<path d="M662.032 25L658.384 18.84L657.152 16.456H657.104V18.888V25H655.376V13.832H657.408L661.04 19.992L662.272 22.376H662.32V19.944V13.832H664.048V25H662.032ZM669.918 25.192C669.139 25.192 668.462 25.016 667.886 24.664C667.321 24.3013 666.878 23.7947 666.558 23.144C666.249 22.4933 666.094 21.7253 666.094 20.84C666.094 19.9547 666.249 19.1867 666.558 18.536C666.878 17.8853 667.321 17.384 667.886 17.032C668.462 16.6693 669.139 16.488 669.918 16.488C670.686 16.488 671.353 16.6693 671.918 17.032C672.494 17.384 672.937 17.8853 673.246 18.536C673.566 19.1867 673.726 19.9547 673.726 20.84C673.726 21.7253 673.566 22.4933 673.246 23.144C672.937 23.7947 672.494 24.3013 671.918 24.664C671.353 25.016 670.686 25.192 669.918 25.192ZM669.918 23.736C670.515 23.736 670.99 23.5547 671.342 23.192C671.705 22.8187 671.886 22.2693 671.886 21.544V20.136C671.886 19.4107 671.705 18.8667 671.342 18.504C670.99 18.1307 670.515 17.944 669.918 17.944C669.331 17.944 668.851 18.1307 668.478 18.504C668.115 18.8667 667.934 19.4107 667.934 20.136V21.544C667.934 22.2693 668.115 22.8187 668.478 23.192C668.851 23.5547 669.331 23.736 669.918 23.736ZM678.294 25.192C677.516 25.192 676.854 25.0533 676.31 24.776C675.777 24.4987 675.313 24.1147 674.918 23.624L676.038 22.6C676.348 22.9627 676.689 23.2507 677.062 23.464C677.446 23.6773 677.889 23.784 678.39 23.784C678.902 23.784 679.281 23.688 679.526 23.496C679.782 23.2933 679.91 23.016 679.91 22.664C679.91 22.3973 679.82 22.1733 679.638 21.992C679.468 21.8107 679.164 21.688 678.726 21.624L677.958 21.528C677.404 21.4427 676.918 21.304 676.502 21.112C676.086 20.92 675.766 20.6587 675.542 20.328C675.329 19.9867 675.222 19.56 675.222 19.048C675.222 18.2373 675.505 17.608 676.07 17.16C676.646 16.712 677.393 16.488 678.31 16.488C678.812 16.488 679.249 16.5413 679.622 16.648C679.996 16.7547 680.326 16.9093 680.614 17.112C680.902 17.304 681.169 17.5387 681.414 17.816L680.342 18.84C680.129 18.584 679.846 18.3653 679.494 18.184C679.153 17.992 678.758 17.896 678.31 17.896C677.841 17.896 677.489 17.992 677.254 18.184C677.02 18.3653 676.902 18.616 676.902 18.936C676.902 19.256 677.004 19.496 677.206 19.656C677.42 19.816 677.745 19.9333 678.182 20.008L678.95 20.104C679.868 20.2427 680.534 20.5147 680.95 20.92C681.377 21.3147 681.59 21.848 681.59 22.52C681.59 23.0533 681.452 23.5227 681.174 23.928C680.908 24.3227 680.529 24.632 680.038 24.856C679.548 25.08 678.966 25.192 678.294 25.192ZM686.809 25.192C686.03 25.192 685.353 25.016 684.777 24.664C684.211 24.3013 683.769 23.7947 683.449 23.144C683.139 22.4933 682.985 21.7253 682.985 20.84C682.985 19.9547 683.139 19.1867 683.449 18.536C683.769 17.8853 684.211 17.384 684.777 17.032C685.353 16.6693 686.03 16.488 686.809 16.488C687.577 16.488 688.243 16.6693 688.809 17.032C689.385 17.384 689.827 17.8853 690.137 18.536C690.457 19.1867 690.617 19.9547 690.617 20.84C690.617 21.7253 690.457 22.4933 690.137 23.144C689.827 23.7947 689.385 24.3013 688.809 24.664C688.243 25.016 687.577 25.192 686.809 25.192ZM686.809 23.736C687.406 23.736 687.881 23.5547 688.233 23.192C688.595 22.8187 688.777 22.2693 688.777 21.544V20.136C688.777 19.4107 688.595 18.8667 688.233 18.504C687.881 18.1307 687.406 17.944 686.809 17.944C686.222 17.944 685.742 18.1307 685.369 18.504C685.006 18.8667 684.825 19.4107 684.825 20.136V21.544C684.825 22.2693 685.006 22.8187 685.369 23.192C685.742 23.5547 686.222 23.736 686.809 23.736ZM696.322 25H694.802C694.205 25 693.746 24.84 693.426 24.52C693.117 24.1893 692.962 23.7413 692.962 23.176V18.104H691.666V16.68H692.37C692.658 16.68 692.855 16.616 692.962 16.488C693.079 16.36 693.138 16.152 693.138 15.864V14.408H694.706V16.68H696.45V18.104H694.706V23.576H696.322V25ZM700.086 25H698.342V16.68H700.086V18.328H700.166C700.251 18.0507 700.384 17.7893 700.566 17.544C700.758 17.288 701.008 17.08 701.318 16.92C701.627 16.76 702.006 16.68 702.454 16.68H702.918V18.36H702.23C701.771 18.36 701.382 18.4133 701.062 18.52C700.742 18.6267 700.496 18.776 700.326 18.968C700.166 19.16 700.086 19.4 700.086 19.688V25ZM707.637 25.192C706.858 25.192 706.181 25.016 705.605 24.664C705.039 24.3013 704.597 23.7947 704.277 23.144C703.967 22.4933 703.813 21.7253 703.813 20.84C703.813 19.9547 703.967 19.1867 704.277 18.536C704.597 17.8853 705.039 17.384 705.605 17.032C706.181 16.6693 706.858 16.488 707.637 16.488C708.405 16.488 709.071 16.6693 709.637 17.032C710.213 17.384 710.655 17.8853 710.965 18.536C711.285 19.1867 711.445 19.9547 711.445 20.84C711.445 21.7253 711.285 22.4933 710.965 23.144C710.655 23.7947 710.213 24.3013 709.637 24.664C709.071 25.016 708.405 25.192 707.637 25.192ZM707.637 23.736C708.234 23.736 708.709 23.5547 709.061 23.192C709.423 22.8187 709.605 22.2693 709.605 21.544V20.136C709.605 19.4107 709.423 18.8667 709.061 18.504C708.709 18.1307 708.234 17.944 707.637 17.944C707.05 17.944 706.57 18.1307 706.197 18.504C705.834 18.8667 705.653 19.4107 705.653 20.136V21.544C705.653 22.2693 705.834 22.8187 706.197 23.192C706.57 23.5547 707.05 23.736 707.637 23.736ZM716.013 25.192C715.234 25.192 714.573 25.0533 714.029 24.776C713.496 24.4987 713.032 24.1147 712.637 23.624L713.757 22.6C714.066 22.9627 714.408 23.2507 714.781 23.464C715.165 23.6773 715.608 23.784 716.109 23.784C716.621 23.784 717 23.688 717.245 23.496C717.501 23.2933 717.629 23.016 717.629 22.664C717.629 22.3973 717.538 22.1733 717.357 21.992C717.186 21.8107 716.882 21.688 716.445 21.624L715.677 21.528C715.122 21.4427 714.637 21.304 714.221 21.112C713.805 20.92 713.485 20.6587 713.261 20.328C713.048 19.9867 712.941 19.56 712.941 19.048C712.941 18.2373 713.224 17.608 713.789 17.16C714.365 16.712 715.112 16.488 716.029 16.488C716.53 16.488 716.968 16.5413 717.341 16.648C717.714 16.7547 718.045 16.9093 718.333 17.112C718.621 17.304 718.888 17.5387 719.133 17.816L718.061 18.84C717.848 18.584 717.565 18.3653 717.213 18.184C716.872 17.992 716.477 17.896 716.029 17.896C715.56 17.896 715.208 17.992 714.973 18.184C714.738 18.3653 714.621 18.616 714.621 18.936C714.621 19.256 714.722 19.496 714.925 19.656C715.138 19.816 715.464 19.9333 715.901 20.008L716.669 20.104C717.586 20.2427 718.253 20.5147 718.669 20.92C719.096 21.3147 719.309 21.848 719.309 22.52C719.309 23.0533 719.17 23.5227 718.893 23.928C718.626 24.3227 718.248 24.632 717.757 24.856C717.266 25.08 716.685 25.192 716.013 25.192Z" fill="url(#paint1_linear_320_581)"/>
<path d="M800.184 25H798.376V13.832H805.352V15.432H800.184V18.552H804.776V20.152H800.184V25ZM812.007 25V23.624H811.927C811.777 24.04 811.521 24.408 811.159 24.728C810.807 25.0373 810.284 25.192 809.591 25.192C808.748 25.192 808.087 24.9147 807.607 24.36C807.127 23.7947 806.887 23 806.887 21.976V16.68H808.631V21.752C808.631 22.392 808.759 22.8827 809.015 23.224C809.281 23.5547 809.681 23.72 810.215 23.72C810.524 23.72 810.812 23.6667 811.079 23.56C811.356 23.4533 811.58 23.2933 811.751 23.08C811.921 22.8667 812.007 22.6 812.007 22.28V16.68H813.751V25H812.007ZM817.992 25H816.248V16.68H817.992V18.056H818.072C818.253 17.608 818.525 17.2347 818.888 16.936C819.261 16.6373 819.768 16.488 820.408 16.488C821.261 16.488 821.923 16.7707 822.392 17.336C822.872 17.9013 823.112 18.696 823.112 19.72V25H821.368V19.928C821.368 19.2773 821.24 18.792 820.984 18.472C820.739 18.1413 820.344 17.976 819.8 17.976C819.491 17.976 819.197 18.0293 818.92 18.136C818.653 18.232 818.429 18.3867 818.248 18.6C818.077 18.8133 817.992 19.08 817.992 19.4V25ZM828.745 25.192C827.54 25.192 826.607 24.8027 825.945 24.024C825.284 23.2347 824.953 22.1733 824.953 20.84C824.953 19.5067 825.284 18.4507 825.945 17.672C826.607 16.8827 827.54 16.488 828.745 16.488C829.577 16.488 830.26 16.6747 830.793 17.048C831.327 17.4213 831.711 17.9173 831.945 18.536L830.505 19.208C830.388 18.824 830.18 18.52 829.881 18.296C829.583 18.0613 829.204 17.944 828.745 17.944C828.105 17.944 827.62 18.1467 827.289 18.552C826.959 18.9467 826.793 19.464 826.793 20.104V21.576C826.793 22.216 826.959 22.7387 827.289 23.144C827.62 23.5493 828.105 23.752 828.745 23.752C829.247 23.752 829.652 23.6293 829.961 23.384C830.271 23.128 830.516 22.792 830.697 22.376L832.009 23.08C831.743 23.7627 831.332 24.2853 830.777 24.648C830.223 25.0107 829.545 25.192 828.745 25.192ZM834.55 15.192C834.187 15.192 833.921 15.1067 833.75 14.936C833.59 14.7653 833.51 14.5467 833.51 14.28V14.008C833.51 13.7413 833.59 13.5227 833.75 13.352C833.921 13.1813 834.187 13.096 834.55 13.096C834.913 13.096 835.174 13.1813 835.334 13.352C835.494 13.5227 835.574 13.7413 835.574 14.008V14.28C835.574 14.5467 835.494 14.7653 835.334 14.936C835.174 15.1067 834.913 15.192 834.55 15.192ZM833.67 25V16.68H835.414V25H833.67ZM841.152 25.192C840.374 25.192 839.696 25.016 839.12 24.664C838.555 24.3013 838.112 23.7947 837.792 23.144C837.483 22.4933 837.328 21.7253 837.328 20.84C837.328 19.9547 837.483 19.1867 837.792 18.536C838.112 17.8853 838.555 17.384 839.12 17.032C839.696 16.6693 840.374 16.488 841.152 16.488C841.92 16.488 842.587 16.6693 843.152 17.032C843.728 17.384 844.171 17.8853 844.48 18.536C844.8 19.1867 844.96 19.9547 844.96 20.84C844.96 21.7253 844.8 22.4933 844.48 23.144C844.171 23.7947 843.728 24.3013 843.152 24.664C842.587 25.016 841.92 25.192 841.152 25.192ZM841.152 23.736C841.75 23.736 842.224 23.5547 842.576 23.192C842.939 22.8187 843.12 22.2693 843.12 21.544V20.136C843.12 19.4107 842.939 18.8667 842.576 18.504C842.224 18.1307 841.75 17.944 841.152 17.944C840.566 17.944 840.086 18.1307 839.712 18.504C839.35 18.8667 839.168 19.4107 839.168 20.136V21.544C839.168 22.2693 839.35 22.8187 839.712 23.192C840.086 23.5547 840.566 23.736 841.152 23.736ZM843.2 13.016L841.312 15.688L840.224 15.16L841.68 12.28L843.2 13.016ZM848.633 25H846.889V16.68H848.633V18.056H848.713C848.894 17.608 849.166 17.2347 849.529 16.936C849.902 16.6373 850.409 16.488 851.049 16.488C851.902 16.488 852.563 16.7707 853.033 17.336C853.513 17.9013 853.753 18.696 853.753 19.72V25H852.009V19.928C852.009 19.2773 851.881 18.792 851.625 18.472C851.379 18.1413 850.985 17.976 850.441 17.976C850.131 17.976 849.838 18.0293 849.561 18.136C849.294 18.232 849.07 18.3867 848.889 18.6C848.718 18.8133 848.633 19.08 848.633 19.4V25Z" fill="url(#paint2_linear_320_581)"/>
<path d="M935.568 25.192C934.597 25.192 933.76 24.9787 933.056 24.552C932.352 24.1147 931.813 23.4747 931.44 22.632C931.067 21.7893 930.88 20.7387 930.88 19.48C930.88 18.232 931.067 17.176 931.44 16.312C931.813 15.4373 932.352 14.776 933.056 14.328C933.76 13.8693 934.597 13.64 935.568 13.64C936.528 13.64 937.333 13.8533 937.984 14.28C938.645 14.7067 939.168 15.336 939.552 16.168L938.032 17C937.84 16.4667 937.541 16.0453 937.136 15.736C936.741 15.416 936.219 15.256 935.568 15.256C934.704 15.256 934.027 15.5547 933.536 16.152C933.045 16.7493 932.8 17.5653 932.8 18.6V20.312C932.8 21.336 933.045 22.136 933.536 22.712C934.027 23.288 934.704 23.576 935.568 23.576C936.229 23.576 936.773 23.4053 937.2 23.064C937.627 22.712 937.941 22.264 938.144 21.72L939.6 22.6C939.227 23.4 938.699 24.0347 938.016 24.504C937.344 24.9627 936.528 25.192 935.568 25.192ZM948.461 25H947.485C947.165 25 946.887 24.9307 946.653 24.792C946.429 24.6427 946.258 24.4347 946.141 24.168C946.023 23.9013 945.965 23.5867 945.965 23.224V23.08L946.461 23.608H945.901C945.741 24.12 945.447 24.5147 945.021 24.792C944.594 25.0587 944.077 25.192 943.469 25.192C942.615 25.192 941.954 24.968 941.485 24.52C941.015 24.072 940.781 23.4693 940.781 22.712C940.781 22.1573 940.914 21.6987 941.181 21.336C941.458 20.9627 941.858 20.6853 942.381 20.504C942.903 20.312 943.554 20.216 944.333 20.216H945.837V19.512C945.837 19.0107 945.698 18.6213 945.421 18.344C945.143 18.056 944.711 17.912 944.125 17.912C943.645 17.912 943.245 18.024 942.925 18.248C942.615 18.4613 942.354 18.728 942.141 19.048L941.101 18.104C941.378 17.6347 941.767 17.2507 942.269 16.952C942.781 16.6427 943.437 16.488 944.237 16.488C945.303 16.488 946.125 16.744 946.701 17.256C947.287 17.7573 947.581 18.472 947.581 19.4V23.576H948.461V25ZM945.837 21.336H944.365C943.757 21.336 943.303 21.432 943.005 21.624C942.706 21.816 942.557 22.0933 942.557 22.456V22.744C942.557 23.1067 942.685 23.384 942.941 23.576C943.197 23.768 943.538 23.864 943.965 23.864C944.327 23.864 944.647 23.8107 944.925 23.704C945.202 23.5973 945.421 23.4427 945.581 23.24C945.751 23.0373 945.837 22.8027 945.837 22.536V21.336ZM950.17 26.776V16.68H951.914V26.12C951.914 26.76 951.749 27.2667 951.418 27.64C951.098 28.0133 950.586 28.2 949.882 28.2H948.874V26.776H950.17ZM951.05 15.192C950.687 15.192 950.421 15.1067 950.25 14.936C950.09 14.7653 950.01 14.5467 950.01 14.28V14.008C950.01 13.7413 950.09 13.5227 950.25 13.352C950.421 13.1813 950.687 13.096 951.05 13.096C951.413 13.096 951.674 13.1813 951.834 13.352C951.994 13.5227 952.074 13.7413 952.074 14.008V14.28C952.074 14.5467 951.994 14.7653 951.834 14.936C951.674 15.1067 951.413 15.192 951.05 15.192ZM961.476 25H960.5C960.18 25 959.903 24.9307 959.668 24.792C959.444 24.6427 959.274 24.4347 959.156 24.168C959.039 23.9013 958.98 23.5867 958.98 23.224V23.08L959.476 23.608H958.916C958.756 24.12 958.463 24.5147 958.036 24.792C957.61 25.0587 957.092 25.192 956.484 25.192C955.631 25.192 954.97 24.968 954.5 24.52C954.031 24.072 953.796 23.4693 953.796 22.712C953.796 22.1573 953.93 21.6987 954.196 21.336C954.474 20.9627 954.874 20.6853 955.396 20.504C955.919 20.312 956.57 20.216 957.348 20.216H958.852V19.512C958.852 19.0107 958.714 18.6213 958.436 18.344C958.159 18.056 957.727 17.912 957.14 17.912C956.66 17.912 956.26 18.024 955.94 18.248C955.631 18.4613 955.37 18.728 955.156 19.048L954.116 18.104C954.394 17.6347 954.783 17.2507 955.284 16.952C955.796 16.6427 956.452 16.488 957.252 16.488C958.319 16.488 959.14 16.744 959.716 17.256C960.303 17.7573 960.596 18.472 960.596 19.4V23.576H961.476V25ZM958.852 21.336H957.38C956.772 21.336 956.319 21.432 956.02 21.624C955.722 21.816 955.572 22.0933 955.572 22.456V22.744C955.572 23.1067 955.7 23.384 955.956 23.576C956.212 23.768 956.554 23.864 956.98 23.864C957.343 23.864 957.663 23.8107 957.94 23.704C958.218 23.5973 958.436 23.4427 958.596 23.24C958.767 23.0373 958.852 22.8027 958.852 22.536V21.336Z" fill="url(#paint3_linear_320_581)"/>
<path d="M1054.21 25H1052.32L1051.34 21.976H1047.17L1046.18 25H1044.35L1048.16 13.832H1050.42L1054.21 25ZM1050.9 20.424L1049.79 17.112L1049.28 15.496H1049.2L1048.69 17.112L1047.58 20.424H1050.9ZM1055.81 28.2V16.68H1057.55V18.056H1057.63C1057.81 17.5547 1058.1 17.1707 1058.51 16.904C1058.93 16.6267 1059.42 16.488 1059.97 16.488C1060.67 16.488 1061.27 16.664 1061.76 17.016C1062.25 17.3573 1062.63 17.8533 1062.88 18.504C1063.15 19.144 1063.28 19.9227 1063.28 20.84C1063.28 21.7467 1063.15 22.5253 1062.88 23.176C1062.63 23.8267 1062.25 24.328 1061.76 24.68C1061.27 25.0213 1060.67 25.192 1059.97 25.192C1059.42 25.192 1058.94 25.0533 1058.53 24.776C1058.13 24.4987 1057.83 24.1147 1057.63 23.624H1057.55V28.2H1055.81ZM1059.44 23.72C1060.05 23.72 1060.54 23.5227 1060.9 23.128C1061.26 22.7227 1061.44 22.2 1061.44 21.56V20.12C1061.44 19.48 1061.26 18.9627 1060.9 18.568C1060.54 18.1733 1060.05 17.976 1059.44 17.976C1059.09 17.976 1058.77 18.0347 1058.48 18.152C1058.21 18.2693 1057.98 18.4347 1057.81 18.648C1057.64 18.8613 1057.55 19.112 1057.55 19.4V22.216C1057.55 22.536 1057.64 22.808 1057.81 23.032C1057.98 23.2453 1058.21 23.416 1058.48 23.544C1058.77 23.6613 1059.09 23.72 1059.44 23.72ZM1065.28 28.2V16.68H1067.02V18.056H1067.1C1067.27 17.5547 1067.57 17.1707 1067.98 16.904C1068.4 16.6267 1068.88 16.488 1069.44 16.488C1070.14 16.488 1070.74 16.664 1071.23 17.016C1071.72 17.3573 1072.1 17.8533 1072.35 18.504C1072.62 19.144 1072.75 19.9227 1072.75 20.84C1072.75 21.7467 1072.62 22.5253 1072.35 23.176C1072.1 23.8267 1071.72 24.328 1071.23 24.68C1070.74 25.0213 1070.14 25.192 1069.44 25.192C1068.88 25.192 1068.4 25.0533 1068 24.776C1067.59 24.4987 1067.3 24.1147 1067.1 23.624H1067.02V28.2H1065.28ZM1068.91 23.72C1069.52 23.72 1070 23.5227 1070.37 23.128C1070.73 22.7227 1070.91 22.2 1070.91 21.56V20.12C1070.91 19.48 1070.73 18.9627 1070.37 18.568C1070 18.1733 1069.52 17.976 1068.91 17.976C1068.56 17.976 1068.24 18.0347 1067.95 18.152C1067.67 18.2693 1067.45 18.4347 1067.28 18.648C1067.11 18.8613 1067.02 19.112 1067.02 19.4V22.216C1067.02 22.536 1067.11 22.808 1067.28 23.032C1067.45 23.2453 1067.67 23.416 1067.95 23.544C1068.24 23.6613 1068.56 23.72 1068.91 23.72Z" fill="url(#paint4_linear_320_581)"/>
<defs>
<linearGradient id="paint0_linear_320_581" x1="527" y1="18.5" x2="634" y2="18.5" gradientUnits="userSpaceOnUse">
<stop offset="0.264423" stop-color="#9644B5"/>
<stop offset="0.5" stop-color="#CD8DDC"/>
<stop offset="0.980769" stop-color="#FDCDFF"/>
</linearGradient>
<linearGradient id="paint1_linear_320_581" x1="654" y1="18.5" x2="777" y2="18.5" gradientUnits="userSpaceOnUse">
<stop offset="0.264423" stop-color="#9644B5"/>
<stop offset="0.5" stop-color="#CD8DDC"/>
<stop offset="0.980769" stop-color="#FDCDFF"/>
</linearGradient>
<linearGradient id="paint2_linear_320_581" x1="797" y1="18.5" x2="910" y2="18.5" gradientUnits="userSpaceOnUse">
<stop offset="0.264423" stop-color="#9644B5"/>
<stop offset="0.5" stop-color="#CD8DDC"/>
<stop offset="0.980769" stop-color="#FDCDFF"/>
</linearGradient>
<linearGradient id="paint3_linear_320_581" x1="930" y1="18.5" x2="990" y2="18.5" gradientUnits="userSpaceOnUse">
<stop offset="0.264423" stop-color="#9644B5"/>
<stop offset="0.5" stop-color="#CD8DDC"/>
<stop offset="0.980769" stop-color="#FDCDFF"/>
</linearGradient>
<linearGradient id="paint4_linear_320_581" x1="1044" y1="18.5" x2="1129" y2="18.5" gradientUnits="userSpaceOnUse">
<stop offset="0.264423" stop-color="#9644B5"/>
<stop offset="0.5" stop-color="#CD8DDC"/>
<stop offset="0.980769" stop-color="#FDCDFF"/>
</linearGradient>
</defs>
</svg>
