<svg width="1280" height="426" viewBox="0 0 1280 426" fill="none" xmlns="http://www.w3.org/2000/svg">
<rect x="473" y="118" width="325" height="42" fill="#FDCDFF"/>
<path d="M490.361 151V129.328H482.621V125.8H501.989V129.328H494.249V151H490.361ZM509.197 151.504C507.397 151.504 505.825 151.132 504.481 150.388C503.137 149.62 502.081 148.552 501.313 147.184C500.569 145.792 500.197 144.184 500.197 142.36V141.928C500.197 140.08 500.569 138.472 501.313 137.104C502.057 135.712 503.089 134.644 504.409 133.9C505.753 133.132 507.301 132.748 509.053 132.748C510.757 132.748 512.245 133.132 513.517 133.9C514.813 134.644 515.821 135.688 516.541 137.032C517.261 138.376 517.621 139.948 517.621 141.748V143.152H503.977C504.025 144.712 504.541 145.96 505.525 146.896C506.533 147.808 507.781 148.264 509.269 148.264C510.661 148.264 511.705 147.952 512.401 147.328C513.121 146.704 513.673 145.984 514.057 145.168L517.117 146.752C516.781 147.424 516.289 148.132 515.641 148.876C515.017 149.62 514.189 150.244 513.157 150.748C512.125 151.252 510.805 151.504 509.197 151.504ZM504.013 140.308H513.841C513.745 138.964 513.265 137.92 512.401 137.176C511.537 136.408 510.409 136.024 509.017 136.024C507.625 136.024 506.485 136.408 505.597 137.176C504.733 137.92 504.205 138.964 504.013 140.308ZM529.248 151.504C527.544 151.504 525.996 151.144 524.604 150.424C523.236 149.704 522.144 148.66 521.328 147.292C520.536 145.924 520.14 144.28 520.14 142.36V141.892C520.14 139.972 520.536 138.34 521.328 136.996C522.144 135.628 523.236 134.584 524.604 133.864C525.996 133.12 527.544 132.748 529.248 132.748C530.952 132.748 532.404 133.06 533.604 133.684C534.804 134.308 535.764 135.136 536.484 136.168C537.228 137.2 537.708 138.34 537.924 139.588L534.324 140.344C534.204 139.552 533.952 138.832 533.568 138.184C533.184 137.536 532.644 137.02 531.948 136.636C531.252 136.252 530.376 136.06 529.32 136.06C528.288 136.06 527.352 136.3 526.512 136.78C525.696 137.236 525.048 137.908 524.568 138.796C524.088 139.66 523.848 140.716 523.848 141.964V142.288C523.848 143.536 524.088 144.604 524.568 145.492C525.048 146.38 525.696 147.052 526.512 147.508C527.352 147.964 528.288 148.192 529.32 148.192C530.88 148.192 532.068 147.796 532.884 147.004C533.7 146.188 534.216 145.156 534.432 143.908L538.032 144.736C537.744 145.96 537.228 147.088 536.484 148.12C535.764 149.152 534.804 149.98 533.604 150.604C532.404 151.204 530.952 151.504 529.248 151.504ZM541.229 151V133.252H544.865V135.916H545.441C545.777 135.196 546.377 134.524 547.241 133.9C548.105 133.276 549.389 132.964 551.093 132.964C552.437 132.964 553.625 133.264 554.657 133.864C555.713 134.464 556.541 135.316 557.141 136.42C557.741 137.5 558.041 138.808 558.041 140.344V151H554.333V140.632C554.333 139.096 553.949 137.968 553.181 137.248C552.413 136.504 551.357 136.132 550.013 136.132C548.477 136.132 547.241 136.636 546.305 137.644C545.393 138.652 544.937 140.116 544.937 142.036V151H541.229ZM570.613 151.504C568.837 151.504 567.253 151.144 565.861 150.424C564.493 149.68 563.413 148.624 562.621 147.256C561.829 145.888 561.433 144.268 561.433 142.396V141.856C561.433 139.984 561.829 138.376 562.621 137.032C563.413 135.664 564.493 134.608 565.861 133.864C567.253 133.12 568.837 132.748 570.613 132.748C572.389 132.748 573.973 133.12 575.365 133.864C576.757 134.608 577.849 135.664 578.641 137.032C579.433 138.376 579.829 139.984 579.829 141.856V142.396C579.829 144.268 579.433 145.888 578.641 147.256C577.849 148.624 576.757 149.68 575.365 150.424C573.973 151.144 572.389 151.504 570.613 151.504ZM570.613 148.192C572.245 148.192 573.565 147.676 574.573 146.644C575.605 145.588 576.121 144.136 576.121 142.288V141.964C576.121 140.116 575.617 138.676 574.609 137.644C573.601 136.588 572.269 136.06 570.613 136.06C569.005 136.06 567.685 136.588 566.653 137.644C565.645 138.676 565.141 140.116 565.141 141.964V142.288C565.141 144.136 565.645 145.588 566.653 146.644C567.685 147.676 569.005 148.192 570.613 148.192ZM583.366 151V125.8H587.074V151H583.366ZM599.812 151.504C598.036 151.504 596.452 151.144 595.06 150.424C593.692 149.68 592.612 148.624 591.82 147.256C591.028 145.888 590.632 144.268 590.632 142.396V141.856C590.632 139.984 591.028 138.376 591.82 137.032C592.612 135.664 593.692 134.608 595.06 133.864C596.452 133.12 598.036 132.748 599.812 132.748C601.588 132.748 603.172 133.12 604.564 133.864C605.956 134.608 607.048 135.664 607.84 137.032C608.632 138.376 609.028 139.984 609.028 141.856V142.396C609.028 144.268 608.632 145.888 607.84 147.256C607.048 148.624 605.956 149.68 604.564 150.424C603.172 151.144 601.588 151.504 599.812 151.504ZM599.812 148.192C601.444 148.192 602.764 147.676 603.772 146.644C604.804 145.588 605.32 144.136 605.32 142.288V141.964C605.32 140.116 604.816 138.676 603.808 137.644C602.8 136.588 601.468 136.06 599.812 136.06C598.204 136.06 596.884 136.588 595.852 137.644C594.844 138.676 594.34 140.116 594.34 141.964V142.288C594.34 144.136 594.844 145.588 595.852 146.644C596.884 147.676 598.204 148.192 599.812 148.192ZM611.701 142.216V141.676C611.701 139.804 612.073 138.208 612.817 136.888C613.585 135.568 614.593 134.548 615.841 133.828C617.089 133.108 618.457 132.748 619.945 132.748C621.673 132.748 622.993 133.072 623.905 133.72C624.841 134.368 625.525 135.064 625.957 135.808H626.533V133.252H630.133V154.636C630.133 155.716 629.809 156.58 629.161 157.228C628.537 157.876 627.673 158.2 626.569 158.2H614.617V154.96H625.417C626.113 154.96 626.461 154.6 626.461 153.88V148.228H625.885C625.621 148.66 625.249 149.104 624.769 149.56C624.289 150.016 623.653 150.388 622.861 150.676C622.093 150.964 621.121 151.108 619.945 151.108C618.457 151.108 617.077 150.76 615.805 150.064C614.557 149.344 613.561 148.324 612.817 147.004C612.073 145.66 611.701 144.064 611.701 142.216ZM620.953 147.868C622.561 147.868 623.881 147.364 624.913 146.356C625.969 145.324 626.497 143.908 626.497 142.108V141.784C626.497 139.936 625.981 138.52 624.949 137.536C623.917 136.528 622.585 136.024 620.953 136.024C619.369 136.024 618.049 136.528 616.993 137.536C615.961 138.52 615.445 139.936 615.445 141.784V142.108C615.445 143.908 615.961 145.324 616.993 146.356C618.049 147.364 619.369 147.868 620.953 147.868ZM634.512 151V133.252H638.22V151H634.512ZM634.044 131.092L636.744 125.944H641.028L637.392 131.092H634.044ZM648.151 151.504C646.879 151.504 645.739 151.288 644.731 150.856C643.747 150.424 642.955 149.788 642.355 148.948C641.779 148.108 641.491 147.088 641.491 145.888C641.491 144.664 641.779 143.656 642.355 142.864C642.955 142.048 643.759 141.436 644.767 141.028C645.799 140.62 646.963 140.416 648.259 140.416H653.659V139.264C653.659 138.232 653.347 137.404 652.723 136.78C652.099 136.156 651.139 135.844 649.843 135.844C648.571 135.844 647.599 136.144 646.927 136.744C646.255 137.344 645.811 138.124 645.595 139.084L642.139 137.968C642.427 137.008 642.883 136.144 643.507 135.376C644.155 134.584 645.007 133.948 646.063 133.468C647.119 132.988 648.391 132.748 649.879 132.748C652.183 132.748 653.995 133.336 655.315 134.512C656.635 135.688 657.295 137.356 657.295 139.516V146.824C657.295 147.544 657.631 147.904 658.303 147.904H659.815V151H657.043C656.203 151 655.519 150.784 654.991 150.352C654.463 149.92 654.199 149.332 654.199 148.588V148.48H653.659C653.467 148.84 653.179 149.26 652.795 149.74C652.411 150.22 651.847 150.64 651.103 151C650.359 151.336 649.375 151.504 648.151 151.504ZM648.691 148.444C650.179 148.444 651.379 148.024 652.291 147.184C653.203 146.32 653.659 145.144 653.659 143.656V143.296H648.475C647.491 143.296 646.699 143.512 646.099 143.944C645.499 144.352 645.199 144.964 645.199 145.78C645.199 146.596 645.511 147.244 646.135 147.724C646.759 148.204 647.611 148.444 648.691 148.444ZM670.436 158.2V133.252H674.072V135.808H674.648C675.104 135.016 675.788 134.308 676.7 133.684C677.636 133.06 678.968 132.748 680.696 132.748C682.184 132.748 683.54 133.108 684.764 133.828C686.012 134.548 687.008 135.592 687.752 136.96C688.52 138.304 688.904 139.936 688.904 141.856V142.396C688.904 144.316 688.532 145.96 687.788 147.328C687.044 148.672 686.048 149.704 684.8 150.424C683.552 151.144 682.184 151.504 680.696 151.504C679.544 151.504 678.572 151.36 677.78 151.072C676.988 150.784 676.352 150.424 675.872 149.992C675.392 149.536 675.008 149.068 674.72 148.588H674.144V158.2H670.436ZM679.616 148.264C681.248 148.264 682.58 147.748 683.612 146.716C684.644 145.684 685.16 144.208 685.16 142.288V141.964C685.16 140.068 684.632 138.604 683.576 137.572C682.544 136.54 681.224 136.024 679.616 136.024C678.032 136.024 676.712 136.54 675.656 137.572C674.624 138.604 674.108 140.068 674.108 141.964V142.288C674.108 144.208 674.624 145.684 675.656 146.716C676.712 147.748 678.032 148.264 679.616 148.264ZM700.735 151.504C698.959 151.504 697.375 151.144 695.983 150.424C694.615 149.68 693.535 148.624 692.743 147.256C691.951 145.888 691.555 144.268 691.555 142.396V141.856C691.555 139.984 691.951 138.376 692.743 137.032C693.535 135.664 694.615 134.608 695.983 133.864C697.375 133.12 698.959 132.748 700.735 132.748C702.511 132.748 704.095 133.12 705.487 133.864C706.879 134.608 707.971 135.664 708.763 137.032C709.555 138.376 709.951 139.984 709.951 141.856V142.396C709.951 144.268 709.555 145.888 708.763 147.256C707.971 148.624 706.879 149.68 705.487 150.424C704.095 151.144 702.511 151.504 700.735 151.504ZM700.735 148.192C702.367 148.192 703.687 147.676 704.695 146.644C705.727 145.588 706.243 144.136 706.243 142.288V141.964C706.243 140.116 705.739 138.676 704.731 137.644C703.723 136.588 702.391 136.06 700.735 136.06C699.127 136.06 697.807 136.588 696.775 137.644C695.767 138.676 695.263 140.116 695.263 141.964V142.288C695.263 144.136 695.767 145.588 696.775 146.644C697.807 147.676 699.127 148.192 700.735 148.192ZM713.487 151V133.252H717.123V135.34H717.699C717.987 134.596 718.443 134.056 719.067 133.72C719.715 133.36 720.507 133.18 721.443 133.18H723.567V136.528H721.299C720.099 136.528 719.115 136.864 718.347 137.536C717.579 138.184 717.195 139.192 717.195 140.56V151H713.487ZM732.989 151C731.909 151 731.045 150.676 730.397 150.028C729.773 149.38 729.461 148.516 729.461 147.436V136.384H724.565V133.252H729.461V127.384H733.169V133.252H738.461V136.384H733.169V146.788C733.169 147.508 733.505 147.868 734.177 147.868H737.885V151H732.989ZM747.21 151.504C745.938 151.504 744.798 151.288 743.79 150.856C742.806 150.424 742.014 149.788 741.414 148.948C740.838 148.108 740.55 147.088 740.55 145.888C740.55 144.664 740.838 143.656 741.414 142.864C742.014 142.048 742.818 141.436 743.826 141.028C744.858 140.62 746.022 140.416 747.318 140.416H752.718V139.264C752.718 138.232 752.406 137.404 751.782 136.78C751.158 136.156 750.198 135.844 748.902 135.844C747.63 135.844 746.658 136.144 745.986 136.744C745.314 137.344 744.87 138.124 744.654 139.084L741.198 137.968C741.486 137.008 741.942 136.144 742.566 135.376C743.214 134.584 744.066 133.948 745.122 133.468C746.178 132.988 747.45 132.748 748.938 132.748C751.242 132.748 753.054 133.336 754.374 134.512C755.694 135.688 756.354 137.356 756.354 139.516V146.824C756.354 147.544 756.69 147.904 757.362 147.904H758.874V151H756.102C755.262 151 754.578 150.784 754.05 150.352C753.522 149.92 753.258 149.332 753.258 148.588V148.48H752.718C752.526 148.84 752.238 149.26 751.854 149.74C751.47 150.22 750.906 150.64 750.162 151C749.418 151.336 748.434 151.504 747.21 151.504ZM747.75 148.444C749.238 148.444 750.438 148.024 751.35 147.184C752.262 146.32 752.718 145.144 752.718 143.656V143.296H747.534C746.55 143.296 745.758 143.512 745.158 143.944C744.558 144.352 744.258 144.964 744.258 145.78C744.258 146.596 744.57 147.244 745.194 147.724C745.818 148.204 746.67 148.444 747.75 148.444ZM746.778 131.092L749.478 125.944H753.762L750.126 131.092H746.778ZM766.829 151C765.749 151 764.885 150.676 764.237 150.028C763.613 149.38 763.301 148.516 763.301 147.436V136.384H758.405V133.252H763.301V127.384H767.009V133.252H772.301V136.384H767.009V146.788C767.009 147.508 767.345 147.868 768.017 147.868H771.725V151H766.829ZM775.577 151V133.252H779.285V151H775.577ZM777.449 130.84C776.729 130.84 776.117 130.612 775.613 130.156C775.133 129.676 774.893 129.064 774.893 128.32C774.893 127.576 775.133 126.976 775.613 126.52C776.117 126.04 776.729 125.8 777.449 125.8C778.193 125.8 778.805 126.04 779.285 126.52C779.765 126.976 780.005 127.576 780.005 128.32C780.005 129.064 779.765 129.676 779.285 130.156C778.805 130.612 778.193 130.84 777.449 130.84ZM783.708 151V125.8H787.416V151H783.708ZM489.837 188.504C488.373 188.504 487.017 188.144 485.769 187.424C484.521 186.704 483.513 185.672 482.745 184.328C482.001 182.96 481.629 181.316 481.629 179.396V178.856C481.629 176.96 482.001 175.328 482.745 173.96C483.489 172.592 484.485 171.548 485.733 170.828C486.981 170.108 488.349 169.748 489.837 169.748C490.989 169.748 491.949 169.892 492.717 170.18C493.509 170.468 494.157 170.84 494.661 171.296C495.165 171.728 495.549 172.184 495.813 172.664H496.389V162.8H500.097V188H496.461V185.48H495.885C495.429 186.248 494.733 186.944 493.797 187.568C492.885 188.192 491.565 188.504 489.837 188.504ZM490.881 185.264C492.489 185.264 493.809 184.748 494.841 183.716C495.897 182.684 496.425 181.208 496.425 179.288V178.964C496.425 177.068 495.909 175.604 494.877 174.572C493.845 173.54 492.513 173.024 490.881 173.024C489.297 173.024 487.977 173.54 486.921 174.572C485.889 175.604 485.373 177.068 485.373 178.964V179.288C485.373 181.208 485.889 182.684 486.921 183.716C487.977 184.748 489.297 185.264 490.881 185.264ZM512.612 188.504C510.812 188.504 509.24 188.132 507.896 187.388C506.552 186.62 505.496 185.552 504.728 184.184C503.984 182.792 503.612 181.184 503.612 179.36V178.928C503.612 177.08 503.984 175.472 504.728 174.104C505.472 172.712 506.504 171.644 507.824 170.9C509.168 170.132 510.716 169.748 512.468 169.748C514.172 169.748 515.66 170.132 516.932 170.9C518.228 171.644 519.236 172.688 519.956 174.032C520.676 175.376 521.036 176.948 521.036 178.748V180.152H507.392C507.44 181.712 507.956 182.96 508.94 183.896C509.948 184.808 511.196 185.264 512.684 185.264C514.076 185.264 515.12 184.952 515.816 184.328C516.536 183.704 517.088 182.984 517.472 182.168L520.532 183.752C520.196 184.424 519.704 185.132 519.056 185.876C518.432 186.62 517.604 187.244 516.572 187.748C515.54 188.252 514.22 188.504 512.612 188.504ZM507.428 177.308H517.256C517.16 175.964 516.68 174.92 515.816 174.176C514.952 173.408 513.824 173.024 512.432 173.024C511.04 173.024 509.9 173.408 509.012 174.176C508.148 174.92 507.62 175.964 507.428 177.308ZM538.023 188.504C536.751 188.504 535.611 188.288 534.603 187.856C533.619 187.424 532.827 186.788 532.227 185.948C531.651 185.108 531.363 184.088 531.363 182.888C531.363 181.664 531.651 180.656 532.227 179.864C532.827 179.048 533.631 178.436 534.639 178.028C535.671 177.62 536.835 177.416 538.131 177.416H543.531V176.264C543.531 175.232 543.219 174.404 542.595 173.78C541.971 173.156 541.011 172.844 539.715 172.844C538.443 172.844 537.471 173.144 536.799 173.744C536.127 174.344 535.683 175.124 535.467 176.084L532.011 174.968C532.299 174.008 532.755 173.144 533.379 172.376C534.027 171.584 534.879 170.948 535.935 170.468C536.991 169.988 538.263 169.748 539.751 169.748C542.055 169.748 543.867 170.336 545.187 171.512C546.507 172.688 547.167 174.356 547.167 176.516V183.824C547.167 184.544 547.503 184.904 548.175 184.904H549.687V188H546.915C546.075 188 545.391 187.784 544.863 187.352C544.335 186.92 544.071 186.332 544.071 185.588V185.48H543.531C543.339 185.84 543.051 186.26 542.667 186.74C542.283 187.22 541.719 187.64 540.975 188C540.231 188.336 539.247 188.504 538.023 188.504ZM538.563 185.444C540.051 185.444 541.251 185.024 542.163 184.184C543.075 183.32 543.531 182.144 543.531 180.656V180.296H538.347C537.363 180.296 536.571 180.512 535.971 180.944C535.371 181.352 535.071 181.964 535.071 182.78C535.071 183.596 535.383 184.244 536.007 184.724C536.631 185.204 537.483 185.444 538.563 185.444ZM552.212 188V162.8H555.92V188H552.212ZM567.003 188C565.923 188 565.059 187.676 564.411 187.028C563.787 186.38 563.475 185.516 563.475 184.436V173.384H558.579V170.252H563.475V164.384H567.183V170.252H572.475V173.384H567.183V183.788C567.183 184.508 567.519 184.868 568.191 184.868H571.899V188H567.003ZM583.435 188.504C581.659 188.504 580.075 188.144 578.683 187.424C577.315 186.68 576.235 185.624 575.443 184.256C574.651 182.888 574.255 181.268 574.255 179.396V178.856C574.255 176.984 574.651 175.376 575.443 174.032C576.235 172.664 577.315 171.608 578.683 170.864C580.075 170.12 581.659 169.748 583.435 169.748C585.211 169.748 586.795 170.12 588.187 170.864C589.579 171.608 590.671 172.664 591.463 174.032C592.255 175.376 592.651 176.984 592.651 178.856V179.396C592.651 181.268 592.255 182.888 591.463 184.256C590.671 185.624 589.579 186.68 588.187 187.424C586.795 188.144 585.211 188.504 583.435 188.504ZM583.435 185.192C585.067 185.192 586.387 184.676 587.395 183.644C588.427 182.588 588.943 181.136 588.943 179.288V178.964C588.943 177.116 588.439 175.676 587.431 174.644C586.423 173.588 585.091 173.06 583.435 173.06C581.827 173.06 580.507 173.588 579.475 174.644C578.467 175.676 577.963 177.116 577.963 178.964V179.288C577.963 181.136 578.467 182.588 579.475 183.644C580.507 184.676 581.827 185.192 583.435 185.192ZM604.283 188V170.252H607.919V172.34H608.495C608.783 171.596 609.239 171.056 609.863 170.72C610.511 170.36 611.303 170.18 612.239 170.18H614.363V173.528H612.095C610.895 173.528 609.911 173.864 609.143 174.536C608.375 175.184 607.991 176.192 607.991 177.56V188H604.283ZM624.628 188.504C622.828 188.504 621.256 188.132 619.912 187.388C618.568 186.62 617.512 185.552 616.744 184.184C616 182.792 615.628 181.184 615.628 179.36V178.928C615.628 177.08 616 175.472 616.744 174.104C617.488 172.712 618.52 171.644 619.84 170.9C621.184 170.132 622.732 169.748 624.484 169.748C626.188 169.748 627.676 170.132 628.948 170.9C630.244 171.644 631.252 172.688 631.972 174.032C632.692 175.376 633.052 176.948 633.052 178.748V180.152H619.408C619.456 181.712 619.972 182.96 620.956 183.896C621.964 184.808 623.212 185.264 624.7 185.264C626.092 185.264 627.136 184.952 627.832 184.328C628.552 183.704 629.104 182.984 629.488 182.168L632.548 183.752C632.212 184.424 631.72 185.132 631.072 185.876C630.448 186.62 629.62 187.244 628.588 187.748C627.556 188.252 626.236 188.504 624.628 188.504ZM619.444 177.308H629.272C629.176 175.964 628.696 174.92 627.832 174.176C626.968 173.408 625.84 173.024 624.448 173.024C623.056 173.024 621.916 173.408 621.028 174.176C620.164 174.92 619.636 175.964 619.444 177.308ZM636.435 188V170.252H640.071V172.916H640.647C640.983 172.196 641.583 171.524 642.447 170.9C643.311 170.276 644.595 169.964 646.299 169.964C647.643 169.964 648.831 170.264 649.863 170.864C650.919 171.464 651.747 172.316 652.347 173.42C652.947 174.5 653.247 175.808 653.247 177.344V188H649.539V177.632C649.539 176.096 649.155 174.968 648.387 174.248C647.619 173.504 646.563 173.132 645.219 173.132C643.683 173.132 642.447 173.636 641.511 174.644C640.599 175.652 640.143 177.116 640.143 179.036V188H636.435ZM664.848 188.504C663.384 188.504 662.028 188.144 660.78 187.424C659.532 186.704 658.524 185.672 657.756 184.328C657.012 182.96 656.64 181.316 656.64 179.396V178.856C656.64 176.96 657.012 175.328 657.756 173.96C658.5 172.592 659.496 171.548 660.744 170.828C661.992 170.108 663.36 169.748 664.848 169.748C666 169.748 666.96 169.892 667.728 170.18C668.52 170.468 669.168 170.84 669.672 171.296C670.176 171.728 670.56 172.184 670.824 172.664H671.4V162.8H675.108V188H671.472V185.48H670.896C670.44 186.248 669.744 186.944 668.808 187.568C667.896 188.192 666.576 188.504 664.848 188.504ZM665.892 185.264C667.5 185.264 668.82 184.748 669.852 183.716C670.908 182.684 671.436 181.208 671.436 179.288V178.964C671.436 177.068 670.92 175.604 669.888 174.572C668.856 173.54 667.524 173.024 665.892 173.024C664.308 173.024 662.988 173.54 661.932 174.572C660.9 175.604 660.384 177.068 660.384 178.964V179.288C660.384 181.208 660.9 182.684 661.932 183.716C662.988 184.748 664.308 185.264 665.892 185.264ZM679.486 188V170.252H683.194V188H679.486ZM681.358 167.84C680.638 167.84 680.026 167.612 679.522 167.156C679.042 166.676 678.802 166.064 678.802 165.32C678.802 164.576 679.042 163.976 679.522 163.52C680.026 163.04 680.638 162.8 681.358 162.8C682.102 162.8 682.714 163.04 683.194 163.52C683.674 163.976 683.914 164.576 683.914 165.32C683.914 166.064 683.674 166.676 683.194 167.156C682.714 167.612 682.102 167.84 681.358 167.84ZM687.617 188V170.252H691.253V172.34H691.829C692.165 171.716 692.705 171.164 693.449 170.684C694.193 170.204 695.201 169.964 696.473 169.964C697.793 169.964 698.849 170.24 699.641 170.792C700.457 171.32 701.069 172.004 701.477 172.844H702.053C702.461 172.028 703.049 171.344 703.817 170.792C704.609 170.24 705.725 169.964 707.165 169.964C708.317 169.964 709.337 170.204 710.225 170.684C711.113 171.14 711.821 171.836 712.349 172.772C712.877 173.684 713.141 174.824 713.141 176.192V188H709.433V176.48C709.433 175.4 709.133 174.572 708.533 173.996C707.957 173.396 707.129 173.096 706.049 173.096C704.897 173.096 703.973 173.468 703.277 174.212C702.581 174.956 702.233 176.024 702.233 177.416V188H698.525V176.48C698.525 175.4 698.225 174.572 697.625 173.996C697.049 173.396 696.221 173.096 695.141 173.096C693.989 173.096 693.065 173.468 692.369 174.212C691.673 174.956 691.325 176.024 691.325 177.416V188H687.617ZM717.404 188V170.252H721.112V188H717.404ZM719.276 167.84C718.556 167.84 717.944 167.612 717.44 167.156C716.96 166.676 716.72 166.064 716.72 165.32C716.72 164.576 716.96 163.976 717.44 163.52C717.944 163.04 718.556 162.8 719.276 162.8C720.02 162.8 720.632 163.04 721.112 163.52C721.592 163.976 721.832 164.576 721.832 165.32C721.832 166.064 721.592 166.676 721.112 167.156C720.632 167.612 720.02 167.84 719.276 167.84ZM733.671 188.504C731.871 188.504 730.299 188.132 728.955 187.388C727.611 186.62 726.555 185.552 725.787 184.184C725.043 182.792 724.671 181.184 724.671 179.36V178.928C724.671 177.08 725.043 175.472 725.787 174.104C726.531 172.712 727.563 171.644 728.883 170.9C730.227 170.132 731.775 169.748 733.527 169.748C735.231 169.748 736.719 170.132 737.991 170.9C739.287 171.644 740.295 172.688 741.015 174.032C741.735 175.376 742.095 176.948 742.095 178.748V180.152H728.451C728.499 181.712 729.015 182.96 729.999 183.896C731.007 184.808 732.255 185.264 733.743 185.264C735.135 185.264 736.179 184.952 736.875 184.328C737.595 183.704 738.147 182.984 738.531 182.168L741.591 183.752C741.255 184.424 740.763 185.132 740.115 185.876C739.491 186.62 738.663 187.244 737.631 187.748C736.599 188.252 735.279 188.504 733.671 188.504ZM728.487 177.308H738.315C738.219 175.964 737.739 174.92 736.875 174.176C736.011 173.408 734.883 173.024 733.491 173.024C732.099 173.024 730.959 173.408 730.071 174.176C729.207 174.92 728.679 175.964 728.487 177.308ZM745.479 188V170.252H749.115V172.916H749.691C750.027 172.196 750.627 171.524 751.491 170.9C752.355 170.276 753.639 169.964 755.343 169.964C756.687 169.964 757.875 170.264 758.907 170.864C759.963 171.464 760.791 172.316 761.391 173.42C761.991 174.5 762.291 175.808 762.291 177.344V188H758.583V177.632C758.583 176.096 758.199 174.968 757.431 174.248C756.663 173.504 755.607 173.132 754.263 173.132C752.727 173.132 751.491 173.636 750.555 174.644C749.643 175.652 749.187 177.116 749.187 179.036V188H745.479ZM772.715 188C771.635 188 770.771 187.676 770.123 187.028C769.499 186.38 769.187 185.516 769.187 184.436V173.384H764.291V170.252H769.187V164.384H772.895V170.252H778.187V173.384H772.895V183.788C772.895 184.508 773.231 184.868 773.903 184.868H777.611V188H772.715ZM789.146 188.504C787.37 188.504 785.786 188.144 784.394 187.424C783.026 186.68 781.946 185.624 781.154 184.256C780.362 182.888 779.966 181.268 779.966 179.396V178.856C779.966 176.984 780.362 175.376 781.154 174.032C781.946 172.664 783.026 171.608 784.394 170.864C785.786 170.12 787.37 169.748 789.146 169.748C790.922 169.748 792.506 170.12 793.898 170.864C795.29 171.608 796.382 172.664 797.174 174.032C797.966 175.376 798.362 176.984 798.362 178.856V179.396C798.362 181.268 797.966 182.888 797.174 184.256C796.382 185.624 795.29 186.68 793.898 187.424C792.506 188.144 790.922 188.504 789.146 188.504ZM789.146 185.192C790.778 185.192 792.098 184.676 793.106 183.644C794.138 182.588 794.654 181.136 794.654 179.288V178.964C794.654 177.116 794.15 175.676 793.142 174.644C792.134 173.588 790.802 173.06 789.146 173.06C787.538 173.06 786.218 173.588 785.186 174.644C784.178 175.676 783.674 177.116 783.674 178.964V179.288C783.674 181.136 784.178 182.588 785.186 183.644C786.218 184.676 787.538 185.192 789.146 185.192Z" fill="black"/>
</svg>
