<svg width="1280" height="524" viewBox="0 0 1280 524" fill="none" xmlns="http://www.w3.org/2000/svg">
<rect x="594" y="3" width="271" height="42" fill="#FDCDFF"/>
<path d="M424.126 34V8.8H428.878V34H424.126ZM432.682 34V16.144H437.146V18.088H437.794C438.106 17.488 438.622 16.972 439.342 16.54C440.062 16.084 441.01 15.856 442.186 15.856C443.458 15.856 444.478 16.108 445.246 16.612C446.014 17.092 446.602 17.728 447.01 18.52H447.658C448.066 17.752 448.642 17.116 449.386 16.612C450.13 16.108 451.186 15.856 452.554 15.856C453.658 15.856 454.654 16.096 455.542 16.576C456.454 17.032 457.174 17.74 457.702 18.7C458.254 19.636 458.53 20.824 458.53 22.264V34H453.994V22.588C453.994 21.604 453.742 20.872 453.238 20.392C452.734 19.888 452.026 19.636 451.114 19.636C450.082 19.636 449.278 19.972 448.702 20.644C448.15 21.292 447.874 22.228 447.874 23.452V34H443.338V22.588C443.338 21.604 443.086 20.872 442.582 20.392C442.078 19.888 441.37 19.636 440.458 19.636C439.426 19.636 438.622 19.972 438.046 20.644C437.494 21.292 437.218 22.228 437.218 23.452V34H432.682ZM462.329 41.2V16.144H466.793V18.304H467.441C467.849 17.608 468.485 16.996 469.349 16.468C470.213 15.916 471.449 15.64 473.057 15.64C474.497 15.64 475.829 16 477.053 16.72C478.277 17.416 479.261 18.448 480.005 19.816C480.749 21.184 481.121 22.84 481.121 24.784V25.36C481.121 27.304 480.749 28.96 480.005 30.328C479.261 31.696 478.277 32.74 477.053 33.46C475.829 34.156 474.497 34.504 473.057 34.504C471.977 34.504 471.065 34.372 470.321 34.108C469.601 33.868 469.013 33.556 468.557 33.172C468.125 32.764 467.777 32.356 467.513 31.948H466.865V41.2H462.329ZM471.689 30.544C473.105 30.544 474.269 30.1 475.181 29.212C476.117 28.3 476.585 26.98 476.585 25.252V24.892C476.585 23.164 476.117 21.856 475.181 20.968C474.245 20.056 473.081 19.6 471.689 19.6C470.297 19.6 469.133 20.056 468.197 20.968C467.261 21.856 466.793 23.164 466.793 24.892V25.252C466.793 26.98 467.261 28.3 468.197 29.212C469.133 30.1 470.297 30.544 471.689 30.544ZM484.206 34V16.144H488.67V18.16H489.318C489.582 17.44 490.014 16.912 490.614 16.576C491.238 16.24 491.958 16.072 492.774 16.072H494.934V20.104H492.702C491.55 20.104 490.602 20.416 489.858 21.04C489.114 21.64 488.742 22.576 488.742 23.848V34H484.206ZM497.399 34V16.144H501.935V34H497.399ZM499.667 14.056C498.851 14.056 498.155 13.792 497.579 13.264C497.027 12.736 496.751 12.04 496.751 11.176C496.751 10.312 497.027 9.616 497.579 9.088C498.155 8.56 498.851 8.296 499.667 8.296C500.507 8.296 501.203 8.56 501.755 9.088C502.307 9.616 502.583 10.312 502.583 11.176C502.583 12.04 502.307 12.736 501.755 13.264C501.203 13.792 500.507 14.056 499.667 14.056ZM505.882 34V16.144H510.346V18.088H510.994C511.306 17.488 511.822 16.972 512.542 16.54C513.262 16.084 514.21 15.856 515.386 15.856C516.658 15.856 517.678 16.108 518.446 16.612C519.214 17.092 519.802 17.728 520.21 18.52H520.858C521.266 17.752 521.842 17.116 522.586 16.612C523.33 16.108 524.386 15.856 525.754 15.856C526.858 15.856 527.854 16.096 528.742 16.576C529.654 17.032 530.374 17.74 530.902 18.7C531.454 19.636 531.73 20.824 531.73 22.264V34H527.194V22.588C527.194 21.604 526.942 20.872 526.438 20.392C525.934 19.888 525.226 19.636 524.314 19.636C523.282 19.636 522.478 19.972 521.902 20.644C521.35 21.292 521.074 22.228 521.074 23.452V34H516.538V22.588C516.538 21.604 516.286 20.872 515.782 20.392C515.278 19.888 514.57 19.636 513.658 19.636C512.626 19.636 511.822 19.972 511.246 20.644C510.694 21.292 510.418 22.228 510.418 23.452V34H505.882ZM535.528 34V16.144H540.064V34H535.528ZM535.06 14.128L537.724 8.8H542.836L539.02 14.128H535.06ZM560.207 34.504C558.431 34.504 556.859 34.132 555.491 33.388C554.147 32.62 553.091 31.552 552.323 30.184C551.579 28.792 551.207 27.16 551.207 25.288V24.856C551.207 22.984 551.579 21.364 552.323 19.996C553.067 18.604 554.111 17.536 555.455 16.792C556.799 16.024 558.359 15.64 560.135 15.64C561.887 15.64 563.411 16.036 564.707 16.828C566.003 17.596 567.011 18.676 567.731 20.068C568.451 21.436 568.811 23.032 568.811 24.856V26.404H555.815C555.863 27.628 556.319 28.624 557.183 29.392C558.047 30.16 559.103 30.544 560.351 30.544C561.623 30.544 562.559 30.268 563.159 29.716C563.759 29.164 564.215 28.552 564.527 27.88L568.235 29.824C567.899 30.448 567.407 31.132 566.759 31.876C566.135 32.596 565.295 33.22 564.239 33.748C563.183 34.252 561.839 34.504 560.207 34.504ZM555.851 23.02H564.203C564.107 21.988 563.687 21.16 562.943 20.536C562.223 19.912 561.275 19.6 560.099 19.6C558.875 19.6 557.903 19.912 557.183 20.536C556.463 21.16 556.019 21.988 555.851 23.02ZM571.769 34V16.144H576.233V18.484H576.881C577.169 17.86 577.709 17.272 578.501 16.72C579.293 16.144 580.493 15.856 582.101 15.856C583.493 15.856 584.705 16.18 585.737 16.828C586.793 17.452 587.609 18.328 588.185 19.456C588.761 20.56 589.049 21.856 589.049 23.344V34H584.513V23.704C584.513 22.36 584.177 21.352 583.505 20.68C582.857 20.008 581.921 19.672 580.697 19.672C579.305 19.672 578.225 20.14 577.457 21.076C576.689 21.988 576.305 23.272 576.305 24.928V34H571.769ZM609.357 34.504C607.461 34.504 605.781 34.168 604.317 33.496C602.853 32.824 601.701 31.864 600.861 30.616C600.045 29.344 599.637 27.844 599.637 26.116V25.468H604.245V25.972C604.245 27.316 604.713 28.396 605.649 29.212C606.585 30.004 607.821 30.4 609.357 30.4C610.917 30.4 612.117 30.028 612.957 29.284C613.821 28.54 614.253 27.604 614.253 26.476V26.116C614.253 25.348 614.061 24.724 613.677 24.244C613.293 23.764 612.777 23.416 612.129 23.2C611.481 22.96 610.749 22.84 609.933 22.84H604.893V17.8L613.029 13.48V12.904H600.285V8.8H618.141V14.92L610.545 18.952V19.528H611.877C613.005 19.528 614.097 19.756 615.153 20.212C616.233 20.668 617.121 21.376 617.817 22.336C618.513 23.272 618.861 24.496 618.861 26.008V26.44C618.861 28.072 618.465 29.5 617.673 30.724C616.881 31.924 615.765 32.86 614.325 33.532C612.909 34.18 611.253 34.504 609.357 34.504ZM637.232 34.504C634.904 34.504 632.996 34 631.508 32.992C630.02 31.984 629.12 30.544 628.808 28.672L632.984 27.592C633.152 28.432 633.428 29.092 633.812 29.572C634.22 30.052 634.712 30.4 635.288 30.616C635.888 30.808 636.536 30.904 637.232 30.904C638.288 30.904 639.068 30.724 639.572 30.364C640.076 29.98 640.328 29.512 640.328 28.96C640.328 28.408 640.088 27.988 639.608 27.7C639.128 27.388 638.36 27.136 637.304 26.944L636.296 26.764C635.048 26.524 633.908 26.2 632.876 25.792C631.844 25.36 631.016 24.772 630.392 24.028C629.768 23.284 629.456 22.324 629.456 21.148C629.456 19.372 630.104 18.016 631.4 17.08C632.696 16.12 634.4 15.64 636.512 15.64C638.504 15.64 640.16 16.084 641.48 16.972C642.8 17.86 643.664 19.024 644.072 20.464L639.86 21.76C639.668 20.848 639.272 20.2 638.672 19.816C638.096 19.432 637.376 19.24 636.512 19.24C635.648 19.24 634.988 19.396 634.532 19.708C634.076 19.996 633.848 20.404 633.848 20.932C633.848 21.508 634.088 21.94 634.568 22.228C635.048 22.492 635.696 22.696 636.512 22.84L637.52 23.02C638.864 23.26 640.076 23.584 641.156 23.992C642.26 24.376 643.124 24.94 643.748 25.684C644.396 26.404 644.72 27.388 644.72 28.636C644.72 30.508 644.036 31.96 642.668 32.992C641.324 34 639.512 34.504 637.232 34.504ZM647.615 34V16.144H652.151V34H647.615ZM649.883 14.056C649.067 14.056 648.371 13.792 647.795 13.264C647.243 12.736 646.967 12.04 646.967 11.176C646.967 10.312 647.243 9.616 647.795 9.088C648.371 8.56 649.067 8.296 649.883 8.296C650.723 8.296 651.419 8.56 651.971 9.088C652.523 9.616 652.799 10.312 652.799 11.176C652.799 12.04 652.523 12.736 651.971 13.264C651.419 13.792 650.723 14.056 649.883 14.056ZM656.097 34V16.144H660.561V18.088H661.209C661.521 17.488 662.037 16.972 662.757 16.54C663.477 16.084 664.425 15.856 665.601 15.856C666.873 15.856 667.893 16.108 668.661 16.612C669.429 17.092 670.017 17.728 670.425 18.52H671.073C671.481 17.752 672.057 17.116 672.801 16.612C673.545 16.108 674.601 15.856 675.969 15.856C677.073 15.856 678.069 16.096 678.957 16.576C679.869 17.032 680.589 17.74 681.117 18.7C681.669 19.636 681.945 20.824 681.945 22.264V34H677.409V22.588C677.409 21.604 677.157 20.872 676.653 20.392C676.149 19.888 675.441 19.636 674.529 19.636C673.497 19.636 672.693 19.972 672.117 20.644C671.565 21.292 671.289 22.228 671.289 23.452V34H666.753V22.588C666.753 21.604 666.501 20.872 665.997 20.392C665.493 19.888 664.785 19.636 663.873 19.636C662.841 19.636 662.037 19.972 661.461 20.644C660.909 21.292 660.633 22.228 660.633 23.452V34H656.097ZM685.744 41.2V16.144H690.208V18.304H690.856C691.264 17.608 691.9 16.996 692.764 16.468C693.628 15.916 694.864 15.64 696.472 15.64C697.912 15.64 699.244 16 700.468 16.72C701.692 17.416 702.676 18.448 703.42 19.816C704.164 21.184 704.536 22.84 704.536 24.784V25.36C704.536 27.304 704.164 28.96 703.42 30.328C702.676 31.696 701.692 32.74 700.468 33.46C699.244 34.156 697.912 34.504 696.472 34.504C695.392 34.504 694.48 34.372 693.736 34.108C693.016 33.868 692.428 33.556 691.972 33.172C691.54 32.764 691.192 32.356 690.928 31.948H690.28V41.2H685.744ZM695.104 30.544C696.52 30.544 697.684 30.1 698.596 29.212C699.532 28.3 700 26.98 700 25.252V24.892C700 23.164 699.532 21.856 698.596 20.968C697.66 20.056 696.496 19.6 695.104 19.6C693.712 19.6 692.548 20.056 691.612 20.968C690.676 21.856 690.208 23.164 690.208 24.892V25.252C690.208 26.98 690.676 28.3 691.612 29.212C692.548 30.1 693.712 30.544 695.104 30.544ZM707.621 34V8.8H712.157V34H707.621ZM724.239 34.504C722.463 34.504 720.891 34.132 719.523 33.388C718.179 32.62 717.123 31.552 716.355 30.184C715.611 28.792 715.239 27.16 715.239 25.288V24.856C715.239 22.984 715.611 21.364 716.355 19.996C717.099 18.604 718.143 17.536 719.487 16.792C720.831 16.024 722.391 15.64 724.167 15.64C725.919 15.64 727.443 16.036 728.739 16.828C730.035 17.596 731.043 18.676 731.763 20.068C732.483 21.436 732.843 23.032 732.843 24.856V26.404H719.847C719.895 27.628 720.351 28.624 721.215 29.392C722.079 30.16 723.135 30.544 724.383 30.544C725.655 30.544 726.591 30.268 727.191 29.716C727.791 29.164 728.247 28.552 728.559 27.88L732.267 29.824C731.931 30.448 731.439 31.132 730.791 31.876C730.167 32.596 729.327 33.22 728.271 33.748C727.215 34.252 725.871 34.504 724.239 34.504ZM719.883 23.02H728.235C728.139 21.988 727.719 21.16 726.975 20.536C726.255 19.912 725.307 19.6 724.131 19.6C722.907 19.6 721.935 19.912 721.215 20.536C720.495 21.16 720.051 21.988 719.883 23.02ZM743.217 34.504C740.889 34.504 738.981 34 737.493 32.992C736.005 31.984 735.105 30.544 734.793 28.672L738.969 27.592C739.137 28.432 739.413 29.092 739.797 29.572C740.205 30.052 740.697 30.4 741.273 30.616C741.873 30.808 742.521 30.904 743.217 30.904C744.273 30.904 745.053 30.724 745.557 30.364C746.061 29.98 746.313 29.512 746.313 28.96C746.313 28.408 746.073 27.988 745.593 27.7C745.113 27.388 744.345 27.136 743.289 26.944L742.281 26.764C741.033 26.524 739.893 26.2 738.861 25.792C737.829 25.36 737.001 24.772 736.377 24.028C735.753 23.284 735.441 22.324 735.441 21.148C735.441 19.372 736.089 18.016 737.385 17.08C738.681 16.12 740.385 15.64 742.497 15.64C744.489 15.64 746.145 16.084 747.465 16.972C748.785 17.86 749.649 19.024 750.057 20.464L745.845 21.76C745.653 20.848 745.257 20.2 744.657 19.816C744.081 19.432 743.361 19.24 742.497 19.24C741.633 19.24 740.973 19.396 740.517 19.708C740.061 19.996 739.833 20.404 739.833 20.932C739.833 21.508 740.073 21.94 740.553 22.228C741.033 22.492 741.681 22.696 742.497 22.84L743.505 23.02C744.849 23.26 746.061 23.584 747.141 23.992C748.245 24.376 749.109 24.94 749.733 25.684C750.381 26.404 750.705 27.388 750.705 28.636C750.705 30.508 750.021 31.96 748.653 32.992C747.309 34 745.497 34.504 743.217 34.504ZM761.66 41.2V16.144H766.124V18.304H766.772C767.18 17.608 767.816 16.996 768.68 16.468C769.544 15.916 770.78 15.64 772.388 15.64C773.828 15.64 775.16 16 776.384 16.72C777.608 17.416 778.592 18.448 779.336 19.816C780.08 21.184 780.452 22.84 780.452 24.784V25.36C780.452 27.304 780.08 28.96 779.336 30.328C778.592 31.696 777.608 32.74 776.384 33.46C775.16 34.156 773.828 34.504 772.388 34.504C771.308 34.504 770.396 34.372 769.652 34.108C768.932 33.868 768.344 33.556 767.888 33.172C767.456 32.764 767.108 32.356 766.844 31.948H766.196V41.2H761.66ZM771.02 30.544C772.436 30.544 773.6 30.1 774.512 29.212C775.448 28.3 775.916 26.98 775.916 25.252V24.892C775.916 23.164 775.448 21.856 774.512 20.968C773.576 20.056 772.412 19.6 771.02 19.6C769.628 19.6 768.464 20.056 767.528 20.968C766.592 21.856 766.124 23.164 766.124 24.892V25.252C766.124 26.98 766.592 28.3 767.528 29.212C768.464 30.1 769.628 30.544 771.02 30.544ZM789.081 34.504C787.809 34.504 786.669 34.288 785.661 33.856C784.653 33.4 783.849 32.752 783.249 31.912C782.673 31.048 782.385 30.004 782.385 28.78C782.385 27.556 782.673 26.536 783.249 25.72C783.849 24.88 784.665 24.256 785.697 23.848C786.753 23.416 787.953 23.2 789.297 23.2H794.193V22.192C794.193 21.352 793.929 20.668 793.401 20.14C792.873 19.588 792.033 19.312 790.881 19.312C789.753 19.312 788.913 19.576 788.361 20.104C787.809 20.608 787.449 21.268 787.281 22.084L783.105 20.68C783.393 19.768 783.849 18.94 784.473 18.196C785.121 17.428 785.973 16.816 787.029 16.36C788.109 15.88 789.417 15.64 790.953 15.64C793.305 15.64 795.165 16.228 796.533 17.404C797.901 18.58 798.585 20.284 798.585 22.516V29.176C798.585 29.896 798.921 30.256 799.593 30.256H801.033V34H798.009C797.121 34 796.389 33.784 795.813 33.352C795.237 32.92 794.949 32.344 794.949 31.624V31.588H794.265C794.169 31.876 793.953 32.26 793.617 32.74C793.281 33.196 792.753 33.604 792.033 33.964C791.313 34.324 790.329 34.504 789.081 34.504ZM789.873 30.832C791.145 30.832 792.177 30.484 792.969 29.788C793.785 29.068 794.193 28.12 794.193 26.944V26.584H789.621C788.781 26.584 788.121 26.764 787.641 27.124C787.161 27.484 786.921 27.988 786.921 28.636C786.921 29.284 787.173 29.812 787.677 30.22C788.181 30.628 788.913 30.832 789.873 30.832ZM810.545 34.504C808.217 34.504 806.309 34 804.821 32.992C803.333 31.984 802.433 30.544 802.121 28.672L806.297 27.592C806.465 28.432 806.741 29.092 807.125 29.572C807.533 30.052 808.025 30.4 808.601 30.616C809.201 30.808 809.849 30.904 810.545 30.904C811.601 30.904 812.381 30.724 812.885 30.364C813.389 29.98 813.641 29.512 813.641 28.96C813.641 28.408 813.401 27.988 812.921 27.7C812.441 27.388 811.673 27.136 810.617 26.944L809.609 26.764C808.361 26.524 807.221 26.2 806.189 25.792C805.157 25.36 804.329 24.772 803.705 24.028C803.081 23.284 802.769 22.324 802.769 21.148C802.769 19.372 803.417 18.016 804.713 17.08C806.009 16.12 807.713 15.64 809.825 15.64C811.817 15.64 813.473 16.084 814.793 16.972C816.113 17.86 816.977 19.024 817.385 20.464L813.173 21.76C812.981 20.848 812.585 20.2 811.985 19.816C811.409 19.432 810.689 19.24 809.825 19.24C808.961 19.24 808.301 19.396 807.845 19.708C807.389 19.996 807.161 20.404 807.161 20.932C807.161 21.508 807.401 21.94 807.881 22.228C808.361 22.492 809.009 22.696 809.825 22.84L810.833 23.02C812.177 23.26 813.389 23.584 814.469 23.992C815.573 24.376 816.437 24.94 817.061 25.684C817.709 26.404 818.033 27.388 818.033 28.636C818.033 30.508 817.349 31.96 815.981 32.992C814.637 34 812.825 34.504 810.545 34.504ZM829.424 34.504C827.648 34.504 826.052 34.144 824.636 33.424C823.22 32.704 822.104 31.66 821.288 30.292C820.472 28.924 820.064 27.28 820.064 25.36V24.784C820.064 22.864 820.472 21.22 821.288 19.852C822.104 18.484 823.22 17.44 824.636 16.72C826.052 16 827.648 15.64 829.424 15.64C831.2 15.64 832.796 16 834.212 16.72C835.628 17.44 836.744 18.484 837.56 19.852C838.376 21.22 838.784 22.864 838.784 24.784V25.36C838.784 27.28 838.376 28.924 837.56 30.292C836.744 31.66 835.628 32.704 834.212 33.424C832.796 34.144 831.2 34.504 829.424 34.504ZM829.424 30.472C830.816 30.472 831.968 30.028 832.88 29.14C833.792 28.228 834.248 26.932 834.248 25.252V24.892C834.248 23.212 833.792 21.928 832.88 21.04C831.992 20.128 830.84 19.672 829.424 19.672C828.032 19.672 826.88 20.128 825.968 21.04C825.056 21.928 824.6 23.212 824.6 24.892V25.252C824.6 26.932 825.056 28.228 825.968 29.14C826.88 30.028 828.032 30.472 829.424 30.472ZM849.307 34.504C846.979 34.504 845.071 34 843.583 32.992C842.095 31.984 841.195 30.544 840.883 28.672L845.059 27.592C845.227 28.432 845.503 29.092 845.887 29.572C846.295 30.052 846.787 30.4 847.363 30.616C847.963 30.808 848.611 30.904 849.307 30.904C850.363 30.904 851.143 30.724 851.647 30.364C852.151 29.98 852.403 29.512 852.403 28.96C852.403 28.408 852.163 27.988 851.683 27.7C851.203 27.388 850.435 27.136 849.379 26.944L848.371 26.764C847.123 26.524 845.983 26.2 844.951 25.792C843.919 25.36 843.091 24.772 842.467 24.028C841.843 23.284 841.531 22.324 841.531 21.148C841.531 19.372 842.179 18.016 843.475 17.08C844.771 16.12 846.475 15.64 848.587 15.64C850.579 15.64 852.235 16.084 853.555 16.972C854.875 17.86 855.739 19.024 856.147 20.464L851.935 21.76C851.743 20.848 851.347 20.2 850.747 19.816C850.171 19.432 849.451 19.24 848.587 19.24C847.723 19.24 847.063 19.396 846.607 19.708C846.151 19.996 845.923 20.404 845.923 20.932C845.923 21.508 846.163 21.94 846.643 22.228C847.123 22.492 847.771 22.696 848.587 22.84L849.595 23.02C850.939 23.26 852.151 23.584 853.231 23.992C854.335 24.376 855.199 24.94 855.823 25.684C856.471 26.404 856.795 27.388 856.795 28.636C856.795 30.508 856.111 31.96 854.743 32.992C853.399 34 851.587 34.504 849.307 34.504Z" fill="black"/>
</svg>
