<svg width="1280" height="709" viewBox="0 0 1280 709" fill="none" xmlns="http://www.w3.org/2000/svg">
<path d="M449.717 209V183.8H454.469V204.68H465.989V209H449.717ZM473.837 209.504C472.565 209.504 471.425 209.288 470.417 208.856C469.409 208.4 468.605 207.752 468.005 206.912C467.429 206.048 467.141 205.004 467.141 203.78C467.141 202.556 467.429 201.536 468.005 200.72C468.605 199.88 469.421 199.256 470.453 198.848C471.509 198.416 472.709 198.2 474.053 198.2H478.949V197.192C478.949 196.352 478.685 195.668 478.157 195.14C477.629 194.588 476.789 194.312 475.637 194.312C474.509 194.312 473.669 194.576 473.117 195.104C472.565 195.608 472.205 196.268 472.037 197.084L467.861 195.68C468.149 194.768 468.605 193.94 469.229 193.196C469.877 192.428 470.729 191.816 471.785 191.36C472.865 190.88 474.173 190.64 475.709 190.64C478.061 190.64 479.921 191.228 481.289 192.404C482.657 193.58 483.341 195.284 483.341 197.516V204.176C483.341 204.896 483.677 205.256 484.349 205.256H485.789V209H482.765C481.877 209 481.145 208.784 480.569 208.352C479.993 207.92 479.705 207.344 479.705 206.624V206.588H479.021C478.925 206.876 478.709 207.26 478.373 207.74C478.037 208.196 477.509 208.604 476.789 208.964C476.069 209.324 475.085 209.504 473.837 209.504ZM474.629 205.832C475.901 205.832 476.933 205.484 477.725 204.788C478.541 204.068 478.949 203.12 478.949 201.944V201.584H474.377C473.537 201.584 472.877 201.764 472.397 202.124C471.917 202.484 471.677 202.988 471.677 203.636C471.677 204.284 471.929 204.812 472.433 205.22C472.937 205.628 473.669 205.832 474.629 205.832ZM495.942 209V183.8H500.694V194.204H510.054V183.8H514.806V209H510.054V198.524H500.694V209H495.942ZM518.487 209V183.8H528.855C530.439 183.8 531.831 184.124 533.031 184.772C534.255 185.396 535.203 186.284 535.875 187.436C536.571 188.588 536.919 189.956 536.919 191.54V192.044C536.919 193.604 536.559 194.972 535.839 196.148C535.143 197.3 534.183 198.2 532.959 198.848C531.759 199.472 530.391 199.784 528.855 199.784H523.239V209H518.487ZM523.239 195.464H528.387C529.515 195.464 530.427 195.152 531.123 194.528C531.819 193.904 532.167 193.052 532.167 191.972V191.612C532.167 190.532 531.819 189.68 531.123 189.056C530.427 188.432 529.515 188.12 528.387 188.12H523.239V195.464ZM555.942 209.504C553.998 209.504 552.282 209.156 550.794 208.46C549.306 207.764 548.142 206.768 547.302 205.472C546.462 204.176 546.042 202.616 546.042 200.792V199.784H550.722V200.792C550.722 202.304 551.19 203.444 552.126 204.212C553.062 204.956 554.334 205.328 555.942 205.328C557.574 205.328 558.786 205.004 559.578 204.356C560.394 203.708 560.802 202.88 560.802 201.872C560.802 201.176 560.598 200.612 560.19 200.18C559.806 199.748 559.23 199.4 558.462 199.136C557.718 198.848 556.806 198.584 555.726 198.344L554.898 198.164C553.17 197.78 551.682 197.3 550.434 196.724C549.21 196.124 548.262 195.344 547.59 194.384C546.942 193.424 546.618 192.176 546.618 190.64C546.618 189.104 546.978 187.796 547.698 186.716C548.442 185.612 549.474 184.772 550.794 184.196C552.138 183.596 553.71 183.296 555.51 183.296C557.31 183.296 558.906 183.608 560.298 184.232C561.714 184.832 562.818 185.744 563.61 186.968C564.426 188.168 564.834 189.68 564.834 191.504V192.584H560.154V191.504C560.154 190.544 559.962 189.776 559.578 189.2C559.218 188.6 558.69 188.168 557.994 187.904C557.298 187.616 556.47 187.472 555.51 187.472C554.07 187.472 553.002 187.748 552.306 188.3C551.634 188.828 551.298 189.56 551.298 190.496C551.298 191.12 551.454 191.648 551.766 192.08C552.102 192.512 552.594 192.872 553.242 193.16C553.89 193.448 554.718 193.7 555.726 193.916L556.554 194.096C558.354 194.48 559.914 194.972 561.234 195.572C562.578 196.172 563.622 196.964 564.366 197.948C565.11 198.932 565.482 200.192 565.482 201.728C565.482 203.264 565.086 204.62 564.294 205.796C563.526 206.948 562.422 207.86 560.982 208.532C559.566 209.18 557.886 209.504 555.942 209.504ZM568.09 216.2V191.144H572.554V193.304H573.202C573.61 192.608 574.246 191.996 575.11 191.468C575.974 190.916 577.21 190.64 578.818 190.64C580.258 190.64 581.59 191 582.814 191.72C584.038 192.416 585.022 193.448 585.766 194.816C586.51 196.184 586.882 197.84 586.882 199.784V200.36C586.882 202.304 586.51 203.96 585.766 205.328C585.022 206.696 584.038 207.74 582.814 208.46C581.59 209.156 580.258 209.504 578.818 209.504C577.738 209.504 576.826 209.372 576.082 209.108C575.362 208.868 574.774 208.556 574.318 208.172C573.886 207.764 573.538 207.356 573.274 206.948H572.626V216.2H568.09ZM577.45 205.544C578.866 205.544 580.03 205.1 580.942 204.212C581.878 203.3 582.346 201.98 582.346 200.252V199.892C582.346 198.164 581.878 196.856 580.942 195.968C580.006 195.056 578.842 194.6 577.45 194.6C576.058 194.6 574.894 195.056 573.958 195.968C573.022 196.856 572.554 198.164 572.554 199.892V200.252C572.554 201.98 573.022 203.3 573.958 204.212C574.894 205.1 576.058 205.544 577.45 205.544ZM589.967 209V191.144H594.431V193.16H595.079C595.343 192.44 595.775 191.912 596.375 191.576C596.999 191.24 597.719 191.072 598.535 191.072H600.695V195.104H598.463C597.311 195.104 596.363 195.416 595.619 196.04C594.875 196.64 594.503 197.576 594.503 198.848V209H589.967ZM611.024 209.504C609.248 209.504 607.652 209.144 606.236 208.424C604.82 207.704 603.704 206.66 602.888 205.292C602.072 203.924 601.664 202.28 601.664 200.36V199.784C601.664 197.864 602.072 196.22 602.888 194.852C603.704 193.484 604.82 192.44 606.236 191.72C607.652 191 609.248 190.64 611.024 190.64C612.8 190.64 614.396 191 615.812 191.72C617.228 192.44 618.344 193.484 619.16 194.852C619.976 196.22 620.384 197.864 620.384 199.784V200.36C620.384 202.28 619.976 203.924 619.16 205.292C618.344 206.66 617.228 207.704 615.812 208.424C614.396 209.144 612.8 209.504 611.024 209.504ZM611.024 205.472C612.416 205.472 613.568 205.028 614.48 204.14C615.392 203.228 615.848 201.932 615.848 200.252V199.892C615.848 198.212 615.392 196.928 614.48 196.04C613.592 195.128 612.44 194.672 611.024 194.672C609.632 194.672 608.48 195.128 607.568 196.04C606.656 196.928 606.2 198.212 606.2 199.892V200.252C606.2 201.932 606.656 203.228 607.568 204.14C608.48 205.028 609.632 205.472 611.024 205.472ZM631.879 209.504C630.151 209.504 628.579 209.144 627.163 208.424C625.771 207.704 624.667 206.66 623.851 205.292C623.035 203.924 622.627 202.268 622.627 200.324V199.82C622.627 197.876 623.035 196.22 623.851 194.852C624.667 193.484 625.771 192.44 627.163 191.72C628.579 191 630.151 190.64 631.879 190.64C633.583 190.64 635.047 190.94 636.271 191.54C637.495 192.14 638.479 192.968 639.223 194.024C639.991 195.056 640.495 196.232 640.735 197.552L636.343 198.488C636.247 197.768 636.031 197.12 635.695 196.544C635.359 195.968 634.879 195.512 634.255 195.176C633.655 194.84 632.899 194.672 631.987 194.672C631.075 194.672 630.247 194.876 629.503 195.284C628.783 195.668 628.207 196.256 627.775 197.048C627.367 197.816 627.163 198.764 627.163 199.892V200.252C627.163 201.38 627.367 202.34 627.775 203.132C628.207 203.9 628.783 204.488 629.503 204.896C630.247 205.28 631.075 205.472 631.987 205.472C633.355 205.472 634.387 205.124 635.083 204.428C635.803 203.708 636.259 202.772 636.451 201.62L640.843 202.664C640.531 203.936 639.991 205.1 639.223 206.156C638.479 207.188 637.495 208.004 636.271 208.604C635.047 209.204 633.583 209.504 631.879 209.504ZM643.504 209V183.8H648.04V197.732H648.688L654.592 191.144H660.496L652.252 199.784L660.784 209H654.952L648.688 201.908H648.04V209H643.504ZM669.791 209.504C668.015 209.504 666.443 209.132 665.075 208.388C663.731 207.62 662.675 206.552 661.907 205.184C661.163 203.792 660.791 202.16 660.791 200.288V199.856C660.791 197.984 661.163 196.364 661.907 194.996C662.651 193.604 663.695 192.536 665.039 191.792C666.383 191.024 667.943 190.64 669.719 190.64C671.471 190.64 672.995 191.036 674.291 191.828C675.587 192.596 676.595 193.676 677.315 195.068C678.035 196.436 678.395 198.032 678.395 199.856V201.404H665.399C665.447 202.628 665.903 203.624 666.767 204.392C667.631 205.16 668.687 205.544 669.935 205.544C671.207 205.544 672.143 205.268 672.743 204.716C673.343 204.164 673.799 203.552 674.111 202.88L677.819 204.824C677.483 205.448 676.991 206.132 676.343 206.876C675.719 207.596 674.879 208.22 673.823 208.748C672.767 209.252 671.423 209.504 669.791 209.504ZM665.435 198.02H673.787C673.691 196.988 673.271 196.16 672.527 195.536C671.807 194.912 670.859 194.6 669.683 194.6C668.459 194.6 667.487 194.912 666.767 195.536C666.047 196.16 665.603 196.988 665.435 198.02ZM687.595 209C686.419 209 685.459 208.64 684.715 207.92C683.995 207.176 683.635 206.192 683.635 204.968V194.888H679.171V191.144H683.635V185.6H688.171V191.144H693.067V194.888H688.171V204.176C688.171 204.896 688.507 205.256 689.179 205.256H692.635V209H687.595ZM704.153 209V191.144H708.689V209H704.153ZM706.421 189.056C705.605 189.056 704.909 188.792 704.333 188.264C703.781 187.736 703.505 187.04 703.505 186.176C703.505 185.312 703.781 184.616 704.333 184.088C704.909 183.56 705.605 183.296 706.421 183.296C707.261 183.296 707.957 183.56 708.509 184.088C709.061 184.616 709.337 185.312 709.337 186.176C709.337 187.04 709.061 187.736 708.509 188.264C707.957 188.792 707.261 189.056 706.421 189.056ZM712.636 209V191.144H717.1V193.088H717.748C718.06 192.488 718.576 191.972 719.296 191.54C720.016 191.084 720.964 190.856 722.14 190.856C723.412 190.856 724.432 191.108 725.2 191.612C725.968 192.092 726.556 192.728 726.964 193.52H727.612C728.02 192.752 728.596 192.116 729.34 191.612C730.084 191.108 731.14 190.856 732.508 190.856C733.612 190.856 734.608 191.096 735.496 191.576C736.408 192.032 737.128 192.74 737.656 193.7C738.208 194.636 738.484 195.824 738.484 197.264V209H733.948V197.588C733.948 196.604 733.696 195.872 733.192 195.392C732.688 194.888 731.98 194.636 731.068 194.636C730.036 194.636 729.232 194.972 728.656 195.644C728.104 196.292 727.828 197.228 727.828 198.452V209H723.292V197.588C723.292 196.604 723.04 195.872 722.536 195.392C722.032 194.888 721.324 194.636 720.412 194.636C719.38 194.636 718.576 194.972 718 195.644C717.448 196.292 717.172 197.228 717.172 198.452V209H712.636ZM742.282 216.2V191.144H746.746V193.304H747.394C747.802 192.608 748.438 191.996 749.302 191.468C750.166 190.916 751.402 190.64 753.01 190.64C754.45 190.64 755.782 191 757.006 191.72C758.23 192.416 759.214 193.448 759.958 194.816C760.702 196.184 761.074 197.84 761.074 199.784V200.36C761.074 202.304 760.702 203.96 759.958 205.328C759.214 206.696 758.23 207.74 757.006 208.46C755.782 209.156 754.45 209.504 753.01 209.504C751.93 209.504 751.018 209.372 750.274 209.108C749.554 208.868 748.966 208.556 748.51 208.172C748.078 207.764 747.73 207.356 747.466 206.948H746.818V216.2H742.282ZM751.642 205.544C753.058 205.544 754.222 205.1 755.134 204.212C756.07 203.3 756.538 201.98 756.538 200.252V199.892C756.538 198.164 756.07 196.856 755.134 195.968C754.198 195.056 753.034 194.6 751.642 194.6C750.25 194.6 749.086 195.056 748.15 195.968C747.214 196.856 746.746 198.164 746.746 199.892V200.252C746.746 201.98 747.214 203.3 748.15 204.212C749.086 205.1 750.25 205.544 751.642 205.544ZM764.159 209V191.144H768.623V193.16H769.271C769.535 192.44 769.967 191.912 770.567 191.576C771.191 191.24 771.911 191.072 772.727 191.072H774.887V195.104H772.655C771.503 195.104 770.555 195.416 769.811 196.04C769.067 196.64 768.695 197.576 768.695 198.848V209H764.159ZM777.353 209V191.144H781.889V209H777.353ZM779.621 189.056C778.805 189.056 778.109 188.792 777.533 188.264C776.981 187.736 776.705 187.04 776.705 186.176C776.705 185.312 776.981 184.616 777.533 184.088C778.109 183.56 778.805 183.296 779.621 183.296C780.461 183.296 781.157 183.56 781.709 184.088C782.261 184.616 782.537 185.312 782.537 186.176C782.537 187.04 782.261 187.736 781.709 188.264C781.157 188.792 780.461 189.056 779.621 189.056ZM785.835 209V191.144H790.299V193.088H790.947C791.259 192.488 791.775 191.972 792.495 191.54C793.215 191.084 794.163 190.856 795.339 190.856C796.611 190.856 797.631 191.108 798.399 191.612C799.167 192.092 799.755 192.728 800.163 193.52H800.811C801.219 192.752 801.795 192.116 802.539 191.612C803.283 191.108 804.339 190.856 805.707 190.856C806.811 190.856 807.807 191.096 808.695 191.576C809.607 192.032 810.327 192.74 810.855 193.7C811.407 194.636 811.683 195.824 811.683 197.264V209H807.147V197.588C807.147 196.604 806.895 195.872 806.391 195.392C805.887 194.888 805.179 194.636 804.267 194.636C803.235 194.636 802.431 194.972 801.855 195.644C801.303 196.292 801.027 197.228 801.027 198.452V209H796.491V197.588C796.491 196.604 796.239 195.872 795.735 195.392C795.231 194.888 794.523 194.636 793.611 194.636C792.579 194.636 791.775 194.972 791.199 195.644C790.647 196.292 790.371 197.228 790.371 198.452V209H785.835ZM823.618 209.504C821.842 209.504 820.27 209.132 818.902 208.388C817.558 207.62 816.502 206.552 815.734 205.184C814.99 203.792 814.618 202.16 814.618 200.288V199.856C814.618 197.984 814.99 196.364 815.734 194.996C816.478 193.604 817.522 192.536 818.866 191.792C820.21 191.024 821.77 190.64 823.546 190.64C825.298 190.64 826.822 191.036 828.118 191.828C829.414 192.596 830.422 193.676 831.142 195.068C831.862 196.436 832.222 198.032 832.222 199.856V201.404H819.226C819.274 202.628 819.73 203.624 820.594 204.392C821.458 205.16 822.514 205.544 823.762 205.544C825.034 205.544 825.97 205.268 826.57 204.716C827.17 204.164 827.626 203.552 827.938 202.88L831.646 204.824C831.31 205.448 830.818 206.132 830.17 206.876C829.546 207.596 828.706 208.22 827.65 208.748C826.594 209.252 825.25 209.504 823.618 209.504ZM819.262 198.02H827.614C827.518 196.988 827.098 196.16 826.354 195.536C825.634 194.912 824.686 194.6 823.51 194.6C822.286 194.6 821.314 194.912 820.594 195.536C819.874 196.16 819.43 196.988 819.262 198.02ZM453.123 246V228.144H457.587V230.088H458.235C458.547 229.488 459.063 228.972 459.783 228.54C460.503 228.084 461.451 227.856 462.627 227.856C463.899 227.856 464.919 228.108 465.687 228.612C466.455 229.092 467.043 229.728 467.451 230.52H468.099C468.507 229.752 469.083 229.116 469.827 228.612C470.571 228.108 471.627 227.856 472.995 227.856C474.099 227.856 475.095 228.096 475.983 228.576C476.895 229.032 477.615 229.74 478.143 230.7C478.695 231.636 478.971 232.824 478.971 234.264V246H474.435V234.588C474.435 233.604 474.183 232.872 473.679 232.392C473.175 231.888 472.467 231.636 471.555 231.636C470.523 231.636 469.719 231.972 469.143 232.644C468.591 233.292 468.315 234.228 468.315 235.452V246H463.779V234.588C463.779 233.604 463.527 232.872 463.023 232.392C462.519 231.888 461.811 231.636 460.899 231.636C459.867 231.636 459.063 231.972 458.487 232.644C457.935 233.292 457.659 234.228 457.659 235.452V246H453.123ZM491.265 246.504C489.489 246.504 487.893 246.144 486.477 245.424C485.061 244.704 483.945 243.66 483.129 242.292C482.313 240.924 481.905 239.28 481.905 237.36V236.784C481.905 234.864 482.313 233.22 483.129 231.852C483.945 230.484 485.061 229.44 486.477 228.72C487.893 228 489.489 227.64 491.265 227.64C493.041 227.64 494.637 228 496.053 228.72C497.469 229.44 498.585 230.484 499.401 231.852C500.217 233.22 500.625 234.864 500.625 236.784V237.36C500.625 239.28 500.217 240.924 499.401 242.292C498.585 243.66 497.469 244.704 496.053 245.424C494.637 246.144 493.041 246.504 491.265 246.504ZM491.265 242.472C492.657 242.472 493.809 242.028 494.721 241.14C495.633 240.228 496.089 238.932 496.089 237.252V236.892C496.089 235.212 495.633 233.928 494.721 233.04C493.833 232.128 492.681 231.672 491.265 231.672C489.873 231.672 488.721 232.128 487.809 233.04C486.897 233.928 486.441 235.212 486.441 236.892V237.252C486.441 238.932 486.897 240.228 487.809 241.14C488.721 242.028 489.873 242.472 491.265 242.472ZM503.732 246V228.144H508.196V230.088H508.844C509.156 229.488 509.672 228.972 510.392 228.54C511.112 228.084 512.06 227.856 513.236 227.856C514.508 227.856 515.528 228.108 516.296 228.612C517.064 229.092 517.652 229.728 518.06 230.52H518.708C519.116 229.752 519.692 229.116 520.436 228.612C521.18 228.108 522.236 227.856 523.604 227.856C524.708 227.856 525.704 228.096 526.592 228.576C527.504 229.032 528.224 229.74 528.752 230.7C529.304 231.636 529.58 232.824 529.58 234.264V246H525.044V234.588C525.044 233.604 524.792 232.872 524.288 232.392C523.784 231.888 523.076 231.636 522.164 231.636C521.132 231.636 520.328 231.972 519.752 232.644C519.2 233.292 518.924 234.228 518.924 235.452V246H514.388V234.588C514.388 233.604 514.136 232.872 513.632 232.392C513.128 231.888 512.42 231.636 511.508 231.636C510.476 231.636 509.672 231.972 509.096 232.644C508.544 233.292 508.268 234.228 508.268 235.452V246H503.732ZM541.515 246.504C539.739 246.504 538.167 246.132 536.799 245.388C535.455 244.62 534.399 243.552 533.631 242.184C532.887 240.792 532.515 239.16 532.515 237.288V236.856C532.515 234.984 532.887 233.364 533.631 231.996C534.375 230.604 535.419 229.536 536.763 228.792C538.107 228.024 539.667 227.64 541.443 227.64C543.195 227.64 544.719 228.036 546.015 228.828C547.311 229.596 548.319 230.676 549.039 232.068C549.759 233.436 550.119 235.032 550.119 236.856V238.404H537.123C537.171 239.628 537.627 240.624 538.491 241.392C539.355 242.16 540.411 242.544 541.659 242.544C542.931 242.544 543.867 242.268 544.467 241.716C545.067 241.164 545.523 240.552 545.835 239.88L549.543 241.824C549.207 242.448 548.715 243.132 548.067 243.876C547.443 244.596 546.603 245.22 545.547 245.748C544.491 246.252 543.147 246.504 541.515 246.504ZM537.159 235.02H545.511C545.415 233.988 544.995 233.16 544.251 232.536C543.531 231.912 542.583 231.6 541.407 231.6C540.183 231.6 539.211 231.912 538.491 232.536C537.771 233.16 537.327 233.988 537.159 235.02ZM553.076 246V228.144H557.54V230.484H558.188C558.476 229.86 559.016 229.272 559.808 228.72C560.6 228.144 561.8 227.856 563.408 227.856C564.8 227.856 566.012 228.18 567.044 228.828C568.1 229.452 568.916 230.328 569.492 231.456C570.068 232.56 570.356 233.856 570.356 235.344V246H565.82V235.704C565.82 234.36 565.484 233.352 564.812 232.68C564.164 232.008 563.228 231.672 562.004 231.672C560.612 231.672 559.532 232.14 558.764 233.076C557.996 233.988 557.612 235.272 557.612 236.928V246H553.076ZM580.528 246C579.352 246 578.392 245.64 577.648 244.92C576.928 244.176 576.568 243.192 576.568 241.968V231.888H572.104V228.144H576.568V222.6H581.104V228.144H586V231.888H581.104V241.176C581.104 241.896 581.44 242.256 582.112 242.256H585.568V246H580.528ZM596.889 246.504C595.113 246.504 593.517 246.144 592.101 245.424C590.685 244.704 589.569 243.66 588.753 242.292C587.937 240.924 587.529 239.28 587.529 237.36V236.784C587.529 234.864 587.937 233.22 588.753 231.852C589.569 230.484 590.685 229.44 592.101 228.72C593.517 228 595.113 227.64 596.889 227.64C598.665 227.64 600.261 228 601.677 228.72C603.093 229.44 604.209 230.484 605.025 231.852C605.841 233.22 606.249 234.864 606.249 236.784V237.36C606.249 239.28 605.841 240.924 605.025 242.292C604.209 243.66 603.093 244.704 601.677 245.424C600.261 246.144 598.665 246.504 596.889 246.504ZM596.889 242.472C598.281 242.472 599.433 242.028 600.345 241.14C601.257 240.228 601.713 238.932 601.713 237.252V236.892C601.713 235.212 601.257 233.928 600.345 233.04C599.457 232.128 598.305 231.672 596.889 231.672C595.497 231.672 594.345 232.128 593.433 233.04C592.521 233.928 592.065 235.212 592.065 236.892V237.252C592.065 238.932 592.521 240.228 593.433 241.14C594.345 242.028 595.497 242.472 596.889 242.472ZM616.772 246.504C614.444 246.504 612.536 246 611.048 244.992C609.56 243.984 608.66 242.544 608.348 240.672L612.524 239.592C612.692 240.432 612.968 241.092 613.352 241.572C613.76 242.052 614.252 242.4 614.828 242.616C615.428 242.808 616.076 242.904 616.772 242.904C617.828 242.904 618.608 242.724 619.112 242.364C619.616 241.98 619.868 241.512 619.868 240.96C619.868 240.408 619.628 239.988 619.148 239.7C618.668 239.388 617.9 239.136 616.844 238.944L615.836 238.764C614.588 238.524 613.448 238.2 612.416 237.792C611.384 237.36 610.556 236.772 609.932 236.028C609.308 235.284 608.996 234.324 608.996 233.148C608.996 231.372 609.644 230.016 610.94 229.08C612.236 228.12 613.94 227.64 616.052 227.64C618.044 227.64 619.7 228.084 621.02 228.972C622.34 229.86 623.204 231.024 623.612 232.464L619.4 233.76C619.208 232.848 618.812 232.2 618.212 231.816C617.636 231.432 616.916 231.24 616.052 231.24C615.188 231.24 614.528 231.396 614.072 231.708C613.616 231.996 613.388 232.404 613.388 232.932C613.388 233.508 613.628 233.94 614.108 234.228C614.588 234.492 615.236 234.696 616.052 234.84L617.06 235.02C618.404 235.26 619.616 235.584 620.696 235.992C621.8 236.376 622.664 236.94 623.288 237.684C623.936 238.404 624.26 239.388 624.26 240.636C624.26 242.508 623.576 243.96 622.208 244.992C620.864 246 619.052 246.504 616.772 246.504ZM635.215 246V228.144H639.751V246H635.215ZM637.483 226.056C636.667 226.056 635.971 225.792 635.395 225.264C634.843 224.736 634.567 224.04 634.567 223.176C634.567 222.312 634.843 221.616 635.395 221.088C635.971 220.56 636.667 220.296 637.483 220.296C638.323 220.296 639.019 220.56 639.571 221.088C640.123 221.616 640.399 222.312 640.399 223.176C640.399 224.04 640.123 224.736 639.571 225.264C639.019 225.792 638.323 226.056 637.483 226.056ZM643.698 246V228.144H648.162V230.484H648.81C649.098 229.86 649.638 229.272 650.43 228.72C651.222 228.144 652.422 227.856 654.03 227.856C655.422 227.856 656.634 228.18 657.666 228.828C658.722 229.452 659.538 230.328 660.114 231.456C660.69 232.56 660.978 233.856 660.978 235.344V246H656.442V235.704C656.442 234.36 656.106 233.352 655.434 232.68C654.786 232.008 653.85 231.672 652.626 231.672C651.234 231.672 650.154 232.14 649.386 233.076C648.618 233.988 648.234 235.272 648.234 236.928V246H643.698ZM673.297 246.504C671.521 246.504 669.925 246.144 668.509 245.424C667.093 244.704 665.977 243.66 665.161 242.292C664.345 240.924 663.937 239.28 663.937 237.36V236.784C663.937 234.864 664.345 233.22 665.161 231.852C665.977 230.484 667.093 229.44 668.509 228.72C669.925 228 671.521 227.64 673.297 227.64C675.073 227.64 676.669 228 678.085 228.72C679.501 229.44 680.617 230.484 681.433 231.852C682.249 233.22 682.657 234.864 682.657 236.784V237.36C682.657 239.28 682.249 240.924 681.433 242.292C680.617 243.66 679.501 244.704 678.085 245.424C676.669 246.144 675.073 246.504 673.297 246.504ZM673.297 242.472C674.689 242.472 675.841 242.028 676.753 241.14C677.665 240.228 678.121 238.932 678.121 237.252V236.892C678.121 235.212 677.665 233.928 676.753 233.04C675.865 232.128 674.713 231.672 673.297 231.672C671.905 231.672 670.753 232.128 669.841 233.04C668.929 233.928 668.473 235.212 668.473 236.892V237.252C668.473 238.932 668.929 240.228 669.841 241.14C670.753 242.028 671.905 242.472 673.297 242.472ZM685.764 246V220.8H690.3V246H685.764ZM697.991 246L692.303 228.144H697.127L701.267 242.688H701.915L706.055 228.144H710.879L705.191 246H697.991ZM712.889 246V228.144H717.425V246H712.889ZM715.157 226.056C714.341 226.056 713.645 225.792 713.069 225.264C712.517 224.736 712.241 224.04 712.241 223.176C712.241 222.312 712.517 221.616 713.069 221.088C713.645 220.56 714.341 220.296 715.157 220.296C715.997 220.296 716.693 220.56 717.245 221.088C717.797 221.616 718.073 222.312 718.073 223.176C718.073 224.04 717.797 224.736 717.245 225.264C716.693 225.792 715.997 226.056 715.157 226.056ZM728.572 246.504C727.156 246.504 725.824 246.156 724.576 245.46C723.352 244.74 722.368 243.696 721.624 242.328C720.88 240.96 720.508 239.304 720.508 237.36V236.784C720.508 234.84 720.88 233.184 721.624 231.816C722.368 230.448 723.352 229.416 724.576 228.72C725.8 228 727.132 227.64 728.572 227.64C729.652 227.64 730.552 227.772 731.272 228.036C732.016 228.276 732.616 228.588 733.072 228.972C733.528 229.356 733.876 229.764 734.116 230.196H734.764V220.8H739.3V246H734.836V243.84H734.188C733.78 244.512 733.144 245.124 732.28 245.676C731.44 246.228 730.204 246.504 728.572 246.504ZM729.94 242.544C731.332 242.544 732.496 242.1 733.432 241.212C734.368 240.3 734.836 238.98 734.836 237.252V236.892C734.836 235.164 734.368 233.856 733.432 232.968C732.52 232.056 731.356 231.6 729.94 231.6C728.548 231.6 727.384 232.056 726.448 232.968C725.512 233.856 725.044 235.164 725.044 236.892V237.252C725.044 238.98 725.512 240.3 726.448 241.212C727.384 242.1 728.548 242.544 729.94 242.544ZM748.793 246.504C747.521 246.504 746.381 246.288 745.373 245.856C744.365 245.4 743.561 244.752 742.961 243.912C742.385 243.048 742.097 242.004 742.097 240.78C742.097 239.556 742.385 238.536 742.961 237.72C743.561 236.88 744.377 236.256 745.409 235.848C746.465 235.416 747.665 235.2 749.009 235.2H753.905V234.192C753.905 233.352 753.641 232.668 753.113 232.14C752.585 231.588 751.745 231.312 750.593 231.312C749.465 231.312 748.625 231.576 748.073 232.104C747.521 232.608 747.161 233.268 746.993 234.084L742.817 232.68C743.105 231.768 743.561 230.94 744.185 230.196C744.833 229.428 745.685 228.816 746.741 228.36C747.821 227.88 749.129 227.64 750.665 227.64C753.017 227.64 754.877 228.228 756.245 229.404C757.613 230.58 758.297 232.284 758.297 234.516V241.176C758.297 241.896 758.633 242.256 759.305 242.256H760.745V246H757.721C756.833 246 756.101 245.784 755.525 245.352C754.949 244.92 754.661 244.344 754.661 243.624V243.588H753.977C753.881 243.876 753.665 244.26 753.329 244.74C752.993 245.196 752.465 245.604 751.745 245.964C751.025 246.324 750.041 246.504 748.793 246.504ZM749.585 242.832C750.857 242.832 751.889 242.484 752.681 241.788C753.497 241.068 753.905 240.12 753.905 238.944V238.584H749.333C748.493 238.584 747.833 238.764 747.353 239.124C746.873 239.484 746.633 239.988 746.633 240.636C746.633 241.284 746.885 241.812 747.389 242.22C747.893 242.628 748.625 242.832 749.585 242.832ZM773.709 246.504C772.101 246.504 770.865 246.228 770.001 245.676C769.137 245.124 768.501 244.512 768.093 243.84H767.445V246H762.981V220.8H767.517V230.196H768.165C768.429 229.764 768.777 229.356 769.209 228.972C769.665 228.588 770.253 228.276 770.973 228.036C771.717 227.772 772.629 227.64 773.709 227.64C775.149 227.64 776.481 228 777.705 228.72C778.929 229.416 779.913 230.448 780.657 231.816C781.401 233.184 781.773 234.84 781.773 236.784V237.36C781.773 239.304 781.401 240.96 780.657 242.328C779.913 243.696 778.929 244.74 777.705 245.46C776.481 246.156 775.149 246.504 773.709 246.504ZM772.341 242.544C773.733 242.544 774.897 242.1 775.833 241.212C776.769 240.3 777.237 238.98 777.237 237.252V236.892C777.237 235.164 776.769 233.856 775.833 232.968C774.921 232.056 773.757 231.6 772.341 231.6C770.949 231.6 769.785 232.056 768.849 232.968C767.913 233.856 767.445 235.164 767.445 236.892V237.252C767.445 238.98 767.913 240.3 768.849 241.212C769.785 242.1 770.949 242.544 772.341 242.544ZM784.859 246V220.8H789.395V246H784.859ZM801.477 246.504C799.701 246.504 798.129 246.132 796.761 245.388C795.417 244.62 794.361 243.552 793.593 242.184C792.849 240.792 792.477 239.16 792.477 237.288V236.856C792.477 234.984 792.849 233.364 793.593 231.996C794.337 230.604 795.381 229.536 796.725 228.792C798.069 228.024 799.629 227.64 801.405 227.64C803.157 227.64 804.681 228.036 805.977 228.828C807.273 229.596 808.281 230.676 809.001 232.068C809.721 233.436 810.081 235.032 810.081 236.856V238.404H797.085C797.133 239.628 797.589 240.624 798.453 241.392C799.317 242.16 800.373 242.544 801.621 242.544C802.893 242.544 803.829 242.268 804.429 241.716C805.029 241.164 805.485 240.552 805.797 239.88L809.505 241.824C809.169 242.448 808.677 243.132 808.029 243.876C807.405 244.596 806.565 245.22 805.509 245.748C804.453 246.252 803.109 246.504 801.477 246.504ZM797.121 235.02H805.473C805.377 233.988 804.957 233.16 804.213 232.536C803.493 231.912 802.545 231.6 801.369 231.6C800.145 231.6 799.173 231.912 798.453 232.536C797.733 233.16 797.289 233.988 797.121 235.02ZM820.454 246.504C818.126 246.504 816.218 246 814.73 244.992C813.242 243.984 812.342 242.544 812.03 240.672L816.206 239.592C816.374 240.432 816.65 241.092 817.034 241.572C817.442 242.052 817.934 242.4 818.51 242.616C819.11 242.808 819.758 242.904 820.454 242.904C821.51 242.904 822.29 242.724 822.794 242.364C823.298 241.98 823.55 241.512 823.55 240.96C823.55 240.408 823.31 239.988 822.83 239.7C822.35 239.388 821.582 239.136 820.526 238.944L819.518 238.764C818.27 238.524 817.13 238.2 816.098 237.792C815.066 237.36 814.238 236.772 813.614 236.028C812.99 235.284 812.678 234.324 812.678 233.148C812.678 231.372 813.326 230.016 814.622 229.08C815.918 228.12 817.622 227.64 819.734 227.64C821.726 227.64 823.382 228.084 824.702 228.972C826.022 229.86 826.886 231.024 827.294 232.464L823.082 233.76C822.89 232.848 822.494 232.2 821.894 231.816C821.318 231.432 820.598 231.24 819.734 231.24C818.87 231.24 818.21 231.396 817.754 231.708C817.298 231.996 817.07 232.404 817.07 232.932C817.07 233.508 817.31 233.94 817.79 234.228C818.27 234.492 818.918 234.696 819.734 234.84L820.742 235.02C822.086 235.26 823.298 235.584 824.378 235.992C825.482 236.376 826.346 236.94 826.97 237.684C827.618 238.404 827.942 239.388 827.942 240.636C827.942 242.508 827.258 243.96 825.89 244.992C824.546 246 822.734 246.504 820.454 246.504Z" fill="black"/>
</svg>
