<svg width="1280" height="1180" viewBox="0 0 1280 1180" fill="none" xmlns="http://www.w3.org/2000/svg">
<rect x="140" y="250" width="441" height="37" fill="#FDCDFF"/>
<path d="M144.628 282V256.8H160.504V260.328H148.516V267.564H159.496V271.092H148.516V278.472H160.684V282H144.628ZM171.109 282.504C169.645 282.504 168.289 282.144 167.041 281.424C165.793 280.704 164.785 279.672 164.017 278.328C163.273 276.96 162.901 275.316 162.901 273.396V272.856C162.901 270.96 163.273 269.328 164.017 267.96C164.761 266.592 165.757 265.548 167.005 264.828C168.253 264.108 169.621 263.748 171.109 263.748C172.261 263.748 173.221 263.892 173.989 264.18C174.781 264.468 175.429 264.84 175.933 265.296C176.437 265.728 176.821 266.184 177.085 266.664H177.661V256.8H181.369V282H177.733V279.48H177.157C176.701 280.248 176.005 280.944 175.069 281.568C174.157 282.192 172.837 282.504 171.109 282.504ZM172.153 279.264C173.761 279.264 175.081 278.748 176.113 277.716C177.169 276.684 177.697 275.208 177.697 273.288V272.964C177.697 271.068 177.181 269.604 176.149 268.572C175.117 267.54 173.785 267.024 172.153 267.024C170.569 267.024 169.249 267.54 168.193 268.572C167.161 269.604 166.645 271.068 166.645 272.964V273.288C166.645 275.208 167.161 276.684 168.193 277.716C169.249 278.748 170.569 279.264 172.153 279.264ZM185.748 282V264.252H189.456V282H185.748ZM187.62 261.84C186.9 261.84 186.288 261.612 185.784 261.156C185.304 260.676 185.064 260.064 185.064 259.32C185.064 258.576 185.304 257.976 185.784 257.52C186.288 257.04 186.9 256.8 187.62 256.8C188.364 256.8 188.976 257.04 189.456 257.52C189.936 257.976 190.176 258.576 190.176 259.32C190.176 260.064 189.936 260.676 189.456 261.156C188.976 261.612 188.364 261.84 187.62 261.84ZM200.539 282C199.459 282 198.595 281.676 197.947 281.028C197.323 280.38 197.011 279.516 197.011 278.436V267.384H192.115V264.252H197.011V258.384H200.719V264.252H206.011V267.384H200.719V277.788C200.719 278.508 201.055 278.868 201.727 278.868H205.435V282H200.539ZM214.76 282.504C213.488 282.504 212.348 282.288 211.34 281.856C210.356 281.424 209.564 280.788 208.964 279.948C208.388 279.108 208.1 278.088 208.1 276.888C208.1 275.664 208.388 274.656 208.964 273.864C209.564 273.048 210.368 272.436 211.376 272.028C212.408 271.62 213.572 271.416 214.868 271.416H220.268V270.264C220.268 269.232 219.956 268.404 219.332 267.78C218.708 267.156 217.748 266.844 216.452 266.844C215.18 266.844 214.208 267.144 213.536 267.744C212.864 268.344 212.42 269.124 212.204 270.084L208.748 268.968C209.036 268.008 209.492 267.144 210.116 266.376C210.764 265.584 211.616 264.948 212.672 264.468C213.728 263.988 215 263.748 216.488 263.748C218.792 263.748 220.604 264.336 221.924 265.512C223.244 266.688 223.904 268.356 223.904 270.516V277.824C223.904 278.544 224.24 278.904 224.912 278.904H226.424V282H223.652C222.812 282 222.128 281.784 221.6 281.352C221.072 280.92 220.808 280.332 220.808 279.588V279.48H220.268C220.076 279.84 219.788 280.26 219.404 280.74C219.02 281.22 218.456 281.64 217.712 282C216.968 282.336 215.984 282.504 214.76 282.504ZM215.3 279.444C216.788 279.444 217.988 279.024 218.9 278.184C219.812 277.32 220.268 276.144 220.268 274.656V274.296H215.084C214.1 274.296 213.308 274.512 212.708 274.944C212.108 275.352 211.808 275.964 211.808 276.78C211.808 277.596 212.12 278.244 212.744 278.724C213.368 279.204 214.22 279.444 215.3 279.444ZM214.328 262.092L217.028 256.944H221.312L217.676 262.092H214.328ZM231.181 282.504C230.341 282.504 229.633 282.228 229.057 281.676C228.505 281.124 228.229 280.416 228.229 279.552C228.229 278.688 228.505 277.992 229.057 277.464C229.633 276.912 230.341 276.636 231.181 276.636C232.021 276.636 232.717 276.912 233.269 277.464C233.845 278.016 234.133 278.712 234.133 279.552C234.133 280.416 233.845 281.124 233.269 281.676C232.717 282.228 232.021 282.504 231.181 282.504ZM244.681 282V256.8H254.689C256.225 256.8 257.593 257.112 258.793 257.736C260.017 258.336 260.965 259.2 261.637 260.328C262.333 261.432 262.681 262.764 262.681 264.324V264.792C262.681 266.352 262.321 267.696 261.601 268.824C260.905 269.952 259.957 270.816 258.757 271.416C257.557 272.016 256.201 272.316 254.689 272.316H248.569V282H244.681ZM248.569 268.788H254.293C255.661 268.788 256.753 268.428 257.569 267.708C258.385 266.988 258.793 266.004 258.793 264.756V264.396C258.793 263.124 258.385 262.128 257.569 261.408C256.753 260.688 255.661 260.328 254.293 260.328H248.569V268.788ZM273.045 282.504C271.245 282.504 269.673 282.132 268.329 281.388C266.985 280.62 265.929 279.552 265.161 278.184C264.417 276.792 264.045 275.184 264.045 273.36V272.928C264.045 271.08 264.417 269.472 265.161 268.104C265.905 266.712 266.937 265.644 268.257 264.9C269.601 264.132 271.149 263.748 272.901 263.748C274.605 263.748 276.093 264.132 277.365 264.9C278.661 265.644 279.669 266.688 280.389 268.032C281.109 269.376 281.469 270.948 281.469 272.748V274.152H267.825C267.873 275.712 268.389 276.96 269.373 277.896C270.381 278.808 271.629 279.264 273.117 279.264C274.509 279.264 275.553 278.952 276.249 278.328C276.969 277.704 277.521 276.984 277.905 276.168L280.965 277.752C280.629 278.424 280.137 279.132 279.489 279.876C278.865 280.62 278.037 281.244 277.005 281.748C275.973 282.252 274.653 282.504 273.045 282.504ZM267.861 271.308H277.689C277.593 269.964 277.113 268.92 276.249 268.176C275.385 267.408 274.257 267.024 272.865 267.024C271.473 267.024 270.333 267.408 269.445 268.176C268.581 268.92 268.053 269.964 267.861 271.308ZM284.852 282V264.252H288.488V266.34H289.064C289.352 265.596 289.808 265.056 290.432 264.72C291.08 264.36 291.872 264.18 292.808 264.18H294.932V267.528H292.664C291.464 267.528 290.48 267.864 289.712 268.536C288.944 269.184 288.56 270.192 288.56 271.56V282H284.852ZM304.579 282.504C302.323 282.504 300.451 282 298.963 280.992C297.475 279.984 296.563 278.46 296.227 276.42L299.683 275.592C299.875 276.576 300.199 277.356 300.655 277.932C301.111 278.508 301.675 278.916 302.347 279.156C303.043 279.396 303.787 279.516 304.579 279.516C305.755 279.516 306.655 279.288 307.279 278.832C307.927 278.376 308.251 277.788 308.251 277.068C308.251 276.348 307.951 275.82 307.351 275.484C306.751 275.148 305.863 274.872 304.687 274.656L303.463 274.44C302.263 274.224 301.171 273.912 300.187 273.504C299.203 273.096 298.423 272.532 297.847 271.812C297.271 271.092 296.983 270.168 296.983 269.04C296.983 267.36 297.607 266.064 298.855 265.152C300.103 264.216 301.759 263.748 303.823 263.748C305.815 263.748 307.447 264.204 308.719 265.116C310.015 266.004 310.855 267.216 311.239 268.752L307.783 269.724C307.567 268.644 307.111 267.888 306.415 267.456C305.719 267 304.855 266.772 303.823 266.772C302.815 266.772 302.023 266.964 301.447 267.348C300.871 267.708 300.583 268.224 300.583 268.896C300.583 269.616 300.859 270.144 301.411 270.48C301.987 270.816 302.755 271.068 303.715 271.236L304.975 271.452C306.247 271.668 307.411 271.968 308.467 272.352C309.523 272.736 310.351 273.288 310.951 274.008C311.575 274.728 311.887 275.688 311.887 276.888C311.887 278.664 311.227 280.044 309.907 281.028C308.587 282.012 306.811 282.504 304.579 282.504ZM323.457 282.504C321.681 282.504 320.097 282.144 318.705 281.424C317.337 280.68 316.257 279.624 315.465 278.256C314.673 276.888 314.277 275.268 314.277 273.396V272.856C314.277 270.984 314.673 269.376 315.465 268.032C316.257 266.664 317.337 265.608 318.705 264.864C320.097 264.12 321.681 263.748 323.457 263.748C325.233 263.748 326.817 264.12 328.209 264.864C329.601 265.608 330.693 266.664 331.485 268.032C332.277 269.376 332.673 270.984 332.673 272.856V273.396C332.673 275.268 332.277 276.888 331.485 278.256C330.693 279.624 329.601 280.68 328.209 281.424C326.817 282.144 325.233 282.504 323.457 282.504ZM323.457 279.192C325.089 279.192 326.409 278.676 327.417 277.644C328.449 276.588 328.965 275.136 328.965 273.288V272.964C328.965 271.116 328.461 269.676 327.453 268.644C326.445 267.588 325.113 267.06 323.457 267.06C321.849 267.06 320.529 267.588 319.497 268.644C318.489 269.676 317.985 271.116 317.985 272.964V273.288C317.985 275.136 318.489 276.588 319.497 277.644C320.529 278.676 321.849 279.192 323.457 279.192ZM336.21 282V264.252H339.846V266.916H340.422C340.758 266.196 341.358 265.524 342.222 264.9C343.086 264.276 344.37 263.964 346.074 263.964C347.418 263.964 348.606 264.264 349.638 264.864C350.694 265.464 351.522 266.316 352.122 267.42C352.722 268.5 353.022 269.808 353.022 271.344V282H349.314V271.632C349.314 270.096 348.93 268.968 348.162 268.248C347.394 267.504 346.338 267.132 344.994 267.132C343.458 267.132 342.222 267.636 341.286 268.644C340.374 269.652 339.918 271.116 339.918 273.036V282H336.21ZM362.786 282.504C361.514 282.504 360.374 282.288 359.366 281.856C358.382 281.424 357.59 280.788 356.99 279.948C356.414 279.108 356.126 278.088 356.126 276.888C356.126 275.664 356.414 274.656 356.99 273.864C357.59 273.048 358.394 272.436 359.402 272.028C360.434 271.62 361.598 271.416 362.894 271.416H368.294V270.264C368.294 269.232 367.982 268.404 367.358 267.78C366.734 267.156 365.774 266.844 364.478 266.844C363.206 266.844 362.234 267.144 361.562 267.744C360.89 268.344 360.446 269.124 360.23 270.084L356.774 268.968C357.062 268.008 357.518 267.144 358.142 266.376C358.79 265.584 359.642 264.948 360.698 264.468C361.754 263.988 363.026 263.748 364.514 263.748C366.818 263.748 368.63 264.336 369.95 265.512C371.27 266.688 371.93 268.356 371.93 270.516V277.824C371.93 278.544 372.266 278.904 372.938 278.904H374.45V282H371.678C370.838 282 370.154 281.784 369.626 281.352C369.098 280.92 368.834 280.332 368.834 279.588V279.48H368.294C368.102 279.84 367.814 280.26 367.43 280.74C367.046 281.22 366.482 281.64 365.738 282C364.994 282.336 364.01 282.504 362.786 282.504ZM363.326 279.444C364.814 279.444 366.014 279.024 366.926 278.184C367.838 277.32 368.294 276.144 368.294 274.656V274.296H363.11C362.126 274.296 361.334 274.512 360.734 274.944C360.134 275.352 359.834 275.964 359.834 276.78C359.834 277.596 360.146 278.244 360.77 278.724C361.394 279.204 362.246 279.444 363.326 279.444ZM376.975 282V256.8H380.683V282H376.975ZM385.106 282V264.252H388.814V282H385.106ZM386.978 261.84C386.258 261.84 385.646 261.612 385.142 261.156C384.662 260.676 384.422 260.064 384.422 259.32C384.422 258.576 384.662 257.976 385.142 257.52C385.646 257.04 386.258 256.8 386.978 256.8C387.722 256.8 388.334 257.04 388.814 257.52C389.294 257.976 389.534 258.576 389.534 259.32C389.534 260.064 389.294 260.676 388.814 261.156C388.334 261.612 387.722 261.84 386.978 261.84ZM392.517 282V277.464L402.993 267.888V267.384H392.877V264.252H407.025V268.824L396.513 278.4V278.868H407.313V282H392.517ZM416.298 282.504C415.026 282.504 413.886 282.288 412.878 281.856C411.894 281.424 411.102 280.788 410.502 279.948C409.926 279.108 409.638 278.088 409.638 276.888C409.638 275.664 409.926 274.656 410.502 273.864C411.102 273.048 411.906 272.436 412.914 272.028C413.946 271.62 415.11 271.416 416.406 271.416H421.806V270.264C421.806 269.232 421.494 268.404 420.87 267.78C420.246 267.156 419.286 266.844 417.99 266.844C416.718 266.844 415.746 267.144 415.074 267.744C414.402 268.344 413.958 269.124 413.742 270.084L410.286 268.968C410.574 268.008 411.03 267.144 411.654 266.376C412.302 265.584 413.154 264.948 414.21 264.468C415.266 263.988 416.538 263.748 418.026 263.748C420.33 263.748 422.142 264.336 423.462 265.512C424.782 266.688 425.442 268.356 425.442 270.516V277.824C425.442 278.544 425.778 278.904 426.45 278.904H427.962V282H425.19C424.35 282 423.666 281.784 423.138 281.352C422.61 280.92 422.346 280.332 422.346 279.588V279.48H421.806C421.614 279.84 421.326 280.26 420.942 280.74C420.558 281.22 419.994 281.64 419.25 282C418.506 282.336 417.522 282.504 416.298 282.504ZM416.838 279.444C418.326 279.444 419.526 279.024 420.438 278.184C421.35 277.32 421.806 276.144 421.806 274.656V274.296H416.622C415.638 274.296 414.846 274.512 414.246 274.944C413.646 275.352 413.346 275.964 413.346 276.78C413.346 277.596 413.658 278.244 414.282 278.724C414.906 279.204 415.758 279.444 416.838 279.444ZM415.866 262.092L418.566 256.944H422.85L419.214 262.092H415.866ZM439.69 282.504C438.85 282.504 438.142 282.228 437.566 281.676C437.014 281.124 436.738 280.416 436.738 279.552C436.738 278.688 437.014 277.992 437.566 277.464C438.142 276.912 438.85 276.636 439.69 276.636C440.53 276.636 441.226 276.912 441.778 277.464C442.354 278.016 442.642 278.712 442.642 279.552C442.642 280.416 442.354 281.124 441.778 281.676C441.226 282.228 440.53 282.504 439.69 282.504ZM453.19 282V256.8H457.078V282H453.19ZM461.359 282V264.252H464.995V266.34H465.571C465.907 265.716 466.447 265.164 467.191 264.684C467.935 264.204 468.943 263.964 470.215 263.964C471.535 263.964 472.591 264.24 473.383 264.792C474.199 265.32 474.811 266.004 475.219 266.844H475.795C476.203 266.028 476.791 265.344 477.559 264.792C478.351 264.24 479.467 263.964 480.907 263.964C482.059 263.964 483.079 264.204 483.967 264.684C484.855 265.14 485.563 265.836 486.091 266.772C486.619 267.684 486.883 268.824 486.883 270.192V282H483.175V270.48C483.175 269.4 482.875 268.572 482.275 267.996C481.699 267.396 480.871 267.096 479.791 267.096C478.639 267.096 477.715 267.468 477.019 268.212C476.323 268.956 475.975 270.024 475.975 271.416V282H472.267V270.48C472.267 269.4 471.967 268.572 471.367 267.996C470.791 267.396 469.963 267.096 468.883 267.096C467.731 267.096 466.807 267.468 466.111 268.212C465.415 268.956 465.067 270.024 465.067 271.416V282H461.359ZM491.146 289.2V264.252H494.782V266.808H495.358C495.814 266.016 496.498 265.308 497.41 264.684C498.346 264.06 499.678 263.748 501.406 263.748C502.894 263.748 504.25 264.108 505.474 264.828C506.722 265.548 507.718 266.592 508.462 267.96C509.23 269.304 509.614 270.936 509.614 272.856V273.396C509.614 275.316 509.242 276.96 508.498 278.328C507.754 279.672 506.758 280.704 505.51 281.424C504.262 282.144 502.894 282.504 501.406 282.504C500.254 282.504 499.282 282.36 498.49 282.072C497.698 281.784 497.062 281.424 496.582 280.992C496.102 280.536 495.718 280.068 495.43 279.588H494.854V289.2H491.146ZM500.326 279.264C501.958 279.264 503.29 278.748 504.322 277.716C505.354 276.684 505.87 275.208 505.87 273.288V272.964C505.87 271.068 505.342 269.604 504.286 268.572C503.254 267.54 501.934 267.024 500.326 267.024C498.742 267.024 497.422 267.54 496.366 268.572C495.334 269.604 494.818 271.068 494.818 272.964V273.288C494.818 275.208 495.334 276.684 496.366 277.716C497.422 278.748 498.742 279.264 500.326 279.264ZM513.128 282V264.252H516.764V266.34H517.34C517.628 265.596 518.084 265.056 518.708 264.72C519.356 264.36 520.148 264.18 521.084 264.18H523.208V267.528H520.94C519.74 267.528 518.756 267.864 517.988 268.536C517.22 269.184 516.836 270.192 516.836 271.56V282H513.128ZM525.97 282V264.252H529.678V282H525.97ZM527.842 261.84C527.122 261.84 526.51 261.612 526.006 261.156C525.526 260.676 525.286 260.064 525.286 259.32C525.286 258.576 525.526 257.976 526.006 257.52C526.51 257.04 527.122 256.8 527.842 256.8C528.586 256.8 529.198 257.04 529.678 257.52C530.158 257.976 530.398 258.576 530.398 259.32C530.398 260.064 530.158 260.676 529.678 261.156C529.198 261.612 528.586 261.84 527.842 261.84ZM534.101 282V264.252H537.737V266.34H538.313C538.649 265.716 539.189 265.164 539.933 264.684C540.677 264.204 541.685 263.964 542.957 263.964C544.277 263.964 545.333 264.24 546.125 264.792C546.941 265.32 547.553 266.004 547.961 266.844H548.537C548.945 266.028 549.533 265.344 550.301 264.792C551.093 264.24 552.209 263.964 553.649 263.964C554.801 263.964 555.821 264.204 556.709 264.684C557.597 265.14 558.305 265.836 558.833 266.772C559.361 267.684 559.625 268.824 559.625 270.192V282H555.917V270.48C555.917 269.4 555.617 268.572 555.017 267.996C554.441 267.396 553.613 267.096 552.533 267.096C551.381 267.096 550.457 267.468 549.761 268.212C549.065 268.956 548.717 270.024 548.717 271.416V282H545.009V270.48C545.009 269.4 544.709 268.572 544.109 267.996C543.533 267.396 542.705 267.096 541.625 267.096C540.473 267.096 539.549 267.468 538.853 268.212C538.157 268.956 537.809 270.024 537.809 271.416V282H534.101ZM563.888 282V264.252H567.596V282H563.888ZM563.42 262.092L566.12 256.944H570.404L566.768 262.092H563.42ZM574.251 282.504C573.411 282.504 572.703 282.228 572.127 281.676C571.575 281.124 571.299 280.416 571.299 279.552C571.299 278.688 571.575 277.992 572.127 277.464C572.703 276.912 573.411 276.636 574.251 276.636C575.091 276.636 575.787 276.912 576.339 277.464C576.915 278.016 577.203 278.712 577.203 279.552C577.203 280.416 576.915 281.124 576.339 281.676C575.787 282.228 575.091 282.504 574.251 282.504Z" fill="black"/>
<path d="M150.272 314L146.192 307.184L144.848 304.704H144.8V307.184V314H143.488V302.832H145.04L149.12 309.648L150.464 312.128H150.512V309.648V302.832H151.824V314H150.272ZM159.121 314V312.656H159.056C158.896 313.051 158.64 313.408 158.288 313.728C157.947 314.037 157.43 314.192 156.736 314.192C155.894 314.192 155.216 313.92 154.704 313.376C154.203 312.821 153.952 312.043 153.952 311.04V305.744H155.232V310.816C155.232 311.552 155.392 312.107 155.712 312.48C156.032 312.853 156.502 313.04 157.121 313.04C157.462 313.04 157.782 312.987 158.081 312.88C158.39 312.763 158.64 312.587 158.832 312.352C159.025 312.117 159.121 311.819 159.121 311.456V305.744H160.4V314H159.121ZM165.59 314.192C164.844 314.192 164.193 314.016 163.638 313.664C163.084 313.301 162.652 312.8 162.342 312.16C162.033 311.509 161.878 310.747 161.878 309.872C161.878 308.997 162.033 308.24 162.342 307.6C162.652 306.949 163.084 306.448 163.638 306.096C164.193 305.733 164.844 305.552 165.59 305.552C166.326 305.552 166.961 305.728 167.494 306.08C168.028 306.421 168.438 306.896 168.726 307.504C169.014 308.112 169.158 308.805 169.158 309.584V310.192H163.222V310.576C163.222 311.291 163.436 311.888 163.862 312.368C164.3 312.837 164.902 313.072 165.67 313.072C166.193 313.072 166.646 312.949 167.03 312.704C167.425 312.459 167.729 312.107 167.942 311.648L168.854 312.304C168.588 312.859 168.172 313.312 167.606 313.664C167.041 314.016 166.369 314.192 165.59 314.192ZM165.59 306.624C165.132 306.624 164.721 306.731 164.358 306.944C164.006 307.157 163.729 307.456 163.526 307.84C163.324 308.213 163.222 308.64 163.222 309.12V309.232H167.782V309.056C167.782 308.565 167.692 308.139 167.51 307.776C167.329 307.413 167.073 307.131 166.742 306.928C166.412 306.725 166.028 306.624 165.59 306.624ZM173.108 314.192C172.35 314.192 171.71 314.048 171.188 313.76C170.665 313.461 170.217 313.067 169.843 312.576L170.755 311.84C171.075 312.235 171.433 312.544 171.828 312.768C172.222 312.992 172.681 313.104 173.204 313.104C173.748 313.104 174.169 312.987 174.468 312.752C174.777 312.517 174.931 312.187 174.931 311.76C174.931 311.44 174.825 311.163 174.612 310.928C174.409 310.693 174.036 310.539 173.491 310.464L172.836 310.368C172.334 310.293 171.881 310.171 171.476 310C171.07 309.819 170.75 309.568 170.515 309.248C170.291 308.917 170.179 308.496 170.179 307.984C170.179 307.163 170.457 306.555 171.012 306.16C171.577 305.755 172.281 305.552 173.124 305.552C173.572 305.552 173.966 305.605 174.308 305.712C174.66 305.819 174.974 305.973 175.252 306.176C175.529 306.368 175.78 306.603 176.004 306.88L175.156 307.648C174.974 307.392 174.708 307.163 174.356 306.96C174.004 306.747 173.561 306.64 173.028 306.64C172.505 306.64 172.105 306.757 171.828 306.992C171.55 307.216 171.411 307.525 171.411 307.92C171.411 308.315 171.545 308.608 171.812 308.8C172.089 308.981 172.484 309.115 172.996 309.2L173.635 309.296C174.553 309.435 175.204 309.701 175.588 310.096C175.972 310.48 176.164 310.987 176.164 311.616C176.164 312.149 176.041 312.608 175.796 312.992C175.55 313.376 175.198 313.675 174.74 313.888C174.281 314.091 173.737 314.192 173.108 314.192ZM181.099 314H179.499C179.062 314 178.726 313.872 178.491 313.616C178.256 313.36 178.139 313.035 178.139 312.64V306.864H176.779V305.744H177.547C177.824 305.744 178.011 305.691 178.107 305.584C178.214 305.467 178.267 305.269 178.267 304.992V303.456H179.419V305.744H181.227V306.864H179.419V312.88H181.099V314ZM183.924 314H182.644V305.744H183.924V307.264H184.004C184.1 306.997 184.25 306.752 184.452 306.528C184.655 306.293 184.916 306.107 185.236 305.968C185.556 305.819 185.94 305.744 186.388 305.744H186.884V307.024H186.132C185.674 307.024 185.279 307.088 184.948 307.216C184.618 307.333 184.362 307.493 184.18 307.696C184.01 307.899 183.924 308.133 183.924 308.4V314ZM194.537 314H193.817C193.476 314 193.198 313.931 192.985 313.792C192.772 313.643 192.617 313.44 192.521 313.184C192.425 312.928 192.377 312.635 192.377 312.304V312.192L192.873 312.656H192.313C192.142 313.157 191.844 313.541 191.417 313.808C191.001 314.064 190.505 314.192 189.929 314.192C189.054 314.192 188.372 313.968 187.881 313.52C187.401 313.072 187.161 312.464 187.161 311.696C187.161 311.173 187.289 310.736 187.545 310.384C187.801 310.021 188.185 309.749 188.697 309.568C189.22 309.376 189.881 309.28 190.681 309.28H192.313V308.464C192.313 307.877 192.153 307.429 191.833 307.12C191.513 306.811 191.022 306.656 190.361 306.656C189.87 306.656 189.454 306.768 189.113 306.992C188.772 307.216 188.489 307.515 188.265 307.888L187.497 307.168C187.721 306.731 188.078 306.352 188.569 306.032C189.06 305.712 189.678 305.552 190.425 305.552C191.417 305.552 192.19 305.797 192.745 306.288C193.31 306.779 193.593 307.461 193.593 308.336V312.88H194.537V314ZM192.313 310.24H190.617C189.892 310.24 189.358 310.347 189.017 310.56C188.676 310.773 188.505 311.083 188.505 311.488V311.824C188.505 312.229 188.654 312.544 188.953 312.768C189.252 312.992 189.646 313.104 190.137 313.104C190.564 313.104 190.937 313.04 191.257 312.912C191.588 312.773 191.844 312.592 192.025 312.368C192.217 312.133 192.313 311.877 192.313 311.6V310.24ZM205.585 314H204.865C204.524 314 204.246 313.931 204.033 313.792C203.82 313.643 203.665 313.44 203.569 313.184C203.473 312.928 203.425 312.635 203.425 312.304V312.192L203.921 312.656H203.361C203.19 313.157 202.892 313.541 202.465 313.808C202.049 314.064 201.553 314.192 200.977 314.192C200.102 314.192 199.42 313.968 198.929 313.52C198.449 313.072 198.209 312.464 198.209 311.696C198.209 311.173 198.337 310.736 198.593 310.384C198.849 310.021 199.233 309.749 199.745 309.568C200.268 309.376 200.929 309.28 201.729 309.28H203.361V308.464C203.361 307.877 203.201 307.429 202.881 307.12C202.561 306.811 202.07 306.656 201.409 306.656C200.918 306.656 200.502 306.768 200.161 306.992C199.82 307.216 199.537 307.515 199.313 307.888L198.545 307.168C198.769 306.731 199.126 306.352 199.617 306.032C200.108 305.712 200.726 305.552 201.473 305.552C202.465 305.552 203.238 305.797 203.793 306.288C204.358 306.779 204.641 307.461 204.641 308.336V312.88H205.585V314ZM203.361 310.24H201.665C200.94 310.24 200.406 310.347 200.065 310.56C199.724 310.773 199.553 311.083 199.553 311.488V311.824C199.553 312.229 199.702 312.544 200.001 312.768C200.3 312.992 200.694 313.104 201.185 313.104C201.612 313.104 201.985 313.04 202.305 312.912C202.636 312.773 202.892 312.592 203.073 312.368C203.265 312.133 203.361 311.877 203.361 311.6V310.24ZM206.772 317.2V305.744H208.052V307.088H208.116C208.329 306.565 208.644 306.181 209.06 305.936C209.476 305.68 209.967 305.552 210.532 305.552C211.225 305.552 211.823 305.728 212.324 306.08C212.825 306.432 213.209 306.933 213.476 307.584C213.753 308.224 213.892 308.987 213.892 309.872C213.892 310.747 213.753 311.509 213.476 312.16C213.209 312.811 212.825 313.312 212.324 313.664C211.823 314.016 211.225 314.192 210.532 314.192C209.967 314.192 209.481 314.064 209.076 313.808C208.681 313.552 208.361 313.168 208.116 312.656H208.052V317.2H206.772ZM210.18 313.04C210.905 313.04 211.476 312.816 211.892 312.368C212.308 311.909 212.516 311.312 212.516 310.576V309.168C212.516 308.432 212.308 307.84 211.892 307.392C211.476 306.933 210.905 306.704 210.18 306.704C209.796 306.704 209.439 306.773 209.108 306.912C208.788 307.051 208.532 307.237 208.34 307.472C208.148 307.707 208.052 307.979 208.052 308.288V311.36C208.052 311.712 208.148 312.016 208.34 312.272C208.532 312.517 208.788 312.709 209.108 312.848C209.439 312.976 209.796 313.04 210.18 313.04ZM215.413 317.2V305.744H216.693V307.088H216.757C216.97 306.565 217.285 306.181 217.701 305.936C218.117 305.68 218.608 305.552 219.173 305.552C219.866 305.552 220.464 305.728 220.965 306.08C221.466 306.432 221.85 306.933 222.117 307.584C222.394 308.224 222.533 308.987 222.533 309.872C222.533 310.747 222.394 311.509 222.117 312.16C221.85 312.811 221.466 313.312 220.965 313.664C220.464 314.016 219.866 314.192 219.173 314.192C218.608 314.192 218.122 314.064 217.717 313.808C217.322 313.552 217.002 313.168 216.757 312.656H216.693V317.2H215.413ZM218.821 313.04C219.546 313.04 220.117 312.816 220.533 312.368C220.949 311.909 221.157 311.312 221.157 310.576V309.168C221.157 308.432 220.949 307.84 220.533 307.392C220.117 306.933 219.546 306.704 218.821 306.704C218.437 306.704 218.08 306.773 217.749 306.912C217.429 307.051 217.173 307.237 216.981 307.472C216.789 307.707 216.693 307.979 216.693 308.288V311.36C216.693 311.712 216.789 312.016 216.981 312.272C217.173 312.517 217.429 312.709 217.749 312.848C218.08 312.976 218.437 313.04 218.821 313.04ZM230.62 314H229.02C228.582 314 228.246 313.872 228.012 313.616C227.777 313.36 227.66 313.035 227.66 312.64V306.864H226.3V305.744H227.068C227.345 305.744 227.532 305.691 227.628 305.584C227.734 305.467 227.788 305.269 227.788 304.992V303.456H228.94V305.744H230.748V306.864H228.94V312.88H230.62V314ZM235.207 314.192C234.46 314.192 233.809 314.016 233.255 313.664C232.7 313.301 232.268 312.8 231.959 312.16C231.649 311.509 231.495 310.747 231.495 309.872C231.495 308.997 231.649 308.24 231.959 307.6C232.268 306.949 232.7 306.448 233.255 306.096C233.809 305.733 234.46 305.552 235.207 305.552C235.943 305.552 236.577 305.728 237.111 306.08C237.644 306.421 238.055 306.896 238.343 307.504C238.631 308.112 238.775 308.805 238.775 309.584V310.192H232.839V310.576C232.839 311.291 233.052 311.888 233.479 312.368C233.916 312.837 234.519 313.072 235.287 313.072C235.809 313.072 236.263 312.949 236.647 312.704C237.041 312.459 237.345 312.107 237.559 311.648L238.471 312.304C238.204 312.859 237.788 313.312 237.223 313.664C236.657 314.016 235.985 314.192 235.207 314.192ZM235.207 306.624C234.748 306.624 234.337 306.731 233.975 306.944C233.623 307.157 233.345 307.456 233.143 307.84C232.94 308.213 232.839 308.64 232.839 309.12V309.232H237.399V309.056C237.399 308.565 237.308 308.139 237.127 307.776C236.945 307.413 236.689 307.131 236.359 306.928C236.028 306.725 235.644 306.624 235.207 306.624ZM243.385 317.2V305.744H244.665V307.088H244.729C244.942 306.565 245.257 306.181 245.673 305.936C246.089 305.68 246.58 305.552 247.145 305.552C247.838 305.552 248.436 305.728 248.937 306.08C249.438 306.432 249.822 306.933 250.089 307.584C250.366 308.224 250.505 308.987 250.505 309.872C250.505 310.747 250.366 311.509 250.089 312.16C249.822 312.811 249.438 313.312 248.937 313.664C248.436 314.016 247.838 314.192 247.145 314.192C246.58 314.192 246.094 314.064 245.689 313.808C245.294 313.552 244.974 313.168 244.729 312.656H244.665V317.2H243.385ZM246.793 313.04C247.518 313.04 248.089 312.816 248.505 312.368C248.921 311.909 249.129 311.312 249.129 310.576V309.168C249.129 308.432 248.921 307.84 248.505 307.392C248.089 306.933 247.518 306.704 246.793 306.704C246.409 306.704 246.052 306.773 245.721 306.912C245.401 307.051 245.145 307.237 244.953 307.472C244.761 307.707 244.665 307.979 244.665 308.288V311.36C244.665 311.712 244.761 312.016 244.953 312.272C245.145 312.517 245.401 312.709 245.721 312.848C246.052 312.976 246.409 313.04 246.793 313.04ZM255.13 314.192C254.384 314.192 253.733 314.016 253.178 313.664C252.624 313.301 252.192 312.8 251.882 312.16C251.573 311.509 251.418 310.747 251.418 309.872C251.418 308.997 251.573 308.24 251.882 307.6C252.192 306.949 252.624 306.448 253.178 306.096C253.733 305.733 254.384 305.552 255.13 305.552C255.866 305.552 256.501 305.728 257.034 306.08C257.568 306.421 257.978 306.896 258.266 307.504C258.554 308.112 258.698 308.805 258.698 309.584V310.192H252.762V310.576C252.762 311.291 252.976 311.888 253.402 312.368C253.84 312.837 254.442 313.072 255.21 313.072C255.733 313.072 256.186 312.949 256.57 312.704C256.965 312.459 257.269 312.107 257.482 311.648L258.394 312.304C258.128 312.859 257.712 313.312 257.146 313.664C256.581 314.016 255.909 314.192 255.13 314.192ZM255.13 306.624C254.672 306.624 254.261 306.731 253.898 306.944C253.546 307.157 253.269 307.456 253.066 307.84C252.864 308.213 252.762 308.64 252.762 309.12V309.232H257.322V309.056C257.322 308.565 257.232 308.139 257.05 307.776C256.869 307.413 256.613 307.131 256.282 306.928C255.952 306.725 255.568 306.624 255.13 306.624ZM261.448 314H260.168V305.744H261.448V307.264H261.528C261.624 306.997 261.773 306.752 261.976 306.528C262.178 306.293 262.44 306.107 262.76 305.968C263.08 305.819 263.464 305.744 263.912 305.744H264.408V307.024H263.656C263.197 307.024 262.802 307.088 262.472 307.216C262.141 307.333 261.885 307.493 261.704 307.696C261.533 307.899 261.448 308.133 261.448 308.4V314ZM266.683 314H265.403V305.744H266.683V307.088H266.747C266.928 306.661 267.184 306.299 267.515 306C267.845 305.701 268.331 305.552 268.971 305.552C269.515 305.552 270.016 305.685 270.475 305.952C270.933 306.208 271.275 306.635 271.499 307.232H271.531C271.68 306.784 271.957 306.395 272.363 306.064C272.779 305.723 273.339 305.552 274.043 305.552C274.885 305.552 275.541 305.829 276.011 306.384C276.491 306.928 276.731 307.701 276.731 308.704V314H275.451V308.928C275.451 308.203 275.307 307.653 275.019 307.28C274.731 306.896 274.272 306.704 273.643 306.704C273.312 306.704 272.997 306.763 272.699 306.88C272.4 306.987 272.16 307.157 271.979 307.392C271.797 307.627 271.707 307.92 271.707 308.272V314H270.427V308.928C270.427 308.192 270.283 307.637 269.995 307.264C269.707 306.891 269.259 306.704 268.651 306.704C268.32 306.704 268 306.763 267.691 306.88C267.392 306.987 267.147 307.157 266.955 307.392C266.773 307.627 266.683 307.92 266.683 308.272V314ZM279.371 303.808C279.105 303.808 278.907 303.744 278.779 303.616C278.651 303.477 278.587 303.301 278.587 303.088V302.88C278.587 302.667 278.651 302.496 278.779 302.368C278.907 302.229 279.105 302.16 279.371 302.16C279.649 302.16 279.846 302.229 279.963 302.368C280.091 302.496 280.155 302.667 280.155 302.88V303.088C280.155 303.301 280.091 303.477 279.963 303.616C279.846 303.744 279.649 303.808 279.371 303.808ZM278.731 314V305.744H280.011V314H278.731ZM285.515 314H283.915C283.478 314 283.142 313.872 282.907 313.616C282.673 313.36 282.555 313.035 282.555 312.64V306.864H281.195V305.744H281.963C282.241 305.744 282.427 305.691 282.523 305.584C282.63 305.467 282.683 305.269 282.683 304.992V303.456H283.835V305.744H285.643V306.864H283.835V312.88H285.515V314ZM290.102 314.192C289.355 314.192 288.705 314.016 288.15 313.664C287.595 313.301 287.163 312.8 286.854 312.16C286.545 311.509 286.39 310.747 286.39 309.872C286.39 308.997 286.545 308.24 286.854 307.6C287.163 306.949 287.595 306.448 288.15 306.096C288.705 305.733 289.355 305.552 290.102 305.552C290.838 305.552 291.473 305.728 292.006 306.08C292.539 306.421 292.95 306.896 293.238 307.504C293.526 308.112 293.67 308.805 293.67 309.584V310.192H287.734V310.576C287.734 311.291 287.947 311.888 288.374 312.368C288.811 312.837 289.414 313.072 290.182 313.072C290.705 313.072 291.158 312.949 291.542 312.704C291.937 312.459 292.241 312.107 292.454 311.648L293.366 312.304C293.099 312.859 292.683 313.312 292.118 313.664C291.553 314.016 290.881 314.192 290.102 314.192ZM290.102 306.624C289.643 306.624 289.233 306.731 288.87 306.944C288.518 307.157 288.241 307.456 288.038 307.84C287.835 308.213 287.734 308.64 287.734 309.12V309.232H292.294V309.056C292.294 308.565 292.203 308.139 292.022 307.776C291.841 307.413 291.585 307.131 291.254 306.928C290.923 306.725 290.539 306.624 290.102 306.624ZM301.385 314.192C300.638 314.192 299.987 314.016 299.433 313.664C298.878 313.301 298.446 312.8 298.137 312.16C297.827 311.509 297.673 310.747 297.673 309.872C297.673 308.997 297.827 308.24 298.137 307.6C298.446 306.949 298.878 306.448 299.433 306.096C299.987 305.733 300.638 305.552 301.385 305.552C302.121 305.552 302.755 305.728 303.289 306.08C303.822 306.421 304.233 306.896 304.521 307.504C304.809 308.112 304.953 308.805 304.953 309.584V310.192H299.017V310.576C299.017 311.291 299.23 311.888 299.657 312.368C300.094 312.837 300.697 313.072 301.465 313.072C301.987 313.072 302.441 312.949 302.825 312.704C303.219 312.459 303.523 312.107 303.737 311.648L304.649 312.304C304.382 312.859 303.966 313.312 303.401 313.664C302.835 314.016 302.163 314.192 301.385 314.192ZM301.385 306.624C300.926 306.624 300.515 306.731 300.153 306.944C299.801 307.157 299.523 307.456 299.321 307.84C299.118 308.213 299.017 308.64 299.017 309.12V309.232H303.577V309.056C303.577 308.565 303.486 308.139 303.305 307.776C303.123 307.413 302.867 307.131 302.537 306.928C302.206 306.725 301.822 306.624 301.385 306.624ZM311.702 314V312.656H311.638C311.393 313.168 311.067 313.552 310.662 313.808C310.267 314.064 309.787 314.192 309.222 314.192C308.539 314.192 307.942 314.016 307.43 313.664C306.929 313.312 306.539 312.811 306.262 312.16C305.995 311.509 305.862 310.747 305.862 309.872C305.862 308.987 305.995 308.224 306.262 307.584C306.539 306.933 306.929 306.432 307.43 306.08C307.942 305.728 308.539 305.552 309.222 305.552C309.787 305.552 310.278 305.68 310.694 305.936C311.11 306.181 311.425 306.565 311.638 307.088H311.702V302.16H312.982V314H311.702ZM309.574 313.04C309.969 313.04 310.326 312.976 310.646 312.848C310.966 312.709 311.222 312.517 311.414 312.272C311.606 312.016 311.702 311.712 311.702 311.36V308.288C311.702 307.979 311.606 307.707 311.414 307.472C311.222 307.237 310.966 307.051 310.646 306.912C310.326 306.773 309.969 306.704 309.574 306.704C308.859 306.704 308.289 306.933 307.862 307.392C307.446 307.84 307.238 308.432 307.238 309.168V310.576C307.238 311.312 307.446 311.909 307.862 312.368C308.289 312.816 308.859 313.04 309.574 313.04ZM315.703 303.808C315.436 303.808 315.239 303.744 315.111 303.616C314.983 303.477 314.919 303.301 314.919 303.088V302.88C314.919 302.667 314.983 302.496 315.111 302.368C315.239 302.229 315.436 302.16 315.703 302.16C315.98 302.16 316.178 302.229 316.295 302.368C316.423 302.496 316.487 302.667 316.487 302.88V303.088C316.487 303.301 316.423 303.477 316.295 303.616C316.178 303.744 315.98 303.808 315.703 303.808ZM315.063 314V305.744H316.343V314H315.063ZM321.847 314H320.247C319.81 314 319.474 313.872 319.239 313.616C319.004 313.36 318.887 313.035 318.887 312.64V306.864H317.527V305.744H318.295C318.572 305.744 318.759 305.691 318.855 305.584C318.962 305.467 319.015 305.269 319.015 304.992V303.456H320.167V305.744H321.975V306.864H320.167V312.88H321.847V314ZM330.113 314H329.393C329.051 314 328.774 313.931 328.561 313.792C328.347 313.643 328.193 313.44 328.097 313.184C328.001 312.928 327.953 312.635 327.953 312.304V312.192L328.449 312.656H327.889C327.718 313.157 327.419 313.541 326.993 313.808C326.577 314.064 326.081 314.192 325.505 314.192C324.63 314.192 323.947 313.968 323.457 313.52C322.977 313.072 322.737 312.464 322.737 311.696C322.737 311.173 322.865 310.736 323.121 310.384C323.377 310.021 323.761 309.749 324.273 309.568C324.795 309.376 325.457 309.28 326.257 309.28H327.889V308.464C327.889 307.877 327.729 307.429 327.409 307.12C327.089 306.811 326.598 306.656 325.937 306.656C325.446 306.656 325.03 306.768 324.689 306.992C324.347 307.216 324.065 307.515 323.841 307.888L323.073 307.168C323.297 306.731 323.654 306.352 324.145 306.032C324.635 305.712 325.254 305.552 326.001 305.552C326.993 305.552 327.766 305.797 328.321 306.288C328.886 306.779 329.169 307.461 329.169 308.336V312.88H330.113V314ZM327.889 310.24H326.193C325.467 310.24 324.934 310.347 324.593 310.56C324.251 310.773 324.081 311.083 324.081 311.488V311.824C324.081 312.229 324.23 312.544 324.529 312.768C324.827 312.992 325.222 313.104 325.713 313.104C326.139 313.104 326.513 313.04 326.833 312.912C327.163 312.773 327.419 312.592 327.601 312.368C327.793 312.133 327.889 311.877 327.889 311.6V310.24ZM332.579 314H331.299V305.744H332.579V307.264H332.659C332.755 306.997 332.905 306.752 333.107 306.528C333.31 306.293 333.571 306.107 333.891 305.968C334.211 305.819 334.595 305.744 335.043 305.744H335.539V307.024H334.787C334.329 307.024 333.934 307.088 333.603 307.216C333.273 307.333 333.017 307.493 332.835 307.696C332.665 307.899 332.579 308.133 332.579 308.4V314ZM343.1 314H341.5C341.062 314 340.726 313.872 340.492 313.616C340.257 313.36 340.14 313.035 340.14 312.64V306.864H338.78V305.744H339.548C339.825 305.744 340.012 305.691 340.108 305.584C340.214 305.467 340.268 305.269 340.268 304.992V303.456H341.42V305.744H343.228V306.864H341.42V312.88H343.1V314ZM349.733 314V312.656H349.669C349.509 313.051 349.253 313.408 348.901 313.728C348.56 314.037 348.042 314.192 347.349 314.192C346.506 314.192 345.829 313.92 345.317 313.376C344.816 312.821 344.565 312.043 344.565 311.04V305.744H345.845V310.816C345.845 311.552 346.005 312.107 346.325 312.48C346.645 312.853 347.114 313.04 347.733 313.04C348.074 313.04 348.394 312.987 348.693 312.88C349.002 312.763 349.253 312.587 349.445 312.352C349.637 312.117 349.733 311.819 349.733 311.456V305.744H351.013V314H349.733ZM355.579 314.192C354.821 314.192 354.181 314.048 353.659 313.76C353.136 313.461 352.688 313.067 352.315 312.576L353.227 311.84C353.547 312.235 353.904 312.544 354.299 312.768C354.693 312.992 355.152 313.104 355.675 313.104C356.219 313.104 356.64 312.987 356.939 312.752C357.248 312.517 357.403 312.187 357.403 311.76C357.403 311.44 357.296 311.163 357.083 310.928C356.88 310.693 356.507 310.539 355.963 310.464L355.307 310.368C354.805 310.293 354.352 310.171 353.947 310C353.541 309.819 353.221 309.568 352.987 309.248C352.763 308.917 352.651 308.496 352.651 307.984C352.651 307.163 352.928 306.555 353.483 306.16C354.048 305.755 354.752 305.552 355.595 305.552C356.043 305.552 356.437 305.605 356.779 305.712C357.131 305.819 357.445 305.973 357.723 306.176C358 306.368 358.251 306.603 358.475 306.88L357.627 307.648C357.445 307.392 357.179 307.163 356.827 306.96C356.475 306.747 356.032 306.64 355.499 306.64C354.976 306.64 354.576 306.757 354.299 306.992C354.021 307.216 353.883 307.525 353.883 307.92C353.883 308.315 354.016 308.608 354.283 308.8C354.56 308.981 354.955 309.115 355.467 309.2L356.107 309.296C357.024 309.435 357.675 309.701 358.059 310.096C358.443 310.48 358.635 310.987 358.635 311.616C358.635 312.149 358.512 312.608 358.267 312.992C358.021 313.376 357.669 313.675 357.211 313.888C356.752 314.091 356.208 314.192 355.579 314.192ZM363.845 314V306.864H362.501V305.744H363.845V304.08C363.845 303.515 363.994 303.056 364.293 302.704C364.592 302.341 365.045 302.16 365.653 302.16H366.901V303.28H365.125V305.744H366.901V306.864H365.125V314H363.845ZM371.002 314.192C370.266 314.192 369.615 314.016 369.05 313.664C368.495 313.301 368.058 312.8 367.738 312.16C367.429 311.509 367.274 310.747 367.274 309.872C367.274 308.997 367.429 308.24 367.738 307.6C368.058 306.949 368.495 306.448 369.05 306.096C369.615 305.733 370.266 305.552 371.002 305.552C371.738 305.552 372.383 305.733 372.938 306.096C373.503 306.448 373.941 306.949 374.25 307.6C374.57 308.24 374.73 308.997 374.73 309.872C374.73 310.747 374.57 311.509 374.25 312.16C373.941 312.8 373.503 313.301 372.938 313.664C372.383 314.016 371.738 314.192 371.002 314.192ZM371.002 313.056C371.695 313.056 372.261 312.843 372.698 312.416C373.135 311.989 373.354 311.339 373.354 310.464V309.28C373.354 308.405 373.135 307.755 372.698 307.328C372.261 306.901 371.695 306.688 371.002 306.688C370.319 306.688 369.754 306.901 369.306 307.328C368.869 307.755 368.65 308.405 368.65 309.28V310.464C368.65 311.339 368.869 311.989 369.306 312.416C369.754 312.843 370.319 313.056 371.002 313.056ZM379.619 314H378.019C377.582 314 377.246 313.872 377.011 313.616C376.776 313.36 376.659 313.035 376.659 312.64V306.864H375.299V305.744H376.067C376.344 305.744 376.531 305.691 376.627 305.584C376.734 305.467 376.787 305.269 376.787 304.992V303.456H377.939V305.744H379.747V306.864H377.939V312.88H379.619V314ZM384.222 314.192C383.486 314.192 382.835 314.016 382.27 313.664C381.715 313.301 381.278 312.8 380.958 312.16C380.649 311.509 380.494 310.747 380.494 309.872C380.494 308.997 380.649 308.24 380.958 307.6C381.278 306.949 381.715 306.448 382.27 306.096C382.835 305.733 383.486 305.552 384.222 305.552C384.958 305.552 385.603 305.733 386.158 306.096C386.723 306.448 387.161 306.949 387.47 307.6C387.79 308.24 387.95 308.997 387.95 309.872C387.95 310.747 387.79 311.509 387.47 312.16C387.161 312.8 386.723 313.301 386.158 313.664C385.603 314.016 384.958 314.192 384.222 314.192ZM384.222 313.056C384.915 313.056 385.481 312.843 385.918 312.416C386.355 311.989 386.574 311.339 386.574 310.464V309.28C386.574 308.405 386.355 307.755 385.918 307.328C385.481 306.901 384.915 306.688 384.222 306.688C383.539 306.688 382.974 306.901 382.526 307.328C382.089 307.755 381.87 308.405 381.87 309.28V310.464C381.87 311.339 382.089 311.989 382.526 312.416C382.974 312.843 383.539 313.056 384.222 313.056ZM391.895 314.192C391.138 314.192 390.498 314.048 389.975 313.76C389.452 313.461 389.004 313.067 388.631 312.576L389.543 311.84C389.863 312.235 390.22 312.544 390.615 312.768C391.01 312.992 391.468 313.104 391.991 313.104C392.535 313.104 392.956 312.987 393.255 312.752C393.564 312.517 393.719 312.187 393.719 311.76C393.719 311.44 393.612 311.163 393.399 310.928C393.196 310.693 392.823 310.539 392.279 310.464L391.623 310.368C391.122 310.293 390.668 310.171 390.263 310C389.858 309.819 389.538 309.568 389.303 309.248C389.079 308.917 388.967 308.496 388.967 307.984C388.967 307.163 389.244 306.555 389.799 306.16C390.364 305.755 391.068 305.552 391.911 305.552C392.359 305.552 392.754 305.605 393.095 305.712C393.447 305.819 393.762 305.973 394.039 306.176C394.316 306.368 394.567 306.603 394.791 306.88L393.943 307.648C393.762 307.392 393.495 307.163 393.143 306.96C392.791 306.747 392.348 306.64 391.815 306.64C391.292 306.64 390.892 306.757 390.615 306.992C390.338 307.216 390.199 307.525 390.199 307.92C390.199 308.315 390.332 308.608 390.599 308.8C390.876 308.981 391.271 309.115 391.783 309.2L392.423 309.296C393.34 309.435 393.991 309.701 394.375 310.096C394.759 310.48 394.951 310.987 394.951 311.616C394.951 312.149 394.828 312.608 394.583 312.992C394.338 313.376 393.986 313.675 393.527 313.888C393.068 314.091 392.524 314.192 391.895 314.192ZM404.993 314V312.656H404.929C404.684 313.168 404.358 313.552 403.953 313.808C403.558 314.064 403.078 314.192 402.513 314.192C401.83 314.192 401.233 314.016 400.721 313.664C400.22 313.312 399.83 312.811 399.553 312.16C399.286 311.509 399.153 310.747 399.153 309.872C399.153 308.987 399.286 308.224 399.553 307.584C399.83 306.933 400.22 306.432 400.721 306.08C401.233 305.728 401.83 305.552 402.513 305.552C403.078 305.552 403.569 305.68 403.985 305.936C404.401 306.181 404.716 306.565 404.929 307.088H404.993V302.16H406.273V314H404.993ZM402.865 313.04C403.26 313.04 403.617 312.976 403.937 312.848C404.257 312.709 404.513 312.517 404.705 312.272C404.897 312.016 404.993 311.712 404.993 311.36V308.288C404.993 307.979 404.897 307.707 404.705 307.472C404.513 307.237 404.257 307.051 403.937 306.912C403.617 306.773 403.26 306.704 402.865 306.704C402.15 306.704 401.58 306.933 401.153 307.392C400.737 307.84 400.529 308.432 400.529 309.168V310.576C400.529 311.312 400.737 311.909 401.153 312.368C401.58 312.816 402.15 313.04 402.865 313.04ZM411.458 314.192C410.712 314.192 410.061 314.016 409.506 313.664C408.952 313.301 408.52 312.8 408.21 312.16C407.901 311.509 407.746 310.747 407.746 309.872C407.746 308.997 407.901 308.24 408.21 307.6C408.52 306.949 408.952 306.448 409.506 306.096C410.061 305.733 410.712 305.552 411.458 305.552C412.194 305.552 412.829 305.728 413.362 306.08C413.896 306.421 414.306 306.896 414.594 307.504C414.882 308.112 415.026 308.805 415.026 309.584V310.192H409.09V310.576C409.09 311.291 409.304 311.888 409.73 312.368C410.168 312.837 410.77 313.072 411.538 313.072C412.061 313.072 412.514 312.949 412.898 312.704C413.293 312.459 413.597 312.107 413.81 311.648L414.722 312.304C414.456 312.859 414.04 313.312 413.474 313.664C412.909 314.016 412.237 314.192 411.458 314.192ZM411.458 306.624C411 306.624 410.589 306.731 410.226 306.944C409.874 307.157 409.597 307.456 409.394 307.84C409.192 308.213 409.09 308.64 409.09 309.12V309.232H413.65V309.056C413.65 308.565 413.56 308.139 413.378 307.776C413.197 307.413 412.941 307.131 412.61 306.928C412.28 306.725 411.896 306.624 411.458 306.624ZM420.085 314V306.864H418.741V305.744H420.085V304.08C420.085 303.515 420.234 303.056 420.533 302.704C420.832 302.341 421.285 302.16 421.893 302.16H423.141V303.28H421.365V305.744H423.141V306.864H421.365V314H420.085ZM427.242 314.192C426.506 314.192 425.855 314.016 425.29 313.664C424.735 313.301 424.298 312.8 423.978 312.16C423.669 311.509 423.514 310.747 423.514 309.872C423.514 308.997 423.669 308.24 423.978 307.6C424.298 306.949 424.735 306.448 425.29 306.096C425.855 305.733 426.506 305.552 427.242 305.552C427.978 305.552 428.623 305.733 429.178 306.096C429.743 306.448 430.181 306.949 430.49 307.6C430.81 308.24 430.97 308.997 430.97 309.872C430.97 310.747 430.81 311.509 430.49 312.16C430.181 312.8 429.743 313.301 429.178 313.664C428.623 314.016 427.978 314.192 427.242 314.192ZM427.242 313.056C427.935 313.056 428.501 312.843 428.938 312.416C429.375 311.989 429.594 311.339 429.594 310.464V309.28C429.594 308.405 429.375 307.755 428.938 307.328C428.501 306.901 427.935 306.688 427.242 306.688C426.559 306.688 425.994 306.901 425.546 307.328C425.109 307.755 424.89 308.405 424.89 309.28V310.464C424.89 311.339 425.109 311.989 425.546 312.416C425.994 312.843 426.559 313.056 427.242 313.056ZM433.715 314H432.435V305.744H433.715V307.264H433.795C433.891 306.997 434.04 306.752 434.243 306.528C434.446 306.293 434.707 306.107 435.027 305.968C435.347 305.819 435.731 305.744 436.179 305.744H436.675V307.024H435.923C435.464 307.024 435.07 307.088 434.739 307.216C434.408 307.333 434.152 307.493 433.971 307.696C433.8 307.899 433.715 308.133 433.715 308.4V314ZM438.95 314H437.67V305.744H438.95V307.088H439.014C439.195 306.661 439.451 306.299 439.782 306C440.113 305.701 440.598 305.552 441.238 305.552C441.782 305.552 442.283 305.685 442.742 305.952C443.201 306.208 443.542 306.635 443.766 307.232H443.798C443.947 306.784 444.225 306.395 444.63 306.064C445.046 305.723 445.606 305.552 446.31 305.552C447.153 305.552 447.809 305.829 448.278 306.384C448.758 306.928 448.998 307.701 448.998 308.704V314H447.718V308.928C447.718 308.203 447.574 307.653 447.286 307.28C446.998 306.896 446.539 306.704 445.91 306.704C445.579 306.704 445.265 306.763 444.966 306.88C444.667 306.987 444.427 307.157 444.246 307.392C444.065 307.627 443.974 307.92 443.974 308.272V314H442.694V308.928C442.694 308.192 442.55 307.637 442.262 307.264C441.974 306.891 441.526 306.704 440.918 306.704C440.587 306.704 440.267 306.763 439.958 306.88C439.659 306.987 439.414 307.157 439.222 307.392C439.041 307.627 438.95 307.92 438.95 308.272V314ZM457.719 314H456.999C456.657 314 456.38 313.931 456.167 313.792C455.953 313.643 455.799 313.44 455.703 313.184C455.607 312.928 455.559 312.635 455.559 312.304V312.192L456.055 312.656H455.495C455.324 313.157 455.025 313.541 454.599 313.808C454.183 314.064 453.687 314.192 453.111 314.192C452.236 314.192 451.553 313.968 451.063 313.52C450.583 313.072 450.343 312.464 450.343 311.696C450.343 311.173 450.471 310.736 450.727 310.384C450.983 310.021 451.367 309.749 451.879 309.568C452.401 309.376 453.063 309.28 453.863 309.28H455.495V308.464C455.495 307.877 455.335 307.429 455.015 307.12C454.695 306.811 454.204 306.656 453.543 306.656C453.052 306.656 452.636 306.768 452.295 306.992C451.953 307.216 451.671 307.515 451.447 307.888L450.679 307.168C450.903 306.731 451.26 306.352 451.751 306.032C452.241 305.712 452.86 305.552 453.607 305.552C454.599 305.552 455.372 305.797 455.927 306.288C456.492 306.779 456.775 307.461 456.775 308.336V312.88H457.719V314ZM455.495 310.24H453.799C453.073 310.24 452.54 310.347 452.199 310.56C451.857 310.773 451.687 311.083 451.687 311.488V311.824C451.687 312.229 451.836 312.544 452.135 312.768C452.433 312.992 452.828 313.104 453.319 313.104C453.745 313.104 454.119 313.04 454.439 312.912C454.769 312.773 455.025 312.592 455.207 312.368C455.399 312.133 455.495 311.877 455.495 311.6V310.24ZM462.495 314V306.864H461.151V305.744H462.495V304.08C462.495 303.515 462.644 303.056 462.943 302.704C463.242 302.341 463.695 302.16 464.303 302.16H465.551V303.28H463.775V305.744H465.551V306.864H463.775V314H462.495ZM473.314 314H472.594C472.253 314 471.976 313.931 471.762 313.792C471.549 313.643 471.394 313.44 471.298 313.184C471.202 312.928 471.154 312.635 471.154 312.304V312.192L471.65 312.656H471.09C470.92 313.157 470.621 313.541 470.194 313.808C469.778 314.064 469.282 314.192 468.706 314.192C467.832 314.192 467.149 313.968 466.658 313.52C466.178 313.072 465.938 312.464 465.938 311.696C465.938 311.173 466.066 310.736 466.322 310.384C466.578 310.021 466.962 309.749 467.474 309.568C467.997 309.376 468.658 309.28 469.458 309.28H471.09V308.464C471.09 307.877 470.93 307.429 470.61 307.12C470.29 306.811 469.8 306.656 469.138 306.656C468.648 306.656 468.232 306.768 467.89 306.992C467.549 307.216 467.266 307.515 467.042 307.888L466.274 307.168C466.498 306.731 466.856 306.352 467.346 306.032C467.837 305.712 468.456 305.552 469.202 305.552C470.194 305.552 470.968 305.797 471.522 306.288C472.088 306.779 472.37 307.461 472.37 308.336V312.88H473.314V314ZM471.09 310.24H469.394C468.669 310.24 468.136 310.347 467.794 310.56C467.453 310.773 467.282 311.083 467.282 311.488V311.824C467.282 312.229 467.432 312.544 467.73 312.768C468.029 312.992 468.424 313.104 468.914 313.104C469.341 313.104 469.714 313.04 470.034 312.912C470.365 312.773 470.621 312.592 470.802 312.368C470.994 312.133 471.09 311.877 471.09 311.6V310.24ZM471.074 302.096L469.378 304.64L468.546 304.256L469.906 301.536L471.074 302.096ZM477.573 314.192C476.411 314.192 475.504 313.803 474.853 313.024C474.213 312.245 473.893 311.195 473.893 309.872C473.893 308.549 474.213 307.499 474.853 306.72C475.504 305.941 476.411 305.552 477.573 305.552C478.395 305.552 479.056 305.733 479.557 306.096C480.059 306.459 480.427 306.923 480.661 307.488L479.589 308.032C479.44 307.605 479.189 307.275 478.837 307.04C478.496 306.805 478.075 306.688 477.573 306.688C476.816 306.688 476.24 306.923 475.845 307.392C475.461 307.851 475.269 308.443 475.269 309.168V310.576C475.269 311.291 475.461 311.883 475.845 312.352C476.24 312.821 476.816 313.056 477.573 313.056C478.096 313.056 478.544 312.933 478.917 312.688C479.291 312.443 479.589 312.085 479.813 311.616L480.741 312.24C480.475 312.827 480.075 313.301 479.541 313.664C479.019 314.016 478.363 314.192 477.573 314.192ZM482.548 303.808C482.281 303.808 482.084 303.744 481.956 303.616C481.828 303.477 481.764 303.301 481.764 303.088V302.88C481.764 302.667 481.828 302.496 481.956 302.368C482.084 302.229 482.281 302.16 482.548 302.16C482.825 302.16 483.023 302.229 483.14 302.368C483.268 302.496 483.332 302.667 483.332 302.88V303.088C483.332 303.301 483.268 303.477 483.14 303.616C483.023 303.744 482.825 303.808 482.548 303.808ZM481.908 314V305.744H483.188V314H481.908ZM487.764 314H486.628C486.191 314 485.855 313.877 485.62 313.632C485.385 313.376 485.268 313.056 485.268 312.672V302.16H486.548V312.88H487.764V314ZM489.96 312.128C490.301 312.128 490.546 312.219 490.696 312.4C490.856 312.571 490.936 312.795 490.936 313.072V313.296C490.936 313.723 490.808 314.203 490.552 314.736C490.296 315.269 489.938 315.733 489.48 316.128H488.408C488.728 315.787 488.984 315.461 489.176 315.152C489.378 314.853 489.522 314.517 489.608 314.144C489.394 314.091 489.234 313.989 489.128 313.84C489.032 313.691 488.984 313.509 488.984 313.296V313.072C488.984 312.795 489.064 312.571 489.224 312.4C489.384 312.219 489.629 312.128 489.96 312.128ZM144.64 333H143.36V324.744H144.64V326.264H144.72C144.816 325.997 144.965 325.752 145.168 325.528C145.371 325.293 145.632 325.107 145.952 324.968C146.272 324.819 146.656 324.744 147.104 324.744H147.6V326.024H146.848C146.389 326.024 145.995 326.088 145.664 326.216C145.333 326.333 145.077 326.493 144.896 326.696C144.725 326.899 144.64 327.133 144.64 327.4V333ZM155.253 333H154.533C154.191 333 153.914 332.931 153.701 332.792C153.487 332.643 153.333 332.44 153.237 332.184C153.141 331.928 153.093 331.635 153.093 331.304V331.192L153.589 331.656H153.029C152.858 332.157 152.559 332.541 152.133 332.808C151.717 333.064 151.221 333.192 150.645 333.192C149.77 333.192 149.087 332.968 148.597 332.52C148.117 332.072 147.877 331.464 147.877 330.696C147.877 330.173 148.005 329.736 148.261 329.384C148.517 329.021 148.901 328.749 149.413 328.568C149.935 328.376 150.597 328.28 151.397 328.28H153.029V327.464C153.029 326.877 152.869 326.429 152.549 326.12C152.229 325.811 151.738 325.656 151.077 325.656C150.586 325.656 150.17 325.768 149.829 325.992C149.487 326.216 149.205 326.515 148.981 326.888L148.213 326.168C148.437 325.731 148.794 325.352 149.285 325.032C149.775 324.712 150.394 324.552 151.141 324.552C152.133 324.552 152.906 324.797 153.461 325.288C154.026 325.779 154.309 326.461 154.309 327.336V331.88H155.253V333ZM153.029 329.24H151.333C150.607 329.24 150.074 329.347 149.733 329.56C149.391 329.773 149.221 330.083 149.221 330.488V330.824C149.221 331.229 149.37 331.544 149.669 331.768C149.967 331.992 150.362 332.104 150.853 332.104C151.279 332.104 151.653 332.04 151.973 331.912C152.303 331.773 152.559 331.592 152.741 331.368C152.933 331.133 153.029 330.877 153.029 330.6V329.24ZM153.013 321.096L151.317 323.64L150.485 323.256L151.845 320.536L153.013 321.096ZM156.439 336.2V324.744H157.719V326.088H157.783C157.997 325.565 158.311 325.181 158.727 324.936C159.143 324.68 159.634 324.552 160.199 324.552C160.893 324.552 161.49 324.728 161.991 325.08C162.493 325.432 162.877 325.933 163.143 326.584C163.421 327.224 163.559 327.987 163.559 328.872C163.559 329.747 163.421 330.509 163.143 331.16C162.877 331.811 162.493 332.312 161.991 332.664C161.49 333.016 160.893 333.192 160.199 333.192C159.634 333.192 159.149 333.064 158.743 332.808C158.349 332.552 158.029 332.168 157.783 331.656H157.719V336.2H156.439ZM159.847 332.04C160.573 332.04 161.143 331.816 161.559 331.368C161.975 330.909 162.183 330.312 162.183 329.576V328.168C162.183 327.432 161.975 326.84 161.559 326.392C161.143 325.933 160.573 325.704 159.847 325.704C159.463 325.704 159.106 325.773 158.775 325.912C158.455 326.051 158.199 326.237 158.007 326.472C157.815 326.707 157.719 326.979 157.719 327.288V330.36C157.719 330.712 157.815 331.016 158.007 331.272C158.199 331.517 158.455 331.709 158.775 331.848C159.106 331.976 159.463 332.04 159.847 332.04ZM165.721 322.808C165.454 322.808 165.257 322.744 165.129 322.616C165.001 322.477 164.937 322.301 164.937 322.088V321.88C164.937 321.667 165.001 321.496 165.129 321.368C165.257 321.229 165.454 321.16 165.721 321.16C165.998 321.16 166.195 321.229 166.313 321.368C166.441 321.496 166.505 321.667 166.505 321.88V322.088C166.505 322.301 166.441 322.477 166.313 322.616C166.195 322.744 165.998 322.808 165.721 322.808ZM165.081 333V324.744H166.361V333H165.081ZM173.721 333V331.656H173.657C173.411 332.168 173.086 332.552 172.681 332.808C172.286 333.064 171.806 333.192 171.241 333.192C170.558 333.192 169.961 333.016 169.449 332.664C168.947 332.312 168.558 331.811 168.281 331.16C168.014 330.509 167.881 329.747 167.881 328.872C167.881 327.987 168.014 327.224 168.281 326.584C168.558 325.933 168.947 325.432 169.449 325.08C169.961 324.728 170.558 324.552 171.241 324.552C171.806 324.552 172.297 324.68 172.713 324.936C173.129 325.181 173.443 325.565 173.657 326.088H173.721V321.16H175.001V333H173.721ZM171.593 332.04C171.987 332.04 172.345 331.976 172.665 331.848C172.985 331.709 173.241 331.517 173.433 331.272C173.625 331.016 173.721 330.712 173.721 330.36V327.288C173.721 326.979 173.625 326.707 173.433 326.472C173.241 326.237 172.985 326.051 172.665 325.912C172.345 325.773 171.987 325.704 171.593 325.704C170.878 325.704 170.307 325.933 169.881 326.392C169.465 326.84 169.257 327.432 169.257 328.168V329.576C169.257 330.312 169.465 330.909 169.881 331.368C170.307 331.816 170.878 332.04 171.593 332.04ZM183.802 333H183.082C182.741 333 182.463 332.931 182.25 332.792C182.037 332.643 181.882 332.44 181.786 332.184C181.69 331.928 181.642 331.635 181.642 331.304V331.192L182.138 331.656H181.578C181.407 332.157 181.109 332.541 180.682 332.808C180.266 333.064 179.77 333.192 179.194 333.192C178.319 333.192 177.637 332.968 177.146 332.52C176.666 332.072 176.426 331.464 176.426 330.696C176.426 330.173 176.554 329.736 176.81 329.384C177.066 329.021 177.45 328.749 177.962 328.568C178.485 328.376 179.146 328.28 179.946 328.28H181.578V327.464C181.578 326.877 181.418 326.429 181.098 326.12C180.778 325.811 180.287 325.656 179.626 325.656C179.135 325.656 178.719 325.768 178.378 325.992C178.037 326.216 177.754 326.515 177.53 326.888L176.762 326.168C176.986 325.731 177.343 325.352 177.834 325.032C178.325 324.712 178.943 324.552 179.69 324.552C180.682 324.552 181.455 324.797 182.01 325.288C182.575 325.779 182.858 326.461 182.858 327.336V331.88H183.802V333ZM181.578 329.24H179.882C179.157 329.24 178.623 329.347 178.282 329.56C177.941 329.773 177.77 330.083 177.77 330.488V330.824C177.77 331.229 177.919 331.544 178.218 331.768C178.517 331.992 178.911 332.104 179.402 332.104C179.829 332.104 180.202 332.04 180.522 331.912C180.853 331.773 181.109 331.592 181.29 331.368C181.482 331.133 181.578 330.877 181.578 330.6V329.24ZM191.234 333.192C190.487 333.192 189.837 333.016 189.282 332.664C188.727 332.301 188.295 331.8 187.986 331.16C187.677 330.509 187.522 329.747 187.522 328.872C187.522 327.997 187.677 327.24 187.986 326.6C188.295 325.949 188.727 325.448 189.282 325.096C189.837 324.733 190.487 324.552 191.234 324.552C191.97 324.552 192.605 324.728 193.138 325.08C193.671 325.421 194.082 325.896 194.37 326.504C194.658 327.112 194.802 327.805 194.802 328.584V329.192H188.866V329.576C188.866 330.291 189.079 330.888 189.506 331.368C189.943 331.837 190.546 332.072 191.314 332.072C191.837 332.072 192.29 331.949 192.674 331.704C193.069 331.459 193.373 331.107 193.586 330.648L194.498 331.304C194.231 331.859 193.815 332.312 193.25 332.664C192.685 333.016 192.013 333.192 191.234 333.192ZM191.234 325.624C190.775 325.624 190.365 325.731 190.002 325.944C189.65 326.157 189.373 326.456 189.17 326.84C188.967 327.213 188.866 327.64 188.866 328.12V328.232H193.426V328.056C193.426 327.565 193.335 327.139 193.154 326.776C192.973 326.413 192.717 326.131 192.386 325.928C192.055 325.725 191.671 325.624 191.234 325.624ZM200.053 322.808C199.786 322.808 199.589 322.744 199.461 322.616C199.333 322.477 199.269 322.301 199.269 322.088V321.88C199.269 321.667 199.333 321.496 199.461 321.368C199.589 321.229 199.786 321.16 200.053 321.16C200.33 321.16 200.527 321.229 200.645 321.368C200.773 321.496 200.837 321.667 200.837 321.88V322.088C200.837 322.301 200.773 322.477 200.645 322.616C200.527 322.744 200.33 322.808 200.053 322.808ZM199.413 333V324.744H200.693V333H199.413ZM204.052 333H202.772V324.744H204.052V326.088H204.116C204.319 325.619 204.602 325.245 204.964 324.968C205.338 324.691 205.834 324.552 206.452 324.552C207.306 324.552 207.978 324.829 208.468 325.384C208.97 325.928 209.22 326.701 209.22 327.704V333H207.94V327.928C207.94 327.192 207.78 326.637 207.46 326.264C207.151 325.891 206.687 325.704 206.068 325.704C205.727 325.704 205.402 325.763 205.092 325.88C204.783 325.987 204.532 326.157 204.34 326.392C204.148 326.627 204.052 326.92 204.052 327.272V333ZM214.65 333H213.05C212.613 333 212.277 332.872 212.042 332.616C211.808 332.36 211.69 332.035 211.69 331.64V325.864H210.33V324.744H211.098C211.376 324.744 211.562 324.691 211.658 324.584C211.765 324.467 211.818 324.269 211.818 323.992V322.456H212.97V324.744H214.778V325.864H212.97V331.88H214.65V333ZM221.284 333V331.656H221.22C221.06 332.051 220.804 332.408 220.452 332.728C220.11 333.037 219.593 333.192 218.9 333.192C218.057 333.192 217.38 332.92 216.868 332.376C216.366 331.821 216.116 331.043 216.116 330.04V324.744H217.396V329.816C217.396 330.552 217.556 331.107 217.876 331.48C218.196 331.853 218.665 332.04 219.284 332.04C219.625 332.04 219.945 331.987 220.244 331.88C220.553 331.763 220.804 331.587 220.996 331.352C221.188 331.117 221.284 330.819 221.284 330.456V324.744H222.564V333H221.284ZM225.289 322.808C225.023 322.808 224.825 322.744 224.697 322.616C224.569 322.477 224.505 322.301 224.505 322.088V321.88C224.505 321.667 224.569 321.496 224.697 321.368C224.825 321.229 225.023 321.16 225.289 321.16C225.567 321.16 225.764 321.229 225.881 321.368C226.009 321.496 226.073 321.667 226.073 321.88V322.088C226.073 322.301 226.009 322.477 225.881 322.616C225.764 322.744 225.567 322.808 225.289 322.808ZM224.649 333V324.744H225.929V333H224.649ZM231.433 333H229.833C229.396 333 229.06 332.872 228.825 332.616C228.591 332.36 228.473 332.035 228.473 331.64V325.864H227.113V324.744H227.881C228.159 324.744 228.345 324.691 228.441 324.584C228.548 324.467 228.601 324.269 228.601 323.992V322.456H229.753V324.744H231.561V325.864H229.753V331.88H231.433V333ZM233.619 322.808C233.352 322.808 233.155 322.744 233.027 322.616C232.899 322.477 232.835 322.301 232.835 322.088V321.88C232.835 321.667 232.899 321.496 233.027 321.368C233.155 321.229 233.352 321.16 233.619 321.16C233.896 321.16 234.093 321.229 234.211 321.368C234.339 321.496 234.403 321.667 234.403 321.88V322.088C234.403 322.301 234.339 322.477 234.211 322.616C234.093 322.744 233.896 322.808 233.619 322.808ZM232.979 333V324.744H234.259V333H232.979ZM239.651 333H238.163L235.267 324.744H236.547L237.987 328.84L238.883 331.656H238.963L239.859 328.84L241.331 324.744H242.563L239.651 333ZM250.153 333H249.433C249.092 333 248.814 332.931 248.601 332.792C248.388 332.643 248.233 332.44 248.137 332.184C248.041 331.928 247.993 331.635 247.993 331.304V331.192L248.489 331.656H247.929C247.758 332.157 247.46 332.541 247.033 332.808C246.617 333.064 246.121 333.192 245.545 333.192C244.67 333.192 243.988 332.968 243.497 332.52C243.017 332.072 242.777 331.464 242.777 330.696C242.777 330.173 242.905 329.736 243.161 329.384C243.417 329.021 243.801 328.749 244.313 328.568C244.836 328.376 245.497 328.28 246.297 328.28H247.929V327.464C247.929 326.877 247.769 326.429 247.449 326.12C247.129 325.811 246.638 325.656 245.977 325.656C245.486 325.656 245.07 325.768 244.729 325.992C244.388 326.216 244.105 326.515 243.881 326.888L243.113 326.168C243.337 325.731 243.694 325.352 244.185 325.032C244.676 324.712 245.294 324.552 246.041 324.552C247.033 324.552 247.806 324.797 248.361 325.288C248.926 325.779 249.209 326.461 249.209 327.336V331.88H250.153V333ZM247.929 329.24H246.233C245.508 329.24 244.974 329.347 244.633 329.56C244.292 329.773 244.121 330.083 244.121 330.488V330.824C244.121 331.229 244.27 331.544 244.569 331.768C244.868 331.992 245.262 332.104 245.753 332.104C246.18 332.104 246.553 332.04 246.873 331.912C247.204 331.773 247.46 331.592 247.641 331.368C247.833 331.133 247.929 330.877 247.929 330.6V329.24ZM261.201 333H260.481C260.14 333 259.863 332.931 259.649 332.792C259.436 332.643 259.281 332.44 259.185 332.184C259.089 331.928 259.041 331.635 259.041 331.304V331.192L259.537 331.656H258.977C258.807 332.157 258.508 332.541 258.081 332.808C257.665 333.064 257.169 333.192 256.593 333.192C255.719 333.192 255.036 332.968 254.545 332.52C254.065 332.072 253.825 331.464 253.825 330.696C253.825 330.173 253.953 329.736 254.209 329.384C254.465 329.021 254.849 328.749 255.361 328.568C255.884 328.376 256.545 328.28 257.345 328.28H258.977V327.464C258.977 326.877 258.817 326.429 258.497 326.12C258.177 325.811 257.687 325.656 257.025 325.656C256.535 325.656 256.119 325.768 255.777 325.992C255.436 326.216 255.153 326.515 254.929 326.888L254.161 326.168C254.385 325.731 254.743 325.352 255.233 325.032C255.724 324.712 256.343 324.552 257.089 324.552C258.081 324.552 258.855 324.797 259.409 325.288C259.975 325.779 260.257 326.461 260.257 327.336V331.88H261.201V333ZM258.977 329.24H257.281C256.556 329.24 256.023 329.347 255.681 329.56C255.34 329.773 255.169 330.083 255.169 330.488V330.824C255.169 331.229 255.319 331.544 255.617 331.768C255.916 331.992 256.311 332.104 256.801 332.104C257.228 332.104 257.601 332.04 257.921 331.912C258.252 331.773 258.508 331.592 258.689 331.368C258.881 331.133 258.977 330.877 258.977 330.6V329.24ZM263.668 333H262.388V324.744H263.668V326.088H263.732C263.935 325.619 264.217 325.245 264.58 324.968C264.953 324.691 265.449 324.552 266.068 324.552C266.921 324.552 267.593 324.829 268.084 325.384C268.585 325.928 268.836 326.701 268.836 327.704V333H267.556V327.928C267.556 327.192 267.396 326.637 267.076 326.264C266.767 325.891 266.303 325.704 265.684 325.704C265.343 325.704 265.017 325.763 264.708 325.88C264.399 325.987 264.148 326.157 263.956 326.392C263.764 326.627 263.668 326.92 263.668 327.272V333ZM274.266 333H272.666C272.229 333 271.893 332.872 271.658 332.616C271.423 332.36 271.306 332.035 271.306 331.64V325.864H269.946V324.744H270.714C270.991 324.744 271.178 324.691 271.274 324.584C271.381 324.467 271.434 324.269 271.434 323.992V322.456H272.586V324.744H274.394V325.864H272.586V331.88H274.266V333ZM278.853 333.192C278.106 333.192 277.455 333.016 276.901 332.664C276.346 332.301 275.914 331.8 275.605 331.16C275.295 330.509 275.141 329.747 275.141 328.872C275.141 327.997 275.295 327.24 275.605 326.6C275.914 325.949 276.346 325.448 276.901 325.096C277.455 324.733 278.106 324.552 278.853 324.552C279.589 324.552 280.223 324.728 280.757 325.08C281.29 325.421 281.701 325.896 281.989 326.504C282.277 327.112 282.421 327.805 282.421 328.584V329.192H276.485V329.576C276.485 330.291 276.698 330.888 277.125 331.368C277.562 331.837 278.165 332.072 278.933 332.072C279.455 332.072 279.909 331.949 280.293 331.704C280.687 331.459 280.991 331.107 281.205 330.648L282.117 331.304C281.85 331.859 281.434 332.312 280.869 332.664C280.303 333.016 279.631 333.192 278.853 333.192ZM278.853 325.624C278.394 325.624 277.983 325.731 277.621 325.944C277.269 326.157 276.991 326.456 276.789 326.84C276.586 327.213 276.485 327.64 276.485 328.12V328.232H281.045V328.056C281.045 327.565 280.954 327.139 280.773 326.776C280.591 326.413 280.335 326.131 280.005 325.928C279.674 325.725 279.29 325.624 278.853 325.624ZM286.37 333.192C285.613 333.192 284.973 333.048 284.45 332.76C283.927 332.461 283.479 332.067 283.106 331.576L284.018 330.84C284.338 331.235 284.695 331.544 285.09 331.768C285.485 331.992 285.943 332.104 286.466 332.104C287.01 332.104 287.431 331.987 287.73 331.752C288.039 331.517 288.194 331.187 288.194 330.76C288.194 330.44 288.087 330.163 287.874 329.928C287.671 329.693 287.298 329.539 286.754 329.464L286.098 329.368C285.597 329.293 285.143 329.171 284.738 329C284.333 328.819 284.013 328.568 283.778 328.248C283.554 327.917 283.442 327.496 283.442 326.984C283.442 326.163 283.719 325.555 284.274 325.16C284.839 324.755 285.543 324.552 286.386 324.552C286.834 324.552 287.229 324.605 287.57 324.712C287.922 324.819 288.237 324.973 288.514 325.176C288.791 325.368 289.042 325.603 289.266 325.88L288.418 326.648C288.237 326.392 287.97 326.163 287.618 325.96C287.266 325.747 286.823 325.64 286.29 325.64C285.767 325.64 285.367 325.757 285.09 325.992C284.813 326.216 284.674 326.525 284.674 326.92C284.674 327.315 284.807 327.608 285.074 327.8C285.351 327.981 285.746 328.115 286.258 328.2L286.898 328.296C287.815 328.435 288.466 328.701 288.85 329.096C289.234 329.48 289.426 329.987 289.426 330.616C289.426 331.149 289.303 331.608 289.058 331.992C288.813 332.376 288.461 332.675 288.002 332.888C287.543 333.091 286.999 333.192 286.37 333.192ZM299.468 333V331.656H299.404C299.159 332.168 298.833 332.552 298.428 332.808C298.033 333.064 297.553 333.192 296.988 333.192C296.305 333.192 295.708 333.016 295.196 332.664C294.695 332.312 294.305 331.811 294.028 331.16C293.761 330.509 293.628 329.747 293.628 328.872C293.628 327.987 293.761 327.224 294.028 326.584C294.305 325.933 294.695 325.432 295.196 325.08C295.708 324.728 296.305 324.552 296.988 324.552C297.553 324.552 298.044 324.68 298.46 324.936C298.876 325.181 299.191 325.565 299.404 326.088H299.468V321.16H300.748V333H299.468ZM297.34 332.04C297.735 332.04 298.092 331.976 298.412 331.848C298.732 331.709 298.988 331.517 299.18 331.272C299.372 331.016 299.468 330.712 299.468 330.36V327.288C299.468 326.979 299.372 326.707 299.18 326.472C298.988 326.237 298.732 326.051 298.412 325.912C298.092 325.773 297.735 325.704 297.34 325.704C296.625 325.704 296.055 325.933 295.628 326.392C295.212 326.84 295.004 327.432 295.004 328.168V329.576C295.004 330.312 295.212 330.909 295.628 331.368C296.055 331.816 296.625 332.04 297.34 332.04ZM305.933 333.192C305.187 333.192 304.536 333.016 303.981 332.664C303.427 332.301 302.995 331.8 302.685 331.16C302.376 330.509 302.221 329.747 302.221 328.872C302.221 327.997 302.376 327.24 302.685 326.6C302.995 325.949 303.427 325.448 303.981 325.096C304.536 324.733 305.187 324.552 305.933 324.552C306.669 324.552 307.304 324.728 307.837 325.08C308.371 325.421 308.781 325.896 309.069 326.504C309.357 327.112 309.501 327.805 309.501 328.584V329.192H303.565V329.576C303.565 330.291 303.779 330.888 304.205 331.368C304.643 331.837 305.245 332.072 306.013 332.072C306.536 332.072 306.989 331.949 307.373 331.704C307.768 331.459 308.072 331.107 308.285 330.648L309.197 331.304C308.931 331.859 308.515 332.312 307.949 332.664C307.384 333.016 306.712 333.192 305.933 333.192ZM305.933 325.624C305.475 325.624 305.064 325.731 304.701 325.944C304.349 326.157 304.072 326.456 303.869 326.84C303.667 327.213 303.565 327.64 303.565 328.12V328.232H308.125V328.056C308.125 327.565 308.035 327.139 307.853 326.776C307.672 326.413 307.416 326.131 307.085 325.928C306.755 325.725 306.371 325.624 305.933 325.624ZM314.752 322.808C314.485 322.808 314.288 322.744 314.16 322.616C314.032 322.477 313.968 322.301 313.968 322.088V321.88C313.968 321.667 314.032 321.496 314.16 321.368C314.288 321.229 314.485 321.16 314.752 321.16C315.029 321.16 315.227 321.229 315.344 321.368C315.472 321.496 315.536 321.667 315.536 321.88V322.088C315.536 322.301 315.472 322.477 315.344 322.616C315.227 322.744 315.029 322.808 314.752 322.808ZM314.112 333V324.744H315.392V333H314.112ZM318.752 333H317.472V324.744H318.752V326.088H318.816C318.997 325.661 319.253 325.299 319.584 325C319.915 324.701 320.4 324.552 321.04 324.552C321.584 324.552 322.085 324.685 322.544 324.952C323.003 325.208 323.344 325.635 323.568 326.232H323.6C323.749 325.784 324.027 325.395 324.432 325.064C324.848 324.723 325.408 324.552 326.112 324.552C326.955 324.552 327.611 324.829 328.08 325.384C328.56 325.928 328.8 326.701 328.8 327.704V333H327.52V327.928C327.52 327.203 327.376 326.653 327.088 326.28C326.8 325.896 326.341 325.704 325.712 325.704C325.381 325.704 325.067 325.763 324.768 325.88C324.469 325.987 324.229 326.157 324.048 326.392C323.867 326.627 323.776 326.92 323.776 327.272V333H322.496V327.928C322.496 327.192 322.352 326.637 322.064 326.264C321.776 325.891 321.328 325.704 320.72 325.704C320.389 325.704 320.069 325.763 319.76 325.88C319.461 325.987 319.216 326.157 319.024 326.392C318.843 326.627 318.752 326.92 318.752 327.272V333ZM330.801 336.2V324.744H332.081V326.088H332.145C332.358 325.565 332.673 325.181 333.089 324.936C333.505 324.68 333.995 324.552 334.561 324.552C335.254 324.552 335.851 324.728 336.353 325.08C336.854 325.432 337.238 325.933 337.505 326.584C337.782 327.224 337.921 327.987 337.921 328.872C337.921 329.747 337.782 330.509 337.505 331.16C337.238 331.811 336.854 332.312 336.353 332.664C335.851 333.016 335.254 333.192 334.561 333.192C333.995 333.192 333.51 333.064 333.105 332.808C332.71 332.552 332.39 332.168 332.145 331.656H332.081V336.2H330.801ZM334.209 332.04C334.934 332.04 335.505 331.816 335.921 331.368C336.337 330.909 336.545 330.312 336.545 329.576V328.168C336.545 327.432 336.337 326.84 335.921 326.392C335.505 325.933 334.934 325.704 334.209 325.704C333.825 325.704 333.467 325.773 333.137 325.912C332.817 326.051 332.561 326.237 332.369 326.472C332.177 326.707 332.081 326.979 332.081 327.288V330.36C332.081 330.712 332.177 331.016 332.369 331.272C332.561 331.517 332.817 331.709 333.137 331.848C333.467 331.976 333.825 332.04 334.209 332.04ZM340.722 333H339.442V324.744H340.722V326.264H340.802C340.898 325.997 341.047 325.752 341.25 325.528C341.453 325.293 341.714 325.107 342.034 324.968C342.354 324.819 342.738 324.744 343.186 324.744H343.682V326.024H342.93C342.471 326.024 342.077 326.088 341.746 326.216C341.415 326.333 341.159 326.493 340.978 326.696C340.807 326.899 340.722 327.133 340.722 327.4V333ZM345.317 322.808C345.05 322.808 344.853 322.744 344.725 322.616C344.597 322.477 344.533 322.301 344.533 322.088V321.88C344.533 321.667 344.597 321.496 344.725 321.368C344.853 321.229 345.05 321.16 345.317 321.16C345.594 321.16 345.792 321.229 345.909 321.368C346.037 321.496 346.101 321.667 346.101 321.88V322.088C346.101 322.301 346.037 322.477 345.909 322.616C345.792 322.744 345.594 322.808 345.317 322.808ZM344.677 333V324.744H345.957V333H344.677ZM349.317 333H348.037V324.744H349.317V326.088H349.381C349.562 325.661 349.818 325.299 350.149 325C350.48 324.701 350.965 324.552 351.605 324.552C352.149 324.552 352.65 324.685 353.109 324.952C353.568 325.208 353.909 325.635 354.133 326.232H354.165C354.314 325.784 354.592 325.395 354.997 325.064C355.413 324.723 355.973 324.552 356.677 324.552C357.52 324.552 358.176 324.829 358.645 325.384C359.125 325.928 359.365 326.701 359.365 327.704V333H358.085V327.928C358.085 327.203 357.941 326.653 357.653 326.28C357.365 325.896 356.906 325.704 356.277 325.704C355.946 325.704 355.632 325.763 355.333 325.88C355.034 325.987 354.794 326.157 354.613 326.392C354.432 326.627 354.341 326.92 354.341 327.272V333H353.061V327.928C353.061 327.192 352.917 326.637 352.629 326.264C352.341 325.891 351.893 325.704 351.285 325.704C350.954 325.704 350.634 325.763 350.325 325.88C350.026 325.987 349.781 326.157 349.589 326.392C349.408 326.627 349.317 326.92 349.317 327.272V333ZM362.006 322.808C361.739 322.808 361.542 322.744 361.414 322.616C361.286 322.477 361.222 322.301 361.222 322.088V321.88C361.222 321.667 361.286 321.496 361.414 321.368C361.542 321.229 361.739 321.16 362.006 321.16C362.283 321.16 362.48 321.229 362.598 321.368C362.726 321.496 362.79 321.667 362.79 321.88V322.088C362.79 322.301 362.726 322.477 362.598 322.616C362.48 322.744 362.283 322.808 362.006 322.808ZM361.366 333V324.744H362.646V333H361.366ZM366.006 333H364.726V324.744H366.006V326.264H366.086C366.182 325.997 366.331 325.752 366.534 325.528C366.736 325.293 366.998 325.107 367.318 324.968C367.638 324.819 368.022 324.744 368.47 324.744H368.966V326.024H368.214C367.755 326.024 367.36 326.088 367.03 326.216C366.699 326.333 366.443 326.493 366.262 326.696C366.091 326.899 366.006 327.133 366.006 327.4V333ZM372.457 333H371.321C370.883 333 370.547 332.877 370.313 332.632C370.078 332.376 369.961 332.056 369.961 331.672V321.16H371.241V331.88H372.457V333ZM380.4 333H379.68C379.339 333 379.061 332.931 378.848 332.792C378.635 332.643 378.48 332.44 378.384 332.184C378.288 331.928 378.24 331.635 378.24 331.304V331.192L378.736 331.656H378.176C378.005 332.157 377.707 332.541 377.28 332.808C376.864 333.064 376.368 333.192 375.792 333.192C374.917 333.192 374.235 332.968 373.744 332.52C373.264 332.072 373.024 331.464 373.024 330.696C373.024 330.173 373.152 329.736 373.408 329.384C373.664 329.021 374.048 328.749 374.56 328.568C375.083 328.376 375.744 328.28 376.544 328.28H378.176V327.464C378.176 326.877 378.016 326.429 377.696 326.12C377.376 325.811 376.885 325.656 376.224 325.656C375.733 325.656 375.317 325.768 374.976 325.992C374.635 326.216 374.352 326.515 374.128 326.888L373.36 326.168C373.584 325.731 373.941 325.352 374.432 325.032C374.923 324.712 375.541 324.552 376.288 324.552C377.28 324.552 378.053 324.797 378.608 325.288C379.173 325.779 379.456 326.461 379.456 327.336V331.88H380.4V333ZM378.176 329.24H376.48C375.755 329.24 375.221 329.347 374.88 329.56C374.539 329.773 374.368 330.083 374.368 330.488V330.824C374.368 331.229 374.517 331.544 374.816 331.768C375.115 331.992 375.509 332.104 376 332.104C376.427 332.104 376.8 332.04 377.12 331.912C377.451 331.773 377.707 331.592 377.888 331.368C378.08 331.133 378.176 330.877 378.176 330.6V329.24ZM384.067 333.192C383.31 333.192 382.67 333.048 382.147 332.76C381.624 332.461 381.176 332.067 380.803 331.576L381.715 330.84C382.035 331.235 382.392 331.544 382.787 331.768C383.182 331.992 383.64 332.104 384.163 332.104C384.707 332.104 385.128 331.987 385.427 331.752C385.736 331.517 385.891 331.187 385.891 330.76C385.891 330.44 385.784 330.163 385.571 329.928C385.368 329.693 384.995 329.539 384.451 329.464L383.795 329.368C383.294 329.293 382.84 329.171 382.435 329C382.03 328.819 381.71 328.568 381.475 328.248C381.251 327.917 381.139 327.496 381.139 326.984C381.139 326.163 381.416 325.555 381.971 325.16C382.536 324.755 383.24 324.552 384.083 324.552C384.531 324.552 384.926 324.605 385.267 324.712C385.619 324.819 385.934 324.973 386.211 325.176C386.488 325.368 386.739 325.603 386.963 325.88L386.115 326.648C385.934 326.392 385.667 326.163 385.315 325.96C384.963 325.747 384.52 325.64 383.987 325.64C383.464 325.64 383.064 325.757 382.787 325.992C382.51 326.216 382.371 326.525 382.371 326.92C382.371 327.315 382.504 327.608 382.771 327.8C383.048 327.981 383.443 328.115 383.955 328.2L384.595 328.296C385.512 328.435 386.163 328.701 386.547 329.096C386.931 329.48 387.123 329.987 387.123 330.616C387.123 331.149 387 331.608 386.755 331.992C386.51 332.376 386.158 332.675 385.699 332.888C385.24 333.091 384.696 333.192 384.067 333.192ZM389.482 333.192C389.151 333.192 388.906 333.107 388.746 332.936C388.586 332.755 388.506 332.531 388.506 332.264V332.056C388.506 331.779 388.586 331.555 388.746 331.384C388.906 331.213 389.151 331.128 389.482 331.128C389.823 331.128 390.068 331.213 390.218 331.384C390.378 331.555 390.458 331.779 390.458 332.056V332.264C390.458 332.531 390.378 332.755 390.218 332.936C390.068 333.107 389.823 333.192 389.482 333.192Z" fill="black"/>
<path d="M145.86 228.016L145.104 230.23H149.316L148.56 228.016C148.32 227.308 148.092 226.63 147.876 225.982C147.66 225.334 147.45 224.644 147.246 223.912H147.174C146.97 224.644 146.76 225.334 146.544 225.982C146.328 226.63 146.1 227.308 145.86 228.016ZM142.62 235L146.796 223.138H147.624L151.8 235H150.936L149.55 230.932H144.852L143.448 235H142.62ZM152.887 238.906V226.36H153.571L153.643 227.44H153.697C154.117 227.104 154.579 226.804 155.083 226.54C155.587 226.276 156.103 226.144 156.631 226.144C157.783 226.144 158.647 226.546 159.223 227.35C159.799 228.142 160.087 229.21 160.087 230.554C160.087 231.526 159.907 232.36 159.547 233.056C159.199 233.752 158.737 234.286 158.161 234.658C157.585 235.03 156.955 235.216 156.271 235.216C155.863 235.216 155.443 235.126 155.011 234.946C154.579 234.754 154.135 234.49 153.679 234.154V238.906H152.887ZM156.235 234.514C156.823 234.514 157.339 234.346 157.783 234.01C158.239 233.674 158.593 233.212 158.845 232.624C159.109 232.024 159.241 231.334 159.241 230.554C159.241 229.846 159.151 229.216 158.971 228.664C158.791 228.1 158.497 227.656 158.089 227.332C157.693 227.008 157.165 226.846 156.505 226.846C156.073 226.846 155.623 226.972 155.155 227.224C154.699 227.464 154.207 227.812 153.679 228.268V233.398C154.171 233.806 154.633 234.094 155.065 234.262C155.509 234.43 155.899 234.514 156.235 234.514ZM163.02 235.216C162.312 235.216 161.958 234.76 161.958 233.848V222.058H162.75V233.956C162.75 234.328 162.876 234.514 163.128 234.514C163.164 234.514 163.206 234.514 163.254 234.514C163.302 234.502 163.368 234.49 163.452 234.478L163.596 235.126C163.512 235.15 163.428 235.168 163.344 235.18C163.26 235.204 163.152 235.216 163.02 235.216ZM165.509 235V226.36H166.301V235H165.509ZM165.923 224.272C165.731 224.272 165.569 224.206 165.437 224.074C165.305 223.942 165.239 223.762 165.239 223.534C165.239 223.33 165.305 223.162 165.437 223.03C165.569 222.898 165.731 222.832 165.923 222.832C166.127 222.832 166.289 222.898 166.409 223.03C166.541 223.162 166.607 223.33 166.607 223.534C166.607 223.762 166.541 223.942 166.409 224.074C166.289 224.206 166.127 224.272 165.923 224.272ZM172.107 235.216C171.363 235.216 170.691 235.042 170.091 234.694C169.503 234.334 169.035 233.818 168.687 233.146C168.351 232.462 168.183 231.646 168.183 230.698C168.183 229.726 168.363 228.904 168.723 228.232C169.095 227.548 169.581 227.032 170.181 226.684C170.781 226.324 171.429 226.144 172.125 226.144C172.725 226.144 173.223 226.252 173.619 226.468C174.015 226.684 174.363 226.93 174.663 227.206L174.195 227.764C173.919 227.5 173.613 227.284 173.277 227.116C172.941 226.936 172.563 226.846 172.143 226.846C171.555 226.846 171.021 227.008 170.541 227.332C170.073 227.656 169.701 228.106 169.425 228.682C169.149 229.258 169.011 229.93 169.011 230.698C169.011 231.454 169.137 232.12 169.389 232.696C169.653 233.26 170.019 233.704 170.487 234.028C170.967 234.352 171.519 234.514 172.143 234.514C172.599 234.514 173.019 234.418 173.403 234.226C173.799 234.022 174.147 233.788 174.447 233.524L174.861 234.082C174.489 234.406 174.075 234.676 173.619 234.892C173.163 235.108 172.659 235.216 172.107 235.216ZM177.983 235.216C177.299 235.216 176.711 235.024 176.219 234.64C175.727 234.256 175.481 233.656 175.481 232.84C175.481 231.88 175.931 231.154 176.831 230.662C177.731 230.158 179.141 229.798 181.061 229.582C181.073 229.138 181.025 228.712 180.917 228.304C180.809 227.884 180.605 227.536 180.305 227.26C180.017 226.984 179.585 226.846 179.009 226.846C178.433 226.846 177.905 226.96 177.425 227.188C176.945 227.416 176.555 227.638 176.255 227.854L175.895 227.26C176.099 227.116 176.363 226.96 176.687 226.792C177.011 226.612 177.377 226.462 177.785 226.342C178.205 226.21 178.649 226.144 179.117 226.144C179.801 226.144 180.341 226.294 180.737 226.594C181.133 226.894 181.415 227.296 181.583 227.8C181.763 228.292 181.853 228.85 181.853 229.474V235H181.169L181.097 233.884H181.043C180.599 234.232 180.119 234.544 179.603 234.82C179.087 235.084 178.547 235.216 177.983 235.216ZM178.127 234.532C178.619 234.532 179.093 234.412 179.549 234.172C180.017 233.932 180.521 233.584 181.061 233.128V230.194C179.873 230.338 178.931 230.524 178.235 230.752C177.539 230.98 177.041 231.268 176.741 231.616C176.441 231.952 176.291 232.348 176.291 232.804C176.291 233.428 176.471 233.872 176.831 234.136C177.203 234.4 177.635 234.532 178.127 234.532ZM187.419 235.216C186.675 235.216 186.003 235.042 185.403 234.694C184.815 234.334 184.347 233.818 183.999 233.146C183.663 232.462 183.495 231.646 183.495 230.698C183.495 229.726 183.675 228.904 184.035 228.232C184.407 227.548 184.893 227.032 185.493 226.684C186.093 226.324 186.741 226.144 187.437 226.144C188.037 226.144 188.535 226.252 188.931 226.468C189.327 226.684 189.675 226.93 189.975 227.206L189.507 227.764C189.231 227.5 188.925 227.284 188.589 227.116C188.253 226.936 187.875 226.846 187.455 226.846C186.867 226.846 186.333 227.008 185.853 227.332C185.385 227.656 185.013 228.106 184.737 228.682C184.461 229.258 184.323 229.93 184.323 230.698C184.323 231.454 184.449 232.12 184.701 232.696C184.965 233.26 185.331 233.704 185.799 234.028C186.279 234.352 186.831 234.514 187.455 234.514C187.911 234.514 188.331 234.418 188.715 234.226C189.111 234.022 189.459 233.788 189.759 233.524L190.173 234.082C189.801 234.406 189.387 234.676 188.931 234.892C188.475 235.108 187.971 235.216 187.419 235.216ZM191.58 235V226.36H192.372V235H191.58ZM191.994 224.272C191.802 224.272 191.64 224.206 191.508 224.074C191.376 223.942 191.31 223.762 191.31 223.534C191.31 223.33 191.376 223.162 191.508 223.03C191.64 222.898 191.802 222.832 191.994 222.832C192.198 222.832 192.36 222.898 192.48 223.03C192.612 223.162 192.678 223.33 192.678 223.534C192.678 223.762 192.612 223.942 192.48 224.074C192.36 224.206 192.198 224.272 191.994 224.272ZM198.124 235.216C197.44 235.216 196.804 235.042 196.216 234.694C195.628 234.334 195.154 233.818 194.794 233.146C194.434 232.462 194.254 231.646 194.254 230.698C194.254 229.726 194.434 228.904 194.794 228.232C195.154 227.548 195.628 227.032 196.216 226.684C196.804 226.324 197.44 226.144 198.124 226.144C198.82 226.144 199.462 226.324 200.05 226.684C200.638 227.032 201.112 227.548 201.472 228.232C201.832 228.904 202.012 229.726 202.012 230.698C202.012 231.646 201.832 232.462 201.472 233.146C201.112 233.818 200.638 234.334 200.05 234.694C199.462 235.042 198.82 235.216 198.124 235.216ZM198.124 234.514C198.712 234.514 199.234 234.352 199.69 234.028C200.146 233.704 200.506 233.26 200.77 232.696C201.046 232.12 201.184 231.454 201.184 230.698C201.184 229.93 201.046 229.258 200.77 228.682C200.506 228.106 200.146 227.656 199.69 227.332C199.234 227.008 198.712 226.846 198.124 226.846C197.548 226.846 197.026 227.008 196.558 227.332C196.102 227.656 195.742 228.106 195.478 228.682C195.214 229.258 195.082 229.93 195.082 230.698C195.082 231.454 195.214 232.12 195.478 232.696C195.742 233.26 196.102 233.704 196.558 234.028C197.026 234.352 197.548 234.514 198.124 234.514ZM197.602 224.668L197.17 224.254L199.582 221.428L200.194 221.95L197.602 224.668ZM203.887 235V226.36H204.571L204.643 227.692H204.697C205.141 227.248 205.597 226.882 206.065 226.594C206.545 226.294 207.079 226.144 207.667 226.144C208.555 226.144 209.209 226.42 209.629 226.972C210.061 227.512 210.277 228.34 210.277 229.456V235H209.485V229.564C209.485 228.64 209.329 227.962 209.017 227.53C208.717 227.086 208.213 226.864 207.505 226.864C206.989 226.864 206.521 227.002 206.101 227.278C205.681 227.542 205.207 227.944 204.679 228.484V235H203.887ZM215.63 235V226.36H216.314L216.386 227.692H216.44C216.824 227.248 217.25 226.882 217.718 226.594C218.198 226.294 218.678 226.144 219.158 226.144C219.854 226.144 220.388 226.306 220.76 226.63C221.132 226.954 221.396 227.38 221.552 227.908C222.044 227.368 222.53 226.942 223.01 226.63C223.502 226.306 223.994 226.144 224.486 226.144C226.214 226.144 227.078 227.248 227.078 229.456V235H226.268V229.564C226.268 227.764 225.626 226.864 224.342 226.864C223.574 226.864 222.71 227.404 221.75 228.484V235H220.958V229.564C220.958 228.64 220.802 227.962 220.49 227.53C220.178 227.086 219.686 226.864 219.014 226.864C218.246 226.864 217.382 227.404 216.422 228.484V235H215.63ZM232.668 235.216C231.984 235.216 231.348 235.042 230.76 234.694C230.172 234.334 229.698 233.818 229.338 233.146C228.978 232.462 228.798 231.646 228.798 230.698C228.798 229.726 228.978 228.904 229.338 228.232C229.698 227.548 230.172 227.032 230.76 226.684C231.348 226.324 231.984 226.144 232.668 226.144C233.364 226.144 234.006 226.324 234.594 226.684C235.182 227.032 235.656 227.548 236.016 228.232C236.376 228.904 236.556 229.726 236.556 230.698C236.556 231.646 236.376 232.462 236.016 233.146C235.656 233.818 235.182 234.334 234.594 234.694C234.006 235.042 233.364 235.216 232.668 235.216ZM232.668 234.514C233.256 234.514 233.778 234.352 234.234 234.028C234.69 233.704 235.05 233.26 235.314 232.696C235.59 232.12 235.728 231.454 235.728 230.698C235.728 229.93 235.59 229.258 235.314 228.682C235.05 228.106 234.69 227.656 234.234 227.332C233.778 227.008 233.256 226.846 232.668 226.846C232.092 226.846 231.57 227.008 231.102 227.332C230.646 227.656 230.286 228.106 230.022 228.682C229.758 229.258 229.626 229.93 229.626 230.698C229.626 231.454 229.758 232.12 230.022 232.696C230.286 233.26 230.646 233.704 231.102 234.028C231.57 234.352 232.092 234.514 232.668 234.514ZM240.23 235L236.99 226.36H237.854L239.798 231.778C239.93 232.186 240.074 232.606 240.23 233.038C240.386 233.458 240.53 233.866 240.662 234.262H240.734C240.878 233.866 241.022 233.458 241.166 233.038C241.322 232.606 241.472 232.186 241.616 231.778L243.56 226.36H244.37L241.166 235H240.23ZM245.515 235V226.36H246.307V235H245.515ZM245.929 224.272C245.737 224.272 245.575 224.206 245.443 224.074C245.311 223.942 245.245 223.762 245.245 223.534C245.245 223.33 245.311 223.162 245.443 223.03C245.575 222.898 245.737 222.832 245.929 222.832C246.133 222.832 246.295 222.898 246.415 223.03C246.547 223.162 246.613 223.33 246.613 223.534C246.613 223.762 246.547 223.942 246.415 224.074C246.295 224.206 246.133 224.272 245.929 224.272ZM249.97 235.216C249.262 235.216 248.908 234.76 248.908 233.848V222.058H249.7V233.956C249.7 234.328 249.826 234.514 250.078 234.514C250.114 234.514 250.156 234.514 250.204 234.514C250.252 234.502 250.318 234.49 250.402 234.478L250.546 235.126C250.462 235.15 250.378 235.168 250.294 235.18C250.21 235.204 250.102 235.216 249.97 235.216Z" fill="black"/>
</svg>
