<svg width="1280" height="917" viewBox="0 0 1280 917" fill="none" xmlns="http://www.w3.org/2000/svg">
<path d="M571.993 210H567.259V209.1H569.095V198.336H567.259V197.436H571.993V198.336H570.157V209.1H571.993V210ZM575.101 210H574.075V200.784H575.101V202.242H575.155C575.347 201.786 575.641 201.396 576.037 201.072C576.433 200.736 577.009 200.568 577.765 200.568C578.425 200.568 579.007 200.724 579.511 201.036C580.027 201.348 580.393 201.84 580.609 202.512H580.663C580.831 201.972 581.149 201.516 581.617 201.144C582.097 200.76 582.745 200.568 583.561 200.568C584.533 200.568 585.283 200.874 585.811 201.486C586.339 202.086 586.603 202.95 586.603 204.078V210H585.577V204.258C585.577 203.334 585.385 202.644 585.001 202.188C584.629 201.72 584.053 201.486 583.273 201.486C582.853 201.486 582.457 201.564 582.085 201.72C581.713 201.864 581.413 202.092 581.185 202.404C580.969 202.704 580.861 203.082 580.861 203.538V210H579.835V204.258C579.835 203.322 579.643 202.626 579.259 202.17C578.875 201.714 578.299 201.486 577.531 201.486C577.111 201.486 576.715 201.564 576.343 201.72C575.971 201.864 575.671 202.086 575.443 202.386C575.215 202.686 575.101 203.064 575.101 203.52V210ZM589.105 213.6V200.784H590.131V202.26H590.185C590.413 201.744 590.761 201.336 591.229 201.036C591.709 200.724 592.297 200.568 592.993 200.568C593.785 200.568 594.463 200.76 595.027 201.144C595.591 201.516 596.023 202.062 596.323 202.782C596.635 203.502 596.791 204.372 596.791 205.392C596.791 206.4 596.635 207.27 596.323 208.002C596.023 208.722 595.591 209.274 595.027 209.658C594.463 210.03 593.785 210.216 592.993 210.216C592.297 210.216 591.715 210.06 591.247 209.748C590.791 209.436 590.437 209.028 590.185 208.524H590.131V213.6H589.105ZM592.759 209.298C593.683 209.298 594.403 209.004 594.919 208.416C595.435 207.816 595.693 207.024 595.693 206.04V204.744C595.693 203.748 595.435 202.956 594.919 202.368C594.403 201.78 593.683 201.486 592.759 201.486C592.291 201.486 591.853 201.576 591.445 201.756C591.049 201.924 590.731 202.164 590.491 202.476C590.251 202.776 590.131 203.13 590.131 203.538V207.192C590.131 207.612 590.251 207.984 590.491 208.308C590.731 208.62 591.049 208.866 591.445 209.046C591.853 209.214 592.291 209.298 592.759 209.298ZM599.747 210H598.721V200.784H599.747V202.44H599.819C599.939 202.14 600.113 201.87 600.341 201.63C600.569 201.378 600.863 201.174 601.223 201.018C601.595 200.862 602.045 200.784 602.573 200.784H603.185V201.792H602.375C601.859 201.792 601.403 201.87 601.007 202.026C600.611 202.182 600.299 202.404 600.071 202.692C599.855 202.968 599.747 203.304 599.747 203.7V210ZM607.676 210.216C606.86 210.216 606.146 210.024 605.534 209.64C604.934 209.256 604.466 208.704 604.13 207.984C603.806 207.264 603.644 206.4 603.644 205.392C603.644 204.384 603.806 203.52 604.13 202.8C604.466 202.08 604.934 201.528 605.534 201.144C606.134 200.76 606.842 200.568 607.658 200.568C608.45 200.568 609.134 200.76 609.71 201.144C610.286 201.516 610.736 202.044 611.06 202.728C611.384 203.412 611.546 204.204 611.546 205.104V205.59H604.724V206.04C604.724 207.012 604.988 207.804 605.516 208.416C606.044 209.016 606.782 209.316 607.73 209.316C608.39 209.316 608.954 209.16 609.422 208.848C609.902 208.524 610.268 208.062 610.52 207.462L611.276 207.966C610.988 208.638 610.532 209.184 609.908 209.604C609.296 210.012 608.552 210.216 607.676 210.216ZM607.658 201.432C607.058 201.432 606.536 201.57 606.092 201.846C605.66 202.122 605.324 202.506 605.084 202.998C604.844 203.49 604.724 204.06 604.724 204.708V204.798H610.43V204.654C610.43 204.006 610.316 203.442 610.088 202.962C609.86 202.482 609.536 202.11 609.116 201.846C608.696 201.57 608.21 201.432 607.658 201.432ZM616.046 210.216C615.242 210.216 614.552 210.066 613.976 209.766C613.412 209.454 612.92 209.016 612.5 208.452L613.256 207.858C613.64 208.35 614.06 208.722 614.516 208.974C614.972 209.214 615.506 209.334 616.118 209.334C616.826 209.334 617.372 209.184 617.756 208.884C618.14 208.572 618.332 208.14 618.332 207.588C618.332 207.108 618.182 206.724 617.882 206.436C617.594 206.148 617.114 205.956 616.442 205.86L615.686 205.734C615.134 205.65 614.642 205.512 614.21 205.32C613.778 205.128 613.442 204.858 613.202 204.51C612.974 204.15 612.86 203.694 612.86 203.142C612.86 202.278 613.16 201.636 613.76 201.216C614.36 200.784 615.104 200.568 615.992 200.568C616.508 200.568 616.958 200.628 617.342 200.748C617.726 200.868 618.062 201.036 618.35 201.252C618.65 201.468 618.914 201.714 619.142 201.99L618.458 202.62C618.218 202.32 617.9 202.05 617.504 201.81C617.108 201.57 616.586 201.45 615.938 201.45C615.278 201.45 614.762 201.594 614.39 201.882C614.03 202.17 613.85 202.572 613.85 203.088C613.85 203.628 614.012 204.024 614.336 204.276C614.672 204.516 615.17 204.69 615.83 204.798L616.568 204.906C617.504 205.05 618.194 205.332 618.638 205.752C619.094 206.16 619.322 206.736 619.322 207.48C619.322 208.056 619.19 208.548 618.926 208.956C618.662 209.364 618.284 209.676 617.792 209.892C617.312 210.108 616.73 210.216 616.046 210.216ZM621.798 198.282C621.558 198.282 621.378 198.222 621.258 198.102C621.15 197.982 621.096 197.826 621.096 197.634V197.454C621.096 197.262 621.15 197.106 621.258 196.986C621.378 196.866 621.558 196.806 621.798 196.806C622.05 196.806 622.23 196.866 622.338 196.986C622.446 197.106 622.5 197.262 622.5 197.454V197.634C622.5 197.826 622.446 197.982 622.338 198.102C622.23 198.222 622.05 198.282 621.798 198.282ZM621.294 210V200.784H622.32V210H621.294ZM628.245 210.216C627.429 210.216 626.721 210.024 626.121 209.64C625.521 209.256 625.053 208.704 624.717 207.984C624.381 207.264 624.213 206.4 624.213 205.392C624.213 204.384 624.381 203.52 624.717 202.8C625.053 202.08 625.521 201.528 626.121 201.144C626.721 200.76 627.429 200.568 628.245 200.568C629.061 200.568 629.769 200.76 630.369 201.144C630.981 201.528 631.449 202.08 631.773 202.8C632.109 203.52 632.277 204.384 632.277 205.392C632.277 206.4 632.109 207.264 631.773 207.984C631.449 208.704 630.981 209.256 630.369 209.64C629.769 210.024 629.061 210.216 628.245 210.216ZM628.245 209.298C629.145 209.298 629.859 209.016 630.387 208.452C630.915 207.876 631.179 207.048 631.179 205.968V204.816C631.179 203.736 630.915 202.914 630.387 202.35C629.859 201.774 629.145 201.486 628.245 201.486C627.357 201.486 626.649 201.774 626.121 202.35C625.593 202.914 625.329 203.736 625.329 204.816V205.968C625.329 207.048 625.593 207.876 626.121 208.452C626.649 209.016 627.357 209.298 628.245 209.298ZM630.171 196.644L628.191 199.452L627.525 199.128L629.235 196.176L630.171 196.644ZM635.188 210H634.162V200.784H635.188V202.242H635.242C635.446 201.762 635.764 201.366 636.196 201.054C636.628 200.73 637.216 200.568 637.96 200.568C638.944 200.568 639.706 200.874 640.246 201.486C640.798 202.086 641.074 202.95 641.074 204.078V210H640.048V204.258C640.048 203.322 639.844 202.626 639.436 202.17C639.04 201.714 638.458 201.486 637.69 201.486C637.258 201.486 636.85 201.564 636.466 201.72C636.082 201.864 635.77 202.086 635.53 202.386C635.302 202.686 635.188 203.064 635.188 203.52V210ZM650.539 210H648.703C648.343 210 648.061 209.898 647.857 209.694C647.665 209.478 647.569 209.202 647.569 208.866V201.684H645.967V200.784H647.011C647.263 200.784 647.431 200.73 647.515 200.622C647.611 200.514 647.659 200.334 647.659 200.082V198.21H648.595V200.784H650.683V201.684H648.595V209.1H650.539V210ZM655.652 210.216C654.836 210.216 654.122 210.024 653.51 209.64C652.91 209.256 652.442 208.704 652.106 207.984C651.782 207.264 651.62 206.4 651.62 205.392C651.62 204.384 651.782 203.52 652.106 202.8C652.442 202.08 652.91 201.528 653.51 201.144C654.11 200.76 654.818 200.568 655.634 200.568C656.426 200.568 657.11 200.76 657.686 201.144C658.262 201.516 658.712 202.044 659.036 202.728C659.36 203.412 659.522 204.204 659.522 205.104V205.59H652.7V206.04C652.7 207.012 652.964 207.804 653.492 208.416C654.02 209.016 654.758 209.316 655.706 209.316C656.366 209.316 656.93 209.16 657.398 208.848C657.878 208.524 658.244 208.062 658.496 207.462L659.252 207.966C658.964 208.638 658.508 209.184 657.884 209.604C657.272 210.012 656.528 210.216 655.652 210.216ZM655.634 201.432C655.034 201.432 654.512 201.57 654.068 201.846C653.636 202.122 653.3 202.506 653.06 202.998C652.82 203.49 652.7 204.06 652.7 204.708V204.798H658.406V204.654C658.406 204.006 658.292 203.442 658.064 202.962C657.836 202.482 657.512 202.11 657.092 201.846C656.672 201.57 656.186 201.432 655.634 201.432ZM657.56 196.644L655.58 199.452L654.914 199.128L656.624 196.176L657.56 196.644ZM662.437 210H661.411V200.784H662.437V202.44H662.509C662.629 202.14 662.803 201.87 663.031 201.63C663.259 201.378 663.553 201.174 663.913 201.018C664.285 200.862 664.735 200.784 665.263 200.784H665.875V201.792H665.065C664.549 201.792 664.093 201.87 663.697 202.026C663.301 202.182 662.989 202.404 662.761 202.692C662.545 202.968 662.437 203.304 662.437 203.7V210ZM668.151 210H667.125V200.784H668.151V202.242H668.205C668.397 201.786 668.691 201.396 669.087 201.072C669.483 200.736 670.059 200.568 670.815 200.568C671.475 200.568 672.057 200.724 672.561 201.036C673.077 201.348 673.443 201.84 673.659 202.512H673.713C673.881 201.972 674.199 201.516 674.667 201.144C675.147 200.76 675.795 200.568 676.611 200.568C677.583 200.568 678.333 200.874 678.861 201.486C679.389 202.086 679.653 202.95 679.653 204.078V210H678.627V204.258C678.627 203.334 678.435 202.644 678.051 202.188C677.679 201.72 677.103 201.486 676.323 201.486C675.903 201.486 675.507 201.564 675.135 201.72C674.763 201.864 674.463 202.092 674.235 202.404C674.019 202.704 673.911 203.082 673.911 203.538V210H672.885V204.258C672.885 203.322 672.693 202.626 672.309 202.17C671.925 201.714 671.349 201.486 670.581 201.486C670.161 201.486 669.765 201.564 669.393 201.72C669.021 201.864 668.721 202.086 668.493 202.386C668.265 202.686 668.151 203.064 668.151 203.52V210ZM682.659 198.282C682.419 198.282 682.239 198.222 682.119 198.102C682.011 197.982 681.957 197.826 681.957 197.634V197.454C681.957 197.262 682.011 197.106 682.119 196.986C682.239 196.866 682.419 196.806 682.659 196.806C682.911 196.806 683.091 196.866 683.199 196.986C683.307 197.106 683.361 197.262 683.361 197.454V197.634C683.361 197.826 683.307 197.982 683.199 198.102C683.091 198.222 682.911 198.282 682.659 198.282ZM682.155 210V200.784H683.181V210H682.155ZM689.07 210.216C687.81 210.216 686.826 209.796 686.118 208.956C685.422 208.104 685.074 206.916 685.074 205.392C685.074 203.868 685.422 202.686 686.118 201.846C686.826 200.994 687.81 200.568 689.07 200.568C689.922 200.568 690.612 200.76 691.14 201.144C691.68 201.516 692.082 202.002 692.346 202.602L691.482 203.034C691.278 202.53 690.972 202.146 690.564 201.882C690.168 201.618 689.67 201.486 689.07 201.486C688.134 201.486 687.42 201.786 686.928 202.386C686.436 202.974 686.19 203.76 686.19 204.744V206.04C686.19 207.012 686.436 207.798 686.928 208.398C687.42 208.998 688.134 209.298 689.07 209.298C689.706 209.298 690.24 209.16 690.672 208.884C691.104 208.608 691.452 208.212 691.716 207.696L692.472 208.2C692.172 208.8 691.74 209.286 691.176 209.658C690.624 210.03 689.922 210.216 689.07 210.216ZM701.419 210H700.375C700.099 210 699.871 209.946 699.691 209.838C699.511 209.718 699.379 209.556 699.295 209.352C699.223 209.148 699.187 208.908 699.187 208.632V208.146L699.601 208.542H699.115C698.911 209.046 698.575 209.454 698.107 209.766C697.639 210.066 697.045 210.216 696.325 210.216C695.353 210.216 694.603 209.976 694.075 209.496C693.547 209.016 693.283 208.35 693.283 207.498C693.283 206.946 693.409 206.472 693.661 206.076C693.925 205.68 694.327 205.374 694.867 205.158C695.419 204.942 696.139 204.834 697.027 204.834H699.151V203.754C699.151 202.986 698.953 202.41 698.557 202.026C698.161 201.642 697.573 201.45 696.793 201.45C696.193 201.45 695.683 201.582 695.263 201.846C694.855 202.11 694.525 202.482 694.273 202.962L693.625 202.422C693.877 201.894 694.261 201.456 694.777 201.108C695.305 200.748 695.989 200.568 696.829 200.568C697.897 200.568 698.719 200.838 699.295 201.378C699.883 201.918 700.177 202.674 700.177 203.646V209.1H701.419V210ZM699.151 205.608H696.991C696.079 205.608 695.413 205.758 694.993 206.058C694.573 206.346 694.363 206.748 694.363 207.264V207.696C694.363 208.224 694.555 208.632 694.939 208.92C695.335 209.196 695.845 209.334 696.469 209.334C696.973 209.334 697.423 209.256 697.819 209.1C698.227 208.932 698.551 208.698 698.791 208.398C699.031 208.086 699.151 207.726 699.151 207.318V205.608Z" fill="black"/>
<rect x="490" y="226" width="288" height="42" fill="#FDCDFF"/>
<path d="M516.362 261V240.12H509.018V235.8H528.458V240.12H521.114V261H516.362ZM535.159 261.504C533.383 261.504 531.811 261.132 530.443 260.388C529.099 259.62 528.043 258.552 527.275 257.184C526.531 255.792 526.159 254.16 526.159 252.288V251.856C526.159 249.984 526.531 248.364 527.275 246.996C528.019 245.604 529.063 244.536 530.407 243.792C531.751 243.024 533.311 242.64 535.087 242.64C536.839 242.64 538.363 243.036 539.659 243.828C540.955 244.596 541.963 245.676 542.683 247.068C543.403 248.436 543.763 250.032 543.763 251.856V253.404H530.767C530.815 254.628 531.271 255.624 532.135 256.392C532.999 257.16 534.055 257.544 535.303 257.544C536.575 257.544 537.511 257.268 538.111 256.716C538.711 256.164 539.167 255.552 539.479 254.88L543.187 256.824C542.851 257.448 542.359 258.132 541.711 258.876C541.087 259.596 540.247 260.22 539.191 260.748C538.135 261.252 536.791 261.504 535.159 261.504ZM530.803 250.02H539.155C539.059 248.988 538.639 248.16 537.895 247.536C537.175 246.912 536.227 246.6 535.051 246.6C533.827 246.6 532.855 246.912 532.135 247.536C531.415 248.16 530.971 248.988 530.803 250.02ZM554.749 261.504C553.021 261.504 551.449 261.144 550.033 260.424C548.641 259.704 547.537 258.66 546.721 257.292C545.905 255.924 545.497 254.268 545.497 252.324V251.82C545.497 249.876 545.905 248.22 546.721 246.852C547.537 245.484 548.641 244.44 550.033 243.72C551.449 243 553.021 242.64 554.749 242.64C556.453 242.64 557.917 242.94 559.141 243.54C560.365 244.14 561.349 244.968 562.093 246.024C562.861 247.056 563.365 248.232 563.605 249.552L559.213 250.488C559.117 249.768 558.901 249.12 558.565 248.544C558.229 247.968 557.749 247.512 557.125 247.176C556.525 246.84 555.769 246.672 554.857 246.672C553.945 246.672 553.117 246.876 552.373 247.284C551.653 247.668 551.077 248.256 550.645 249.048C550.237 249.816 550.033 250.764 550.033 251.892V252.252C550.033 253.38 550.237 254.34 550.645 255.132C551.077 255.9 551.653 256.488 552.373 256.896C553.117 257.28 553.945 257.472 554.857 257.472C556.225 257.472 557.257 257.124 557.953 256.428C558.673 255.708 559.129 254.772 559.321 253.62L563.713 254.664C563.401 255.936 562.861 257.1 562.093 258.156C561.349 259.188 560.365 260.004 559.141 260.604C557.917 261.204 556.453 261.504 554.749 261.504ZM566.014 261V243.144H570.478V245.484H571.126C571.414 244.86 571.954 244.272 572.746 243.72C573.538 243.144 574.738 242.856 576.346 242.856C577.738 242.856 578.95 243.18 579.982 243.828C581.038 244.452 581.854 245.328 582.43 246.456C583.006 247.56 583.294 248.856 583.294 250.344V261H578.758V250.704C578.758 249.36 578.422 248.352 577.75 247.68C577.102 247.008 576.166 246.672 574.942 246.672C573.55 246.672 572.47 247.14 571.702 248.076C570.934 248.988 570.55 250.272 570.55 251.928V261H566.014ZM595.254 261.504C593.478 261.504 591.882 261.144 590.466 260.424C589.05 259.704 587.934 258.66 587.118 257.292C586.302 255.924 585.894 254.28 585.894 252.36V251.784C585.894 249.864 586.302 248.22 587.118 246.852C587.934 245.484 589.05 244.44 590.466 243.72C591.882 243 593.478 242.64 595.254 242.64C597.03 242.64 598.626 243 600.042 243.72C601.458 244.44 602.574 245.484 603.39 246.852C604.206 248.22 604.614 249.864 604.614 251.784V252.36C604.614 254.28 604.206 255.924 603.39 257.292C602.574 258.66 601.458 259.704 600.042 260.424C598.626 261.144 597.03 261.504 595.254 261.504ZM595.254 257.472C596.646 257.472 597.798 257.028 598.71 256.14C599.622 255.228 600.078 253.932 600.078 252.252V251.892C600.078 250.212 599.622 248.928 598.71 248.04C597.822 247.128 596.67 246.672 595.254 246.672C593.862 246.672 592.71 247.128 591.798 248.04C590.886 248.928 590.43 250.212 590.43 251.892V252.252C590.43 253.932 590.886 255.228 591.798 256.14C592.71 257.028 593.862 257.472 595.254 257.472ZM607.361 261V235.8H611.897V261H607.361ZM623.979 261.504C622.203 261.504 620.607 261.144 619.191 260.424C617.775 259.704 616.659 258.66 615.843 257.292C615.027 255.924 614.619 254.28 614.619 252.36V251.784C614.619 249.864 615.027 248.22 615.843 246.852C616.659 245.484 617.775 244.44 619.191 243.72C620.607 243 622.203 242.64 623.979 242.64C625.755 242.64 627.351 243 628.767 243.72C630.183 244.44 631.299 245.484 632.115 246.852C632.931 248.22 633.339 249.864 633.339 251.784V252.36C633.339 254.28 632.931 255.924 632.115 257.292C631.299 258.66 630.183 259.704 628.767 260.424C627.351 261.144 625.755 261.504 623.979 261.504ZM623.979 257.472C625.371 257.472 626.523 257.028 627.435 256.14C628.347 255.228 628.803 253.932 628.803 252.252V251.892C628.803 250.212 628.347 248.928 627.435 248.04C626.547 247.128 625.395 246.672 623.979 246.672C622.587 246.672 621.435 247.128 620.523 248.04C619.611 248.928 619.155 250.212 619.155 251.892V252.252C619.155 253.932 619.611 255.228 620.523 256.14C621.435 257.028 622.587 257.472 623.979 257.472ZM635.222 252.144V251.568C635.222 249.696 635.594 248.1 636.338 246.78C637.082 245.436 638.066 244.416 639.29 243.72C640.538 243 641.894 242.64 643.358 242.64C644.99 242.64 646.226 242.928 647.066 243.504C647.906 244.08 648.518 244.68 648.902 245.304H649.55V243.144H654.014V264.168C654.014 265.392 653.654 266.364 652.934 267.084C652.214 267.828 651.254 268.2 650.054 268.2H638.102V264.24H648.47C649.142 264.24 649.478 263.88 649.478 263.16V258.516H648.83C648.59 258.9 648.254 259.296 647.822 259.704C647.39 260.088 646.814 260.412 646.094 260.676C645.374 260.94 644.462 261.072 643.358 261.072C641.894 261.072 640.538 260.724 639.29 260.028C638.066 259.308 637.082 258.288 636.338 256.968C635.594 255.624 635.222 254.016 635.222 252.144ZM644.654 257.112C646.046 257.112 647.21 256.668 648.146 255.78C649.082 254.892 649.55 253.644 649.55 252.036V251.676C649.55 250.044 649.082 248.796 648.146 247.932C647.234 247.044 646.07 246.6 644.654 246.6C643.262 246.6 642.098 247.044 641.162 247.932C640.226 248.796 639.758 250.044 639.758 251.676V252.036C639.758 253.644 640.226 254.892 641.162 255.78C642.098 256.668 643.262 257.112 644.654 257.112ZM657.603 261V243.144H662.139V261H657.603ZM657.135 241.128L659.799 235.8H664.911L661.095 241.128H657.135ZM671.27 261.504C669.998 261.504 668.858 261.288 667.85 260.856C666.842 260.4 666.038 259.752 665.438 258.912C664.862 258.048 664.574 257.004 664.574 255.78C664.574 254.556 664.862 253.536 665.438 252.72C666.038 251.88 666.854 251.256 667.886 250.848C668.942 250.416 670.142 250.2 671.486 250.2H676.382V249.192C676.382 248.352 676.118 247.668 675.59 247.14C675.062 246.588 674.222 246.312 673.07 246.312C671.942 246.312 671.102 246.576 670.55 247.104C669.998 247.608 669.638 248.268 669.47 249.084L665.294 247.68C665.582 246.768 666.038 245.94 666.662 245.196C667.31 244.428 668.162 243.816 669.218 243.36C670.298 242.88 671.606 242.64 673.142 242.64C675.494 242.64 677.354 243.228 678.722 244.404C680.09 245.58 680.774 247.284 680.774 249.516V256.176C680.774 256.896 681.11 257.256 681.782 257.256H683.222V261H680.198C679.31 261 678.578 260.784 678.002 260.352C677.426 259.92 677.138 259.344 677.138 258.624V258.588H676.454C676.358 258.876 676.142 259.26 675.806 259.74C675.47 260.196 674.942 260.604 674.222 260.964C673.502 261.324 672.518 261.504 671.27 261.504ZM672.062 257.832C673.334 257.832 674.366 257.484 675.158 256.788C675.974 256.068 676.382 255.12 676.382 253.944V253.584H671.81C670.97 253.584 670.31 253.764 669.83 254.124C669.35 254.484 669.11 254.988 669.11 255.636C669.11 256.284 669.362 256.812 669.866 257.22C670.37 257.628 671.102 257.832 672.062 257.832ZM691.935 261V254.952L704.391 240.624V240.048H692.295V235.8H709.359V241.848L696.903 256.176V256.752H709.431V261H691.935ZM711.957 261V235.8H716.709V261H711.957ZM720.009 261V235.8H729.045L734.049 257.76H734.697V235.8H739.377V261H730.341L725.337 239.04H724.689V261H720.009ZM742.687 261V235.8H747.439V245.808H748.087L756.259 235.8H762.343L751.831 248.22L762.703 261H756.439L748.087 250.776H747.439V261H742.687Z" fill="black"/>
<path d="M501.771 288.832H503.115V295.744C503.115 296.448 503.2 297.045 503.371 297.536C503.541 298.016 503.819 298.379 504.203 298.624C504.597 298.869 505.125 298.992 505.787 298.992C506.448 298.992 506.971 298.869 507.355 298.624C507.749 298.379 508.032 298.016 508.203 297.536C508.373 297.045 508.459 296.448 508.459 295.744V288.832H509.803V295.424C509.803 296.501 509.669 297.397 509.403 298.112C509.147 298.816 508.72 299.339 508.123 299.68C507.525 300.021 506.731 300.192 505.739 300.192C504.747 300.192 503.963 300.021 503.387 299.68C502.811 299.339 502.395 298.816 502.139 298.112C501.893 297.397 501.771 296.501 501.771 295.424V288.832ZM513.207 300H511.927V291.744H513.207V293.088H513.271C513.473 292.619 513.756 292.245 514.119 291.968C514.492 291.691 514.988 291.552 515.607 291.552C516.46 291.552 517.132 291.829 517.623 292.384C518.124 292.928 518.375 293.701 518.375 294.704V300H517.095V294.928C517.095 294.192 516.935 293.637 516.615 293.264C516.305 292.891 515.841 292.704 515.223 292.704C514.881 292.704 514.556 292.763 514.247 292.88C513.937 292.987 513.687 293.157 513.495 293.392C513.303 293.627 513.207 293.92 513.207 294.272V300ZM523.522 303.2V291.744H524.802V293.088H524.866C525.079 292.565 525.394 292.181 525.81 291.936C526.226 291.68 526.716 291.552 527.282 291.552C527.975 291.552 528.572 291.728 529.074 292.08C529.575 292.432 529.959 292.933 530.226 293.584C530.503 294.224 530.642 294.987 530.642 295.872C530.642 296.747 530.503 297.509 530.226 298.16C529.959 298.811 529.575 299.312 529.074 299.664C528.572 300.016 527.975 300.192 527.282 300.192C526.716 300.192 526.231 300.064 525.826 299.808C525.431 299.552 525.111 299.168 524.866 298.656H524.802V303.2H523.522ZM526.93 299.04C527.655 299.04 528.226 298.816 528.642 298.368C529.058 297.909 529.266 297.312 529.266 296.576V295.168C529.266 294.432 529.058 293.84 528.642 293.392C528.226 292.933 527.655 292.704 526.93 292.704C526.546 292.704 526.188 292.773 525.858 292.912C525.538 293.051 525.282 293.237 525.09 293.472C524.898 293.707 524.802 293.979 524.802 294.288V297.36C524.802 297.712 524.898 298.016 525.09 298.272C525.282 298.517 525.538 298.709 525.858 298.848C526.188 298.976 526.546 299.04 526.93 299.04ZM533.443 300H532.163V291.744H533.443V293.264H533.523C533.619 292.997 533.768 292.752 533.971 292.528C534.173 292.293 534.435 292.107 534.755 291.968C535.075 291.819 535.459 291.744 535.907 291.744H536.403V293.024H535.651C535.192 293.024 534.797 293.088 534.467 293.216C534.136 293.333 533.88 293.493 533.699 293.696C533.528 293.899 533.443 294.133 533.443 294.4V300ZM540.44 300.192C539.704 300.192 539.053 300.016 538.488 299.664C537.933 299.301 537.496 298.8 537.176 298.16C536.866 297.509 536.712 296.747 536.712 295.872C536.712 294.997 536.866 294.24 537.176 293.6C537.496 292.949 537.933 292.448 538.488 292.096C539.053 291.733 539.704 291.552 540.44 291.552C541.176 291.552 541.821 291.733 542.376 292.096C542.941 292.448 543.378 292.949 543.688 293.6C544.008 294.24 544.168 294.997 544.168 295.872C544.168 296.747 544.008 297.509 543.688 298.16C543.378 298.8 542.941 299.301 542.376 299.664C541.821 300.016 541.176 300.192 540.44 300.192ZM540.44 299.056C541.133 299.056 541.698 298.843 542.136 298.416C542.573 297.989 542.792 297.339 542.792 296.464V295.28C542.792 294.405 542.573 293.755 542.136 293.328C541.698 292.901 541.133 292.688 540.44 292.688C539.757 292.688 539.192 292.901 538.744 293.328C538.306 293.755 538.088 294.405 538.088 295.28V296.464C538.088 297.339 538.306 297.989 538.744 298.416C539.192 298.843 539.757 299.056 540.44 299.056ZM548.705 300.192C547.542 300.192 546.635 299.803 545.985 299.024C545.345 298.245 545.025 297.195 545.025 295.872C545.025 294.549 545.345 293.499 545.985 292.72C546.635 291.941 547.542 291.552 548.705 291.552C549.526 291.552 550.187 291.733 550.689 292.096C551.19 292.459 551.558 292.923 551.793 293.488L550.721 294.032C550.571 293.605 550.321 293.275 549.969 293.04C549.627 292.805 549.206 292.688 548.705 292.688C547.947 292.688 547.371 292.923 546.977 293.392C546.593 293.851 546.401 294.443 546.401 295.168V296.576C546.401 297.291 546.593 297.883 546.977 298.352C547.371 298.821 547.947 299.056 548.705 299.056C549.227 299.056 549.675 298.933 550.049 298.688C550.422 298.443 550.721 298.085 550.945 297.616L551.873 298.24C551.606 298.827 551.206 299.301 550.673 299.664C550.15 300.016 549.494 300.192 548.705 300.192ZM556.05 300.192C555.303 300.192 554.653 300.016 554.098 299.664C553.543 299.301 553.111 298.8 552.802 298.16C552.493 297.509 552.338 296.747 552.338 295.872C552.338 294.997 552.493 294.24 552.802 293.6C553.111 292.949 553.543 292.448 554.098 292.096C554.653 291.733 555.303 291.552 556.05 291.552C556.786 291.552 557.421 291.728 557.954 292.08C558.487 292.421 558.898 292.896 559.186 293.504C559.474 294.112 559.618 294.805 559.618 295.584V296.192H553.682V296.576C553.682 297.291 553.895 297.888 554.322 298.368C554.759 298.837 555.362 299.072 556.13 299.072C556.653 299.072 557.106 298.949 557.49 298.704C557.885 298.459 558.189 298.107 558.402 297.648L559.314 298.304C559.047 298.859 558.631 299.312 558.066 299.664C557.501 300.016 556.829 300.192 556.05 300.192ZM556.05 292.624C555.591 292.624 555.181 292.731 554.818 292.944C554.466 293.157 554.189 293.456 553.986 293.84C553.783 294.213 553.682 294.64 553.682 295.12V295.232H558.242V295.056C558.242 294.565 558.151 294.139 557.97 293.776C557.789 293.413 557.533 293.131 557.202 292.928C556.871 292.725 556.487 292.624 556.05 292.624ZM563.567 300.192C562.81 300.192 562.17 300.048 561.647 299.76C561.125 299.461 560.677 299.067 560.303 298.576L561.215 297.84C561.535 298.235 561.893 298.544 562.287 298.768C562.682 298.992 563.141 299.104 563.663 299.104C564.207 299.104 564.629 298.987 564.927 298.752C565.237 298.517 565.391 298.187 565.391 297.76C565.391 297.44 565.285 297.163 565.071 296.928C564.869 296.693 564.495 296.539 563.951 296.464L563.295 296.368C562.794 296.293 562.341 296.171 561.935 296C561.53 295.819 561.21 295.568 560.975 295.248C560.751 294.917 560.639 294.496 560.639 293.984C560.639 293.163 560.917 292.555 561.471 292.16C562.037 291.755 562.741 291.552 563.583 291.552C564.031 291.552 564.426 291.605 564.767 291.712C565.119 291.819 565.434 291.973 565.711 292.176C565.989 292.368 566.239 292.603 566.463 292.88L565.615 293.648C565.434 293.392 565.167 293.163 564.815 292.96C564.463 292.747 564.021 292.64 563.487 292.64C562.965 292.64 562.565 292.757 562.287 292.992C562.01 293.216 561.871 293.525 561.871 293.92C561.871 294.315 562.005 294.608 562.271 294.8C562.549 294.981 562.943 295.115 563.455 295.2L564.095 295.296C565.013 295.435 565.663 295.701 566.047 296.096C566.431 296.48 566.623 296.987 566.623 297.616C566.623 298.149 566.501 298.608 566.255 298.992C566.01 299.376 565.658 299.675 565.199 299.888C564.741 300.091 564.197 300.192 563.567 300.192ZM571.364 300.192C570.628 300.192 569.977 300.016 569.412 299.664C568.857 299.301 568.42 298.8 568.1 298.16C567.791 297.509 567.636 296.747 567.636 295.872C567.636 294.997 567.791 294.24 568.1 293.6C568.42 292.949 568.857 292.448 569.412 292.096C569.977 291.733 570.628 291.552 571.364 291.552C572.1 291.552 572.745 291.733 573.3 292.096C573.865 292.448 574.303 292.949 574.612 293.6C574.932 294.24 575.092 294.997 575.092 295.872C575.092 296.747 574.932 297.509 574.612 298.16C574.303 298.8 573.865 299.301 573.3 299.664C572.745 300.016 572.1 300.192 571.364 300.192ZM571.364 299.056C572.057 299.056 572.623 298.843 573.06 298.416C573.497 297.989 573.716 297.339 573.716 296.464V295.28C573.716 294.405 573.497 293.755 573.06 293.328C572.623 292.901 572.057 292.688 571.364 292.688C570.681 292.688 570.116 292.901 569.668 293.328C569.231 293.755 569.012 294.405 569.012 295.28V296.464C569.012 297.339 569.231 297.989 569.668 298.416C570.116 298.843 570.681 299.056 571.364 299.056ZM584.978 300V298.656H584.914C584.669 299.168 584.344 299.552 583.938 299.808C583.544 300.064 583.064 300.192 582.498 300.192C581.816 300.192 581.218 300.016 580.706 299.664C580.205 299.312 579.816 298.811 579.538 298.16C579.272 297.509 579.138 296.747 579.138 295.872C579.138 294.987 579.272 294.224 579.538 293.584C579.816 292.933 580.205 292.432 580.706 292.08C581.218 291.728 581.816 291.552 582.498 291.552C583.064 291.552 583.554 291.68 583.97 291.936C584.386 292.181 584.701 292.565 584.914 293.088H584.978V288.16H586.258V300H584.978ZM582.85 299.04C583.245 299.04 583.602 298.976 583.922 298.848C584.242 298.709 584.498 298.517 584.69 298.272C584.882 298.016 584.978 297.712 584.978 297.36V294.288C584.978 293.979 584.882 293.707 584.69 293.472C584.498 293.237 584.242 293.051 583.922 292.912C583.602 292.773 583.245 292.704 582.85 292.704C582.136 292.704 581.565 292.933 581.138 293.392C580.722 293.84 580.514 294.432 580.514 295.168V296.576C580.514 297.312 580.722 297.909 581.138 298.368C581.565 298.816 582.136 299.04 582.85 299.04ZM591.444 300.192C590.697 300.192 590.046 300.016 589.492 299.664C588.937 299.301 588.505 298.8 588.196 298.16C587.886 297.509 587.732 296.747 587.732 295.872C587.732 294.997 587.886 294.24 588.196 293.6C588.505 292.949 588.937 292.448 589.492 292.096C590.046 291.733 590.697 291.552 591.444 291.552C592.18 291.552 592.814 291.728 593.348 292.08C593.881 292.421 594.292 292.896 594.58 293.504C594.868 294.112 595.012 294.805 595.012 295.584V296.192H589.076V296.576C589.076 297.291 589.289 297.888 589.716 298.368C590.153 298.837 590.756 299.072 591.524 299.072C592.046 299.072 592.5 298.949 592.884 298.704C593.278 298.459 593.582 298.107 593.796 297.648L594.708 298.304C594.441 298.859 594.025 299.312 593.46 299.664C592.894 300.016 592.222 300.192 591.444 300.192ZM591.444 292.624C590.985 292.624 590.574 292.731 590.212 292.944C589.86 293.157 589.582 293.456 589.38 293.84C589.177 294.213 589.076 294.64 589.076 295.12V295.232H593.636V295.056C593.636 294.565 593.545 294.139 593.364 293.776C593.182 293.413 592.926 293.131 592.596 292.928C592.265 292.725 591.881 292.624 591.444 292.624ZM600.262 289.808C599.996 289.808 599.798 289.744 599.67 289.616C599.542 289.477 599.478 289.301 599.478 289.088V288.88C599.478 288.667 599.542 288.496 599.67 288.368C599.798 288.229 599.996 288.16 600.262 288.16C600.54 288.16 600.737 288.229 600.854 288.368C600.982 288.496 601.046 288.667 601.046 288.88V289.088C601.046 289.301 600.982 289.477 600.854 289.616C600.737 289.744 600.54 289.808 600.262 289.808ZM599.622 300V291.744H600.902V300H599.622ZM604.262 300H602.982V291.744H604.262V293.088H604.326C604.529 292.619 604.812 292.245 605.174 291.968C605.548 291.691 606.044 291.552 606.662 291.552C607.516 291.552 608.188 291.829 608.678 292.384C609.18 292.928 609.43 293.701 609.43 294.704V300H608.15V294.928C608.15 294.192 607.99 293.637 607.67 293.264C607.361 292.891 606.897 292.704 606.278 292.704C605.937 292.704 605.612 292.763 605.302 292.88C604.993 292.987 604.742 293.157 604.55 293.392C604.358 293.627 604.262 293.92 604.262 294.272V300ZM612.716 300H611.436V291.744H612.716V293.088H612.78C612.983 292.619 613.265 292.245 613.628 291.968C614.001 291.691 614.497 291.552 615.116 291.552C615.969 291.552 616.641 291.829 617.132 292.384C617.633 292.928 617.884 293.701 617.884 294.704V300H616.604V294.928C616.604 294.192 616.444 293.637 616.124 293.264C615.815 292.891 615.351 292.704 614.732 292.704C614.391 292.704 614.065 292.763 613.756 292.88C613.447 292.987 613.196 293.157 613.004 293.392C612.812 293.627 612.716 293.92 612.716 294.272V300ZM623.01 300.192C622.274 300.192 621.623 300.016 621.058 299.664C620.503 299.301 620.066 298.8 619.746 298.16C619.436 297.509 619.282 296.747 619.282 295.872C619.282 294.997 619.436 294.24 619.746 293.6C620.066 292.949 620.503 292.448 621.058 292.096C621.623 291.733 622.274 291.552 623.01 291.552C623.746 291.552 624.391 291.733 624.946 292.096C625.511 292.448 625.948 292.949 626.258 293.6C626.578 294.24 626.738 294.997 626.738 295.872C626.738 296.747 626.578 297.509 626.258 298.16C625.948 298.8 625.511 299.301 624.946 299.664C624.391 300.016 623.746 300.192 623.01 300.192ZM623.01 299.056C623.703 299.056 624.268 298.843 624.706 298.416C625.143 297.989 625.362 297.339 625.362 296.464V295.28C625.362 294.405 625.143 293.755 624.706 293.328C624.268 292.901 623.703 292.688 623.01 292.688C622.327 292.688 621.762 292.901 621.314 293.328C620.876 293.755 620.658 294.405 620.658 295.28V296.464C620.658 297.339 620.876 297.989 621.314 298.416C621.762 298.843 622.327 299.056 623.01 299.056ZM631.39 300H629.902L627.006 291.744H628.286L629.726 295.84L630.622 298.656H630.702L631.598 295.84L633.07 291.744H634.302L631.39 300ZM641.892 300H641.172C640.831 300 640.554 299.931 640.34 299.792C640.127 299.643 639.972 299.44 639.876 299.184C639.78 298.928 639.732 298.635 639.732 298.304V298.192L640.228 298.656H639.668C639.498 299.157 639.199 299.541 638.772 299.808C638.356 300.064 637.86 300.192 637.284 300.192C636.41 300.192 635.727 299.968 635.236 299.52C634.756 299.072 634.516 298.464 634.516 297.696C634.516 297.173 634.644 296.736 634.9 296.384C635.156 296.021 635.54 295.749 636.052 295.568C636.575 295.376 637.236 295.28 638.036 295.28H639.668V294.464C639.668 293.877 639.508 293.429 639.188 293.12C638.868 292.811 638.378 292.656 637.716 292.656C637.226 292.656 636.81 292.768 636.468 292.992C636.127 293.216 635.844 293.515 635.62 293.888L634.852 293.168C635.076 292.731 635.434 292.352 635.924 292.032C636.415 291.712 637.034 291.552 637.78 291.552C638.772 291.552 639.546 291.797 640.1 292.288C640.666 292.779 640.948 293.461 640.948 294.336V298.88H641.892V300ZM639.668 296.24H637.972C637.247 296.24 636.714 296.347 636.372 296.56C636.031 296.773 635.86 297.083 635.86 297.488V297.824C635.86 298.229 636.01 298.544 636.308 298.768C636.607 298.992 637.002 299.104 637.492 299.104C637.919 299.104 638.292 299.04 638.612 298.912C638.943 298.773 639.199 298.592 639.38 298.368C639.572 298.133 639.668 297.877 639.668 297.6V296.24ZM646.151 300.192C644.988 300.192 644.082 299.803 643.431 299.024C642.791 298.245 642.471 297.195 642.471 295.872C642.471 294.549 642.791 293.499 643.431 292.72C644.082 291.941 644.988 291.552 646.151 291.552C646.972 291.552 647.634 291.733 648.135 292.096C648.636 292.459 649.004 292.923 649.239 293.488L648.167 294.032C648.018 293.605 647.767 293.275 647.415 293.04C647.074 292.805 646.652 292.688 646.151 292.688C645.394 292.688 644.818 292.923 644.423 293.392C644.039 293.851 643.847 294.443 643.847 295.168V296.576C643.847 297.291 644.039 297.883 644.423 298.352C644.818 298.821 645.394 299.056 646.151 299.056C646.674 299.056 647.122 298.933 647.495 298.688C647.868 298.443 648.167 298.085 648.391 297.616L649.319 298.24C649.052 298.827 648.652 299.301 648.119 299.664C647.596 300.016 646.94 300.192 646.151 300.192ZM651.126 289.808C650.859 289.808 650.662 289.744 650.534 289.616C650.406 289.477 650.342 289.301 650.342 289.088V288.88C650.342 288.667 650.406 288.496 650.534 288.368C650.662 288.229 650.859 288.16 651.126 288.16C651.403 288.16 651.601 288.229 651.718 288.368C651.846 288.496 651.91 288.667 651.91 288.88V289.088C651.91 289.301 651.846 289.477 651.718 289.616C651.601 289.744 651.403 289.808 651.126 289.808ZM650.486 300V291.744H651.766V300H650.486ZM656.966 300.192C656.23 300.192 655.579 300.016 655.014 299.664C654.459 299.301 654.022 298.8 653.702 298.16C653.393 297.509 653.238 296.747 653.238 295.872C653.238 294.997 653.393 294.24 653.702 293.6C654.022 292.949 654.459 292.448 655.014 292.096C655.579 291.733 656.23 291.552 656.966 291.552C657.702 291.552 658.347 291.733 658.902 292.096C659.467 292.448 659.905 292.949 660.214 293.6C660.534 294.24 660.694 294.997 660.694 295.872C660.694 296.747 660.534 297.509 660.214 298.16C659.905 298.8 659.467 299.301 658.902 299.664C658.347 300.016 657.702 300.192 656.966 300.192ZM656.966 299.056C657.659 299.056 658.225 298.843 658.662 298.416C659.099 297.989 659.318 297.339 659.318 296.464V295.28C659.318 294.405 659.099 293.755 658.662 293.328C658.225 292.901 657.659 292.688 656.966 292.688C656.283 292.688 655.718 292.901 655.27 293.328C654.833 293.755 654.614 294.405 654.614 295.28V296.464C654.614 297.339 654.833 297.989 655.27 298.416C655.718 298.843 656.283 299.056 656.966 299.056ZM663.439 300H662.159V291.744H663.439V293.088H663.503C663.706 292.619 663.988 292.245 664.351 291.968C664.724 291.691 665.22 291.552 665.839 291.552C666.692 291.552 667.364 291.829 667.855 292.384C668.356 292.928 668.607 293.701 668.607 294.704V300H667.327V294.928C667.327 294.192 667.167 293.637 666.847 293.264C666.538 292.891 666.074 292.704 665.455 292.704C665.114 292.704 664.788 292.763 664.479 292.88C664.17 292.987 663.919 293.157 663.727 293.392C663.535 293.627 663.439 293.92 663.439 294.272V300ZM673.717 300.192C672.97 300.192 672.319 300.016 671.765 299.664C671.21 299.301 670.778 298.8 670.469 298.16C670.159 297.509 670.005 296.747 670.005 295.872C670.005 294.997 670.159 294.24 670.469 293.6C670.778 292.949 671.21 292.448 671.765 292.096C672.319 291.733 672.97 291.552 673.717 291.552C674.453 291.552 675.087 291.728 675.621 292.08C676.154 292.421 676.565 292.896 676.853 293.504C677.141 294.112 677.285 294.805 677.285 295.584V296.192H671.349V296.576C671.349 297.291 671.562 297.888 671.989 298.368C672.426 298.837 673.029 299.072 673.797 299.072C674.319 299.072 674.773 298.949 675.157 298.704C675.551 298.459 675.855 298.107 676.069 297.648L676.981 298.304C676.714 298.859 676.298 299.312 675.733 299.664C675.167 300.016 674.495 300.192 673.717 300.192ZM673.717 292.624C673.258 292.624 672.847 292.731 672.485 292.944C672.133 293.157 671.855 293.456 671.653 293.84C671.45 294.213 671.349 294.64 671.349 295.12V295.232H675.909V295.056C675.909 294.565 675.818 294.139 675.637 293.776C675.455 293.413 675.199 293.131 674.869 292.928C674.538 292.725 674.154 292.624 673.717 292.624ZM681.234 300.192C680.477 300.192 679.837 300.048 679.314 299.76C678.791 299.461 678.343 299.067 677.97 298.576L678.882 297.84C679.202 298.235 679.559 298.544 679.954 298.768C680.349 298.992 680.807 299.104 681.33 299.104C681.874 299.104 682.295 298.987 682.594 298.752C682.903 298.517 683.058 298.187 683.058 297.76C683.058 297.44 682.951 297.163 682.738 296.928C682.535 296.693 682.162 296.539 681.618 296.464L680.962 296.368C680.461 296.293 680.007 296.171 679.602 296C679.197 295.819 678.877 295.568 678.642 295.248C678.418 294.917 678.306 294.496 678.306 293.984C678.306 293.163 678.583 292.555 679.138 292.16C679.703 291.755 680.407 291.552 681.25 291.552C681.698 291.552 682.093 291.605 682.434 291.712C682.786 291.819 683.101 291.973 683.378 292.176C683.655 292.368 683.906 292.603 684.13 292.88L683.282 293.648C683.101 293.392 682.834 293.163 682.482 292.96C682.13 292.747 681.687 292.64 681.154 292.64C680.631 292.64 680.231 292.757 679.954 292.992C679.677 293.216 679.538 293.525 679.538 293.92C679.538 294.315 679.671 294.608 679.938 294.8C680.215 294.981 680.61 295.115 681.122 295.2L681.762 295.296C682.679 295.435 683.33 295.701 683.714 296.096C684.098 296.48 684.29 296.987 684.29 297.616C684.29 298.149 684.167 298.608 683.922 298.992C683.677 299.376 683.325 299.675 682.866 299.888C682.407 300.091 681.863 300.192 681.234 300.192ZM694.332 303.2V298.656H694.268C694.023 299.168 693.698 299.552 693.292 299.808C692.898 300.064 692.418 300.192 691.852 300.192C691.17 300.192 690.572 300.016 690.06 299.664C689.559 299.312 689.17 298.811 688.892 298.16C688.626 297.509 688.492 296.747 688.492 295.872C688.492 294.987 688.626 294.224 688.892 293.584C689.17 292.933 689.559 292.432 690.06 292.08C690.572 291.728 691.17 291.552 691.852 291.552C692.418 291.552 692.908 291.68 693.324 291.936C693.74 292.181 694.055 292.565 694.268 293.088H694.332V291.744H695.612V303.2H694.332ZM692.204 299.04C692.599 299.04 692.956 298.976 693.276 298.848C693.596 298.709 693.852 298.517 694.044 298.272C694.236 298.016 694.332 297.712 694.332 297.36V294.288C694.332 293.979 694.236 293.707 694.044 293.472C693.852 293.237 693.596 293.051 693.276 292.912C692.956 292.773 692.599 292.704 692.204 292.704C691.49 292.704 690.919 292.933 690.492 293.392C690.076 293.84 689.868 294.432 689.868 295.168V296.576C689.868 297.312 690.076 297.909 690.492 298.368C690.919 298.816 691.49 299.04 692.204 299.04ZM702.781 300V298.656H702.717C702.557 299.051 702.301 299.408 701.949 299.728C701.608 300.037 701.091 300.192 700.397 300.192C699.555 300.192 698.877 299.92 698.365 299.376C697.864 298.821 697.613 298.043 697.613 297.04V291.744H698.893V296.816C698.893 297.552 699.053 298.107 699.373 298.48C699.693 298.853 700.163 299.04 700.781 299.04C701.123 299.04 701.443 298.987 701.741 298.88C702.051 298.763 702.301 298.587 702.493 298.352C702.685 298.117 702.781 297.819 702.781 297.456V291.744H704.061V300H702.781ZM709.251 300.192C708.505 300.192 707.854 300.016 707.299 299.664C706.745 299.301 706.313 298.8 706.003 298.16C705.694 297.509 705.539 296.747 705.539 295.872C705.539 294.997 705.694 294.24 706.003 293.6C706.313 292.949 706.745 292.448 707.299 292.096C707.854 291.733 708.505 291.552 709.251 291.552C709.987 291.552 710.622 291.728 711.155 292.08C711.689 292.421 712.099 292.896 712.387 293.504C712.675 294.112 712.819 294.805 712.819 295.584V296.192H706.883V296.576C706.883 297.291 707.097 297.888 707.523 298.368C707.961 298.837 708.563 299.072 709.331 299.072C709.854 299.072 710.307 298.949 710.691 298.704C711.086 298.459 711.39 298.107 711.603 297.648L712.515 298.304C712.249 298.859 711.833 299.312 711.267 299.664C710.702 300.016 710.03 300.192 709.251 300.192ZM709.251 292.624C708.793 292.624 708.382 292.731 708.019 292.944C707.667 293.157 707.39 293.456 707.187 293.84C706.985 294.213 706.883 294.64 706.883 295.12V295.232H711.443V295.056C711.443 294.565 711.353 294.139 711.171 293.776C710.99 293.413 710.734 293.131 710.403 292.928C710.073 292.725 709.689 292.624 709.251 292.624ZM718.71 300H717.43V291.744H718.71V293.264H718.79C718.886 292.997 719.035 292.752 719.238 292.528C719.44 292.293 719.702 292.107 720.022 291.968C720.342 291.819 720.726 291.744 721.174 291.744H721.67V293.024H720.918C720.459 293.024 720.064 293.088 719.734 293.216C719.403 293.333 719.147 293.493 718.966 293.696C718.795 293.899 718.71 294.133 718.71 294.4V300ZM725.691 300.192C724.944 300.192 724.293 300.016 723.739 299.664C723.184 299.301 722.752 298.8 722.443 298.16C722.133 297.509 721.979 296.747 721.979 295.872C721.979 294.997 722.133 294.24 722.443 293.6C722.752 292.949 723.184 292.448 723.739 292.096C724.293 291.733 724.944 291.552 725.691 291.552C726.427 291.552 727.061 291.728 727.595 292.08C728.128 292.421 728.539 292.896 728.827 293.504C729.115 294.112 729.259 294.805 729.259 295.584V296.192H723.323V296.576C723.323 297.291 723.536 297.888 723.963 298.368C724.4 298.837 725.003 299.072 725.771 299.072C726.293 299.072 726.747 298.949 727.131 298.704C727.525 298.459 727.829 298.107 728.043 297.648L728.955 298.304C728.688 298.859 728.272 299.312 727.707 299.664C727.141 300.016 726.469 300.192 725.691 300.192ZM725.691 292.624C725.232 292.624 724.821 292.731 724.459 292.944C724.107 293.157 723.829 293.456 723.627 293.84C723.424 294.213 723.323 294.64 723.323 295.12V295.232H727.883V295.056C727.883 294.565 727.792 294.139 727.611 293.776C727.429 293.413 727.173 293.131 726.843 292.928C726.512 292.725 726.128 292.624 725.691 292.624ZM736.008 300V298.656H735.944C735.698 299.168 735.373 299.552 734.968 299.808C734.573 300.064 734.093 300.192 733.528 300.192C732.845 300.192 732.248 300.016 731.736 299.664C731.234 299.312 730.845 298.811 730.568 298.16C730.301 297.509 730.168 296.747 730.168 295.872C730.168 294.987 730.301 294.224 730.568 293.584C730.845 292.933 731.234 292.432 731.736 292.08C732.248 291.728 732.845 291.552 733.528 291.552C734.093 291.552 734.584 291.68 735 291.936C735.416 292.181 735.73 292.565 735.944 293.088H736.008V288.16H737.288V300H736.008ZM733.88 299.04C734.274 299.04 734.632 298.976 734.952 298.848C735.272 298.709 735.528 298.517 735.72 298.272C735.912 298.016 736.008 297.712 736.008 297.36V294.288C736.008 293.979 735.912 293.707 735.72 293.472C735.528 293.237 735.272 293.051 734.952 292.912C734.632 292.773 734.274 292.704 733.88 292.704C733.165 292.704 732.594 292.933 732.168 293.392C731.752 293.84 731.544 294.432 731.544 295.168V296.576C731.544 297.312 731.752 297.909 732.168 298.368C732.594 298.816 733.165 299.04 733.88 299.04ZM742.473 300.192C741.726 300.192 741.076 300.016 740.521 299.664C739.966 299.301 739.534 298.8 739.225 298.16C738.916 297.509 738.761 296.747 738.761 295.872C738.761 294.997 738.916 294.24 739.225 293.6C739.534 292.949 739.966 292.448 740.521 292.096C741.076 291.733 741.726 291.552 742.473 291.552C743.209 291.552 743.844 291.728 744.377 292.08C744.91 292.421 745.321 292.896 745.609 293.504C745.897 294.112 746.041 294.805 746.041 295.584V296.192H740.105V296.576C740.105 297.291 740.318 297.888 740.745 298.368C741.182 298.837 741.785 299.072 742.553 299.072C743.076 299.072 743.529 298.949 743.913 298.704C744.308 298.459 744.612 298.107 744.825 297.648L745.737 298.304C745.47 298.859 745.054 299.312 744.489 299.664C743.924 300.016 743.252 300.192 742.473 300.192ZM742.473 292.624C742.014 292.624 741.604 292.731 741.241 292.944C740.889 293.157 740.612 293.456 740.409 293.84C740.206 294.213 740.105 294.64 740.105 295.12V295.232H744.665V295.056C744.665 294.565 744.574 294.139 744.393 293.776C744.212 293.413 743.956 293.131 743.625 292.928C743.294 292.725 742.91 292.624 742.473 292.624ZM747.958 300V292.864H746.614V291.744H747.958V290.08C747.958 289.515 748.108 289.056 748.406 288.704C748.705 288.341 749.158 288.16 749.766 288.16H751.014V289.28H749.238V291.744H753.862V300H752.582V292.864H749.238V300H747.958ZM753.222 289.808C752.956 289.808 752.758 289.744 752.63 289.616C752.502 289.477 752.438 289.301 752.438 289.088V288.88C752.438 288.667 752.502 288.496 752.63 288.368C752.758 288.229 752.956 288.16 753.222 288.16C753.5 288.16 753.697 288.229 753.814 288.368C753.942 288.496 754.006 288.667 754.006 288.88V289.088C754.006 289.301 753.942 289.477 753.814 289.616C753.697 289.744 753.5 289.808 753.222 289.808ZM757.228 300H755.948V291.744H757.228V293.088H757.292C757.495 292.619 757.778 292.245 758.14 291.968C758.514 291.691 759.01 291.552 759.628 291.552C760.482 291.552 761.154 291.829 761.644 292.384C762.146 292.928 762.396 293.701 762.396 294.704V300H761.116V294.928C761.116 294.192 760.956 293.637 760.636 293.264C760.327 292.891 759.863 292.704 759.244 292.704C758.903 292.704 758.578 292.763 758.268 292.88C757.959 292.987 757.708 293.157 757.516 293.392C757.324 293.627 757.228 293.92 757.228 294.272V300ZM767.506 300.192C766.76 300.192 766.109 300.016 765.554 299.664C765 299.301 764.568 298.8 764.258 298.16C763.949 297.509 763.794 296.747 763.794 295.872C763.794 294.997 763.949 294.24 764.258 293.6C764.568 292.949 765 292.448 765.554 292.096C766.109 291.733 766.76 291.552 767.506 291.552C768.242 291.552 768.877 291.728 769.41 292.08C769.944 292.421 770.354 292.896 770.642 293.504C770.93 294.112 771.074 294.805 771.074 295.584V296.192H765.138V296.576C765.138 297.291 765.352 297.888 765.778 298.368C766.216 298.837 766.818 299.072 767.586 299.072C768.109 299.072 768.562 298.949 768.946 298.704C769.341 298.459 769.645 298.107 769.858 297.648L770.77 298.304C770.504 298.859 770.088 299.312 769.522 299.664C768.957 300.016 768.285 300.192 767.506 300.192ZM767.506 292.624C767.048 292.624 766.637 292.731 766.274 292.944C765.922 293.157 765.645 293.456 765.442 293.84C765.24 294.213 765.138 294.64 765.138 295.12V295.232H769.698V295.056C769.698 294.565 769.608 294.139 769.426 293.776C769.245 293.413 768.989 293.131 768.658 292.928C768.328 292.725 767.944 292.624 767.506 292.624ZM773.823 300H772.543V291.744H773.823V293.088H773.887C774.09 292.619 774.373 292.245 774.735 291.968C775.109 291.691 775.605 291.552 776.223 291.552C777.077 291.552 777.749 291.829 778.239 292.384C778.741 292.928 778.991 293.701 778.991 294.704V300H777.711V294.928C777.711 294.192 777.551 293.637 777.231 293.264C776.922 292.891 776.458 292.704 775.839 292.704C775.498 292.704 775.173 292.763 774.863 292.88C774.554 292.987 774.303 293.157 774.111 293.392C773.919 293.627 773.823 293.92 773.823 294.272V300ZM528.533 319H527.397C526.96 319 526.624 318.877 526.389 318.632C526.154 318.376 526.037 318.056 526.037 317.672V307.16H527.317V317.88H528.533V319ZM536.476 319H535.756C535.415 319 535.138 318.931 534.924 318.792C534.711 318.643 534.556 318.44 534.46 318.184C534.364 317.928 534.316 317.635 534.316 317.304V317.192L534.812 317.656H534.252C534.082 318.157 533.783 318.541 533.356 318.808C532.94 319.064 532.444 319.192 531.868 319.192C530.994 319.192 530.311 318.968 529.82 318.52C529.34 318.072 529.1 317.464 529.1 316.696C529.1 316.173 529.228 315.736 529.484 315.384C529.74 315.021 530.124 314.749 530.636 314.568C531.159 314.376 531.82 314.28 532.62 314.28H534.252V313.464C534.252 312.877 534.092 312.429 533.772 312.12C533.452 311.811 532.962 311.656 532.3 311.656C531.81 311.656 531.394 311.768 531.052 311.992C530.711 312.216 530.428 312.515 530.204 312.888L529.436 312.168C529.66 311.731 530.018 311.352 530.508 311.032C530.999 310.712 531.618 310.552 532.364 310.552C533.356 310.552 534.13 310.797 534.684 311.288C535.25 311.779 535.532 312.461 535.532 313.336V317.88H536.476V319ZM534.252 315.24H532.556C531.831 315.24 531.298 315.347 530.956 315.56C530.615 315.773 530.444 316.083 530.444 316.488V316.824C530.444 317.229 530.594 317.544 530.892 317.768C531.191 317.992 531.586 318.104 532.076 318.104C532.503 318.104 532.876 318.04 533.196 317.912C533.527 317.773 533.783 317.592 533.964 317.368C534.156 317.133 534.252 316.877 534.252 316.6V315.24ZM541.252 319V311.864H539.908V310.744H541.252V309.08C541.252 308.515 541.402 308.056 541.7 307.704C541.999 307.341 542.452 307.16 543.06 307.16H544.308V308.28H542.532V310.744H544.308V311.864H542.532V319H541.252ZM548.409 319.192C547.673 319.192 547.023 319.016 546.457 318.664C545.903 318.301 545.465 317.8 545.145 317.16C544.836 316.509 544.681 315.747 544.681 314.872C544.681 313.997 544.836 313.24 545.145 312.6C545.465 311.949 545.903 311.448 546.457 311.096C547.023 310.733 547.673 310.552 548.409 310.552C549.145 310.552 549.791 310.733 550.345 311.096C550.911 311.448 551.348 311.949 551.657 312.6C551.977 313.24 552.137 313.997 552.137 314.872C552.137 315.747 551.977 316.509 551.657 317.16C551.348 317.8 550.911 318.301 550.345 318.664C549.791 319.016 549.145 319.192 548.409 319.192ZM548.409 318.056C549.103 318.056 549.668 317.843 550.105 317.416C550.543 316.989 550.761 316.339 550.761 315.464V314.28C550.761 313.405 550.543 312.755 550.105 312.328C549.668 311.901 549.103 311.688 548.409 311.688C547.727 311.688 547.161 311.901 546.713 312.328C546.276 312.755 546.057 313.405 546.057 314.28V315.464C546.057 316.339 546.276 316.989 546.713 317.416C547.161 317.843 547.727 318.056 548.409 318.056ZM554.882 319H553.602V310.744H554.882V312.264H554.962C555.058 311.997 555.208 311.752 555.41 311.528C555.613 311.293 555.874 311.107 556.194 310.968C556.514 310.819 556.898 310.744 557.346 310.744H557.842V312.024H557.09C556.632 312.024 556.237 312.088 555.906 312.216C555.576 312.333 555.32 312.493 555.138 312.696C554.968 312.899 554.882 313.133 554.882 313.4V319ZM560.117 319H558.837V310.744H560.117V312.088H560.181C560.363 311.661 560.619 311.299 560.949 311C561.28 310.701 561.765 310.552 562.405 310.552C562.949 310.552 563.451 310.685 563.909 310.952C564.368 311.208 564.709 311.635 564.933 312.232H564.965C565.115 311.784 565.392 311.395 565.797 311.064C566.213 310.723 566.773 310.552 567.477 310.552C568.32 310.552 568.976 310.829 569.445 311.384C569.925 311.928 570.165 312.701 570.165 313.704V319H568.885V313.928C568.885 313.203 568.741 312.653 568.453 312.28C568.165 311.896 567.707 311.704 567.077 311.704C566.747 311.704 566.432 311.763 566.133 311.88C565.835 311.987 565.595 312.157 565.413 312.392C565.232 312.627 565.141 312.92 565.141 313.272V319H563.861V313.928C563.861 313.192 563.717 312.637 563.429 312.264C563.141 311.891 562.693 311.704 562.085 311.704C561.755 311.704 561.435 311.763 561.125 311.88C560.827 311.987 560.581 312.157 560.389 312.392C560.208 312.627 560.117 312.92 560.117 313.272V319ZM578.886 319H578.166C577.825 319 577.548 318.931 577.334 318.792C577.121 318.643 576.966 318.44 576.87 318.184C576.774 317.928 576.726 317.635 576.726 317.304V317.192L577.222 317.656H576.662C576.492 318.157 576.193 318.541 575.766 318.808C575.35 319.064 574.854 319.192 574.278 319.192C573.404 319.192 572.721 318.968 572.23 318.52C571.75 318.072 571.51 317.464 571.51 316.696C571.51 316.173 571.638 315.736 571.894 315.384C572.15 315.021 572.534 314.749 573.046 314.568C573.569 314.376 574.23 314.28 575.03 314.28H576.662V313.464C576.662 312.877 576.502 312.429 576.182 312.12C575.862 311.811 575.372 311.656 574.71 311.656C574.22 311.656 573.804 311.768 573.462 311.992C573.121 312.216 572.838 312.515 572.614 312.888L571.846 312.168C572.07 311.731 572.428 311.352 572.918 311.032C573.409 310.712 574.028 310.552 574.774 310.552C575.766 310.552 576.54 310.797 577.094 311.288C577.66 311.779 577.942 312.461 577.942 313.336V317.88H578.886V319ZM576.662 315.24H574.966C574.241 315.24 573.708 315.347 573.366 315.56C573.025 315.773 572.854 316.083 572.854 316.488V316.824C572.854 317.229 573.004 317.544 573.302 317.768C573.601 317.992 573.996 318.104 574.486 318.104C574.913 318.104 575.286 318.04 575.606 317.912C575.937 317.773 576.193 317.592 576.374 317.368C576.566 317.133 576.662 316.877 576.662 316.6V315.24ZM588.494 319V317.656H588.43C588.185 318.168 587.86 318.552 587.454 318.808C587.06 319.064 586.58 319.192 586.014 319.192C585.332 319.192 584.734 319.016 584.222 318.664C583.721 318.312 583.332 317.811 583.054 317.16C582.788 316.509 582.654 315.747 582.654 314.872C582.654 313.987 582.788 313.224 583.054 312.584C583.332 311.933 583.721 311.432 584.222 311.08C584.734 310.728 585.332 310.552 586.014 310.552C586.58 310.552 587.07 310.68 587.486 310.936C587.902 311.181 588.217 311.565 588.43 312.088H588.494V307.16H589.774V319H588.494ZM586.366 318.04C586.761 318.04 587.118 317.976 587.438 317.848C587.758 317.709 588.014 317.517 588.206 317.272C588.398 317.016 588.494 316.712 588.494 316.36V313.288C588.494 312.979 588.398 312.707 588.206 312.472C588.014 312.237 587.758 312.051 587.438 311.912C587.118 311.773 586.761 311.704 586.366 311.704C585.652 311.704 585.081 311.933 584.654 312.392C584.238 312.84 584.03 313.432 584.03 314.168V315.576C584.03 316.312 584.238 316.909 584.654 317.368C585.081 317.816 585.652 318.04 586.366 318.04ZM594.96 319.192C594.213 319.192 593.562 319.016 593.008 318.664C592.453 318.301 592.021 317.8 591.712 317.16C591.402 316.509 591.248 315.747 591.248 314.872C591.248 313.997 591.402 313.24 591.712 312.6C592.021 311.949 592.453 311.448 593.008 311.096C593.562 310.733 594.213 310.552 594.96 310.552C595.696 310.552 596.33 310.728 596.864 311.08C597.397 311.421 597.808 311.896 598.096 312.504C598.384 313.112 598.528 313.805 598.528 314.584V315.192H592.592V315.576C592.592 316.291 592.805 316.888 593.232 317.368C593.669 317.837 594.272 318.072 595.04 318.072C595.562 318.072 596.016 317.949 596.4 317.704C596.794 317.459 597.098 317.107 597.312 316.648L598.224 317.304C597.957 317.859 597.541 318.312 596.976 318.664C596.41 319.016 595.738 319.192 594.96 319.192ZM594.96 311.624C594.501 311.624 594.09 311.731 593.728 311.944C593.376 312.157 593.098 312.456 592.896 312.84C592.693 313.213 592.592 313.64 592.592 314.12V314.232H597.152V314.056C597.152 313.565 597.061 313.139 596.88 312.776C596.698 312.413 596.442 312.131 596.112 311.928C595.781 311.725 595.397 311.624 594.96 311.624ZM603.778 308.808C603.511 308.808 603.314 308.744 603.186 308.616C603.058 308.477 602.994 308.301 602.994 308.088V307.88C602.994 307.667 603.058 307.496 603.186 307.368C603.314 307.229 603.511 307.16 603.778 307.16C604.055 307.16 604.253 307.229 604.37 307.368C604.498 307.496 604.562 307.667 604.562 307.88V308.088C604.562 308.301 604.498 308.477 604.37 308.616C604.253 308.744 604.055 308.808 603.778 308.808ZM603.138 319V310.744H604.418V319H603.138ZM607.778 319H606.498V310.744H607.778V312.088H607.842C608.023 311.661 608.279 311.299 608.61 311C608.941 310.701 609.426 310.552 610.066 310.552C610.61 310.552 611.111 310.685 611.57 310.952C612.029 311.208 612.37 311.635 612.594 312.232H612.626C612.775 311.784 613.053 311.395 613.458 311.064C613.874 310.723 614.434 310.552 615.138 310.552C615.981 310.552 616.637 310.829 617.106 311.384C617.586 311.928 617.826 312.701 617.826 313.704V319H616.546V313.928C616.546 313.203 616.402 312.653 616.114 312.28C615.826 311.896 615.367 311.704 614.738 311.704C614.407 311.704 614.093 311.763 613.794 311.88C613.495 311.987 613.255 312.157 613.074 312.392C612.893 312.627 612.802 312.92 612.802 313.272V319H611.522V313.928C611.522 313.192 611.378 312.637 611.09 312.264C610.802 311.891 610.354 311.704 609.746 311.704C609.415 311.704 609.095 311.763 608.786 311.88C608.487 311.987 608.242 312.157 608.05 312.392C607.869 312.627 607.778 312.92 607.778 313.272V319ZM619.827 322.2V310.744H621.107V312.088H621.171C621.384 311.565 621.699 311.181 622.115 310.936C622.531 310.68 623.022 310.552 623.587 310.552C624.28 310.552 624.878 310.728 625.379 311.08C625.88 311.432 626.264 311.933 626.531 312.584C626.808 313.224 626.947 313.987 626.947 314.872C626.947 315.747 626.808 316.509 626.531 317.16C626.264 317.811 625.88 318.312 625.379 318.664C624.878 319.016 624.28 319.192 623.587 319.192C623.022 319.192 622.536 319.064 622.131 318.808C621.736 318.552 621.416 318.168 621.171 317.656H621.107V322.2H619.827ZM623.235 318.04C623.96 318.04 624.531 317.816 624.947 317.368C625.363 316.909 625.571 316.312 625.571 315.576V314.168C625.571 313.432 625.363 312.84 624.947 312.392C624.531 311.933 623.96 311.704 623.235 311.704C622.851 311.704 622.494 311.773 622.163 311.912C621.843 312.051 621.587 312.237 621.395 312.472C621.203 312.707 621.107 312.979 621.107 313.288V316.36C621.107 316.712 621.203 317.016 621.395 317.272C621.587 317.517 621.843 317.709 622.163 317.848C622.494 317.976 622.851 318.04 623.235 318.04ZM629.748 319H628.468V310.744H629.748V312.264H629.828C629.924 311.997 630.073 311.752 630.276 311.528C630.479 311.293 630.74 311.107 631.06 310.968C631.38 310.819 631.764 310.744 632.212 310.744H632.708V312.024H631.956C631.497 312.024 631.103 312.088 630.772 312.216C630.441 312.333 630.185 312.493 630.004 312.696C629.833 312.899 629.748 313.133 629.748 313.4V319ZM634.343 308.808C634.076 308.808 633.879 308.744 633.751 308.616C633.623 308.477 633.559 308.301 633.559 308.088V307.88C633.559 307.667 633.623 307.496 633.751 307.368C633.879 307.229 634.076 307.16 634.343 307.16C634.62 307.16 634.818 307.229 634.935 307.368C635.063 307.496 635.127 307.667 635.127 307.88V308.088C635.127 308.301 635.063 308.477 634.935 308.616C634.818 308.744 634.62 308.808 634.343 308.808ZM633.703 319V310.744H634.983V319H633.703ZM638.343 319H637.063V310.744H638.343V312.088H638.407C638.588 311.661 638.844 311.299 639.175 311C639.506 310.701 639.991 310.552 640.631 310.552C641.175 310.552 641.676 310.685 642.135 310.952C642.594 311.208 642.935 311.635 643.159 312.232H643.191C643.34 311.784 643.618 311.395 644.023 311.064C644.439 310.723 644.999 310.552 645.703 310.552C646.546 310.552 647.202 310.829 647.671 311.384C648.151 311.928 648.391 312.701 648.391 313.704V319H647.111V313.928C647.111 313.203 646.967 312.653 646.679 312.28C646.391 311.896 645.932 311.704 645.303 311.704C644.972 311.704 644.658 311.763 644.359 311.88C644.06 311.987 643.82 312.157 643.639 312.392C643.458 312.627 643.367 312.92 643.367 313.272V319H642.087V313.928C642.087 313.192 641.943 312.637 641.655 312.264C641.367 311.891 640.919 311.704 640.311 311.704C639.98 311.704 639.66 311.763 639.351 311.88C639.052 311.987 638.807 312.157 638.615 312.392C638.434 312.627 638.343 312.92 638.343 313.272V319ZM651.032 308.808C650.765 308.808 650.568 308.744 650.44 308.616C650.312 308.477 650.248 308.301 650.248 308.088V307.88C650.248 307.667 650.312 307.496 650.44 307.368C650.568 307.229 650.765 307.16 651.032 307.16C651.309 307.16 651.507 307.229 651.624 307.368C651.752 307.496 651.816 307.667 651.816 307.88V308.088C651.816 308.301 651.752 308.477 651.624 308.616C651.507 308.744 651.309 308.808 651.032 308.808ZM650.392 319V310.744H651.672V319H650.392ZM655.032 319H653.752V310.744H655.032V312.264H655.112C655.208 311.997 655.357 311.752 655.56 311.528C655.763 311.293 656.024 311.107 656.344 310.968C656.664 310.819 657.048 310.744 657.496 310.744H657.992V312.024H657.24C656.781 312.024 656.387 312.088 656.056 312.216C655.725 312.333 655.469 312.493 655.288 312.696C655.117 312.899 655.032 313.133 655.032 313.4V319ZM665.552 319H663.952C663.515 319 663.179 318.872 662.944 318.616C662.709 318.36 662.592 318.035 662.592 317.64V311.864H661.232V310.744H662C662.277 310.744 662.464 310.691 662.56 310.584C662.667 310.467 662.72 310.269 662.72 309.992V308.456H663.872V310.744H665.68V311.864H663.872V317.88H665.552V319ZM672.185 319V317.656H672.121C671.961 318.051 671.705 318.408 671.353 318.728C671.012 319.037 670.495 319.192 669.801 319.192C668.959 319.192 668.281 318.92 667.769 318.376C667.268 317.821 667.017 317.043 667.017 316.04V310.744H668.297V315.816C668.297 316.552 668.457 317.107 668.777 317.48C669.097 317.853 669.567 318.04 670.185 318.04C670.527 318.04 670.847 317.987 671.145 317.88C671.455 317.763 671.705 317.587 671.897 317.352C672.089 317.117 672.185 316.819 672.185 316.456V310.744H673.465V319H672.185ZM678.031 319.192C677.274 319.192 676.634 319.048 676.111 318.76C675.589 318.461 675.141 318.067 674.767 317.576L675.679 316.84C675.999 317.235 676.357 317.544 676.751 317.768C677.146 317.992 677.605 318.104 678.127 318.104C678.671 318.104 679.093 317.987 679.391 317.752C679.701 317.517 679.855 317.187 679.855 316.76C679.855 316.44 679.749 316.163 679.535 315.928C679.333 315.693 678.959 315.539 678.415 315.464L677.759 315.368C677.258 315.293 676.805 315.171 676.399 315C675.994 314.819 675.674 314.568 675.439 314.248C675.215 313.917 675.103 313.496 675.103 312.984C675.103 312.163 675.381 311.555 675.935 311.16C676.501 310.755 677.205 310.552 678.047 310.552C678.495 310.552 678.89 310.605 679.231 310.712C679.583 310.819 679.898 310.973 680.175 311.176C680.453 311.368 680.703 311.603 680.927 311.88L680.079 312.648C679.898 312.392 679.631 312.163 679.279 311.96C678.927 311.747 678.485 311.64 677.951 311.64C677.429 311.64 677.029 311.757 676.751 311.992C676.474 312.216 676.335 312.525 676.335 312.92C676.335 313.315 676.469 313.608 676.735 313.8C677.013 313.981 677.407 314.115 677.919 314.2L678.559 314.296C679.477 314.435 680.127 314.701 680.511 315.096C680.895 315.48 681.087 315.987 681.087 316.616C681.087 317.149 680.965 317.608 680.719 317.992C680.474 318.376 680.122 318.675 679.663 318.888C679.205 319.091 678.661 319.192 678.031 319.192ZM687.129 319H685.849V310.744H687.129V312.264H687.209C687.305 311.997 687.455 311.752 687.657 311.528C687.86 311.293 688.121 311.107 688.441 310.968C688.761 310.819 689.145 310.744 689.593 310.744H690.089V312.024H689.337C688.879 312.024 688.484 312.088 688.153 312.216C687.823 312.333 687.567 312.493 687.385 312.696C687.215 312.899 687.129 313.133 687.129 313.4V319ZM694.11 319.192C693.364 319.192 692.713 319.016 692.158 318.664C691.604 318.301 691.172 317.8 690.862 317.16C690.553 316.509 690.398 315.747 690.398 314.872C690.398 313.997 690.553 313.24 690.862 312.6C691.172 311.949 691.604 311.448 692.158 311.096C692.713 310.733 693.364 310.552 694.11 310.552C694.846 310.552 695.481 310.728 696.014 311.08C696.548 311.421 696.958 311.896 697.246 312.504C697.534 313.112 697.678 313.805 697.678 314.584V315.192H691.742V315.576C691.742 316.291 691.956 316.888 692.382 317.368C692.82 317.837 693.422 318.072 694.19 318.072C694.713 318.072 695.166 317.949 695.55 317.704C695.945 317.459 696.249 317.107 696.462 316.648L697.374 317.304C697.108 317.859 696.692 318.312 696.126 318.664C695.561 319.016 694.889 319.192 694.11 319.192ZM694.11 311.624C693.652 311.624 693.241 311.731 692.878 311.944C692.526 312.157 692.249 312.456 692.046 312.84C691.844 313.213 691.742 313.64 691.742 314.12V314.232H696.302V314.056C696.302 313.565 696.212 313.139 696.03 312.776C695.849 312.413 695.593 312.131 695.262 311.928C694.932 311.725 694.548 311.624 694.11 311.624ZM702.22 319.192C701.057 319.192 700.15 318.803 699.5 318.024C698.86 317.245 698.54 316.195 698.54 314.872C698.54 313.549 698.86 312.499 699.5 311.72C700.15 310.941 701.057 310.552 702.22 310.552C703.041 310.552 703.702 310.733 704.204 311.096C704.705 311.459 705.073 311.923 705.308 312.488L704.236 313.032C704.086 312.605 703.836 312.275 703.484 312.04C703.142 311.805 702.721 311.688 702.22 311.688C701.462 311.688 700.886 311.923 700.492 312.392C700.108 312.851 699.916 313.443 699.916 314.168V315.576C699.916 316.291 700.108 316.883 700.492 317.352C700.886 317.821 701.462 318.056 702.22 318.056C702.742 318.056 703.19 317.933 703.564 317.688C703.937 317.443 704.236 317.085 704.46 316.616L705.388 317.24C705.121 317.827 704.721 318.301 704.188 318.664C703.665 319.016 703.009 319.192 702.22 319.192ZM711.642 319V317.656H711.578C711.418 318.051 711.162 318.408 710.81 318.728C710.469 319.037 709.952 319.192 709.258 319.192C708.416 319.192 707.738 318.92 707.226 318.376C706.725 317.821 706.474 317.043 706.474 316.04V310.744H707.754V315.816C707.754 316.552 707.914 317.107 708.234 317.48C708.554 317.853 709.024 318.04 709.642 318.04C709.984 318.04 710.304 317.987 710.602 317.88C710.912 317.763 711.162 317.587 711.354 317.352C711.546 317.117 711.642 316.819 711.642 316.456V310.744H712.922V319H711.642ZM718.112 319.192C717.365 319.192 716.715 319.016 716.16 318.664C715.605 318.301 715.173 317.8 714.864 317.16C714.555 316.509 714.4 315.747 714.4 314.872C714.4 313.997 714.555 313.24 714.864 312.6C715.173 311.949 715.605 311.448 716.16 311.096C716.715 310.733 717.365 310.552 718.112 310.552C718.848 310.552 719.483 310.728 720.016 311.08C720.549 311.421 720.96 311.896 721.248 312.504C721.536 313.112 721.68 313.805 721.68 314.584V315.192H715.744V315.576C715.744 316.291 715.957 316.888 716.384 317.368C716.821 317.837 717.424 318.072 718.192 318.072C718.715 318.072 719.168 317.949 719.552 317.704C719.947 317.459 720.251 317.107 720.464 316.648L721.376 317.304C721.109 317.859 720.693 318.312 720.128 318.664C719.563 319.016 718.891 319.192 718.112 319.192ZM718.112 311.624C717.653 311.624 717.243 311.731 716.88 311.944C716.528 312.157 716.251 312.456 716.048 312.84C715.845 313.213 715.744 313.64 715.744 314.12V314.232H720.304V314.056C720.304 313.565 720.213 313.139 720.032 312.776C719.851 312.413 719.595 312.131 719.264 311.928C718.933 311.725 718.549 311.624 718.112 311.624ZM724.429 319H723.149V310.744H724.429V312.264H724.509C724.605 311.997 724.755 311.752 724.957 311.528C725.16 311.293 725.421 311.107 725.741 310.968C726.061 310.819 726.445 310.744 726.893 310.744H727.389V312.024H726.637C726.179 312.024 725.784 312.088 725.453 312.216C725.123 312.333 724.867 312.493 724.685 312.696C724.515 312.899 724.429 313.133 724.429 313.4V319ZM733.571 319V317.656H733.507C733.261 318.168 732.936 318.552 732.531 318.808C732.136 319.064 731.656 319.192 731.091 319.192C730.408 319.192 729.811 319.016 729.299 318.664C728.797 318.312 728.408 317.811 728.131 317.16C727.864 316.509 727.731 315.747 727.731 314.872C727.731 313.987 727.864 313.224 728.131 312.584C728.408 311.933 728.797 311.432 729.299 311.08C729.811 310.728 730.408 310.552 731.091 310.552C731.656 310.552 732.147 310.68 732.563 310.936C732.979 311.181 733.293 311.565 733.507 312.088H733.571V307.16H734.851V319H733.571ZM731.443 318.04C731.837 318.04 732.195 317.976 732.515 317.848C732.835 317.709 733.091 317.517 733.283 317.272C733.475 317.016 733.571 316.712 733.571 316.36V313.288C733.571 312.979 733.475 312.707 733.283 312.472C733.091 312.237 732.835 312.051 732.515 311.912C732.195 311.773 731.837 311.704 731.443 311.704C730.728 311.704 730.157 311.933 729.731 312.392C729.315 312.84 729.107 313.432 729.107 314.168V315.576C729.107 316.312 729.315 316.909 729.731 317.368C730.157 317.816 730.728 318.04 731.443 318.04ZM740.052 319.192C739.316 319.192 738.665 319.016 738.1 318.664C737.545 318.301 737.108 317.8 736.788 317.16C736.479 316.509 736.324 315.747 736.324 314.872C736.324 313.997 736.479 313.24 736.788 312.6C737.108 311.949 737.545 311.448 738.1 311.096C738.665 310.733 739.316 310.552 740.052 310.552C740.788 310.552 741.433 310.733 741.988 311.096C742.553 311.448 742.991 311.949 743.3 312.6C743.62 313.24 743.78 313.997 743.78 314.872C743.78 315.747 743.62 316.509 743.3 317.16C742.991 317.8 742.553 318.301 741.988 318.664C741.433 319.016 740.788 319.192 740.052 319.192ZM740.052 318.056C740.745 318.056 741.311 317.843 741.748 317.416C742.185 316.989 742.404 316.339 742.404 315.464V314.28C742.404 313.405 742.185 312.755 741.748 312.328C741.311 311.901 740.745 311.688 740.052 311.688C739.369 311.688 738.804 311.901 738.356 312.328C737.919 312.755 737.7 313.405 737.7 314.28V315.464C737.7 316.339 737.919 316.989 738.356 317.416C738.804 317.843 739.369 318.056 740.052 318.056ZM747.725 319.192C746.968 319.192 746.328 319.048 745.805 318.76C745.282 318.461 744.834 318.067 744.461 317.576L745.373 316.84C745.693 317.235 746.05 317.544 746.445 317.768C746.84 317.992 747.298 318.104 747.821 318.104C748.365 318.104 748.786 317.987 749.085 317.752C749.394 317.517 749.549 317.187 749.549 316.76C749.549 316.44 749.442 316.163 749.229 315.928C749.026 315.693 748.653 315.539 748.109 315.464L747.453 315.368C746.952 315.293 746.498 315.171 746.093 315C745.688 314.819 745.368 314.568 745.133 314.248C744.909 313.917 744.797 313.496 744.797 312.984C744.797 312.163 745.074 311.555 745.629 311.16C746.194 310.755 746.898 310.552 747.741 310.552C748.189 310.552 748.584 310.605 748.925 310.712C749.277 310.819 749.592 310.973 749.869 311.176C750.146 311.368 750.397 311.603 750.621 311.88L749.773 312.648C749.592 312.392 749.325 312.163 748.973 311.96C748.621 311.747 748.178 311.64 747.645 311.64C747.122 311.64 746.722 311.757 746.445 311.992C746.168 312.216 746.029 312.525 746.029 312.92C746.029 313.315 746.162 313.608 746.429 313.8C746.706 313.981 747.101 314.115 747.613 314.2L748.253 314.296C749.17 314.435 749.821 314.701 750.205 315.096C750.589 315.48 750.781 315.987 750.781 316.616C750.781 317.149 750.658 317.608 750.413 317.992C750.168 318.376 749.816 318.675 749.357 318.888C748.898 319.091 748.354 319.192 747.725 319.192ZM753.14 319.192C752.809 319.192 752.564 319.107 752.404 318.936C752.244 318.755 752.164 318.531 752.164 318.264V318.056C752.164 317.779 752.244 317.555 752.404 317.384C752.564 317.213 752.809 317.128 753.14 317.128C753.481 317.128 753.726 317.213 753.876 317.384C754.036 317.555 754.116 317.779 754.116 318.056V318.264C754.116 318.531 754.036 318.755 753.876 318.936C753.726 319.107 753.481 319.192 753.14 319.192Z" fill="black"/>
</svg>
